<svg width="55" height="64" viewBox="0 0 55 64" fill="none" xmlns="http://www.w3.org/2000/svg">
<path d="M15.7094 0.168833C15.5769 0.32782 16.0008 1.25525 17.8292 4.62049L18.3857 5.6804L16.6368 6.81982C12.7151 9.36362 10.0388 13.7093 9.50884 18.3464L9.34985 19.8833H27.183H45.0161L44.8571 18.3464C44.4861 14.8752 42.8168 11.457 40.2465 8.93965C38.7891 7.50876 38.2061 7.0318 37.1197 6.36935C36.5367 6.02488 36.0333 5.7334 35.9803 5.7069C35.8743 5.62741 37.4377 2.71264 38.0471 1.8647C38.6566 1.01677 38.7361 0.00984383 38.2326 0.00984383C37.7291 0.00984383 37.2787 0.619297 36.0598 3.00411C35.1853 4.72648 34.9204 5.04445 34.4699 4.93846C34.1784 4.85897 33.2775 4.62049 32.4826 4.382C30.0182 3.66656 27.5009 3.45458 25.1956 3.77255C24.0297 3.93154 22.8373 4.06403 22.5458 4.09053C22.2544 4.09053 21.9629 4.17002 21.8834 4.24952C21.8039 4.32901 21.2739 4.54099 20.7175 4.75298C19.7105 5.09745 19.6576 5.09745 19.1276 4.382C18.5446 3.58707 17.6172 1.97069 17.0608 0.725288C16.7693 0.0628414 16.1068 -0.202139 15.7094 0.168833ZM20.1345 11.086C20.9295 11.9869 20.3995 13.2588 19.2601 13.2588C18.3592 13.2588 17.9087 12.8084 17.9087 11.9339C17.9087 10.6355 19.2601 10.1321 20.1345 11.086ZM36.3248 11.139C36.7222 11.5629 36.7752 11.8279 36.5632 12.4109C36.2188 13.4178 34.7084 13.5768 34.0194 12.6759C33.4365 11.9074 33.4365 11.8809 34.0724 11.192C34.7614 10.45 35.6888 10.45 36.3248 11.139Z" fill="#C4C4C4"/>
<path d="M2.40736 20.8371C0.102036 22.1355 -0.0834491 23.0894 0.0225427 33.0526C0.0755385 40.6311 0.128534 41.3465 0.631995 42.4859C1.7979 45.1092 5.26913 45.5597 7.30948 43.3338L7.97192 42.6184L8.05142 33.1056C8.13091 22.586 8.10441 22.3475 6.43504 21.1551C5.40162 20.4131 3.46727 20.2541 2.40736 20.8371Z" fill="#C4C4C4"/>
<path d="M48.3813 20.9169C47.8778 21.1819 47.2154 21.7119 46.9239 22.1093C46.4204 22.7983 46.3939 23.1958 46.3939 32.6025C46.3939 42.0888 46.4204 42.3803 46.9504 43.1222C48.1428 44.7121 50.3421 45.2155 52.091 44.2351C54.1048 43.0957 54.0783 43.1752 54.0783 32.5495C54.0783 23.3812 54.0518 23.0898 53.5219 22.3478C52.144 20.493 50.1831 19.9365 48.3813 20.9169Z" fill="#C4C4C4"/>
<path d="M16.6368 21.1287L9.40283 21.2082L9.48233 34.5367C9.56182 46.5667 9.61482 47.9181 10.0123 48.6866C10.8337 50.1439 11.8671 50.6739 14.2785 50.8064C15.4709 50.8859 16.5043 50.9919 16.5838 51.0714C16.6633 51.1509 16.7163 53.4032 16.7163 56.0795V60.9551L17.4847 61.909C18.7566 63.4989 20.585 64.0024 22.2278 63.1809C23.0493 62.757 24.2417 61.6175 24.2947 61.1671C24.3212 61.0611 24.3742 60.8226 24.4007 60.6901C24.4272 60.5311 24.4802 58.2788 24.5067 55.6555L24.5332 50.8859H27.024H29.5148L29.6208 55.7085C29.7003 60.0277 29.7797 60.6371 30.2567 61.4056C31.5551 63.4459 33.4895 64.0554 35.5298 63.0749C37.4906 62.121 37.7821 61.1671 37.7821 55.5495V50.9654L40.008 50.8064C42.5253 50.6209 43.0552 50.3824 44.0621 48.978L44.7511 47.9711L44.6981 34.6691C44.6716 27.3557 44.6186 21.3407 44.5921 21.3142C44.4331 21.2082 23.0758 21.0757 16.6368 21.1287Z" fill="#C4C4C4"/>
</svg>
