<svg width="313" height="352" viewBox="0 0 313 352" fill="none" xmlns="http://www.w3.org/2000/svg">
<circle cx="149.5" cy="78.5" r="78.5" fill="#FC4BFF"/>
<rect y="50" width="306" height="299.237" rx="25" fill="#FC4BFF"/>
<rect x="7" y="52.1528" width="306" height="299.237" rx="25" fill="white"/>
<circle cx="152.5" cy="81.5" r="78.5" fill="white"/>
<path d="M82.3211 145.032H73.9371L72.5931 149H66.8651L74.9931 126.536H81.3291L89.4571 149H83.6651L82.3211 145.032ZM80.9131 140.808L78.1291 132.584L75.3771 140.808H80.9131ZM98.3629 143.88L102.235 131.144H108.059L101.723 149H94.9709L88.6349 131.144H94.4909L98.3629 143.88ZM107.674 140.04C107.674 138.205 108.015 136.595 108.698 135.208C109.402 133.821 110.351 132.755 111.546 132.008C112.741 131.261 114.074 130.888 115.546 130.888C116.805 130.888 117.903 131.144 118.842 131.656C119.802 132.168 120.538 132.84 121.05 133.672V131.144H126.522V149H121.05V146.472C120.517 147.304 119.77 147.976 118.81 148.488C117.871 149 116.773 149.256 115.514 149.256C114.063 149.256 112.741 148.883 111.546 148.136C110.351 147.368 109.402 146.291 108.698 144.904C108.015 143.496 107.674 141.875 107.674 140.04ZM121.05 140.072C121.05 138.707 120.666 137.629 119.898 136.84C119.151 136.051 118.234 135.656 117.146 135.656C116.058 135.656 115.13 136.051 114.362 136.84C113.615 137.608 113.242 138.675 113.242 140.04C113.242 141.405 113.615 142.493 114.362 143.304C115.13 144.093 116.058 144.488 117.146 144.488C118.234 144.488 119.151 144.093 119.898 143.304C120.666 142.515 121.05 141.437 121.05 140.072ZM134.353 125.32V149H128.881V125.32H134.353ZM139.47 129.288C138.51 129.288 137.721 129.011 137.102 128.456C136.505 127.88 136.206 127.176 136.206 126.344C136.206 125.491 136.505 124.787 137.102 124.232C137.721 123.656 138.51 123.368 139.47 123.368C140.409 123.368 141.177 123.656 141.774 124.232C142.393 124.787 142.702 125.491 142.702 126.344C142.702 127.176 142.393 127.88 141.774 128.456C141.177 129.011 140.409 129.288 139.47 129.288ZM142.19 131.144V149H136.718V131.144H142.19ZM161.388 139.784C161.388 140.296 161.356 140.829 161.292 141.384H148.908C148.993 142.493 149.345 143.347 149.964 143.944C150.604 144.52 151.383 144.808 152.3 144.808C153.665 144.808 154.615 144.232 155.148 143.08H160.972C160.673 144.253 160.129 145.309 159.34 146.248C158.572 147.187 157.601 147.923 156.428 148.456C155.255 148.989 153.943 149.256 152.492 149.256C150.743 149.256 149.185 148.883 147.82 148.136C146.455 147.389 145.388 146.323 144.62 144.936C143.852 143.549 143.468 141.928 143.468 140.072C143.468 138.216 143.841 136.595 144.588 135.208C145.356 133.821 146.423 132.755 147.788 132.008C149.153 131.261 150.721 130.888 152.492 130.888C154.22 130.888 155.756 131.251 157.1 131.976C158.444 132.701 159.489 133.736 160.236 135.08C161.004 136.424 161.388 137.992 161.388 139.784ZM155.788 138.344C155.788 137.405 155.468 136.659 154.828 136.104C154.188 135.549 153.388 135.272 152.428 135.272C151.511 135.272 150.732 135.539 150.092 136.072C149.473 136.605 149.089 137.363 148.94 138.344H155.788ZM184.688 139.784C184.688 140.296 184.656 140.829 184.592 141.384H172.208C172.293 142.493 172.645 143.347 173.264 143.944C173.904 144.52 174.683 144.808 175.6 144.808C176.965 144.808 177.915 144.232 178.448 143.08H184.272C183.973 144.253 183.429 145.309 182.64 146.248C181.872 147.187 180.901 147.923 179.728 148.456C178.555 148.989 177.243 149.256 175.792 149.256C174.043 149.256 172.485 148.883 171.12 148.136C169.755 147.389 168.688 146.323 167.92 144.936C167.152 143.549 166.768 141.928 166.768 140.072C166.768 138.216 167.141 136.595 167.888 135.208C168.656 133.821 169.723 132.755 171.088 132.008C172.453 131.261 174.021 130.888 175.792 130.888C177.52 130.888 179.056 131.251 180.4 131.976C181.744 132.701 182.789 133.736 183.536 135.08C184.304 136.424 184.688 137.992 184.688 139.784ZM179.088 138.344C179.088 137.405 178.768 136.659 178.128 136.104C177.488 135.549 176.688 135.272 175.728 135.272C174.811 135.272 174.032 135.539 173.392 136.072C172.773 136.605 172.389 137.363 172.24 138.344H179.088ZM199.188 143.88L203.06 131.144H208.884L202.548 149H195.796L189.46 131.144H195.316L199.188 143.88ZM226.419 139.784C226.419 140.296 226.387 140.829 226.323 141.384H213.939C214.024 142.493 214.376 143.347 214.995 143.944C215.635 144.52 216.414 144.808 217.331 144.808C218.696 144.808 219.646 144.232 220.179 143.08H226.003C225.704 144.253 225.16 145.309 224.371 146.248C223.603 147.187 222.632 147.923 221.459 148.456C220.286 148.989 218.974 149.256 217.523 149.256C215.774 149.256 214.216 148.883 212.851 148.136C211.486 147.389 210.419 146.323 209.651 144.936C208.883 143.549 208.499 141.928 208.499 140.072C208.499 138.216 208.872 136.595 209.619 135.208C210.387 133.821 211.454 132.755 212.819 132.008C214.184 131.261 215.752 130.888 217.523 130.888C219.251 130.888 220.787 131.251 222.131 131.976C223.475 132.701 224.52 133.736 225.267 135.08C226.035 136.424 226.419 137.992 226.419 139.784ZM220.819 138.344C220.819 137.405 220.499 136.659 219.859 136.104C219.219 135.549 218.419 135.272 217.459 135.272C216.542 135.272 215.763 135.539 215.123 136.072C214.504 136.605 214.12 137.363 213.971 138.344H220.819ZM230.426 129.288C229.466 129.288 228.677 129.011 228.058 128.456C227.461 127.88 227.162 127.176 227.162 126.344C227.162 125.491 227.461 124.787 228.058 124.232C228.677 123.656 229.466 123.368 230.426 123.368C231.365 123.368 232.133 123.656 232.73 124.232C233.349 124.787 233.658 125.491 233.658 126.344C233.658 127.176 233.349 127.88 232.73 128.456C232.133 129.011 231.365 129.288 230.426 129.288ZM233.178 151.304C233.178 153.501 232.623 155.08 231.514 156.04C230.405 157.021 228.858 157.512 226.874 157.512H224.73V152.872H226.042C226.639 152.872 227.066 152.755 227.322 152.52C227.578 152.285 227.706 151.901 227.706 151.368V131.144H233.178V151.304ZM234.424 140.04C234.424 138.205 234.765 136.595 235.448 135.208C236.152 133.821 237.101 132.755 238.296 132.008C239.491 131.261 240.824 130.888 242.296 130.888C243.555 130.888 244.653 131.144 245.592 131.656C246.552 132.168 247.288 132.84 247.8 133.672V131.144H253.272V149H247.8V146.472C247.267 147.304 246.52 147.976 245.56 148.488C244.621 149 243.523 149.256 242.264 149.256C240.813 149.256 239.491 148.883 238.296 148.136C237.101 147.368 236.152 146.291 235.448 144.904C234.765 143.496 234.424 141.875 234.424 140.04ZM247.8 140.072C247.8 138.707 247.416 137.629 246.648 136.84C245.901 136.051 244.984 135.656 243.896 135.656C242.808 135.656 241.88 136.051 241.112 136.84C240.365 137.608 239.992 138.675 239.992 140.04C239.992 141.405 240.365 142.493 241.112 143.304C241.88 144.093 242.808 144.488 243.896 144.488C244.984 144.488 245.901 144.093 246.648 143.304C247.416 142.515 247.8 141.437 247.8 140.072ZM37.6148 175.04C37.6148 173.205 37.9561 171.595 38.6388 170.208C39.3428 168.821 40.2921 167.755 41.4868 167.008C42.6814 166.261 44.0148 165.888 45.4868 165.888C46.7454 165.888 47.8441 166.144 48.7828 166.656C49.7428 167.168 50.4788 167.84 50.9908 168.672V166.144H56.4628V184H50.9908V181.472C50.4574 182.304 49.7108 182.976 48.7508 183.488C47.8121 184 46.7134 184.256 45.4548 184.256C44.0041 184.256 42.6814 183.883 41.4868 183.136C40.2921 182.368 39.3428 181.291 38.6388 179.904C37.9561 178.496 37.6148 176.875 37.6148 175.04ZM50.9908 175.072C50.9908 173.707 50.6068 172.629 49.8388 171.84C49.0921 171.051 48.1748 170.656 47.0868 170.656C45.9988 170.656 45.0708 171.051 44.3028 171.84C43.5561 172.608 43.1828 173.675 43.1828 175.04C43.1828 176.405 43.5561 177.493 44.3028 178.304C45.0708 179.093 45.9988 179.488 47.0868 179.488C48.1748 179.488 49.0921 179.093 49.8388 178.304C50.6068 177.515 50.9908 176.437 50.9908 175.072ZM66.8535 178.88L70.7255 166.144H76.5495L70.2135 184H63.4615L57.1255 166.144H62.9815L66.8535 178.88ZM76.1648 175.04C76.1648 173.205 76.5061 171.595 77.1888 170.208C77.8928 168.821 78.8421 167.755 80.0368 167.008C81.2314 166.261 82.5648 165.888 84.0368 165.888C85.2954 165.888 86.3941 166.144 87.3328 166.656C88.2928 167.168 89.0288 167.84 89.5408 168.672V166.144H95.0128V184H89.5408V181.472C89.0074 182.304 88.2608 182.976 87.3008 183.488C86.3621 184 85.2634 184.256 84.0048 184.256C82.5541 184.256 81.2314 183.883 80.0368 183.136C78.8421 182.368 77.8928 181.291 77.1888 179.904C76.5061 178.496 76.1648 176.875 76.1648 175.04ZM89.5408 175.072C89.5408 173.707 89.1568 172.629 88.3888 171.84C87.6421 171.051 86.7248 170.656 85.6368 170.656C84.5488 170.656 83.6208 171.051 82.8528 171.84C82.1061 172.608 81.7328 173.675 81.7328 175.04C81.7328 176.405 82.1061 177.493 82.8528 178.304C83.6208 179.093 84.5488 179.488 85.6368 179.488C86.7248 179.488 87.6421 179.093 88.3888 178.304C89.1568 177.515 89.5408 176.437 89.5408 175.072ZM102.843 160.32V184H97.3715V160.32H102.843ZM107.961 164.288C107.001 164.288 106.212 164.011 105.593 163.456C104.996 162.88 104.697 162.176 104.697 161.344C104.697 160.491 104.996 159.787 105.593 159.232C106.212 158.656 107.001 158.368 107.961 158.368C108.9 158.368 109.668 158.656 110.265 159.232C110.884 159.787 111.193 160.491 111.193 161.344C111.193 162.176 110.884 162.88 110.265 163.456C109.668 164.011 108.9 164.288 107.961 164.288ZM110.681 166.144V184H105.209V166.144H110.681ZM111.959 175.04C111.959 173.205 112.3 171.595 112.983 170.208C113.687 168.821 114.636 167.755 115.831 167.008C117.025 166.261 118.359 165.888 119.831 165.888C121.089 165.888 122.188 166.144 123.127 166.656C124.087 167.168 124.823 167.84 125.335 168.672V166.144H130.807V184H125.335V181.472C124.801 182.304 124.055 182.976 123.095 183.488C122.156 184 121.057 184.256 119.799 184.256C118.348 184.256 117.025 183.883 115.831 183.136C114.636 182.368 113.687 181.291 112.983 179.904C112.3 178.496 111.959 176.875 111.959 175.04ZM125.335 175.072C125.335 173.707 124.951 172.629 124.183 171.84C123.436 171.051 122.519 170.656 121.431 170.656C120.343 170.656 119.415 171.051 118.647 171.84C117.9 172.608 117.527 173.675 117.527 175.04C117.527 176.405 117.9 177.493 118.647 178.304C119.415 179.093 120.343 179.488 121.431 179.488C122.519 179.488 123.436 179.093 124.183 178.304C124.951 177.515 125.335 176.437 125.335 175.072ZM140.941 179.584C142.349 179.584 143.299 178.901 143.789 177.536H149.613C149.208 179.349 148.397 180.832 147.181 181.984C145.965 183.136 144.451 183.851 142.637 184.128V185.312C143.747 185.312 144.717 185.611 145.549 186.208C146.381 186.827 146.797 187.744 146.797 188.96C146.797 190.176 146.36 191.093 145.485 191.712C144.611 192.352 143.565 192.672 142.349 192.672H137.421V189.664H141.613C142.04 189.664 142.36 189.6 142.573 189.472C142.787 189.344 142.893 189.131 142.893 188.832C142.893 188.533 142.787 188.32 142.573 188.192C142.36 188.085 142.04 188.032 141.613 188.032H139.341V184.128C137.144 183.787 135.384 182.816 134.061 181.216C132.739 179.595 132.077 177.547 132.077 175.072C132.077 173.216 132.451 171.595 133.197 170.208C133.965 168.821 135.021 167.755 136.365 167.008C137.731 166.261 139.288 165.888 141.037 165.888C143.277 165.888 145.144 166.475 146.637 167.648C148.152 168.821 149.144 170.475 149.613 172.608H143.789C143.299 171.243 142.349 170.56 140.941 170.56C139.939 170.56 139.139 170.955 138.541 171.744C137.944 172.512 137.645 173.621 137.645 175.072C137.645 176.523 137.944 177.643 138.541 178.432C139.139 179.2 139.939 179.584 140.941 179.584ZM159.068 184.256C157.319 184.256 155.74 183.883 154.332 183.136C152.946 182.389 151.847 181.323 151.036 179.936C150.247 178.549 149.852 176.928 149.852 175.072C149.852 173.237 150.258 171.627 151.068 170.24C151.879 168.832 152.988 167.755 154.396 167.008C155.804 166.261 157.383 165.888 159.132 165.888C160.882 165.888 162.46 166.261 163.868 167.008C165.276 167.755 166.386 168.832 167.196 170.24C168.007 171.627 168.412 173.237 168.412 175.072C168.412 176.907 167.996 178.528 167.164 179.936C166.354 181.323 165.234 182.389 163.804 183.136C162.396 183.883 160.818 184.256 159.068 184.256ZM159.068 179.52C160.114 179.52 160.999 179.136 161.724 178.368C162.471 177.6 162.844 176.501 162.844 175.072C162.844 173.643 162.482 172.544 161.756 171.776C161.052 171.008 160.178 170.624 159.132 170.624C158.066 170.624 157.18 171.008 156.476 171.776C155.772 172.523 155.42 173.621 155.42 175.072C155.42 176.501 155.762 177.6 156.444 178.368C157.148 179.136 158.023 179.52 159.068 179.52ZM153.148 164.512C153.66 161.355 155.132 159.776 157.564 159.776C158.034 159.776 158.439 159.851 158.78 160C159.143 160.128 159.58 160.331 160.092 160.608C160.476 160.821 160.786 160.981 161.02 161.088C161.255 161.173 161.5 161.216 161.756 161.216C162.546 161.216 163.004 160.736 163.132 159.776H165.948C165.436 162.933 163.964 164.512 161.532 164.512C161.063 164.512 160.647 164.448 160.284 164.32C159.943 164.171 159.516 163.957 159.004 163.68C158.62 163.467 158.311 163.317 158.076 163.232C157.842 163.125 157.596 163.072 157.34 163.072C156.551 163.072 156.082 163.552 155.932 164.512H153.148ZM186.547 174.784C186.547 175.296 186.515 175.829 186.451 176.384H174.067C174.153 177.493 174.505 178.347 175.123 178.944C175.763 179.52 176.542 179.808 177.459 179.808C178.825 179.808 179.774 179.232 180.307 178.08H186.131C185.833 179.253 185.289 180.309 184.499 181.248C183.731 182.187 182.761 182.923 181.587 183.456C180.414 183.989 179.102 184.256 177.651 184.256C175.902 184.256 174.345 183.883 172.979 183.136C171.614 182.389 170.547 181.323 169.779 179.936C169.011 178.549 168.627 176.928 168.627 175.072C168.627 173.216 169.001 171.595 169.747 170.208C170.515 168.821 171.582 167.755 172.947 167.008C174.313 166.261 175.881 165.888 177.651 165.888C179.379 165.888 180.915 166.251 182.259 166.976C183.603 167.701 184.649 168.736 185.395 170.08C186.163 171.424 186.547 172.992 186.547 174.784ZM180.947 173.344C180.947 172.405 180.627 171.659 179.987 171.104C179.347 170.549 178.547 170.272 177.587 170.272C176.67 170.272 175.891 170.539 175.251 171.072C174.633 171.605 174.249 172.363 174.099 173.344H180.947ZM195.098 184.256C193.541 184.256 192.154 183.989 190.938 183.456C189.722 182.923 188.762 182.197 188.058 181.28C187.354 180.341 186.959 179.296 186.874 178.144H192.282C192.346 178.763 192.634 179.264 193.146 179.648C193.658 180.032 194.287 180.224 195.034 180.224C195.717 180.224 196.239 180.096 196.602 179.84C196.986 179.563 197.178 179.211 197.178 178.784C197.178 178.272 196.911 177.899 196.378 177.664C195.845 177.408 194.981 177.131 193.786 176.832C192.506 176.533 191.439 176.224 190.586 175.904C189.733 175.563 188.997 175.04 188.378 174.336C187.759 173.611 187.45 172.64 187.45 171.424C187.45 170.4 187.727 169.472 188.282 168.64C188.858 167.787 189.69 167.115 190.778 166.624C191.887 166.133 193.199 165.888 194.714 165.888C196.954 165.888 198.714 166.443 199.994 167.552C201.295 168.661 202.042 170.133 202.234 171.968H197.178C197.093 171.349 196.815 170.859 196.346 170.496C195.898 170.133 195.301 169.952 194.554 169.952C193.914 169.952 193.423 170.08 193.082 170.336C192.741 170.571 192.57 170.901 192.57 171.328C192.57 171.84 192.837 172.224 193.37 172.48C193.925 172.736 194.778 172.992 195.93 173.248C197.253 173.589 198.33 173.931 199.162 174.272C199.994 174.592 200.719 175.125 201.338 175.872C201.978 176.597 202.309 177.579 202.33 178.816C202.33 179.861 202.031 180.8 201.434 181.632C200.858 182.443 200.015 183.083 198.906 183.552C197.818 184.021 196.549 184.256 195.098 184.256ZM214.731 169.12C215.371 168.139 216.171 167.371 217.131 166.816C218.091 166.24 219.158 165.952 220.331 165.952V171.744H218.827C217.462 171.744 216.438 172.043 215.755 172.64C215.072 173.216 214.731 174.24 214.731 175.712V184H209.259V166.144H214.731V169.12ZM238.179 174.784C238.179 175.296 238.147 175.829 238.083 176.384H225.699C225.784 177.493 226.136 178.347 226.755 178.944C227.395 179.52 228.173 179.808 229.091 179.808C230.456 179.808 231.405 179.232 231.939 178.08H237.763C237.464 179.253 236.92 180.309 236.131 181.248C235.363 182.187 234.392 182.923 233.219 183.456C232.045 183.989 230.733 184.256 229.283 184.256C227.533 184.256 225.976 183.883 224.611 183.136C223.245 182.389 222.179 181.323 221.411 179.936C220.643 178.549 220.259 176.928 220.259 175.072C220.259 173.216 220.632 171.595 221.379 170.208C222.147 168.821 223.213 167.755 224.579 167.008C225.944 166.261 227.512 165.888 229.283 165.888C231.011 165.888 232.547 166.251 233.891 166.976C235.235 167.701 236.28 168.736 237.027 170.08C237.795 171.424 238.179 172.992 238.179 174.784ZM232.579 173.344C232.579 172.405 232.259 171.659 231.619 171.104C230.979 170.549 230.179 170.272 229.219 170.272C228.301 170.272 227.523 170.539 226.883 171.072C226.264 171.605 225.88 172.363 225.731 173.344H232.579ZM238.377 175.04C238.377 173.205 238.719 171.595 239.401 170.208C240.105 168.821 241.055 167.755 242.249 167.008C243.444 166.261 244.777 165.888 246.249 165.888C247.508 165.888 248.607 166.144 249.545 166.656C250.505 167.168 251.241 167.84 251.753 168.672V166.144H257.225V184H251.753V181.472C251.22 182.304 250.473 182.976 249.513 183.488C248.575 184 247.476 184.256 246.217 184.256C244.767 184.256 243.444 183.883 242.249 183.136C241.055 182.368 240.105 181.291 239.401 179.904C238.719 178.496 238.377 176.875 238.377 175.04ZM251.753 175.072C251.753 173.707 251.369 172.629 250.601 171.84C249.855 171.051 248.937 170.656 247.849 170.656C246.761 170.656 245.833 171.051 245.065 171.84C244.319 172.608 243.945 173.675 243.945 175.04C243.945 176.405 244.319 177.493 245.065 178.304C245.833 179.093 246.761 179.488 247.849 179.488C248.937 179.488 249.855 179.093 250.601 178.304C251.369 177.515 251.753 176.437 251.753 175.072ZM262.336 164.288C261.376 164.288 260.587 164.011 259.968 163.456C259.371 162.88 259.072 162.176 259.072 161.344C259.072 160.491 259.371 159.787 259.968 159.232C260.587 158.656 261.376 158.368 262.336 158.368C263.275 158.368 264.043 158.656 264.64 159.232C265.259 159.787 265.568 160.491 265.568 161.344C265.568 162.176 265.259 162.88 264.64 163.456C264.043 164.011 263.275 164.288 262.336 164.288ZM265.056 166.144V184H259.584V166.144H265.056ZM274.686 184.256C273.128 184.256 271.742 183.989 270.526 183.456C269.31 182.923 268.35 182.197 267.646 181.28C266.942 180.341 266.547 179.296 266.462 178.144H271.87C271.934 178.763 272.222 179.264 272.734 179.648C273.246 180.032 273.875 180.224 274.622 180.224C275.304 180.224 275.827 180.096 276.19 179.84C276.574 179.563 276.766 179.211 276.766 178.784C276.766 178.272 276.499 177.899 275.966 177.664C275.432 177.408 274.568 177.131 273.374 176.832C272.094 176.533 271.027 176.224 270.174 175.904C269.32 175.563 268.584 175.04 267.966 174.336C267.347 173.611 267.038 172.64 267.038 171.424C267.038 170.4 267.315 169.472 267.87 168.64C268.446 167.787 269.278 167.115 270.366 166.624C271.475 166.133 272.787 165.888 274.302 165.888C276.542 165.888 278.302 166.443 279.582 167.552C280.883 168.661 281.63 170.133 281.822 171.968H276.766C276.68 171.349 276.403 170.859 275.934 170.496C275.486 170.133 274.888 169.952 274.142 169.952C273.502 169.952 273.011 170.08 272.67 170.336C272.328 170.571 272.158 170.901 272.158 171.328C272.158 171.84 272.424 172.224 272.958 172.48C273.512 172.736 274.366 172.992 275.518 173.248C276.84 173.589 277.918 173.931 278.75 174.272C279.582 174.592 280.307 175.125 280.926 175.872C281.566 176.597 281.896 177.579 281.918 178.816C281.918 179.861 281.619 180.8 281.022 181.632C280.446 182.443 279.603 183.083 278.494 183.552C277.406 184.021 276.136 184.256 274.686 184.256Z" fill="#472969"/>
<path d="M31.1608 221.02C31.1608 219.66 31.4674 218.44 32.0808 217.36C32.6941 216.267 33.5274 215.413 34.5808 214.8C35.6474 214.187 36.8274 213.88 38.1208 213.88C39.6408 213.88 40.9674 214.247 42.1008 214.98C43.2341 215.713 44.0608 216.753 44.5808 218.1H42.4008C42.0141 217.26 41.4541 216.613 40.7208 216.16C40.0008 215.707 39.1341 215.48 38.1208 215.48C37.1474 215.48 36.2741 215.707 35.5008 216.16C34.7274 216.613 34.1208 217.26 33.6808 218.1C33.2408 218.927 33.0208 219.9 33.0208 221.02C33.0208 222.127 33.2408 223.1 33.6808 223.94C34.1208 224.767 34.7274 225.407 35.5008 225.86C36.2741 226.313 37.1474 226.54 38.1208 226.54C39.1341 226.54 40.0008 226.32 40.7208 225.88C41.4541 225.427 42.0141 224.78 42.4008 223.94H44.5808C44.0608 225.273 43.2341 226.307 42.1008 227.04C40.9674 227.76 39.6408 228.12 38.1208 228.12C36.8274 228.12 35.6474 227.82 34.5808 227.22C33.5274 226.607 32.6941 225.76 32.0808 224.68C31.4674 223.6 31.1608 222.38 31.1608 221.02ZM51.07 228.18C50.0433 228.18 49.11 227.947 48.27 227.48C47.4433 227.013 46.79 226.353 46.31 225.5C45.8433 224.633 45.61 223.633 45.61 222.5C45.61 221.38 45.85 220.393 46.33 219.54C46.8233 218.673 47.49 218.013 48.33 217.56C49.17 217.093 50.11 216.86 51.15 216.86C52.19 216.86 53.13 217.093 53.97 217.56C54.81 218.013 55.47 218.667 55.95 219.52C56.4433 220.373 56.69 221.367 56.69 222.5C56.69 223.633 56.4367 224.633 55.93 225.5C55.4367 226.353 54.7633 227.013 53.91 227.48C53.0567 227.947 52.11 228.18 51.07 228.18ZM51.07 226.58C51.7233 226.58 52.3367 226.427 52.91 226.12C53.4833 225.813 53.9433 225.353 54.29 224.74C54.65 224.127 54.83 223.38 54.83 222.5C54.83 221.62 54.6567 220.873 54.31 220.26C53.9633 219.647 53.51 219.193 52.95 218.9C52.39 218.593 51.7833 218.44 51.13 218.44C50.4633 218.44 49.85 218.593 49.29 218.9C48.7433 219.193 48.3033 219.647 47.97 220.26C47.6367 220.873 47.47 221.62 47.47 222.5C47.47 223.393 47.63 224.147 47.95 224.76C48.2833 225.373 48.7233 225.833 49.27 226.14C49.8167 226.433 50.4167 226.58 51.07 226.58ZM63.423 216.84C64.7563 216.84 65.8363 217.247 66.663 218.06C67.4896 218.86 67.903 220.02 67.903 221.54V228H66.103V221.8C66.103 220.707 65.8296 219.873 65.283 219.3C64.7363 218.713 63.9896 218.42 63.043 218.42C62.083 218.42 61.3163 218.72 60.743 219.32C60.183 219.92 59.903 220.793 59.903 221.94V228H58.083V217.04H59.903V218.6C60.263 218.04 60.7496 217.607 61.363 217.3C61.9896 216.993 62.6763 216.84 63.423 216.84ZM74.3359 218.54H72.0359V228H70.2159V218.54H68.7959V217.04H70.2159V216.26C70.2159 215.033 70.5293 214.14 71.1559 213.58C71.7959 213.007 72.8159 212.72 74.2159 212.72V214.24C73.4159 214.24 72.8493 214.4 72.5159 214.72C72.1959 215.027 72.0359 215.54 72.0359 216.26V217.04H74.3359V218.54ZM76.398 215.26C76.0513 215.26 75.758 215.14 75.518 214.9C75.278 214.66 75.158 214.367 75.158 214.02C75.158 213.673 75.278 213.38 75.518 213.14C75.758 212.9 76.0513 212.78 76.398 212.78C76.7313 212.78 77.0113 212.9 77.238 213.14C77.478 213.38 77.598 213.673 77.598 214.02C77.598 214.367 77.478 214.66 77.238 214.9C77.0113 215.14 76.7313 215.26 76.398 215.26ZM77.278 217.04V228H75.458V217.04H77.278ZM81.1998 218.82C81.5198 218.193 81.9732 217.707 82.5598 217.36C83.1598 217.013 83.8865 216.84 84.7398 216.84V218.72H84.2598C82.2198 218.72 81.1998 219.827 81.1998 222.04V228H79.3798V217.04H81.1998V218.82ZM85.1608 222.48C85.1608 221.36 85.3874 220.38 85.8408 219.54C86.2941 218.687 86.9141 218.027 87.7008 217.56C88.5008 217.093 89.3874 216.86 90.3608 216.86C91.3208 216.86 92.1541 217.067 92.8608 217.48C93.5674 217.893 94.0941 218.413 94.4408 219.04V217.04H96.2808V228H94.4408V225.96C94.0808 226.6 93.5408 227.133 92.8208 227.56C92.1141 227.973 91.2874 228.18 90.3408 228.18C89.3674 228.18 88.4874 227.94 87.7008 227.46C86.9141 226.98 86.2941 226.307 85.8408 225.44C85.3874 224.573 85.1608 223.587 85.1608 222.48ZM94.4408 222.5C94.4408 221.673 94.2741 220.953 93.9408 220.34C93.6074 219.727 93.1541 219.26 92.5808 218.94C92.0208 218.607 91.4008 218.44 90.7208 218.44C90.0408 218.44 89.4208 218.6 88.8608 218.92C88.3008 219.24 87.8541 219.707 87.5208 220.32C87.1874 220.933 87.0208 221.653 87.0208 222.48C87.0208 223.32 87.1874 224.053 87.5208 224.68C87.8541 225.293 88.3008 225.767 88.8608 226.1C89.4208 226.42 90.0408 226.58 90.7208 226.58C91.4008 226.58 92.0208 226.42 92.5808 226.1C93.1541 225.767 93.6074 225.293 93.9408 224.68C94.2741 224.053 94.4408 223.327 94.4408 222.5ZM102.008 222.48C102.008 221.36 102.235 220.38 102.688 219.54C103.142 218.687 103.762 218.027 104.548 217.56C105.348 217.093 106.235 216.86 107.208 216.86C108.168 216.86 109.002 217.067 109.708 217.48C110.415 217.893 110.942 218.413 111.288 219.04V217.04H113.128V228H111.288V225.96C110.928 226.6 110.388 227.133 109.668 227.56C108.962 227.973 108.135 228.18 107.188 228.18C106.215 228.18 105.335 227.94 104.548 227.46C103.762 226.98 103.142 226.307 102.688 225.44C102.235 224.573 102.008 223.587 102.008 222.48ZM111.288 222.5C111.288 221.673 111.122 220.953 110.788 220.34C110.455 219.727 110.002 219.26 109.428 218.94C108.868 218.607 108.248 218.44 107.568 218.44C106.888 218.44 106.268 218.6 105.708 218.92C105.148 219.24 104.702 219.707 104.368 220.32C104.035 220.933 103.868 221.653 103.868 222.48C103.868 223.32 104.035 224.053 104.368 224.68C104.702 225.293 105.148 225.767 105.708 226.1C106.268 226.42 106.888 226.58 107.568 226.58C108.248 226.58 108.868 226.42 109.428 226.1C110.002 225.767 110.455 225.293 110.788 224.68C111.122 224.053 111.288 223.327 111.288 222.5ZM119.284 226.32L122.684 217.04H124.624L120.324 228H118.204L113.904 217.04H115.864L119.284 226.32ZM124.735 222.48C124.735 221.36 124.962 220.38 125.415 219.54C125.868 218.687 126.488 218.027 127.275 217.56C128.075 217.093 128.962 216.86 129.935 216.86C130.895 216.86 131.728 217.067 132.435 217.48C133.142 217.893 133.668 218.413 134.015 219.04V217.04H135.855V228H134.015V225.96C133.655 226.6 133.115 227.133 132.395 227.56C131.688 227.973 130.862 228.18 129.915 228.18C128.942 228.18 128.062 227.94 127.275 227.46C126.488 226.98 125.868 226.307 125.415 225.44C124.962 224.573 124.735 223.587 124.735 222.48ZM134.015 222.5C134.015 221.673 133.848 220.953 133.515 220.34C133.182 219.727 132.728 219.26 132.155 218.94C131.595 218.607 130.975 218.44 130.295 218.44C129.615 218.44 128.995 218.6 128.435 218.92C127.875 219.24 127.428 219.707 127.095 220.32C126.762 220.933 126.595 221.653 126.595 222.48C126.595 223.32 126.762 224.053 127.095 224.68C127.428 225.293 127.875 225.767 128.435 226.1C128.995 226.42 129.615 226.58 130.295 226.58C130.975 226.58 131.595 226.42 132.155 226.1C132.728 225.767 133.182 225.293 133.515 224.68C133.848 224.053 134.015 223.327 134.015 222.5ZM139.751 213.2V228H137.931V213.2H139.751ZM142.793 215.26C142.446 215.26 142.153 215.14 141.913 214.9C141.673 214.66 141.553 214.367 141.553 214.02C141.553 213.673 141.673 213.38 141.913 213.14C142.153 212.9 142.446 212.78 142.793 212.78C143.126 212.78 143.406 212.9 143.633 213.14C143.873 213.38 143.993 213.673 143.993 214.02C143.993 214.367 143.873 214.66 143.633 214.9C143.406 215.14 143.126 215.26 142.793 215.26ZM143.673 217.04V228H141.853V217.04H143.673ZM145.094 222.48C145.094 221.36 145.321 220.38 145.774 219.54C146.228 218.687 146.848 218.027 147.634 217.56C148.434 217.093 149.321 216.86 150.294 216.86C151.254 216.86 152.088 217.067 152.794 217.48C153.501 217.893 154.028 218.413 154.374 219.04V217.04H156.214V228H154.374V225.96C154.014 226.6 153.474 227.133 152.754 227.56C152.048 227.973 151.221 228.18 150.274 228.18C149.301 228.18 148.421 227.94 147.634 227.46C146.848 226.98 146.228 226.307 145.774 225.44C145.321 224.573 145.094 223.587 145.094 222.48ZM154.374 222.5C154.374 221.673 154.208 220.953 153.874 220.34C153.541 219.727 153.088 219.26 152.514 218.94C151.954 218.607 151.334 218.44 150.654 218.44C149.974 218.44 149.354 218.6 148.794 218.92C148.234 219.24 147.788 219.707 147.454 220.32C147.121 220.933 146.954 221.653 146.954 222.48C146.954 223.32 147.121 224.053 147.454 224.68C147.788 225.293 148.234 225.767 148.794 226.1C149.354 226.42 149.974 226.58 150.654 226.58C151.334 226.58 151.954 226.42 152.514 226.1C153.088 225.767 153.541 225.293 153.874 224.68C154.208 224.053 154.374 223.327 154.374 222.5ZM162.95 226.64C163.75 226.64 164.417 226.453 164.95 226.08C165.483 225.707 165.85 225.173 166.05 224.48H168.01C167.743 225.52 167.217 226.373 166.43 227.04C165.657 227.693 164.683 228.067 163.51 228.16V229.16C164.297 229.147 164.923 229.313 165.39 229.66C165.857 230.007 166.09 230.5 166.09 231.14C166.09 231.767 165.863 232.267 165.41 232.64C164.957 233.013 164.37 233.2 163.65 233.2H161.35V232.02H163.29C163.73 232.02 164.05 231.953 164.25 231.82C164.463 231.687 164.57 231.46 164.57 231.14C164.57 230.833 164.463 230.613 164.25 230.48C164.05 230.347 163.73 230.28 163.29 230.28H162.29V228.14C161.37 228.047 160.557 227.76 159.85 227.28C159.143 226.787 158.59 226.133 158.19 225.32C157.803 224.493 157.61 223.553 157.61 222.5C157.61 221.367 157.837 220.38 158.29 219.54C158.743 218.687 159.37 218.027 160.17 217.56C160.983 217.093 161.91 216.86 162.95 216.86C164.297 216.86 165.403 217.187 166.27 217.84C167.15 218.493 167.73 219.4 168.01 220.56H166.05C165.863 219.893 165.497 219.367 164.95 218.98C164.417 218.593 163.75 218.4 162.95 218.4C161.91 218.4 161.07 218.76 160.43 219.48C159.79 220.187 159.47 221.193 159.47 222.5C159.47 223.82 159.79 224.84 160.43 225.56C161.07 226.28 161.91 226.64 162.95 226.64ZM174.218 228.18C173.192 228.18 172.258 227.947 171.418 227.48C170.592 227.013 169.938 226.353 169.458 225.5C168.992 224.633 168.758 223.633 168.758 222.5C168.758 221.38 168.998 220.393 169.478 219.54C169.972 218.673 170.638 218.013 171.478 217.56C172.318 217.093 173.258 216.86 174.298 216.86C175.338 216.86 176.278 217.093 177.118 217.56C177.958 218.013 178.618 218.667 179.098 219.52C179.592 220.373 179.838 221.367 179.838 222.5C179.838 223.633 179.585 224.633 179.078 225.5C178.585 226.353 177.912 227.013 177.058 227.48C176.205 227.947 175.258 228.18 174.218 228.18ZM174.218 226.58C174.872 226.58 175.485 226.427 176.058 226.12C176.632 225.813 177.092 225.353 177.438 224.74C177.798 224.127 177.978 223.38 177.978 222.5C177.978 221.62 177.805 220.873 177.458 220.26C177.112 219.647 176.658 219.193 176.098 218.9C175.538 218.593 174.932 218.44 174.278 218.44C173.612 218.44 172.998 218.593 172.438 218.9C171.892 219.193 171.452 219.647 171.118 220.26C170.785 220.873 170.618 221.62 170.618 222.5C170.618 223.393 170.778 224.147 171.098 224.76C171.432 225.373 171.872 225.833 172.418 226.14C172.965 226.433 173.565 226.58 174.218 226.58ZM171.378 215.72C171.472 215.04 171.692 214.52 172.038 214.16C172.398 213.8 172.845 213.62 173.378 213.62C173.632 213.62 173.845 213.667 174.018 213.76C174.205 213.84 174.425 213.96 174.678 214.12C174.865 214.253 175.032 214.36 175.178 214.44C175.325 214.507 175.485 214.54 175.658 214.54C175.885 214.54 176.078 214.467 176.238 214.32C176.398 214.173 176.498 213.96 176.538 213.68H177.578C177.498 214.347 177.278 214.86 176.918 215.22C176.558 215.58 176.112 215.76 175.578 215.76C175.325 215.76 175.098 215.72 174.898 215.64C174.712 215.547 174.498 215.413 174.258 215.24C174.045 215.107 173.872 215.007 173.738 214.94C173.618 214.873 173.472 214.84 173.298 214.84C173.072 214.84 172.878 214.913 172.718 215.06C172.572 215.207 172.478 215.427 172.438 215.72H171.378ZM191.231 222.1C191.231 222.447 191.211 222.813 191.171 223.2H182.411C182.478 224.28 182.845 225.127 183.511 225.74C184.191 226.34 185.011 226.64 185.971 226.64C186.758 226.64 187.411 226.46 187.931 226.1C188.465 225.727 188.838 225.233 189.051 224.62H191.011C190.718 225.673 190.131 226.533 189.251 227.2C188.371 227.853 187.278 228.18 185.971 228.18C184.931 228.18 183.998 227.947 183.171 227.48C182.358 227.013 181.718 226.353 181.251 225.5C180.785 224.633 180.551 223.633 180.551 222.5C180.551 221.367 180.778 220.373 181.231 219.52C181.685 218.667 182.318 218.013 183.131 217.56C183.958 217.093 184.905 216.86 185.971 216.86C187.011 216.86 187.931 217.087 188.731 217.54C189.531 217.993 190.145 218.62 190.571 219.42C191.011 220.207 191.231 221.1 191.231 222.1ZM189.351 221.72C189.351 221.027 189.198 220.433 188.891 219.94C188.585 219.433 188.165 219.053 187.631 218.8C187.111 218.533 186.531 218.4 185.891 218.4C184.971 218.4 184.185 218.693 183.531 219.28C182.891 219.867 182.525 220.68 182.431 221.72H189.351ZM196.514 228.18C195.674 228.18 194.92 228.04 194.254 227.76C193.587 227.467 193.06 227.067 192.674 226.56C192.287 226.04 192.074 225.447 192.034 224.78H193.914C193.967 225.327 194.22 225.773 194.674 226.12C195.14 226.467 195.747 226.64 196.494 226.64C197.187 226.64 197.734 226.487 198.134 226.18C198.534 225.873 198.734 225.487 198.734 225.02C198.734 224.54 198.52 224.187 198.094 223.96C197.667 223.72 197.007 223.487 196.114 223.26C195.3 223.047 194.634 222.833 194.114 222.62C193.607 222.393 193.167 222.067 192.794 221.64C192.434 221.2 192.254 220.627 192.254 219.92C192.254 219.36 192.42 218.847 192.754 218.38C193.087 217.913 193.56 217.547 194.174 217.28C194.787 217 195.487 216.86 196.274 216.86C197.487 216.86 198.467 217.167 199.214 217.78C199.96 218.393 200.36 219.233 200.414 220.3H198.594C198.554 219.727 198.32 219.267 197.894 218.92C197.48 218.573 196.92 218.4 196.214 218.4C195.56 218.4 195.04 218.54 194.654 218.82C194.267 219.1 194.074 219.467 194.074 219.92C194.074 220.28 194.187 220.58 194.414 220.82C194.654 221.047 194.947 221.233 195.294 221.38C195.654 221.513 196.147 221.667 196.774 221.84C197.56 222.053 198.2 222.267 198.694 222.48C199.187 222.68 199.607 222.987 199.954 223.4C200.314 223.813 200.5 224.353 200.514 225.02C200.514 225.62 200.347 226.16 200.014 226.64C199.68 227.12 199.207 227.5 198.594 227.78C197.994 228.047 197.3 228.18 196.514 228.18ZM205.735 222.48C205.735 221.36 205.962 220.38 206.415 219.54C206.868 218.687 207.488 218.027 208.275 217.56C209.075 217.093 209.968 216.86 210.955 216.86C211.808 216.86 212.602 217.06 213.335 217.46C214.068 217.847 214.628 218.36 215.015 219V213.2H216.855V228H215.015V225.94C214.655 226.593 214.122 227.133 213.415 227.56C212.708 227.973 211.882 228.18 210.935 228.18C209.962 228.18 209.075 227.94 208.275 227.46C207.488 226.98 206.868 226.307 206.415 225.44C205.962 224.573 205.735 223.587 205.735 222.48ZM215.015 222.5C215.015 221.673 214.848 220.953 214.515 220.34C214.182 219.727 213.728 219.26 213.155 218.94C212.595 218.607 211.975 218.44 211.295 218.44C210.615 218.44 209.995 218.6 209.435 218.92C208.875 219.24 208.428 219.707 208.095 220.32C207.762 220.933 207.595 221.653 207.595 222.48C207.595 223.32 207.762 224.053 208.095 224.68C208.428 225.293 208.875 225.767 209.435 226.1C209.995 226.42 210.615 226.58 211.295 226.58C211.975 226.58 212.595 226.42 213.155 226.1C213.728 225.767 214.182 225.293 214.515 224.68C214.848 224.053 215.015 223.327 215.015 222.5ZM228.931 222.1C228.931 222.447 228.911 222.813 228.871 223.2H220.111C220.177 224.28 220.544 225.127 221.211 225.74C221.891 226.34 222.711 226.64 223.671 226.64C224.457 226.64 225.111 226.46 225.631 226.1C226.164 225.727 226.537 225.233 226.751 224.62H228.711C228.417 225.673 227.831 226.533 226.951 227.2C226.071 227.853 224.977 228.18 223.671 228.18C222.631 228.18 221.697 227.947 220.871 227.48C220.057 227.013 219.417 226.353 218.951 225.5C218.484 224.633 218.251 223.633 218.251 222.5C218.251 221.367 218.477 220.373 218.931 219.52C219.384 218.667 220.017 218.013 220.831 217.56C221.657 217.093 222.604 216.86 223.671 216.86C224.711 216.86 225.631 217.087 226.431 217.54C227.231 217.993 227.844 218.62 228.271 219.42C228.711 220.207 228.931 221.1 228.931 222.1ZM227.051 221.72C227.051 221.027 226.897 220.433 226.591 219.94C226.284 219.433 225.864 219.053 225.331 218.8C224.811 218.533 224.231 218.4 223.591 218.4C222.671 218.4 221.884 218.693 221.231 219.28C220.591 219.867 220.224 220.68 220.131 221.72H227.051ZM239.445 228.18C238.418 228.18 237.485 227.947 236.645 227.48C235.818 227.013 235.165 226.353 234.685 225.5C234.218 224.633 233.985 223.633 233.985 222.5C233.985 221.38 234.225 220.393 234.705 219.54C235.198 218.673 235.865 218.013 236.705 217.56C237.545 217.093 238.485 216.86 239.525 216.86C240.565 216.86 241.505 217.093 242.345 217.56C243.185 218.013 243.845 218.667 244.325 219.52C244.818 220.373 245.065 221.367 245.065 222.5C245.065 223.633 244.812 224.633 244.305 225.5C243.812 226.353 243.138 227.013 242.285 227.48C241.432 227.947 240.485 228.18 239.445 228.18ZM239.445 226.58C240.098 226.58 240.712 226.427 241.285 226.12C241.858 225.813 242.318 225.353 242.665 224.74C243.025 224.127 243.205 223.38 243.205 222.5C243.205 221.62 243.032 220.873 242.685 220.26C242.338 219.647 241.885 219.193 241.325 218.9C240.765 218.593 240.158 218.44 239.505 218.44C238.838 218.44 238.225 218.593 237.665 218.9C237.118 219.193 236.678 219.647 236.345 220.26C236.012 220.873 235.845 221.62 235.845 222.5C235.845 223.393 236.005 224.147 236.325 224.76C236.658 225.373 237.098 225.833 237.645 226.14C238.192 226.433 238.792 226.58 239.445 226.58ZM256.178 217.04V228H254.358V226.38C254.011 226.94 253.525 227.38 252.898 227.7C252.285 228.007 251.605 228.16 250.858 228.16C250.005 228.16 249.238 227.987 248.558 227.64C247.878 227.28 247.338 226.747 246.938 226.04C246.551 225.333 246.358 224.473 246.358 223.46V217.04H248.158V223.22C248.158 224.3 248.431 225.133 248.978 225.72C249.525 226.293 250.271 226.58 251.218 226.58C252.191 226.58 252.958 226.28 253.518 225.68C254.078 225.08 254.358 224.207 254.358 223.06V217.04H256.178ZM260.471 218.54V225C260.471 225.533 260.584 225.913 260.811 226.14C261.038 226.353 261.431 226.46 261.991 226.46H263.331V228H261.691C260.678 228 259.918 227.767 259.411 227.3C258.904 226.833 258.651 226.067 258.651 225V218.54H257.231V217.04H258.651V214.28H260.471V217.04H263.331V218.54H260.471ZM266.356 218.82C266.676 218.193 267.129 217.707 267.716 217.36C268.316 217.013 269.043 216.84 269.896 216.84V218.72H269.416C267.376 218.72 266.356 219.827 266.356 222.04V228H264.536V217.04H266.356V218.82ZM275.777 228.18C274.75 228.18 273.817 227.947 272.977 227.48C272.15 227.013 271.497 226.353 271.017 225.5C270.55 224.633 270.317 223.633 270.317 222.5C270.317 221.38 270.557 220.393 271.037 219.54C271.53 218.673 272.197 218.013 273.037 217.56C273.877 217.093 274.817 216.86 275.857 216.86C276.897 216.86 277.837 217.093 278.677 217.56C279.517 218.013 280.177 218.667 280.657 219.52C281.15 220.373 281.397 221.367 281.397 222.5C281.397 223.633 281.144 224.633 280.637 225.5C280.144 226.353 279.47 227.013 278.617 227.48C277.764 227.947 276.817 228.18 275.777 228.18ZM275.777 226.58C276.43 226.58 277.044 226.427 277.617 226.12C278.19 225.813 278.65 225.353 278.997 224.74C279.357 224.127 279.537 223.38 279.537 222.5C279.537 221.62 279.364 220.873 279.017 220.26C278.67 219.647 278.217 219.193 277.657 218.9C277.097 218.593 276.49 218.44 275.837 218.44C275.17 218.44 274.557 218.593 273.997 218.9C273.45 219.193 273.01 219.647 272.677 220.26C272.344 220.873 272.177 221.62 272.177 222.5C272.177 223.393 272.337 224.147 272.657 224.76C272.99 225.373 273.43 225.833 273.977 226.14C274.524 226.433 275.124 226.58 275.777 226.58ZM286.67 228.18C285.83 228.18 285.077 228.04 284.41 227.76C283.743 227.467 283.217 227.067 282.83 226.56C282.443 226.04 282.23 225.447 282.19 224.78H284.07C284.123 225.327 284.377 225.773 284.83 226.12C285.297 226.467 285.903 226.64 286.65 226.64C287.343 226.64 287.89 226.487 288.29 226.18C288.69 225.873 288.89 225.487 288.89 225.02C288.89 224.54 288.677 224.187 288.25 223.96C287.823 223.72 287.163 223.487 286.27 223.26C285.457 223.047 284.79 222.833 284.27 222.62C283.763 222.393 283.323 222.067 282.95 221.64C282.59 221.2 282.41 220.627 282.41 219.92C282.41 219.36 282.577 218.847 282.91 218.38C283.243 217.913 283.717 217.547 284.33 217.28C284.943 217 285.643 216.86 286.43 216.86C287.643 216.86 288.623 217.167 289.37 217.78C290.117 218.393 290.517 219.233 290.57 220.3H288.75C288.71 219.727 288.477 219.267 288.05 218.92C287.637 218.573 287.077 218.4 286.37 218.4C285.717 218.4 285.197 218.54 284.81 218.82C284.423 219.1 284.23 219.467 284.23 219.92C284.23 220.28 284.343 220.58 284.57 220.82C284.81 221.047 285.103 221.233 285.45 221.38C285.81 221.513 286.303 221.667 286.93 221.84C287.717 222.053 288.357 222.267 288.85 222.48C289.343 222.68 289.763 222.987 290.11 223.4C290.47 223.813 290.657 224.353 290.67 225.02C290.67 225.62 290.503 226.16 290.17 226.64C289.837 227.12 289.363 227.5 288.75 227.78C288.15 228.047 287.457 228.18 286.67 228.18ZM42.233 240.5C42.233 239.367 42.4597 238.38 42.913 237.54C43.3664 236.687 43.993 236.027 44.793 235.56C45.6064 235.093 46.533 234.86 47.573 234.86C48.9197 234.86 50.0264 235.187 50.893 235.84C51.773 236.493 52.353 237.4 52.633 238.56H50.673C50.4864 237.893 50.1197 237.367 49.573 236.98C49.0397 236.593 48.373 236.4 47.573 236.4C46.533 236.4 45.693 236.76 45.053 237.48C44.413 238.187 44.093 239.193 44.093 240.5C44.093 241.82 44.413 242.84 45.053 243.56C45.693 244.28 46.533 244.64 47.573 244.64C48.373 244.64 49.0397 244.453 49.573 244.08C50.1064 243.707 50.473 243.173 50.673 242.48H52.633C52.3397 243.6 51.753 244.5 50.873 245.18C49.993 245.847 48.893 246.18 47.573 246.18C46.533 246.18 45.6064 245.947 44.793 245.48C43.993 245.013 43.3664 244.353 42.913 243.5C42.4597 242.647 42.233 241.647 42.233 240.5ZM55.8815 231.2V246H54.0615V231.2H55.8815ZM58.9234 233.26C58.5767 233.26 58.2834 233.14 58.0434 232.9C57.8034 232.66 57.6834 232.367 57.6834 232.02C57.6834 231.673 57.8034 231.38 58.0434 231.14C58.2834 230.9 58.5767 230.78 58.9234 230.78C59.2567 230.78 59.5367 230.9 59.7634 231.14C60.0034 231.38 60.1234 231.673 60.1234 232.02C60.1234 232.367 60.0034 232.66 59.7634 232.9C59.5367 233.14 59.2567 233.26 58.9234 233.26ZM59.8034 235.04V246H57.9834V235.04H59.8034ZM71.9052 240.1C71.9052 240.447 71.8852 240.813 71.8452 241.2H63.0852C63.1519 242.28 63.5186 243.127 64.1852 243.74C64.8652 244.34 65.6852 244.64 66.6452 244.64C67.4319 244.64 68.0852 244.46 68.6052 244.1C69.1386 243.727 69.5119 243.233 69.7252 242.62H71.6852C71.3919 243.673 70.8052 244.533 69.9252 245.2C69.0452 245.853 67.9519 246.18 66.6452 246.18C65.6052 246.18 64.6719 245.947 63.8452 245.48C63.0319 245.013 62.3919 244.353 61.9252 243.5C61.4586 242.633 61.2252 241.633 61.2252 240.5C61.2252 239.367 61.4519 238.373 61.9052 237.52C62.3586 236.667 62.9919 236.013 63.8052 235.56C64.6319 235.093 65.5786 234.86 66.6452 234.86C67.6852 234.86 68.6052 235.087 69.4052 235.54C70.2052 235.993 70.8186 236.62 71.2452 237.42C71.6852 238.207 71.9052 239.1 71.9052 240.1ZM70.0252 239.72C70.0252 239.027 69.8719 238.433 69.5652 237.94C69.2586 237.433 68.8386 237.053 68.3052 236.8C67.7852 236.533 67.2052 236.4 66.5652 236.4C65.6452 236.4 64.8586 236.693 64.2052 237.28C63.5652 237.867 63.1986 238.68 63.1052 239.72H70.0252ZM78.6476 234.84C79.9809 234.84 81.0609 235.247 81.8876 236.06C82.7142 236.86 83.1276 238.02 83.1276 239.54V246H81.3276V239.8C81.3276 238.707 81.0542 237.873 80.5076 237.3C79.9609 236.713 79.2142 236.42 78.2676 236.42C77.3076 236.42 76.5409 236.72 75.9676 237.32C75.4076 237.92 75.1276 238.793 75.1276 239.94V246H73.3076V235.04H75.1276V236.6C75.4876 236.04 75.9742 235.607 76.5876 235.3C77.2142 234.993 77.9009 234.84 78.6476 234.84ZM87.3205 236.54V243C87.3205 243.533 87.4339 243.913 87.6605 244.14C87.8872 244.353 88.2805 244.46 88.8405 244.46H90.1805V246H88.5405C87.5272 246 86.7672 245.767 86.2605 245.3C85.7539 244.833 85.5005 244.067 85.5005 243V236.54H84.0805V235.04H85.5005V232.28H87.3205V235.04H90.1805V236.54H87.3205ZM101.386 240.1C101.386 240.447 101.366 240.813 101.326 241.2H92.5657C92.6324 242.28 92.999 243.127 93.6657 243.74C94.3457 244.34 95.1657 244.64 96.1257 244.64C96.9124 244.64 97.5657 244.46 98.0857 244.1C98.619 243.727 98.9924 243.233 99.2057 242.62H101.166C100.872 243.673 100.286 244.533 99.4057 245.2C98.5257 245.853 97.4324 246.18 96.1257 246.18C95.0857 246.18 94.1524 245.947 93.3257 245.48C92.5124 245.013 91.8724 244.353 91.4057 243.5C90.939 242.633 90.7057 241.633 90.7057 240.5C90.7057 239.367 90.9324 238.373 91.3857 237.52C91.839 236.667 92.4724 236.013 93.2857 235.56C94.1124 235.093 95.059 234.86 96.1257 234.86C97.1657 234.86 98.0857 235.087 98.8857 235.54C99.6857 235.993 100.299 236.62 100.726 237.42C101.166 238.207 101.386 239.1 101.386 240.1ZM99.5057 239.72C99.5057 239.027 99.3524 238.433 99.0457 237.94C98.739 237.433 98.319 237.053 97.7857 236.8C97.2657 236.533 96.6857 236.4 96.0457 236.4C95.1257 236.4 94.339 236.693 93.6857 237.28C93.0457 237.867 92.679 238.68 92.5857 239.72H99.5057ZM106.668 246.18C105.828 246.18 105.075 246.04 104.408 245.76C103.741 245.467 103.215 245.067 102.828 244.56C102.441 244.04 102.228 243.447 102.188 242.78H104.068C104.121 243.327 104.375 243.773 104.828 244.12C105.295 244.467 105.901 244.64 106.648 244.64C107.341 244.64 107.888 244.487 108.288 244.18C108.688 243.873 108.888 243.487 108.888 243.02C108.888 242.54 108.675 242.187 108.248 241.96C107.821 241.72 107.161 241.487 106.268 241.26C105.455 241.047 104.788 240.833 104.268 240.62C103.761 240.393 103.321 240.067 102.948 239.64C102.588 239.2 102.408 238.627 102.408 237.92C102.408 237.36 102.575 236.847 102.908 236.38C103.241 235.913 103.715 235.547 104.328 235.28C104.941 235 105.641 234.86 106.428 234.86C107.641 234.86 108.621 235.167 109.368 235.78C110.115 236.393 110.515 237.233 110.568 238.3H108.748C108.708 237.727 108.475 237.267 108.048 236.92C107.635 236.573 107.075 236.4 106.368 236.4C105.715 236.4 105.195 236.54 104.808 236.82C104.421 237.1 104.228 237.467 104.228 237.92C104.228 238.28 104.341 238.58 104.568 238.82C104.808 239.047 105.101 239.233 105.448 239.38C105.808 239.513 106.301 239.667 106.928 239.84C107.715 240.053 108.355 240.267 108.848 240.48C109.341 240.68 109.761 240.987 110.108 241.4C110.468 241.813 110.655 242.353 110.668 243.02C110.668 243.62 110.501 244.16 110.168 244.64C109.835 245.12 109.361 245.5 108.748 245.78C108.148 246.047 107.455 246.18 106.668 246.18ZM115.889 240.48C115.889 239.36 116.116 238.38 116.569 237.54C117.023 236.687 117.643 236.027 118.429 235.56C119.229 235.093 120.116 234.86 121.089 234.86C122.049 234.86 122.883 235.067 123.589 235.48C124.296 235.893 124.823 236.413 125.169 237.04V235.04H127.009V246H125.169V243.96C124.809 244.6 124.269 245.133 123.549 245.56C122.843 245.973 122.016 246.18 121.069 246.18C120.096 246.18 119.216 245.94 118.429 245.46C117.643 244.98 117.023 244.307 116.569 243.44C116.116 242.573 115.889 241.587 115.889 240.48ZM125.169 240.5C125.169 239.673 125.003 238.953 124.669 238.34C124.336 237.727 123.883 237.26 123.309 236.94C122.749 236.607 122.129 236.44 121.449 236.44C120.769 236.44 120.149 236.6 119.589 236.92C119.029 237.24 118.583 237.707 118.249 238.32C117.916 238.933 117.749 239.653 117.749 240.48C117.749 241.32 117.916 242.053 118.249 242.68C118.583 243.293 119.029 243.767 119.589 244.1C120.149 244.42 120.769 244.58 121.449 244.58C122.129 244.58 122.749 244.42 123.309 244.1C123.883 243.767 124.336 243.293 124.669 242.68C125.003 242.053 125.169 241.327 125.169 240.5ZM134.425 234.84C135.758 234.84 136.838 235.247 137.665 236.06C138.492 236.86 138.905 238.02 138.905 239.54V246H137.105V239.8C137.105 238.707 136.832 237.873 136.285 237.3C135.738 236.713 134.992 236.42 134.045 236.42C133.085 236.42 132.318 236.72 131.745 237.32C131.185 237.92 130.905 238.793 130.905 239.94V246H129.085V235.04H130.905V236.6C131.265 236.04 131.752 235.607 132.365 235.3C132.992 234.993 133.678 234.84 134.425 234.84ZM143.098 236.54V243C143.098 243.533 143.211 243.913 143.438 244.14C143.665 244.353 144.058 244.46 144.618 244.46H145.958V246H144.318C143.305 246 142.545 245.767 142.038 245.3C141.531 244.833 141.278 244.067 141.278 243V236.54H139.858V235.04H141.278V232.28H143.098V235.04H145.958V236.54H143.098ZM157.163 240.1C157.163 240.447 157.143 240.813 157.103 241.2H148.343C148.41 242.28 148.776 243.127 149.443 243.74C150.123 244.34 150.943 244.64 151.903 244.64C152.69 244.64 153.343 244.46 153.863 244.1C154.396 243.727 154.77 243.233 154.983 242.62H156.943C156.65 243.673 156.063 244.533 155.183 245.2C154.303 245.853 153.21 246.18 151.903 246.18C150.863 246.18 149.93 245.947 149.103 245.48C148.29 245.013 147.65 244.353 147.183 243.5C146.716 242.633 146.483 241.633 146.483 240.5C146.483 239.367 146.71 238.373 147.163 237.52C147.616 236.667 148.25 236.013 149.063 235.56C149.89 235.093 150.836 234.86 151.903 234.86C152.943 234.86 153.863 235.087 154.663 235.54C155.463 235.993 156.076 236.62 156.503 237.42C156.943 238.207 157.163 239.1 157.163 240.1ZM155.283 239.72C155.283 239.027 155.13 238.433 154.823 237.94C154.516 237.433 154.096 237.053 153.563 236.8C153.043 236.533 152.463 236.4 151.823 236.4C150.903 236.4 150.116 236.693 149.463 237.28C148.823 237.867 148.456 238.68 148.363 239.72H155.283ZM162.445 246.18C161.605 246.18 160.852 246.04 160.185 245.76C159.519 245.467 158.992 245.067 158.605 244.56C158.219 244.04 158.005 243.447 157.965 242.78H159.845C159.899 243.327 160.152 243.773 160.605 244.12C161.072 244.467 161.679 244.64 162.425 244.64C163.119 244.64 163.665 244.487 164.065 244.18C164.465 243.873 164.665 243.487 164.665 243.02C164.665 242.54 164.452 242.187 164.025 241.96C163.599 241.72 162.939 241.487 162.045 241.26C161.232 241.047 160.565 240.833 160.045 240.62C159.539 240.393 159.099 240.067 158.725 239.64C158.365 239.2 158.185 238.627 158.185 237.92C158.185 237.36 158.352 236.847 158.685 236.38C159.019 235.913 159.492 235.547 160.105 235.28C160.719 235 161.419 234.86 162.205 234.86C163.419 234.86 164.399 235.167 165.145 235.78C165.892 236.393 166.292 237.233 166.345 238.3H164.525C164.485 237.727 164.252 237.267 163.825 236.92C163.412 236.573 162.852 236.4 162.145 236.4C161.492 236.4 160.972 236.54 160.585 236.82C160.199 237.1 160.005 237.467 160.005 237.92C160.005 238.28 160.119 238.58 160.345 238.82C160.585 239.047 160.879 239.233 161.225 239.38C161.585 239.513 162.079 239.667 162.705 239.84C163.492 240.053 164.132 240.267 164.625 240.48C165.119 240.68 165.539 240.987 165.885 241.4C166.245 241.813 166.432 242.353 166.445 243.02C166.445 243.62 166.279 244.16 165.945 244.64C165.612 245.12 165.139 245.5 164.525 245.78C163.925 246.047 163.232 246.18 162.445 246.18ZM171.667 240.48C171.667 239.36 171.893 238.38 172.347 237.54C172.8 236.687 173.42 236.027 174.207 235.56C175.007 235.093 175.9 234.86 176.887 234.86C177.74 234.86 178.533 235.06 179.267 235.46C180 235.847 180.56 236.36 180.947 237V231.2H182.787V246H180.947V243.94C180.587 244.593 180.053 245.133 179.347 245.56C178.64 245.973 177.813 246.18 176.867 246.18C175.893 246.18 175.007 245.94 174.207 245.46C173.42 244.98 172.8 244.307 172.347 243.44C171.893 242.573 171.667 241.587 171.667 240.48ZM180.947 240.5C180.947 239.673 180.78 238.953 180.447 238.34C180.113 237.727 179.66 237.26 179.087 236.94C178.527 236.607 177.907 236.44 177.227 236.44C176.547 236.44 175.927 236.6 175.367 236.92C174.807 237.24 174.36 237.707 174.027 238.32C173.693 238.933 173.527 239.653 173.527 240.48C173.527 241.32 173.693 242.053 174.027 242.68C174.36 243.293 174.807 243.767 175.367 244.1C175.927 244.42 176.547 244.58 177.227 244.58C177.907 244.58 178.527 244.42 179.087 244.1C179.66 243.767 180.113 243.293 180.447 242.68C180.78 242.053 180.947 241.327 180.947 240.5ZM194.862 240.1C194.862 240.447 194.842 240.813 194.802 241.2H186.042C186.109 242.28 186.476 243.127 187.142 243.74C187.822 244.34 188.642 244.64 189.602 244.64C190.389 244.64 191.042 244.46 191.562 244.1C192.096 243.727 192.469 243.233 192.682 242.62H194.642C194.349 243.673 193.762 244.533 192.882 245.2C192.002 245.853 190.909 246.18 189.602 246.18C188.562 246.18 187.629 245.947 186.802 245.48C185.989 245.013 185.349 244.353 184.882 243.5C184.416 242.633 184.182 241.633 184.182 240.5C184.182 239.367 184.409 238.373 184.862 237.52C185.316 236.667 185.949 236.013 186.762 235.56C187.589 235.093 188.536 234.86 189.602 234.86C190.642 234.86 191.562 235.087 192.362 235.54C193.162 235.993 193.776 236.62 194.202 237.42C194.642 238.207 194.862 239.1 194.862 240.1ZM192.982 239.72C192.982 239.027 192.829 238.433 192.522 237.94C192.216 237.433 191.796 237.053 191.262 236.8C190.742 236.533 190.162 236.4 189.522 236.4C188.602 236.4 187.816 236.693 187.162 237.28C186.522 237.867 186.156 238.68 186.062 239.72H192.982ZM210.597 240.1C210.597 240.447 210.577 240.813 210.537 241.2H201.777C201.843 242.28 202.21 243.127 202.877 243.74C203.557 244.34 204.377 244.64 205.337 244.64C206.123 244.64 206.777 244.46 207.297 244.1C207.83 243.727 208.203 243.233 208.417 242.62H210.377C210.083 243.673 209.497 244.533 208.617 245.2C207.737 245.853 206.643 246.18 205.337 246.18C204.297 246.18 203.363 245.947 202.537 245.48C201.723 245.013 201.083 244.353 200.617 243.5C200.15 242.633 199.917 241.633 199.917 240.5C199.917 239.367 200.143 238.373 200.597 237.52C201.05 236.667 201.683 236.013 202.497 235.56C203.323 235.093 204.27 234.86 205.337 234.86C206.377 234.86 207.297 235.087 208.097 235.54C208.897 235.993 209.51 236.62 209.937 237.42C210.377 238.207 210.597 239.1 210.597 240.1ZM208.717 239.72C208.717 239.027 208.563 238.433 208.257 237.94C207.95 237.433 207.53 237.053 206.997 236.8C206.477 236.533 205.897 236.4 205.257 236.4C204.337 236.4 203.55 236.693 202.897 237.28C202.257 237.867 201.89 238.68 201.797 239.72H208.717ZM215.879 246.18C215.039 246.18 214.286 246.04 213.619 245.76C212.952 245.467 212.426 245.067 212.039 244.56C211.652 244.04 211.439 243.447 211.399 242.78H213.279C213.332 243.327 213.586 243.773 214.039 244.12C214.506 244.467 215.112 244.64 215.859 244.64C216.552 244.64 217.099 244.487 217.499 244.18C217.899 243.873 218.099 243.487 218.099 243.02C218.099 242.54 217.886 242.187 217.459 241.96C217.032 241.72 216.372 241.487 215.479 241.26C214.666 241.047 213.999 240.833 213.479 240.62C212.972 240.393 212.532 240.067 212.159 239.64C211.799 239.2 211.619 238.627 211.619 237.92C211.619 237.36 211.786 236.847 212.119 236.38C212.452 235.913 212.926 235.547 213.539 235.28C214.152 235 214.852 234.86 215.639 234.86C216.852 234.86 217.832 235.167 218.579 235.78C219.326 236.393 219.726 237.233 219.779 238.3H217.959C217.919 237.727 217.686 237.267 217.259 236.92C216.846 236.573 216.286 236.4 215.579 236.4C214.926 236.4 214.406 236.54 214.019 236.82C213.632 237.1 213.439 237.467 213.439 237.92C213.439 238.28 213.552 238.58 213.779 238.82C214.019 239.047 214.312 239.233 214.659 239.38C215.019 239.513 215.512 239.667 216.139 239.84C216.926 240.053 217.566 240.267 218.059 240.48C218.552 240.68 218.972 240.987 219.319 241.4C219.679 241.813 219.866 242.353 219.879 243.02C219.879 243.62 219.712 244.16 219.379 244.64C219.046 245.12 218.572 245.5 217.959 245.78C217.359 246.047 216.666 246.18 215.879 246.18ZM220.768 240.5C220.768 239.367 220.995 238.38 221.448 237.54C221.902 236.687 222.528 236.027 223.328 235.56C224.142 235.093 225.068 234.86 226.108 234.86C227.455 234.86 228.562 235.187 229.428 235.84C230.308 236.493 230.888 237.4 231.168 238.56H229.208C229.022 237.893 228.655 237.367 228.108 236.98C227.575 236.593 226.908 236.4 226.108 236.4C225.068 236.4 224.228 236.76 223.588 237.48C222.948 238.187 222.628 239.193 222.628 240.5C222.628 241.82 222.948 242.84 223.588 243.56C224.228 244.28 225.068 244.64 226.108 244.64C226.908 244.64 227.575 244.453 228.108 244.08C228.642 243.707 229.008 243.173 229.208 242.48H231.168C230.875 243.6 230.288 244.5 229.408 245.18C228.528 245.847 227.428 246.18 226.108 246.18C225.068 246.18 224.142 245.947 223.328 245.48C222.528 245.013 221.902 244.353 221.448 243.5C220.995 242.647 220.768 241.647 220.768 240.5ZM237.377 246.18C236.35 246.18 235.417 245.947 234.577 245.48C233.75 245.013 233.097 244.353 232.617 243.5C232.15 242.633 231.917 241.633 231.917 240.5C231.917 239.38 232.157 238.393 232.637 237.54C233.13 236.673 233.797 236.013 234.637 235.56C235.477 235.093 236.417 234.86 237.457 234.86C238.497 234.86 239.437 235.093 240.277 235.56C241.117 236.013 241.777 236.667 242.257 237.52C242.75 238.373 242.997 239.367 242.997 240.5C242.997 241.633 242.743 242.633 242.237 243.5C241.743 244.353 241.07 245.013 240.217 245.48C239.363 245.947 238.417 246.18 237.377 246.18ZM237.377 244.58C238.03 244.58 238.643 244.427 239.217 244.12C239.79 243.813 240.25 243.353 240.597 242.74C240.957 242.127 241.137 241.38 241.137 240.5C241.137 239.62 240.963 238.873 240.617 238.26C240.27 237.647 239.817 237.193 239.257 236.9C238.697 236.593 238.09 236.44 237.437 236.44C236.77 236.44 236.157 236.593 235.597 236.9C235.05 237.193 234.61 237.647 234.277 238.26C233.943 238.873 233.777 239.62 233.777 240.5C233.777 241.393 233.937 242.147 234.257 242.76C234.59 243.373 235.03 243.833 235.577 244.14C236.123 244.433 236.723 244.58 237.377 244.58ZM246.21 231.2V246H244.39V231.2H246.21ZM253.751 234.84C254.578 234.84 255.325 235.02 255.991 235.38C256.658 235.727 257.178 236.253 257.551 236.96C257.938 237.667 258.131 238.527 258.131 239.54V246H256.331V239.8C256.331 238.707 256.058 237.873 255.511 237.3C254.965 236.713 254.218 236.42 253.271 236.42C252.311 236.42 251.545 236.72 250.971 237.32C250.411 237.92 250.131 238.793 250.131 239.94V246H248.311V231.2H250.131V236.6C250.491 236.04 250.985 235.607 251.611 235.3C252.251 234.993 252.965 234.84 253.751 234.84ZM270.104 240.1C270.104 240.447 270.084 240.813 270.044 241.2H261.284C261.351 242.28 261.718 243.127 262.384 243.74C263.064 244.34 263.884 244.64 264.844 244.64C265.631 244.64 266.284 244.46 266.804 244.1C267.338 243.727 267.711 243.233 267.924 242.62H269.884C269.591 243.673 269.004 244.533 268.124 245.2C267.244 245.853 266.151 246.18 264.844 246.18C263.804 246.18 262.871 245.947 262.044 245.48C261.231 245.013 260.591 244.353 260.124 243.5C259.658 242.633 259.424 241.633 259.424 240.5C259.424 239.367 259.651 238.373 260.104 237.52C260.558 236.667 261.191 236.013 262.004 235.56C262.831 235.093 263.778 234.86 264.844 234.86C265.884 234.86 266.804 235.087 267.604 235.54C268.404 235.993 269.018 236.62 269.444 237.42C269.884 238.207 270.104 239.1 270.104 240.1ZM268.224 239.72C268.224 239.027 268.071 238.433 267.764 237.94C267.458 237.433 267.038 237.053 266.504 236.8C265.984 236.533 265.404 236.4 264.764 236.4C263.844 236.4 263.058 236.693 262.404 237.28C261.764 237.867 261.398 238.68 261.304 239.72H268.224ZM273.327 236.82C273.647 236.193 274.1 235.707 274.687 235.36C275.287 235.013 276.013 234.84 276.867 234.84V236.72H276.387C274.347 236.72 273.327 237.827 273.327 240.04V246H271.507V235.04H273.327V236.82ZM278.548 246.12C278.201 246.12 277.908 246 277.668 245.76C277.428 245.52 277.308 245.227 277.308 244.88C277.308 244.533 277.428 244.24 277.668 244C277.908 243.76 278.201 243.64 278.548 243.64C278.881 243.64 279.161 243.76 279.388 244C279.628 244.24 279.748 244.533 279.748 244.88C279.748 245.227 279.628 245.52 279.388 245.76C279.161 246 278.881 246.12 278.548 246.12ZM33.2841 250.06V251.54H29.4841V264H27.6641V251.54H23.8441V250.06H33.2841ZM36.3444 254.82C36.6644 254.193 37.1177 253.707 37.7044 253.36C38.3044 253.013 39.031 252.84 39.8844 252.84V254.72H39.4044C37.3644 254.72 36.3444 255.827 36.3444 258.04V264H34.5244V253.04H36.3444V254.82ZM40.3053 258.48C40.3053 257.36 40.532 256.38 40.9853 255.54C41.4386 254.687 42.0586 254.027 42.8453 253.56C43.6453 253.093 44.532 252.86 45.5053 252.86C46.4653 252.86 47.2986 253.067 48.0053 253.48C48.712 253.893 49.2386 254.413 49.5853 255.04V253.04H51.4253V264H49.5853V261.96C49.2253 262.6 48.6853 263.133 47.9653 263.56C47.2586 263.973 46.432 264.18 45.4853 264.18C44.512 264.18 43.632 263.94 42.8453 263.46C42.0586 262.98 41.4386 262.307 40.9853 261.44C40.532 260.573 40.3053 259.587 40.3053 258.48ZM49.5853 258.5C49.5853 257.673 49.4186 256.953 49.0853 256.34C48.752 255.727 48.2986 255.26 47.7253 254.94C47.1653 254.607 46.5453 254.44 45.8653 254.44C45.1853 254.44 44.5653 254.6 44.0053 254.92C43.4453 255.24 42.9986 255.707 42.6653 256.32C42.332 256.933 42.1653 257.653 42.1653 258.48C42.1653 259.32 42.332 260.053 42.6653 260.68C42.9986 261.293 43.4453 261.767 44.0053 262.1C44.5653 262.42 45.1853 262.58 45.8653 262.58C46.5453 262.58 47.1653 262.42 47.7253 262.1C48.2986 261.767 48.752 261.293 49.0853 260.68C49.4186 260.053 49.5853 259.327 49.5853 258.5ZM58.8409 252.84C60.1743 252.84 61.2543 253.247 62.0809 254.06C62.9076 254.86 63.3209 256.02 63.3209 257.54V264H61.5209V257.8C61.5209 256.707 61.2476 255.873 60.7009 255.3C60.1543 254.713 59.4076 254.42 58.4609 254.42C57.5009 254.42 56.7343 254.72 56.1609 255.32C55.6009 255.92 55.3209 256.793 55.3209 257.94V264H53.5009V253.04H55.3209V254.6C55.6809 254.04 56.1676 253.607 56.7809 253.3C57.4076 252.993 58.0943 252.84 58.8409 252.84ZM69.1739 264.18C68.3339 264.18 67.5806 264.04 66.9139 263.76C66.2472 263.467 65.7206 263.067 65.3339 262.56C64.9472 262.04 64.7339 261.447 64.6939 260.78H66.5739C66.6272 261.327 66.8806 261.773 67.3339 262.12C67.8006 262.467 68.4072 262.64 69.1539 262.64C69.8472 262.64 70.3939 262.487 70.7939 262.18C71.1939 261.873 71.3939 261.487 71.3939 261.02C71.3939 260.54 71.1806 260.187 70.7539 259.96C70.3272 259.72 69.6672 259.487 68.7739 259.26C67.9606 259.047 67.2939 258.833 66.7739 258.62C66.2672 258.393 65.8272 258.067 65.4539 257.64C65.0939 257.2 64.9139 256.627 64.9139 255.92C64.9139 255.36 65.0806 254.847 65.4139 254.38C65.7472 253.913 66.2206 253.547 66.8339 253.28C67.4472 253 68.1472 252.86 68.9339 252.86C70.1472 252.86 71.1272 253.167 71.8739 253.78C72.6206 254.393 73.0206 255.233 73.0739 256.3H71.2539C71.2139 255.727 70.9806 255.267 70.5539 254.92C70.1406 254.573 69.5806 254.4 68.8739 254.4C68.2206 254.4 67.7006 254.54 67.3139 254.82C66.9272 255.1 66.7339 255.467 66.7339 255.92C66.7339 256.28 66.8472 256.58 67.0739 256.82C67.3139 257.047 67.6072 257.233 67.9539 257.38C68.3139 257.513 68.8072 257.667 69.4339 257.84C70.2206 258.053 70.8606 258.267 71.3539 258.48C71.8472 258.68 72.2672 258.987 72.6139 259.4C72.9739 259.813 73.1606 260.353 73.1739 261.02C73.1739 261.62 73.0072 262.16 72.6739 262.64C72.3406 263.12 71.8672 263.5 71.2539 263.78C70.6539 264.047 69.9606 264.18 69.1739 264.18ZM76.5631 255.06C76.9231 254.433 77.4565 253.913 78.1631 253.5C78.8831 253.073 79.7165 252.86 80.6631 252.86C81.6365 252.86 82.5165 253.093 83.3031 253.56C84.1031 254.027 84.7298 254.687 85.1831 255.54C85.6365 256.38 85.8631 257.36 85.8631 258.48C85.8631 259.587 85.6365 260.573 85.1831 261.44C84.7298 262.307 84.1031 262.98 83.3031 263.46C82.5165 263.94 81.6365 264.18 80.6631 264.18C79.7298 264.18 78.9031 263.973 78.1831 263.56C77.4765 263.133 76.9365 262.607 76.5631 261.98V269.2H74.7431V253.04H76.5631V255.06ZM84.0031 258.48C84.0031 257.653 83.8365 256.933 83.5031 256.32C83.1698 255.707 82.7165 255.24 82.1431 254.92C81.5831 254.6 80.9631 254.44 80.2831 254.44C79.6165 254.44 78.9965 254.607 78.4231 254.94C77.8631 255.26 77.4098 255.733 77.0631 256.36C76.7298 256.973 76.5631 257.687 76.5631 258.5C76.5631 259.327 76.7298 260.053 77.0631 260.68C77.4098 261.293 77.8631 261.767 78.4231 262.1C78.9965 262.42 79.6165 262.58 80.2831 262.58C80.9631 262.58 81.5831 262.42 82.1431 262.1C82.7165 261.767 83.1698 261.293 83.5031 260.68C83.8365 260.053 84.0031 259.32 84.0031 258.48ZM86.5788 258.48C86.5788 257.36 86.8054 256.38 87.2588 255.54C87.7121 254.687 88.3321 254.027 89.1188 253.56C89.9188 253.093 90.8054 252.86 91.7788 252.86C92.7388 252.86 93.5721 253.067 94.2788 253.48C94.9854 253.893 95.5121 254.413 95.8588 255.04V253.04H97.6988V264H95.8588V261.96C95.4988 262.6 94.9588 263.133 94.2388 263.56C93.5321 263.973 92.7054 264.18 91.7588 264.18C90.7854 264.18 89.9054 263.94 89.1188 263.46C88.3321 262.98 87.7121 262.307 87.2588 261.44C86.8054 260.573 86.5788 259.587 86.5788 258.48ZM95.8588 258.5C95.8588 257.673 95.6921 256.953 95.3588 256.34C95.0254 255.727 94.5721 255.26 93.9988 254.94C93.4388 254.607 92.8188 254.44 92.1388 254.44C91.4588 254.44 90.8388 254.6 90.2788 254.92C89.7188 255.24 89.2721 255.707 88.9388 256.32C88.6054 256.933 88.4388 257.653 88.4388 258.48C88.4388 259.32 88.6054 260.053 88.9388 260.68C89.2721 261.293 89.7188 261.767 90.2788 262.1C90.8388 262.42 91.4588 262.58 92.1388 262.58C92.8188 262.58 93.4388 262.42 93.9988 262.1C94.5721 261.767 95.0254 261.293 95.3588 260.68C95.6921 260.053 95.8588 259.327 95.8588 258.5ZM101.594 254.82C101.914 254.193 102.368 253.707 102.954 253.36C103.554 253.013 104.281 252.84 105.134 252.84V254.72H104.654C102.614 254.72 101.594 255.827 101.594 258.04V264H99.7744V253.04H101.594V254.82ZM116.235 258.1C116.235 258.447 116.215 258.813 116.175 259.2H107.415C107.482 260.28 107.849 261.127 108.515 261.74C109.195 262.34 110.015 262.64 110.975 262.64C111.762 262.64 112.415 262.46 112.935 262.1C113.469 261.727 113.842 261.233 114.055 260.62H116.015C115.722 261.673 115.135 262.533 114.255 263.2C113.375 263.853 112.282 264.18 110.975 264.18C109.935 264.18 109.002 263.947 108.175 263.48C107.362 263.013 106.722 262.353 106.255 261.5C105.789 260.633 105.555 259.633 105.555 258.5C105.555 257.367 105.782 256.373 106.235 255.52C106.689 254.667 107.322 254.013 108.135 253.56C108.962 253.093 109.909 252.86 110.975 252.86C112.015 252.86 112.935 253.087 113.735 253.54C114.535 253.993 115.149 254.62 115.575 255.42C116.015 256.207 116.235 257.1 116.235 258.1ZM114.355 257.72C114.355 257.027 114.202 256.433 113.895 255.94C113.589 255.433 113.169 255.053 112.635 254.8C112.115 254.533 111.535 254.4 110.895 254.4C109.975 254.4 109.189 254.693 108.535 255.28C107.895 255.867 107.529 256.68 107.435 257.72H114.355ZM110.915 250.36L108.135 252.06V250.62L110.915 248.96L113.675 250.62V252.06L110.915 250.36ZM122.978 252.84C124.311 252.84 125.391 253.247 126.218 254.06C127.044 254.86 127.458 256.02 127.458 257.54V264H125.658V257.8C125.658 256.707 125.384 255.873 124.838 255.3C124.291 254.713 123.544 254.42 122.598 254.42C121.638 254.42 120.871 254.72 120.298 255.32C119.738 255.92 119.458 256.793 119.458 257.94V264H117.638V253.04H119.458V254.6C119.818 254.04 120.304 253.607 120.918 253.3C121.544 252.993 122.231 252.84 122.978 252.84ZM128.751 258.5C128.751 257.367 128.977 256.38 129.431 255.54C129.884 254.687 130.511 254.027 131.311 253.56C132.124 253.093 133.051 252.86 134.091 252.86C135.437 252.86 136.544 253.187 137.411 253.84C138.291 254.493 138.871 255.4 139.151 256.56H137.191C137.004 255.893 136.637 255.367 136.091 254.98C135.557 254.593 134.891 254.4 134.091 254.4C133.051 254.4 132.211 254.76 131.571 255.48C130.931 256.187 130.611 257.193 130.611 258.5C130.611 259.82 130.931 260.84 131.571 261.56C132.211 262.28 133.051 262.64 134.091 262.64C134.891 262.64 135.557 262.453 136.091 262.08C136.624 261.707 136.991 261.173 137.191 260.48H139.151C138.857 261.6 138.271 262.5 137.391 263.18C136.511 263.847 135.411 264.18 134.091 264.18C133.051 264.18 132.124 263.947 131.311 263.48C130.511 263.013 129.884 262.353 129.431 261.5C128.977 260.647 128.751 259.647 128.751 258.5ZM141.519 251.26C141.172 251.26 140.879 251.14 140.639 250.9C140.399 250.66 140.279 250.367 140.279 250.02C140.279 249.673 140.399 249.38 140.639 249.14C140.879 248.9 141.172 248.78 141.519 248.78C141.852 248.78 142.132 248.9 142.359 249.14C142.599 249.38 142.719 249.673 142.719 250.02C142.719 250.367 142.599 250.66 142.359 250.9C142.132 251.14 141.852 251.26 141.519 251.26ZM142.399 253.04V264H140.579V253.04H142.399ZM143.821 258.48C143.821 257.36 144.048 256.38 144.501 255.54C144.954 254.687 145.574 254.027 146.361 253.56C147.161 253.093 148.048 252.86 149.021 252.86C149.981 252.86 150.814 253.067 151.521 253.48C152.228 253.893 152.754 254.413 153.101 255.04V253.04H154.941V264H153.101V261.96C152.741 262.6 152.201 263.133 151.481 263.56C150.774 263.973 149.948 264.18 149.001 264.18C148.028 264.18 147.148 263.94 146.361 263.46C145.574 262.98 144.954 262.307 144.501 261.44C144.048 260.573 143.821 259.587 143.821 258.48ZM153.101 258.5C153.101 257.673 152.934 256.953 152.601 256.34C152.268 255.727 151.814 255.26 151.241 254.94C150.681 254.607 150.061 254.44 149.381 254.44C148.701 254.44 148.081 254.6 147.521 254.92C146.961 255.24 146.514 255.707 146.181 256.32C145.848 256.933 145.681 257.653 145.681 258.48C145.681 259.32 145.848 260.053 146.181 260.68C146.514 261.293 146.961 261.767 147.521 262.1C148.081 262.42 148.701 262.58 149.381 262.58C150.061 262.58 150.681 262.42 151.241 262.1C151.814 261.767 152.268 261.293 152.601 260.68C152.934 260.053 153.101 259.327 153.101 258.5ZM163.569 254.54V261C163.569 261.533 163.682 261.913 163.909 262.14C164.135 262.353 164.529 262.46 165.089 262.46H166.429V264H164.789C163.775 264 163.015 263.767 162.509 263.3C162.002 262.833 161.749 262.067 161.749 261V254.54H160.329V253.04H161.749V250.28H163.569V253.04H166.429V254.54H163.569ZM172.414 264.18C171.387 264.18 170.454 263.947 169.614 263.48C168.787 263.013 168.134 262.353 167.654 261.5C167.187 260.633 166.954 259.633 166.954 258.5C166.954 257.38 167.194 256.393 167.674 255.54C168.167 254.673 168.834 254.013 169.674 253.56C170.514 253.093 171.454 252.86 172.494 252.86C173.534 252.86 174.474 253.093 175.314 253.56C176.154 254.013 176.814 254.667 177.294 255.52C177.787 256.373 178.034 257.367 178.034 258.5C178.034 259.633 177.78 260.633 177.274 261.5C176.78 262.353 176.107 263.013 175.254 263.48C174.4 263.947 173.454 264.18 172.414 264.18ZM172.414 262.58C173.067 262.58 173.68 262.427 174.254 262.12C174.827 261.813 175.287 261.353 175.634 260.74C175.994 260.127 176.174 259.38 176.174 258.5C176.174 257.62 176 256.873 175.654 256.26C175.307 255.647 174.854 255.193 174.294 254.9C173.734 254.593 173.127 254.44 172.474 254.44C171.807 254.44 171.194 254.593 170.634 254.9C170.087 255.193 169.647 255.647 169.314 256.26C168.98 256.873 168.814 257.62 168.814 258.5C168.814 259.393 168.974 260.147 169.294 260.76C169.627 261.373 170.067 261.833 170.614 262.14C171.16 262.433 171.76 262.58 172.414 262.58ZM181.647 254.54V261C181.647 261.533 181.76 261.913 181.987 262.14C182.213 262.353 182.607 262.46 183.167 262.46H184.507V264H182.867C181.853 264 181.093 263.767 180.587 263.3C180.08 262.833 179.827 262.067 179.827 261V254.54H178.407V253.04H179.827V250.28H181.647V253.04H184.507V254.54H181.647ZM185.032 258.48C185.032 257.36 185.259 256.38 185.712 255.54C186.165 254.687 186.785 254.027 187.572 253.56C188.372 253.093 189.259 252.86 190.232 252.86C191.192 252.86 192.025 253.067 192.732 253.48C193.439 253.893 193.965 254.413 194.312 255.04V253.04H196.152V264H194.312V261.96C193.952 262.6 193.412 263.133 192.692 263.56C191.985 263.973 191.159 264.18 190.212 264.18C189.239 264.18 188.359 263.94 187.572 263.46C186.785 262.98 186.165 262.307 185.712 261.44C185.259 260.573 185.032 259.587 185.032 258.48ZM194.312 258.5C194.312 257.673 194.145 256.953 193.812 256.34C193.479 255.727 193.025 255.26 192.452 254.94C191.892 254.607 191.272 254.44 190.592 254.44C189.912 254.44 189.292 254.6 188.732 254.92C188.172 255.24 187.725 255.707 187.392 256.32C187.059 256.933 186.892 257.653 186.892 258.48C186.892 259.32 187.059 260.053 187.392 260.68C187.725 261.293 188.172 261.767 188.732 262.1C189.292 262.42 189.912 262.58 190.592 262.58C191.272 262.58 191.892 262.42 192.452 262.1C193.025 261.767 193.479 261.293 193.812 260.68C194.145 260.053 194.312 259.327 194.312 258.5ZM200.048 249.2V264H198.228V249.2H200.048ZM208.301 255.06C208.661 254.433 209.195 253.913 209.901 253.5C210.621 253.073 211.455 252.86 212.401 252.86C213.375 252.86 214.255 253.093 215.041 253.56C215.841 254.027 216.468 254.687 216.921 255.54C217.375 256.38 217.601 257.36 217.601 258.48C217.601 259.587 217.375 260.573 216.921 261.44C216.468 262.307 215.841 262.98 215.041 263.46C214.255 263.94 213.375 264.18 212.401 264.18C211.468 264.18 210.641 263.973 209.921 263.56C209.215 263.133 208.675 262.607 208.301 261.98V269.2H206.481V253.04H208.301V255.06ZM215.741 258.48C215.741 257.653 215.575 256.933 215.241 256.32C214.908 255.707 214.455 255.24 213.881 254.92C213.321 254.6 212.701 254.44 212.021 254.44C211.355 254.44 210.735 254.607 210.161 254.94C209.601 255.26 209.148 255.733 208.801 256.36C208.468 256.973 208.301 257.687 208.301 258.5C208.301 259.327 208.468 260.053 208.801 260.68C209.148 261.293 209.601 261.767 210.161 262.1C210.735 262.42 211.355 262.58 212.021 262.58C212.701 262.58 213.321 262.42 213.881 262.1C214.455 261.767 214.908 261.293 215.241 260.68C215.575 260.053 215.741 259.32 215.741 258.48ZM218.317 258.48C218.317 257.36 218.544 256.38 218.997 255.54C219.45 254.687 220.07 254.027 220.857 253.56C221.657 253.093 222.544 252.86 223.517 252.86C224.477 252.86 225.31 253.067 226.017 253.48C226.724 253.893 227.25 254.413 227.597 255.04V253.04H229.437V264H227.597V261.96C227.237 262.6 226.697 263.133 225.977 263.56C225.27 263.973 224.444 264.18 223.497 264.18C222.524 264.18 221.644 263.94 220.857 263.46C220.07 262.98 219.45 262.307 218.997 261.44C218.544 260.573 218.317 259.587 218.317 258.48ZM227.597 258.5C227.597 257.673 227.43 256.953 227.097 256.34C226.764 255.727 226.31 255.26 225.737 254.94C225.177 254.607 224.557 254.44 223.877 254.44C223.197 254.44 222.577 254.6 222.017 254.92C221.457 255.24 221.01 255.707 220.677 256.32C220.344 256.933 220.177 257.653 220.177 258.48C220.177 259.32 220.344 260.053 220.677 260.68C221.01 261.293 221.457 261.767 222.017 262.1C222.577 262.42 223.197 262.58 223.877 262.58C224.557 262.58 225.177 262.42 225.737 262.1C226.31 261.767 226.764 261.293 227.097 260.68C227.43 260.053 227.597 259.327 227.597 258.5ZM233.333 254.82C233.653 254.193 234.106 253.707 234.693 253.36C235.293 253.013 236.019 252.84 236.873 252.84V254.72H236.393C234.353 254.72 233.333 255.827 233.333 258.04V264H231.513V253.04H233.333V254.82ZM237.294 258.48C237.294 257.36 237.52 256.38 237.974 255.54C238.427 254.687 239.047 254.027 239.834 253.56C240.634 253.093 241.52 252.86 242.494 252.86C243.454 252.86 244.287 253.067 244.994 253.48C245.7 253.893 246.227 254.413 246.574 255.04V253.04H248.414V264H246.574V261.96C246.214 262.6 245.674 263.133 244.954 263.56C244.247 263.973 243.42 264.18 242.474 264.18C241.5 264.18 240.62 263.94 239.834 263.46C239.047 262.98 238.427 262.307 237.974 261.44C237.52 260.573 237.294 259.587 237.294 258.48ZM246.574 258.5C246.574 257.673 246.407 256.953 246.074 256.34C245.74 255.727 245.287 255.26 244.714 254.94C244.154 254.607 243.534 254.44 242.854 254.44C242.174 254.44 241.554 254.6 240.994 254.92C240.434 255.24 239.987 255.707 239.654 256.32C239.32 256.933 239.154 257.653 239.154 258.48C239.154 259.32 239.32 260.053 239.654 260.68C239.987 261.293 240.434 261.767 240.994 262.1C241.554 262.42 242.174 262.58 242.854 262.58C243.534 262.58 244.154 262.42 244.714 262.1C245.287 261.767 245.74 261.293 246.074 260.68C246.407 260.053 246.574 259.327 246.574 258.5ZM258.901 262.32L262.301 253.04H264.241L259.941 264H257.821L253.521 253.04H255.481L258.901 262.32ZM269.812 264.18C268.786 264.18 267.852 263.947 267.012 263.48C266.186 263.013 265.532 262.353 265.052 261.5C264.586 260.633 264.352 259.633 264.352 258.5C264.352 257.38 264.592 256.393 265.072 255.54C265.566 254.673 266.232 254.013 267.072 253.56C267.912 253.093 268.852 252.86 269.892 252.86C270.932 252.86 271.872 253.093 272.712 253.56C273.552 254.013 274.212 254.667 274.692 255.52C275.186 256.373 275.432 257.367 275.432 258.5C275.432 259.633 275.179 260.633 274.672 261.5C274.179 262.353 273.506 263.013 272.652 263.48C271.799 263.947 270.852 264.18 269.812 264.18ZM269.812 262.58C270.466 262.58 271.079 262.427 271.652 262.12C272.226 261.813 272.686 261.353 273.032 260.74C273.392 260.127 273.572 259.38 273.572 258.5C273.572 257.62 273.399 256.873 273.052 256.26C272.706 255.647 272.252 255.193 271.692 254.9C271.132 254.593 270.526 254.44 269.872 254.44C269.206 254.44 268.592 254.593 268.032 254.9C267.486 255.193 267.046 255.647 266.712 256.26C266.379 256.873 266.212 257.62 266.212 258.5C266.212 259.393 266.372 260.147 266.692 260.76C267.026 261.373 267.466 261.833 268.012 262.14C268.559 262.433 269.159 262.58 269.812 262.58ZM276.145 258.5C276.145 257.367 276.372 256.38 276.825 255.54C277.278 254.687 277.905 254.027 278.705 253.56C279.518 253.093 280.445 252.86 281.485 252.86C282.832 252.86 283.938 253.187 284.805 253.84C285.685 254.493 286.265 255.4 286.545 256.56H284.585C284.398 255.893 284.032 255.367 283.485 254.98C282.952 254.593 282.285 254.4 281.485 254.4C280.445 254.4 279.605 254.76 278.965 255.48C278.325 256.187 278.005 257.193 278.005 258.5C278.005 259.82 278.325 260.84 278.965 261.56C279.605 262.28 280.445 262.64 281.485 262.64C282.285 262.64 282.952 262.453 283.485 262.08C284.018 261.707 284.385 261.173 284.585 260.48H286.545C286.252 261.6 285.665 262.5 284.785 263.18C283.905 263.847 282.805 264.18 281.485 264.18C280.445 264.18 279.518 263.947 278.705 263.48C277.905 263.013 277.278 262.353 276.825 261.5C276.372 260.647 276.145 259.647 276.145 258.5ZM297.974 258.1C297.974 258.447 297.954 258.813 297.914 259.2H289.154C289.22 260.28 289.587 261.127 290.254 261.74C290.934 262.34 291.754 262.64 292.714 262.64C293.5 262.64 294.154 262.46 294.674 262.1C295.207 261.727 295.58 261.233 295.794 260.62H297.754C297.46 261.673 296.874 262.533 295.994 263.2C295.114 263.853 294.02 264.18 292.714 264.18C291.674 264.18 290.74 263.947 289.914 263.48C289.1 263.013 288.46 262.353 287.994 261.5C287.527 260.633 287.294 259.633 287.294 258.5C287.294 257.367 287.52 256.373 287.974 255.52C288.427 254.667 289.06 254.013 289.874 253.56C290.7 253.093 291.647 252.86 292.714 252.86C293.754 252.86 294.674 253.087 295.474 253.54C296.274 253.993 296.887 254.62 297.314 255.42C297.754 256.207 297.974 257.1 297.974 258.1ZM296.094 257.72C296.094 257.027 295.94 256.433 295.634 255.94C295.327 255.433 294.907 255.053 294.374 254.8C293.854 254.533 293.274 254.4 292.634 254.4C291.714 254.4 290.927 254.693 290.274 255.28C289.634 255.867 289.267 256.68 289.174 257.72H296.094ZM292.654 250.36L289.874 252.06V250.62L292.654 248.96L295.414 250.62V252.06L292.654 250.36ZM36.3536 282.18C35.5136 282.18 34.7603 282.04 34.0936 281.76C33.4269 281.467 32.9003 281.067 32.5136 280.56C32.1269 280.04 31.9136 279.447 31.8736 278.78H33.7536C33.8069 279.327 34.0603 279.773 34.5136 280.12C34.9803 280.467 35.5869 280.64 36.3336 280.64C37.0269 280.64 37.5736 280.487 37.9736 280.18C38.3736 279.873 38.5736 279.487 38.5736 279.02C38.5736 278.54 38.3603 278.187 37.9336 277.96C37.5069 277.72 36.8469 277.487 35.9536 277.26C35.1403 277.047 34.4736 276.833 33.9536 276.62C33.4469 276.393 33.0069 276.067 32.6336 275.64C32.2736 275.2 32.0936 274.627 32.0936 273.92C32.0936 273.36 32.2603 272.847 32.5936 272.38C32.9269 271.913 33.4003 271.547 34.0136 271.28C34.6269 271 35.3269 270.86 36.1136 270.86C37.3269 270.86 38.3069 271.167 39.0536 271.78C39.8003 272.393 40.2003 273.233 40.2536 274.3H38.4336C38.3936 273.727 38.1603 273.267 37.7336 272.92C37.3203 272.573 36.7603 272.4 36.0536 272.4C35.4003 272.4 34.8803 272.54 34.4936 272.82C34.1069 273.1 33.9136 273.467 33.9136 273.92C33.9136 274.28 34.0269 274.58 34.2536 274.82C34.4936 275.047 34.7869 275.233 35.1336 275.38C35.4936 275.513 35.9869 275.667 36.6136 275.84C37.4003 276.053 38.0403 276.267 38.5336 276.48C39.0269 276.68 39.4469 276.987 39.7936 277.4C40.1536 277.813 40.3403 278.353 40.3536 279.02C40.3536 279.62 40.1869 280.16 39.8536 280.64C39.5203 281.12 39.0469 281.5 38.4336 281.78C37.8336 282.047 37.1403 282.18 36.3536 282.18ZM51.9228 276.1C51.9228 276.447 51.9028 276.813 51.8628 277.2H43.1028C43.1695 278.28 43.5361 279.127 44.2028 279.74C44.8828 280.34 45.7028 280.64 46.6628 280.64C47.4495 280.64 48.1028 280.46 48.6228 280.1C49.1561 279.727 49.5295 279.233 49.7428 278.62H51.7028C51.4095 279.673 50.8228 280.533 49.9428 281.2C49.0628 281.853 47.9695 282.18 46.6628 282.18C45.6228 282.18 44.6895 281.947 43.8628 281.48C43.0495 281.013 42.4095 280.353 41.9428 279.5C41.4761 278.633 41.2428 277.633 41.2428 276.5C41.2428 275.367 41.4695 274.373 41.9228 273.52C42.3761 272.667 43.0095 272.013 43.8228 271.56C44.6495 271.093 45.5961 270.86 46.6628 270.86C47.7028 270.86 48.6228 271.087 49.4228 271.54C50.2228 271.993 50.8361 272.62 51.2628 273.42C51.7028 274.207 51.9228 275.1 51.9228 276.1ZM50.0428 275.72C50.0428 275.027 49.8895 274.433 49.5828 273.94C49.2761 273.433 48.8561 273.053 48.3228 272.8C47.8028 272.533 47.2228 272.4 46.5828 272.4C45.6628 272.4 44.8761 272.693 44.2228 273.28C43.5828 273.867 43.2161 274.68 43.1228 275.72H50.0428ZM61.5372 282.18C60.6972 282.18 59.9439 282.04 59.2772 281.76C58.6105 281.467 58.0839 281.067 57.6972 280.56C57.3105 280.04 57.0972 279.447 57.0572 278.78H58.9372C58.9905 279.327 59.2439 279.773 59.6972 280.12C60.1639 280.467 60.7705 280.64 61.5172 280.64C62.2105 280.64 62.7572 280.487 63.1572 280.18C63.5572 279.873 63.7572 279.487 63.7572 279.02C63.7572 278.54 63.5439 278.187 63.1172 277.96C62.6905 277.72 62.0305 277.487 61.1372 277.26C60.3239 277.047 59.6572 276.833 59.1372 276.62C58.6305 276.393 58.1905 276.067 57.8172 275.64C57.4572 275.2 57.2772 274.627 57.2772 273.92C57.2772 273.36 57.4439 272.847 57.7772 272.38C58.1105 271.913 58.5839 271.547 59.1972 271.28C59.8105 271 60.5105 270.86 61.2972 270.86C62.5105 270.86 63.4905 271.167 64.2372 271.78C64.9839 272.393 65.3839 273.233 65.4372 274.3H63.6172C63.5772 273.727 63.3439 273.267 62.9172 272.92C62.5039 272.573 61.9439 272.4 61.2372 272.4C60.5839 272.4 60.0639 272.54 59.6772 272.82C59.2905 273.1 59.0972 273.467 59.0972 273.92C59.0972 274.28 59.2105 274.58 59.4372 274.82C59.6772 275.047 59.9705 275.233 60.3172 275.38C60.6772 275.513 61.1705 275.667 61.7972 275.84C62.5839 276.053 63.2239 276.267 63.7172 276.48C64.2105 276.68 64.6305 276.987 64.9772 277.4C65.3372 277.813 65.5239 278.353 65.5372 279.02C65.5372 279.62 65.3705 280.16 65.0372 280.64C64.7039 281.12 64.2305 281.5 63.6172 281.78C63.0172 282.047 62.3239 282.18 61.5372 282.18ZM77.1064 276.1C77.1064 276.447 77.0864 276.813 77.0464 277.2H68.2864C68.3531 278.28 68.7197 279.127 69.3864 279.74C70.0664 280.34 70.8864 280.64 71.8464 280.64C72.6331 280.64 73.2864 280.46 73.8064 280.1C74.3397 279.727 74.7131 279.233 74.9264 278.62H76.8864C76.5931 279.673 76.0064 280.533 75.1264 281.2C74.2464 281.853 73.1531 282.18 71.8464 282.18C70.8064 282.18 69.8731 281.947 69.0464 281.48C68.2331 281.013 67.5931 280.353 67.1264 279.5C66.6597 278.633 66.4264 277.633 66.4264 276.5C66.4264 275.367 66.6531 274.373 67.1064 273.52C67.5597 272.667 68.1931 272.013 69.0064 271.56C69.8331 271.093 70.7797 270.86 71.8464 270.86C72.8864 270.86 73.8064 271.087 74.6064 271.54C75.4064 271.993 76.0197 272.62 76.4464 273.42C76.8864 274.207 77.1064 275.1 77.1064 276.1ZM75.2264 275.72C75.2264 275.027 75.0731 274.433 74.7664 273.94C74.4597 273.433 74.0397 273.053 73.5064 272.8C72.9864 272.533 72.4064 272.4 71.7664 272.4C70.8464 272.4 70.0597 272.693 69.4064 273.28C68.7664 273.867 68.3997 274.68 68.3064 275.72H75.2264ZM83.8488 270.84C85.1821 270.84 86.2621 271.247 87.0888 272.06C87.9154 272.86 88.3288 274.02 88.3288 275.54V282H86.5288V275.8C86.5288 274.707 86.2554 273.873 85.7088 273.3C85.1621 272.713 84.4154 272.42 83.4688 272.42C82.5088 272.42 81.7421 272.72 81.1688 273.32C80.6088 273.92 80.3288 274.793 80.3288 275.94V282H78.5088V271.04H80.3288V272.6C80.6888 272.04 81.1754 271.607 81.7888 271.3C82.4154 270.993 83.1021 270.84 83.8488 270.84ZM92.5217 272.54V279C92.5217 279.533 92.6351 279.913 92.8617 280.14C93.0884 280.353 93.4817 280.46 94.0417 280.46H95.3817V282H93.7417C92.7284 282 91.9684 281.767 91.4617 281.3C90.9551 280.833 90.7017 280.067 90.7017 279V272.54H89.2817V271.04H90.7017V268.28H92.5217V271.04H95.3817V272.54H92.5217ZM97.5269 269.26C97.1802 269.26 96.8869 269.14 96.6469 268.9C96.4069 268.66 96.2869 268.367 96.2869 268.02C96.2869 267.673 96.4069 267.38 96.6469 267.14C96.8869 266.9 97.1802 266.78 97.5269 266.78C97.8602 266.78 98.1402 266.9 98.3669 267.14C98.6069 267.38 98.7269 267.673 98.7269 268.02C98.7269 268.367 98.6069 268.66 98.3669 268.9C98.1402 269.14 97.8602 269.26 97.5269 269.26ZM98.4069 271.04V282H96.5869V271.04H98.4069ZM102.329 272.82C102.649 272.193 103.102 271.707 103.689 271.36C104.289 271.013 105.015 270.84 105.869 270.84V272.72H105.389C103.349 272.72 102.329 273.827 102.329 276.04V282H100.509V271.04H102.329V272.82ZM115.182 282.18C114.342 282.18 113.588 282.04 112.922 281.76C112.255 281.467 111.728 281.067 111.342 280.56C110.955 280.04 110.742 279.447 110.702 278.78H112.582C112.635 279.327 112.888 279.773 113.342 280.12C113.808 280.467 114.415 280.64 115.162 280.64C115.855 280.64 116.402 280.487 116.802 280.18C117.202 279.873 117.402 279.487 117.402 279.02C117.402 278.54 117.188 278.187 116.762 277.96C116.335 277.72 115.675 277.487 114.782 277.26C113.968 277.047 113.302 276.833 112.782 276.62C112.275 276.393 111.835 276.067 111.462 275.64C111.102 275.2 110.922 274.627 110.922 273.92C110.922 273.36 111.088 272.847 111.422 272.38C111.755 271.913 112.228 271.547 112.842 271.28C113.455 271 114.155 270.86 114.942 270.86C116.155 270.86 117.135 271.167 117.882 271.78C118.628 272.393 119.028 273.233 119.082 274.3H117.262C117.222 273.727 116.988 273.267 116.562 272.92C116.148 272.573 115.588 272.4 114.882 272.4C114.228 272.4 113.708 272.54 113.322 272.82C112.935 273.1 112.742 273.467 112.742 273.92C112.742 274.28 112.855 274.58 113.082 274.82C113.322 275.047 113.615 275.233 113.962 275.38C114.322 275.513 114.815 275.667 115.442 275.84C116.228 276.053 116.868 276.267 117.362 276.48C117.855 276.68 118.275 276.987 118.622 277.4C118.982 277.813 119.168 278.353 119.182 279.02C119.182 279.62 119.015 280.16 118.682 280.64C118.348 281.12 117.875 281.5 117.262 281.78C116.662 282.047 115.968 282.18 115.182 282.18ZM130.751 276.1C130.751 276.447 130.731 276.813 130.691 277.2H121.931C121.998 278.28 122.364 279.127 123.031 279.74C123.711 280.34 124.531 280.64 125.491 280.64C126.278 280.64 126.931 280.46 127.451 280.1C127.984 279.727 128.358 279.233 128.571 278.62H130.531C130.238 279.673 129.651 280.533 128.771 281.2C127.891 281.853 126.798 282.18 125.491 282.18C124.451 282.18 123.518 281.947 122.691 281.48C121.878 281.013 121.238 280.353 120.771 279.5C120.304 278.633 120.071 277.633 120.071 276.5C120.071 275.367 120.298 274.373 120.751 273.52C121.204 272.667 121.838 272.013 122.651 271.56C123.478 271.093 124.424 270.86 125.491 270.86C126.531 270.86 127.451 271.087 128.251 271.54C129.051 271.993 129.664 272.62 130.091 273.42C130.531 274.207 130.751 275.1 130.751 276.1ZM128.871 275.72C128.871 275.027 128.718 274.433 128.411 273.94C128.104 273.433 127.684 273.053 127.151 272.8C126.631 272.533 126.051 272.4 125.411 272.4C124.491 272.4 123.704 272.693 123.051 273.28C122.411 273.867 122.044 274.68 121.951 275.72H128.871ZM136.673 270.86C137.62 270.86 138.447 271.067 139.153 271.48C139.873 271.893 140.407 272.413 140.753 273.04V271.04H142.593V282.24C142.593 283.24 142.38 284.127 141.953 284.9C141.527 285.687 140.913 286.3 140.113 286.74C139.327 287.18 138.407 287.4 137.353 287.4C135.913 287.4 134.713 287.06 133.753 286.38C132.793 285.7 132.227 284.773 132.053 283.6H133.853C134.053 284.267 134.467 284.8 135.093 285.2C135.72 285.613 136.473 285.82 137.353 285.82C138.353 285.82 139.167 285.507 139.793 284.88C140.433 284.253 140.753 283.373 140.753 282.24V279.94C140.393 280.58 139.86 281.113 139.153 281.54C138.447 281.967 137.62 282.18 136.673 282.18C135.7 282.18 134.813 281.94 134.013 281.46C133.227 280.98 132.607 280.307 132.153 279.44C131.7 278.573 131.473 277.587 131.473 276.48C131.473 275.36 131.7 274.38 132.153 273.54C132.607 272.687 133.227 272.027 134.013 271.56C134.813 271.093 135.7 270.86 136.673 270.86ZM140.753 276.5C140.753 275.673 140.587 274.953 140.253 274.34C139.92 273.727 139.467 273.26 138.893 272.94C138.333 272.607 137.713 272.44 137.033 272.44C136.353 272.44 135.733 272.6 135.173 272.92C134.613 273.24 134.167 273.707 133.833 274.32C133.5 274.933 133.333 275.653 133.333 276.48C133.333 277.32 133.5 278.053 133.833 278.68C134.167 279.293 134.613 279.767 135.173 280.1C135.733 280.42 136.353 280.58 137.033 280.58C137.713 280.58 138.333 280.42 138.893 280.1C139.467 279.767 139.92 279.293 140.253 278.68C140.587 278.053 140.753 277.327 140.753 276.5ZM154.389 271.04V282H152.569V280.38C152.222 280.94 151.736 281.38 151.109 281.7C150.496 282.007 149.816 282.16 149.069 282.16C148.216 282.16 147.449 281.987 146.769 281.64C146.089 281.28 145.549 280.747 145.149 280.04C144.762 279.333 144.569 278.473 144.569 277.46V271.04H146.369V277.22C146.369 278.3 146.642 279.133 147.189 279.72C147.736 280.293 148.482 280.58 149.429 280.58C150.402 280.58 151.169 280.28 151.729 279.68C152.289 279.08 152.569 278.207 152.569 277.06V271.04H154.389ZM158.282 272.82C158.602 272.193 159.055 271.707 159.642 271.36C160.242 271.013 160.969 270.84 161.822 270.84V272.72H161.342C159.302 272.72 158.282 273.827 158.282 276.04V282H156.462V271.04H158.282V272.82ZM167.703 282.18C166.676 282.18 165.743 281.947 164.903 281.48C164.076 281.013 163.423 280.353 162.943 279.5C162.476 278.633 162.243 277.633 162.243 276.5C162.243 275.38 162.483 274.393 162.963 273.54C163.456 272.673 164.123 272.013 164.963 271.56C165.803 271.093 166.743 270.86 167.783 270.86C168.823 270.86 169.763 271.093 170.603 271.56C171.443 272.013 172.103 272.667 172.583 273.52C173.076 274.373 173.323 275.367 173.323 276.5C173.323 277.633 173.069 278.633 172.563 279.5C172.069 280.353 171.396 281.013 170.543 281.48C169.689 281.947 168.743 282.18 167.703 282.18ZM167.703 280.58C168.356 280.58 168.969 280.427 169.543 280.12C170.116 279.813 170.576 279.353 170.923 278.74C171.283 278.127 171.463 277.38 171.463 276.5C171.463 275.62 171.289 274.873 170.943 274.26C170.596 273.647 170.143 273.193 169.583 272.9C169.023 272.593 168.416 272.44 167.763 272.44C167.096 272.44 166.483 272.593 165.923 272.9C165.376 273.193 164.936 273.647 164.603 274.26C164.269 274.873 164.103 275.62 164.103 276.5C164.103 277.393 164.263 278.147 164.583 278.76C164.916 279.373 165.356 279.833 165.903 280.14C166.449 280.433 167.049 280.58 167.703 280.58ZM178.368 276.48C178.368 275.36 178.594 274.38 179.048 273.54C179.501 272.687 180.121 272.027 180.908 271.56C181.708 271.093 182.594 270.86 183.568 270.86C184.528 270.86 185.361 271.067 186.068 271.48C186.774 271.893 187.301 272.413 187.648 273.04V271.04H189.488V282H187.648V279.96C187.288 280.6 186.748 281.133 186.028 281.56C185.321 281.973 184.494 282.18 183.548 282.18C182.574 282.18 181.694 281.94 180.908 281.46C180.121 280.98 179.501 280.307 179.048 279.44C178.594 278.573 178.368 277.587 178.368 276.48ZM187.648 276.5C187.648 275.673 187.481 274.953 187.148 274.34C186.814 273.727 186.361 273.26 185.788 272.94C185.228 272.607 184.608 272.44 183.928 272.44C183.248 272.44 182.628 272.6 182.068 272.92C181.508 273.24 181.061 273.707 180.728 274.32C180.394 274.933 180.228 275.653 180.228 276.48C180.228 277.32 180.394 278.053 180.728 278.68C181.061 279.293 181.508 279.767 182.068 280.1C182.628 280.42 183.248 280.58 183.928 280.58C184.608 280.58 185.228 280.42 185.788 280.1C186.361 279.767 186.814 279.293 187.148 278.68C187.481 278.053 187.648 277.327 187.648 276.5ZM196.343 282.18C195.317 282.18 194.383 281.947 193.543 281.48C192.717 281.013 192.063 280.353 191.583 279.5C191.117 278.633 190.883 277.633 190.883 276.5C190.883 275.38 191.123 274.393 191.603 273.54C192.097 272.673 192.763 272.013 193.603 271.56C194.443 271.093 195.383 270.86 196.423 270.86C197.463 270.86 198.403 271.093 199.243 271.56C200.083 272.013 200.743 272.667 201.223 273.52C201.717 274.373 201.963 275.367 201.963 276.5C201.963 277.633 201.71 278.633 201.203 279.5C200.71 280.353 200.037 281.013 199.183 281.48C198.33 281.947 197.383 282.18 196.343 282.18ZM196.343 280.58C196.997 280.58 197.61 280.427 198.183 280.12C198.757 279.813 199.217 279.353 199.563 278.74C199.923 278.127 200.103 277.38 200.103 276.5C200.103 275.62 199.93 274.873 199.583 274.26C199.237 273.647 198.783 273.193 198.223 272.9C197.663 272.593 197.057 272.44 196.403 272.44C195.737 272.44 195.123 272.593 194.563 272.9C194.017 273.193 193.577 273.647 193.243 274.26C192.91 274.873 192.743 275.62 192.743 276.5C192.743 277.393 192.903 278.147 193.223 278.76C193.557 279.373 193.997 279.833 194.543 280.14C195.09 280.433 195.69 280.58 196.343 280.58ZM207.008 276.48C207.008 275.36 207.235 274.38 207.688 273.54C208.142 272.687 208.762 272.027 209.548 271.56C210.348 271.093 211.235 270.86 212.208 270.86C213.168 270.86 214.002 271.067 214.708 271.48C215.415 271.893 215.942 272.413 216.288 273.04V271.04H218.128V282H216.288V279.96C215.928 280.6 215.388 281.133 214.668 281.56C213.962 281.973 213.135 282.18 212.188 282.18C211.215 282.18 210.335 281.94 209.548 281.46C208.762 280.98 208.142 280.307 207.688 279.44C207.235 278.573 207.008 277.587 207.008 276.48ZM216.288 276.5C216.288 275.673 216.122 274.953 215.788 274.34C215.455 273.727 215.002 273.26 214.428 272.94C213.868 272.607 213.248 272.44 212.568 272.44C211.888 272.44 211.268 272.6 210.708 272.92C210.148 273.24 209.702 273.707 209.368 274.32C209.035 274.933 208.868 275.653 208.868 276.48C208.868 277.32 209.035 278.053 209.368 278.68C209.702 279.293 210.148 279.767 210.708 280.1C211.268 280.42 211.888 280.58 212.568 280.58C213.248 280.58 213.868 280.42 214.428 280.1C215.002 279.767 215.455 279.293 215.788 278.68C216.122 278.053 216.288 277.327 216.288 276.5ZM224.724 270.86C225.671 270.86 226.497 271.067 227.204 271.48C227.924 271.893 228.457 272.413 228.804 273.04V271.04H230.644V282.24C230.644 283.24 230.431 284.127 230.004 284.9C229.577 285.687 228.964 286.3 228.164 286.74C227.377 287.18 226.457 287.4 225.404 287.4C223.964 287.4 222.764 287.06 221.804 286.38C220.844 285.7 220.277 284.773 220.104 283.6H221.904C222.104 284.267 222.517 284.8 223.144 285.2C223.771 285.613 224.524 285.82 225.404 285.82C226.404 285.82 227.217 285.507 227.844 284.88C228.484 284.253 228.804 283.373 228.804 282.24V279.94C228.444 280.58 227.911 281.113 227.204 281.54C226.497 281.967 225.671 282.18 224.724 282.18C223.751 282.18 222.864 281.94 222.064 281.46C221.277 280.98 220.657 280.307 220.204 279.44C219.751 278.573 219.524 277.587 219.524 276.48C219.524 275.36 219.751 274.38 220.204 273.54C220.657 272.687 221.277 272.027 222.064 271.56C222.864 271.093 223.751 270.86 224.724 270.86ZM228.804 276.5C228.804 275.673 228.637 274.953 228.304 274.34C227.971 273.727 227.517 273.26 226.944 272.94C226.384 272.607 225.764 272.44 225.084 272.44C224.404 272.44 223.784 272.6 223.224 272.92C222.664 273.24 222.217 273.707 221.884 274.32C221.551 274.933 221.384 275.653 221.384 276.48C221.384 277.32 221.551 278.053 221.884 278.68C222.217 279.293 222.664 279.767 223.224 280.1C223.784 280.42 224.404 280.58 225.084 280.58C225.764 280.58 226.384 280.42 226.944 280.1C227.517 279.767 227.971 279.293 228.304 278.68C228.637 278.053 228.804 277.327 228.804 276.5ZM242.72 276.1C242.72 276.447 242.7 276.813 242.66 277.2H233.9C233.966 278.28 234.333 279.127 235 279.74C235.68 280.34 236.5 280.64 237.46 280.64C238.246 280.64 238.9 280.46 239.42 280.1C239.953 279.727 240.326 279.233 240.54 278.62H242.5C242.206 279.673 241.62 280.533 240.74 281.2C239.86 281.853 238.766 282.18 237.46 282.18C236.42 282.18 235.486 281.947 234.66 281.48C233.846 281.013 233.206 280.353 232.74 279.5C232.273 278.633 232.04 277.633 232.04 276.5C232.04 275.367 232.266 274.373 232.72 273.52C233.173 272.667 233.806 272.013 234.62 271.56C235.446 271.093 236.393 270.86 237.46 270.86C238.5 270.86 239.42 271.087 240.22 271.54C241.02 271.993 241.633 272.62 242.06 273.42C242.5 274.207 242.72 275.1 242.72 276.1ZM240.84 275.72C240.84 275.027 240.686 274.433 240.38 273.94C240.073 273.433 239.653 273.053 239.12 272.8C238.6 272.533 238.02 272.4 237.38 272.4C236.46 272.4 235.673 272.693 235.02 273.28C234.38 273.867 234.013 274.68 233.92 275.72H240.84ZM249.462 270.84C250.795 270.84 251.875 271.247 252.702 272.06C253.529 272.86 253.942 274.02 253.942 275.54V282H252.142V275.8C252.142 274.707 251.869 273.873 251.322 273.3C250.775 272.713 250.029 272.42 249.082 272.42C248.122 272.42 247.355 272.72 246.782 273.32C246.222 273.92 245.942 274.793 245.942 275.94V282H244.122V271.04H245.942V272.6C246.302 272.04 246.789 271.607 247.402 271.3C248.029 270.993 248.715 270.84 249.462 270.84ZM255.235 276.48C255.235 275.36 255.462 274.38 255.915 273.54C256.368 272.687 256.988 272.027 257.775 271.56C258.575 271.093 259.468 270.86 260.455 270.86C261.308 270.86 262.102 271.06 262.835 271.46C263.568 271.847 264.128 272.36 264.515 273V267.2H266.355V282H264.515V279.94C264.155 280.593 263.622 281.133 262.915 281.56C262.208 281.973 261.382 282.18 260.435 282.18C259.462 282.18 258.575 281.94 257.775 281.46C256.988 280.98 256.368 280.307 255.915 279.44C255.462 278.573 255.235 277.587 255.235 276.48ZM264.515 276.5C264.515 275.673 264.348 274.953 264.015 274.34C263.682 273.727 263.228 273.26 262.655 272.94C262.095 272.607 261.475 272.44 260.795 272.44C260.115 272.44 259.495 272.6 258.935 272.92C258.375 273.24 257.928 273.707 257.595 274.32C257.262 274.933 257.095 275.653 257.095 276.48C257.095 277.32 257.262 278.053 257.595 278.68C257.928 279.293 258.375 279.767 258.935 280.1C259.495 280.42 260.115 280.58 260.795 280.58C261.475 280.58 262.095 280.42 262.655 280.1C263.228 279.767 263.682 279.293 264.015 278.68C264.348 278.053 264.515 277.327 264.515 276.5ZM267.751 276.48C267.751 275.36 267.977 274.38 268.431 273.54C268.884 272.687 269.504 272.027 270.291 271.56C271.091 271.093 271.977 270.86 272.951 270.86C273.911 270.86 274.744 271.067 275.451 271.48C276.157 271.893 276.684 272.413 277.031 273.04V271.04H278.871V282H277.031V279.96C276.671 280.6 276.131 281.133 275.411 281.56C274.704 281.973 273.877 282.18 272.931 282.18C271.957 282.18 271.077 281.94 270.291 281.46C269.504 280.98 268.884 280.307 268.431 279.44C267.977 278.573 267.751 277.587 267.751 276.48ZM277.031 276.5C277.031 275.673 276.864 274.953 276.531 274.34C276.197 273.727 275.744 273.26 275.171 272.94C274.611 272.607 273.991 272.44 273.311 272.44C272.631 272.44 272.011 272.6 271.451 272.92C270.891 273.24 270.444 273.707 270.111 274.32C269.777 274.933 269.611 275.653 269.611 276.48C269.611 277.32 269.777 278.053 270.111 278.68C270.444 279.293 270.891 279.767 271.451 280.1C272.011 280.42 272.631 280.58 273.311 280.58C273.991 280.58 274.611 280.42 275.171 280.1C275.744 279.767 276.197 279.293 276.531 278.68C276.864 278.053 277.031 277.327 277.031 276.5ZM282.766 272.82C283.086 272.193 283.54 271.707 284.126 271.36C284.726 271.013 285.453 270.84 286.306 270.84V272.72H285.826C283.786 272.72 282.766 273.827 282.766 276.04V282H280.946V271.04H282.766V272.82ZM287.987 282.12C287.641 282.12 287.347 282 287.107 281.76C286.867 281.52 286.747 281.227 286.747 280.88C286.747 280.533 286.867 280.24 287.107 280C287.347 279.76 287.641 279.64 287.987 279.64C288.321 279.64 288.601 279.76 288.827 280C289.067 280.24 289.187 280.533 289.187 280.88C289.187 281.227 289.067 281.52 288.827 281.76C288.601 282 288.321 282.12 287.987 282.12Z" fill="#472969"/>
<path d="M147.015 16.293C145.574 16.7755 144.088 17.7406 143.205 18.7779C142.764 19.3087 140.232 24.3268 137.143 30.8406C134.24 36.9684 131.754 42.0588 131.615 42.1312C131.476 42.2277 126.04 43.0962 119.537 44.0612C108.179 45.7741 107.644 45.8706 106.297 46.6185C104.695 47.487 103.347 48.9345 102.558 50.6474C102.093 51.6124 102 52.1432 102 54.3145C102 58.3434 101.814 58.078 111.988 68.3795C116.703 73.1804 120.605 77.2094 120.652 77.3541C120.698 77.523 119.816 83.12 118.701 89.8027C116.517 103.072 116.494 103.458 117.539 105.87C119.235 109.706 123.625 111.829 127.457 110.695C128.154 110.478 133.311 107.8 138.932 104.736C144.529 101.697 149.198 99.1875 149.314 99.1875C149.43 99.1875 154.099 101.624 159.673 104.64C165.248 107.631 170.451 110.285 171.217 110.575C175.096 111.95 179.719 109.827 181.437 105.87C182.506 103.434 182.459 103.048 180.276 89.7786L178.278 77.6195L186.989 68.5725C197.232 57.9091 197 58.2228 197 54.3145C197 52.1432 196.907 51.6124 196.442 50.6474C195.652 48.9345 194.305 47.487 192.726 46.6185C191.379 45.8706 190.798 45.7741 179.417 44.0371C172.89 43.048 167.524 42.2277 167.501 42.1795C167.478 42.1553 165.016 37.089 162.019 30.913C156.027 18.5608 155.655 17.9818 153.03 16.7273C151.428 15.9794 148.571 15.7623 147.015 16.293Z" fill="#472969"/>
</svg>
