<svg width="313" height="352" viewBox="0 0 313 352" fill="none" xmlns="http://www.w3.org/2000/svg">
<circle cx="149.5" cy="78.5" r="78.5" fill="#FC4BFF"/>
<rect y="50" width="306" height="299.237" rx="25" fill="#FC4BFF"/>
<rect x="7" y="52.1528" width="306" height="299.237" rx="25" fill="white"/>
<circle cx="152.5" cy="81.5" r="78.5" fill="white"/>
<path d="M41.0404 138.736C41.0404 136.517 41.5204 134.544 42.4804 132.816C43.4404 131.067 44.7737 129.712 46.4804 128.752C48.2084 127.771 50.1604 127.28 52.3364 127.28C55.003 127.28 57.2857 127.984 59.1844 129.392C61.083 130.8 62.3524 132.72 62.9924 135.152H56.9764C56.5284 134.213 55.8884 133.499 55.0564 133.008C54.2457 132.517 53.3177 132.272 52.2724 132.272C50.587 132.272 49.2217 132.859 48.1764 134.032C47.131 135.205 46.6084 136.773 46.6084 138.736C46.6084 140.699 47.131 142.267 48.1764 143.44C49.2217 144.613 50.587 145.2 52.2724 145.2C53.3177 145.2 54.2457 144.955 55.0564 144.464C55.8884 143.973 56.5284 143.259 56.9764 142.32H62.9924C62.3524 144.752 61.083 146.672 59.1844 148.08C57.2857 149.467 55.003 150.16 52.3364 150.16C50.1604 150.16 48.2084 149.68 46.4804 148.72C44.7737 147.739 43.4404 146.384 42.4804 144.656C41.5204 142.928 41.0404 140.955 41.0404 138.736ZM72.8714 150.256C71.122 150.256 69.5434 149.883 68.1354 149.136C66.7487 148.389 65.65 147.323 64.8394 145.936C64.05 144.549 63.6554 142.928 63.6554 141.072C63.6554 139.237 64.0607 137.627 64.8714 136.24C65.682 134.832 66.7914 133.755 68.1994 133.008C69.6074 132.261 71.186 131.888 72.9354 131.888C74.6847 131.888 76.2634 132.261 77.6714 133.008C79.0794 133.755 80.1887 134.832 80.9994 136.24C81.81 137.627 82.2154 139.237 82.2154 141.072C82.2154 142.907 81.7994 144.528 80.9674 145.936C80.1567 147.323 79.0367 148.389 77.6074 149.136C76.1994 149.883 74.6207 150.256 72.8714 150.256ZM72.8714 145.52C73.9167 145.52 74.802 145.136 75.5274 144.368C76.274 143.6 76.6474 142.501 76.6474 141.072C76.6474 139.643 76.2847 138.544 75.5594 137.776C74.8554 137.008 73.9807 136.624 72.9354 136.624C71.8687 136.624 70.9834 137.008 70.2794 137.776C69.5754 138.523 69.2234 139.621 69.2234 141.072C69.2234 142.501 69.5647 143.6 70.2474 144.368C70.9514 145.136 71.826 145.52 72.8714 145.52ZM94.3984 131.952C96.489 131.952 98.153 132.635 99.3904 134C100.649 135.344 101.278 137.2 101.278 139.568V150H95.8384V140.304C95.8384 139.109 95.529 138.181 94.9104 137.52C94.2917 136.859 93.4597 136.528 92.4144 136.528C91.369 136.528 90.537 136.859 89.9184 137.52C89.2997 138.181 88.9904 139.109 88.9904 140.304V150H83.5184V132.144H88.9904V134.512C89.545 133.723 90.2917 133.104 91.2304 132.656C92.169 132.187 93.225 131.952 94.3984 131.952ZM111.513 144.88L115.385 132.144H121.209L114.873 150H108.121L101.785 132.144H107.641L111.513 144.88ZM138.744 140.784C138.744 141.296 138.712 141.829 138.648 142.384H126.264C126.349 143.493 126.701 144.347 127.32 144.944C127.96 145.52 128.739 145.808 129.656 145.808C131.021 145.808 131.971 145.232 132.504 144.08H138.328C138.029 145.253 137.485 146.309 136.696 147.248C135.928 148.187 134.957 148.923 133.784 149.456C132.611 149.989 131.299 150.256 129.848 150.256C128.099 150.256 126.541 149.883 125.176 149.136C123.811 148.389 122.744 147.323 121.976 145.936C121.208 144.549 120.824 142.928 120.824 141.072C120.824 139.216 121.197 137.595 121.944 136.208C122.712 134.821 123.779 133.755 125.144 133.008C126.509 132.261 128.077 131.888 129.848 131.888C131.576 131.888 133.112 132.251 134.456 132.976C135.8 133.701 136.845 134.736 137.592 136.08C138.36 137.424 138.744 138.992 138.744 140.784ZM133.144 139.344C133.144 138.405 132.824 137.659 132.184 137.104C131.544 136.549 130.744 136.272 129.784 136.272C128.867 136.272 128.088 136.539 127.448 137.072C126.829 137.605 126.445 138.363 126.296 139.344H133.144ZM145.503 135.12C146.143 134.139 146.943 133.371 147.903 132.816C148.863 132.24 149.93 131.952 151.103 131.952V137.744H149.599C148.234 137.744 147.21 138.043 146.527 138.64C145.844 139.216 145.503 140.24 145.503 141.712V150H140.031V132.144H145.503V135.12ZM159.382 150.256C157.825 150.256 156.438 149.989 155.222 149.456C154.006 148.923 153.046 148.197 152.342 147.28C151.638 146.341 151.244 145.296 151.158 144.144H156.566C156.63 144.763 156.918 145.264 157.43 145.648C157.942 146.032 158.572 146.224 159.318 146.224C160.001 146.224 160.524 146.096 160.886 145.84C161.27 145.563 161.462 145.211 161.462 144.784C161.462 144.272 161.196 143.899 160.662 143.664C160.129 143.408 159.265 143.131 158.07 142.832C156.79 142.533 155.724 142.224 154.87 141.904C154.017 141.563 153.281 141.04 152.662 140.336C152.044 139.611 151.734 138.64 151.734 137.424C151.734 136.4 152.012 135.472 152.566 134.64C153.142 133.787 153.974 133.115 155.062 132.624C156.172 132.133 157.484 131.888 158.998 131.888C161.238 131.888 162.998 132.443 164.278 133.552C165.58 134.661 166.326 136.133 166.518 137.968H161.462C161.377 137.349 161.1 136.859 160.63 136.496C160.182 136.133 159.585 135.952 158.838 135.952C158.198 135.952 157.708 136.08 157.366 136.336C157.025 136.571 156.854 136.901 156.854 137.328C156.854 137.84 157.121 138.224 157.654 138.48C158.209 138.736 159.062 138.992 160.214 139.248C161.537 139.589 162.614 139.931 163.446 140.272C164.278 140.592 165.004 141.125 165.622 141.872C166.262 142.597 166.593 143.579 166.614 144.816C166.614 145.861 166.316 146.8 165.718 147.632C165.142 148.443 164.3 149.083 163.19 149.552C162.102 150.021 160.833 150.256 159.382 150.256ZM185.194 140.784C185.194 141.296 185.162 141.829 185.098 142.384H172.714C172.799 143.493 173.151 144.347 173.77 144.944C174.41 145.52 175.189 145.808 176.106 145.808C177.471 145.808 178.421 145.232 178.954 144.08H184.778C184.479 145.253 183.935 146.309 183.146 147.248C182.378 148.187 181.407 148.923 180.234 149.456C179.061 149.989 177.749 150.256 176.298 150.256C174.549 150.256 172.991 149.883 171.626 149.136C170.261 148.389 169.194 147.323 168.426 145.936C167.658 144.549 167.274 142.928 167.274 141.072C167.274 139.216 167.647 137.595 168.394 136.208C169.162 134.821 170.229 133.755 171.594 133.008C172.959 132.261 174.527 131.888 176.298 131.888C178.026 131.888 179.562 132.251 180.906 132.976C182.25 133.701 183.295 134.736 184.042 136.08C184.81 137.424 185.194 138.992 185.194 140.784ZM179.594 139.344C179.594 138.405 179.274 137.659 178.634 137.104C177.994 136.549 177.194 136.272 176.234 136.272C175.317 136.272 174.538 136.539 173.898 137.072C173.279 137.605 172.895 138.363 172.746 139.344H179.594ZM190.574 141.04C190.574 139.205 190.915 137.595 191.598 136.208C192.302 134.821 193.251 133.755 194.446 133.008C195.641 132.261 196.974 131.888 198.446 131.888C199.619 131.888 200.686 132.133 201.646 132.624C202.627 133.115 203.395 133.776 203.95 134.608V126.32H209.422V150H203.95V147.44C203.438 148.293 202.702 148.976 201.742 149.488C200.803 150 199.705 150.256 198.446 150.256C196.974 150.256 195.641 149.883 194.446 149.136C193.251 148.368 192.302 147.291 191.598 145.904C190.915 144.496 190.574 142.875 190.574 141.04ZM203.95 141.072C203.95 139.707 203.566 138.629 202.798 137.84C202.051 137.051 201.134 136.656 200.046 136.656C198.958 136.656 198.03 137.051 197.262 137.84C196.515 138.608 196.142 139.675 196.142 141.04C196.142 142.405 196.515 143.493 197.262 144.304C198.03 145.093 198.958 145.488 200.046 145.488C201.134 145.488 202.051 145.093 202.798 144.304C203.566 143.515 203.95 142.437 203.95 141.072ZM214.533 130.288C213.573 130.288 212.784 130.011 212.165 129.456C211.568 128.88 211.269 128.176 211.269 127.344C211.269 126.491 211.568 125.787 212.165 125.232C212.784 124.656 213.573 124.368 214.533 124.368C215.472 124.368 216.24 124.656 216.837 125.232C217.456 125.787 217.765 126.491 217.765 127.344C217.765 128.176 217.456 128.88 216.837 129.456C216.24 130.011 215.472 130.288 214.533 130.288ZM217.253 132.144V150H211.781V132.144H217.253ZM225.09 135.12C225.73 134.139 226.53 133.371 227.49 132.816C228.45 132.24 229.517 131.952 230.69 131.952V137.744H229.186C227.821 137.744 226.797 138.043 226.114 138.64C225.432 139.216 225.09 140.24 225.09 141.712V150H219.618V132.144H225.09V135.12ZM248.538 140.784C248.538 141.296 248.506 141.829 248.442 142.384H236.058C236.143 143.493 236.495 144.347 237.114 144.944C237.754 145.52 238.533 145.808 239.45 145.808C240.815 145.808 241.765 145.232 242.298 144.08H248.122C247.823 145.253 247.279 146.309 246.49 147.248C245.722 148.187 244.751 148.923 243.578 149.456C242.405 149.989 241.093 150.256 239.642 150.256C237.893 150.256 236.335 149.883 234.97 149.136C233.605 148.389 232.538 147.323 231.77 145.936C231.002 144.549 230.618 142.928 230.618 141.072C230.618 139.216 230.991 137.595 231.738 136.208C232.506 134.821 233.573 133.755 234.938 133.008C236.303 132.261 237.871 131.888 239.642 131.888C241.37 131.888 242.906 132.251 244.25 132.976C245.594 133.701 246.639 134.736 247.386 136.08C248.154 137.424 248.538 138.992 248.538 140.784ZM242.938 139.344C242.938 138.405 242.618 137.659 241.978 137.104C241.338 136.549 240.538 136.272 239.578 136.272C238.661 136.272 237.882 136.539 237.242 137.072C236.623 137.605 236.239 138.363 236.09 139.344H242.938ZM259.777 145.36V150H256.993C255.009 150 253.462 149.52 252.353 148.56C251.243 147.579 250.689 145.989 250.689 143.792V136.688H248.513V132.144H250.689V127.792H256.161V132.144H259.745V136.688H256.161V143.856C256.161 144.389 256.289 144.773 256.545 145.008C256.801 145.243 257.227 145.36 257.825 145.36H259.777ZM269.353 150.256C267.603 150.256 266.025 149.883 264.617 149.136C263.23 148.389 262.131 147.323 261.321 145.936C260.531 144.549 260.137 142.928 260.137 141.072C260.137 139.237 260.542 137.627 261.353 136.24C262.163 134.832 263.273 133.755 264.681 133.008C266.089 132.261 267.667 131.888 269.417 131.888C271.166 131.888 272.745 132.261 274.153 133.008C275.561 133.755 276.67 134.832 277.481 136.24C278.291 137.627 278.697 139.237 278.697 141.072C278.697 142.907 278.281 144.528 277.449 145.936C276.638 147.323 275.518 148.389 274.089 149.136C272.681 149.883 271.102 150.256 269.353 150.256ZM269.353 145.52C270.398 145.52 271.283 145.136 272.009 144.368C272.755 143.6 273.129 142.501 273.129 141.072C273.129 139.643 272.766 138.544 272.041 137.776C271.337 137.008 270.462 136.624 269.417 136.624C268.35 136.624 267.465 137.008 266.761 137.776C266.057 138.523 265.705 139.621 265.705 141.072C265.705 142.501 266.046 143.6 266.729 144.368C267.433 145.136 268.307 145.52 269.353 145.52ZM22.2304 171.072C22.2304 169.216 22.6037 167.595 23.3504 166.208C24.1184 164.821 25.1744 163.755 26.5184 163.008C27.8837 162.261 29.441 161.888 31.1904 161.888C33.4304 161.888 35.297 162.475 36.7904 163.648C38.305 164.821 39.297 166.475 39.7664 168.608H33.9424C33.4517 167.243 32.5024 166.56 31.0944 166.56C30.0917 166.56 29.2917 166.955 28.6944 167.744C28.097 168.512 27.7984 169.621 27.7984 171.072C27.7984 172.523 28.097 173.643 28.6944 174.432C29.2917 175.2 30.0917 175.584 31.0944 175.584C32.5024 175.584 33.4517 174.901 33.9424 173.536H39.7664C39.297 175.627 38.305 177.269 36.7904 178.464C35.2757 179.659 33.409 180.256 31.1904 180.256C29.441 180.256 27.8837 179.883 26.5184 179.136C25.1744 178.389 24.1184 177.323 23.3504 175.936C22.6037 174.549 22.2304 172.928 22.2304 171.072ZM49.2214 180.256C47.472 180.256 45.8934 179.883 44.4854 179.136C43.0987 178.389 42 177.323 41.1894 175.936C40.4 174.549 40.0054 172.928 40.0054 171.072C40.0054 169.237 40.4107 167.627 41.2214 166.24C42.032 164.832 43.1414 163.755 44.5494 163.008C45.9574 162.261 47.536 161.888 49.2854 161.888C51.0347 161.888 52.6134 162.261 54.0214 163.008C55.4294 163.755 56.5387 164.832 57.3494 166.24C58.1601 167.627 58.5654 169.237 58.5654 171.072C58.5654 172.907 58.1494 174.528 57.3174 175.936C56.5067 177.323 55.3867 178.389 53.9574 179.136C52.5494 179.883 50.9707 180.256 49.2214 180.256ZM49.2214 175.52C50.2667 175.52 51.152 175.136 51.8774 174.368C52.624 173.6 52.9974 172.501 52.9974 171.072C52.9974 169.643 52.6347 168.544 51.9094 167.776C51.2054 167.008 50.3307 166.624 49.2854 166.624C48.2187 166.624 47.3334 167.008 46.6294 167.776C45.9254 168.523 45.5734 169.621 45.5734 171.072C45.5734 172.501 45.9147 173.6 46.5974 174.368C47.3014 175.136 48.176 175.52 49.2214 175.52ZM82.6524 161.952C84.871 161.952 86.631 162.624 87.9324 163.968C89.255 165.312 89.9164 167.179 89.9164 169.568V180H84.4764V170.304C84.4764 169.152 84.167 168.267 83.5484 167.648C82.951 167.008 82.119 166.688 81.0524 166.688C79.9857 166.688 79.143 167.008 78.5244 167.648C77.927 168.267 77.6284 169.152 77.6284 170.304V180H72.1884V170.304C72.1884 169.152 71.879 168.267 71.2604 167.648C70.663 167.008 69.831 166.688 68.7644 166.688C67.6977 166.688 66.855 167.008 66.2364 167.648C65.639 168.267 65.3404 169.152 65.3404 170.304V180H59.8684V162.144H65.3404V164.384C65.895 163.637 66.6204 163.051 67.5164 162.624C68.4124 162.176 69.4257 161.952 70.5564 161.952C71.9004 161.952 73.095 162.24 74.1404 162.816C75.207 163.392 76.039 164.213 76.6364 165.28C77.255 164.299 78.0977 163.499 79.1644 162.88C80.231 162.261 81.3937 161.952 82.6524 161.952ZM105.453 180.256C103.703 180.256 102.125 179.883 100.717 179.136C99.33 178.389 98.2313 177.323 97.4206 175.936C96.6313 174.549 96.2366 172.928 96.2366 171.072C96.2366 169.237 96.642 167.627 97.4526 166.24C98.2633 164.832 99.3726 163.755 100.781 163.008C102.189 162.261 103.767 161.888 105.517 161.888C107.266 161.888 108.845 162.261 110.253 163.008C111.661 163.755 112.77 164.832 113.581 166.24C114.391 167.627 114.797 169.237 114.797 171.072C114.797 172.907 114.381 174.528 113.549 175.936C112.738 177.323 111.618 178.389 110.189 179.136C108.781 179.883 107.202 180.256 105.453 180.256ZM105.453 175.52C106.498 175.52 107.383 175.136 108.109 174.368C108.855 173.6 109.229 172.501 109.229 171.072C109.229 169.643 108.866 168.544 108.141 167.776C107.437 167.008 106.562 166.624 105.517 166.624C104.45 166.624 103.565 167.008 102.861 167.776C102.157 168.523 101.805 169.621 101.805 171.072C101.805 172.501 102.146 173.6 102.829 174.368C103.533 175.136 104.407 175.52 105.453 175.52ZM126.753 164.672C127.286 163.84 128.022 163.168 128.961 162.656C129.9 162.144 130.998 161.888 132.257 161.888C133.729 161.888 135.062 162.261 136.257 163.008C137.452 163.755 138.39 164.821 139.073 166.208C139.777 167.595 140.129 169.205 140.129 171.04C140.129 172.875 139.777 174.496 139.073 175.904C138.39 177.291 137.452 178.368 136.257 179.136C135.062 179.883 133.729 180.256 132.257 180.256C131.02 180.256 129.921 180 128.961 179.488C128.022 178.976 127.286 178.315 126.753 177.504V188.512H121.281V162.144H126.753V164.672ZM134.561 171.04C134.561 169.675 134.177 168.608 133.409 167.84C132.662 167.051 131.734 166.656 130.625 166.656C129.537 166.656 128.609 167.051 127.841 167.84C127.094 168.629 126.721 169.707 126.721 171.072C126.721 172.437 127.094 173.515 127.841 174.304C128.609 175.093 129.537 175.488 130.625 175.488C131.713 175.488 132.641 175.093 133.409 174.304C134.177 173.493 134.561 172.405 134.561 171.04ZM146.872 165.12C147.512 164.139 148.312 163.371 149.272 162.816C150.232 162.24 151.298 161.952 152.472 161.952V167.744H150.968C149.602 167.744 148.578 168.043 147.896 168.64C147.213 169.216 146.872 170.24 146.872 171.712V180H141.4V162.144H146.872V165.12ZM161.615 180.256C159.866 180.256 158.287 179.883 156.879 179.136C155.492 178.389 154.394 177.323 153.583 175.936C152.794 174.549 152.399 172.928 152.399 171.072C152.399 169.237 152.804 167.627 153.615 166.24C154.426 164.832 155.535 163.755 156.943 163.008C158.351 162.261 159.93 161.888 161.679 161.888C163.428 161.888 165.007 162.261 166.415 163.008C167.823 163.755 168.932 164.832 169.743 166.24C170.554 167.627 170.959 169.237 170.959 171.072C170.959 172.907 170.543 174.528 169.711 175.936C168.9 177.323 167.78 178.389 166.351 179.136C164.943 179.883 163.364 180.256 161.615 180.256ZM161.615 175.52C162.66 175.52 163.546 175.136 164.271 174.368C165.018 173.6 165.391 172.501 165.391 171.072C165.391 169.643 165.028 168.544 164.303 167.776C163.599 167.008 162.724 166.624 161.679 166.624C160.612 166.624 159.727 167.008 159.023 167.776C158.319 168.523 157.967 169.621 157.967 171.072C157.967 172.501 158.308 173.6 158.991 174.368C159.695 175.136 160.57 175.52 161.615 175.52ZM181.222 166.688H178.278V180H172.806V166.688H170.822V162.144H172.806V161.632C172.806 159.435 173.435 157.771 174.694 156.64C175.953 155.488 177.798 154.912 180.23 154.912C180.635 154.912 180.934 154.923 181.126 154.944V159.584C180.081 159.52 179.345 159.669 178.918 160.032C178.491 160.395 178.278 161.045 178.278 161.984V162.144H181.222V166.688ZM184.945 160.288C183.985 160.288 183.196 160.011 182.577 159.456C181.98 158.88 181.681 158.176 181.681 157.344C181.681 156.491 181.98 155.787 182.577 155.232C183.196 154.656 183.985 154.368 184.945 154.368C185.884 154.368 186.652 154.656 187.249 155.232C187.868 155.787 188.177 156.491 188.177 157.344C188.177 158.176 187.868 158.88 187.249 159.456C186.652 160.011 185.884 160.288 184.945 160.288ZM187.665 162.144V180H182.193V162.144H187.665ZM197.295 180.256C195.738 180.256 194.351 179.989 193.135 179.456C191.919 178.923 190.959 178.197 190.255 177.28C189.551 176.341 189.156 175.296 189.071 174.144H194.479C194.543 174.763 194.831 175.264 195.343 175.648C195.855 176.032 196.484 176.224 197.231 176.224C197.914 176.224 198.436 176.096 198.799 175.84C199.183 175.563 199.375 175.211 199.375 174.784C199.375 174.272 199.108 173.899 198.575 173.664C198.042 173.408 197.178 173.131 195.983 172.832C194.703 172.533 193.636 172.224 192.783 171.904C191.93 171.563 191.194 171.04 190.575 170.336C189.956 169.611 189.647 168.64 189.647 167.424C189.647 166.4 189.924 165.472 190.479 164.64C191.055 163.787 191.887 163.115 192.975 162.624C194.084 162.133 195.396 161.888 196.911 161.888C199.151 161.888 200.911 162.443 202.191 163.552C203.492 164.661 204.239 166.133 204.431 167.968H199.375C199.29 167.349 199.012 166.859 198.543 166.496C198.095 166.133 197.498 165.952 196.751 165.952C196.111 165.952 195.62 166.08 195.279 166.336C194.938 166.571 194.767 166.901 194.767 167.328C194.767 167.84 195.034 168.224 195.567 168.48C196.122 168.736 196.975 168.992 198.127 169.248C199.45 169.589 200.527 169.931 201.359 170.272C202.191 170.592 202.916 171.125 203.535 171.872C204.175 172.597 204.506 173.579 204.527 174.816C204.527 175.861 204.228 176.8 203.631 177.632C203.055 178.443 202.212 179.083 201.103 179.552C200.015 180.021 198.746 180.256 197.295 180.256ZM213.539 180.256C211.981 180.256 210.595 179.989 209.379 179.456C208.163 178.923 207.203 178.197 206.499 177.28C205.795 176.341 205.4 175.296 205.315 174.144H210.723C210.787 174.763 211.075 175.264 211.587 175.648C212.099 176.032 212.728 176.224 213.475 176.224C214.157 176.224 214.68 176.096 215.043 175.84C215.427 175.563 215.619 175.211 215.619 174.784C215.619 174.272 215.352 173.899 214.819 173.664C214.285 173.408 213.421 173.131 212.227 172.832C210.947 172.533 209.88 172.224 209.027 171.904C208.173 171.563 207.437 171.04 206.819 170.336C206.2 169.611 205.891 168.64 205.891 167.424C205.891 166.4 206.168 165.472 206.723 164.64C207.299 163.787 208.131 163.115 209.219 162.624C210.328 162.133 211.64 161.888 213.155 161.888C215.395 161.888 217.155 162.443 218.435 163.552C219.736 164.661 220.483 166.133 220.675 167.968H215.619C215.533 167.349 215.256 166.859 214.787 166.496C214.339 166.133 213.741 165.952 212.995 165.952C212.355 165.952 211.864 166.08 211.523 166.336C211.181 166.571 211.011 166.901 211.011 167.328C211.011 167.84 211.277 168.224 211.811 168.48C212.365 168.736 213.219 168.992 214.371 169.248C215.693 169.589 216.771 169.931 217.603 170.272C218.435 170.592 219.16 171.125 219.779 171.872C220.419 172.597 220.749 173.579 220.771 174.816C220.771 175.861 220.472 176.8 219.875 177.632C219.299 178.443 218.456 179.083 217.347 179.552C216.259 180.021 214.989 180.256 213.539 180.256ZM225.27 160.288C224.31 160.288 223.521 160.011 222.902 159.456C222.305 158.88 222.006 158.176 222.006 157.344C222.006 156.491 222.305 155.787 222.902 155.232C223.521 154.656 224.31 154.368 225.27 154.368C226.209 154.368 226.977 154.656 227.574 155.232C228.193 155.787 228.502 156.491 228.502 157.344C228.502 158.176 228.193 158.88 227.574 159.456C226.977 160.011 226.209 160.288 225.27 160.288ZM227.99 162.144V180H222.518V162.144H227.99ZM238.484 180.256C236.735 180.256 235.156 179.883 233.748 179.136C232.361 178.389 231.263 177.323 230.452 175.936C229.663 174.549 229.268 172.928 229.268 171.072C229.268 169.237 229.673 167.627 230.484 166.24C231.295 164.832 232.404 163.755 233.812 163.008C235.22 162.261 236.799 161.888 238.548 161.888C240.297 161.888 241.876 162.261 243.284 163.008C244.692 163.755 245.801 164.832 246.612 166.24C247.423 167.627 247.828 169.237 247.828 171.072C247.828 172.907 247.412 174.528 246.58 175.936C245.769 177.323 244.649 178.389 243.22 179.136C241.812 179.883 240.233 180.256 238.484 180.256ZM238.484 175.52C239.529 175.52 240.415 175.136 241.14 174.368C241.887 173.6 242.26 172.501 242.26 171.072C242.26 169.643 241.897 168.544 241.172 167.776C240.468 167.008 239.593 166.624 238.548 166.624C237.481 166.624 236.596 167.008 235.892 167.776C235.188 168.523 234.836 169.621 234.836 171.072C234.836 172.501 235.177 173.6 235.86 174.368C236.564 175.136 237.439 175.52 238.484 175.52ZM260.011 161.952C262.102 161.952 263.766 162.635 265.003 164C266.262 165.344 266.891 167.2 266.891 169.568V180H261.451V170.304C261.451 169.109 261.142 168.181 260.523 167.52C259.904 166.859 259.072 166.528 258.027 166.528C256.982 166.528 256.15 166.859 255.531 167.52C254.912 168.181 254.603 169.109 254.603 170.304V180H249.131V162.144H254.603V164.512C255.158 163.723 255.904 163.104 256.843 162.656C257.782 162.187 258.838 161.952 260.011 161.952ZM268.005 171.04C268.005 169.205 268.347 167.595 269.029 166.208C269.733 164.821 270.683 163.755 271.877 163.008C273.072 162.261 274.405 161.888 275.877 161.888C277.136 161.888 278.235 162.144 279.173 162.656C280.133 163.168 280.869 163.84 281.381 164.672V162.144H286.853V180H281.381V177.472C280.848 178.304 280.101 178.976 279.141 179.488C278.203 180 277.104 180.256 275.845 180.256C274.395 180.256 273.072 179.883 271.877 179.136C270.683 178.368 269.733 177.291 269.029 175.904C268.347 174.496 268.005 172.875 268.005 171.04ZM281.381 171.072C281.381 169.707 280.997 168.629 280.229 167.84C279.483 167.051 278.565 166.656 277.477 166.656C276.389 166.656 275.461 167.051 274.693 167.84C273.947 168.608 273.573 169.675 273.573 171.04C273.573 172.405 273.947 173.493 274.693 174.304C275.461 175.093 276.389 175.488 277.477 175.488C278.565 175.488 279.483 175.093 280.229 174.304C280.997 173.515 281.381 172.437 281.381 171.072ZM294.684 156.32V180H289.212V156.32H294.684Z" fill="#472969"/>
<path d="M32.745 226.06V227.54H28.945V240H27.125V227.54H23.305V226.06H32.745ZM34.9253 227.26C34.5786 227.26 34.2853 227.14 34.0453 226.9C33.8053 226.66 33.6853 226.367 33.6853 226.02C33.6853 225.673 33.8053 225.38 34.0453 225.14C34.2853 224.9 34.5786 224.78 34.9253 224.78C35.2586 224.78 35.5386 224.9 35.7653 225.14C36.0053 225.38 36.1253 225.673 36.1253 226.02C36.1253 226.367 36.0053 226.66 35.7653 226.9C35.5386 227.14 35.2586 227.26 34.9253 227.26ZM35.8053 229.04V240H33.9853V229.04H35.8053ZM39.7272 230.82C40.0472 230.193 40.5005 229.707 41.0872 229.36C41.6872 229.013 42.4139 228.84 43.2672 228.84V230.72H42.7872C40.7472 230.72 39.7272 231.827 39.7272 234.04V240H37.9072V229.04H39.7272V230.82ZM54.3681 234.1C54.3681 234.447 54.3481 234.813 54.3081 235.2H45.5481C45.6148 236.28 45.9815 237.127 46.6481 237.74C47.3281 238.34 48.1481 238.64 49.1081 238.64C49.8948 238.64 50.5481 238.46 51.0681 238.1C51.6015 237.727 51.9748 237.233 52.1881 236.62H54.1481C53.8548 237.673 53.2681 238.533 52.3881 239.2C51.5081 239.853 50.4148 240.18 49.1081 240.18C48.0681 240.18 47.1348 239.947 46.3081 239.48C45.4948 239.013 44.8548 238.353 44.3881 237.5C43.9215 236.633 43.6881 235.633 43.6881 234.5C43.6881 233.367 43.9148 232.373 44.3681 231.52C44.8215 230.667 45.4548 230.013 46.2681 229.56C47.0948 229.093 48.0415 228.86 49.1081 228.86C50.1481 228.86 51.0681 229.087 51.8681 229.54C52.6681 229.993 53.2815 230.62 53.7081 231.42C54.1481 232.207 54.3681 233.1 54.3681 234.1ZM52.4881 233.72C52.4881 233.027 52.3348 232.433 52.0281 231.94C51.7215 231.433 51.3015 231.053 50.7681 230.8C50.2481 230.533 49.6681 230.4 49.0281 230.4C48.1081 230.4 47.3215 230.693 46.6681 231.28C46.0281 231.867 45.6615 232.68 45.5681 233.72H52.4881ZM59.4225 234.48C59.4225 233.36 59.6492 232.38 60.1025 231.54C60.5558 230.687 61.1758 230.027 61.9625 229.56C62.7625 229.093 63.6558 228.86 64.6425 228.86C65.4958 228.86 66.2892 229.06 67.0225 229.46C67.7558 229.847 68.3158 230.36 68.7025 231V225.2H70.5425V240H68.7025V237.94C68.3425 238.593 67.8092 239.133 67.1025 239.56C66.3958 239.973 65.5692 240.18 64.6225 240.18C63.6492 240.18 62.7625 239.94 61.9625 239.46C61.1758 238.98 60.5558 238.307 60.1025 237.44C59.6492 236.573 59.4225 235.587 59.4225 234.48ZM68.7025 234.5C68.7025 233.673 68.5358 232.953 68.2025 232.34C67.8692 231.727 67.4158 231.26 66.8425 230.94C66.2825 230.607 65.6625 230.44 64.9825 230.44C64.3025 230.44 63.6825 230.6 63.1225 230.92C62.5625 231.24 62.1158 231.707 61.7825 232.32C61.4492 232.933 61.2825 233.653 61.2825 234.48C61.2825 235.32 61.4492 236.053 61.7825 236.68C62.1158 237.293 62.5625 237.767 63.1225 238.1C63.6825 238.42 64.3025 238.58 64.9825 238.58C65.6625 238.58 66.2825 238.42 66.8425 238.1C67.4158 237.767 67.8692 237.293 68.2025 236.68C68.5358 236.053 68.7025 235.327 68.7025 234.5ZM82.3381 229.04V240H80.5181V238.38C80.1715 238.94 79.6848 239.38 79.0581 239.7C78.4448 240.007 77.7648 240.16 77.0181 240.16C76.1648 240.16 75.3981 239.987 74.7181 239.64C74.0381 239.28 73.4981 238.747 73.0981 238.04C72.7115 237.333 72.5181 236.473 72.5181 235.46V229.04H74.3181V235.22C74.3181 236.3 74.5915 237.133 75.1381 237.72C75.6848 238.293 76.4315 238.58 77.3781 238.58C78.3515 238.58 79.1181 238.28 79.6781 237.68C80.2381 237.08 80.5181 236.207 80.5181 235.06V229.04H82.3381ZM79.4381 225.94L75.1781 228.22V226.86L79.4381 224.36V225.94ZM88.4911 238.32L91.8911 229.04H93.8311L89.5311 240H87.4111L83.1111 229.04H85.0711L88.4911 238.32ZM95.562 227.26C95.2154 227.26 94.922 227.14 94.682 226.9C94.442 226.66 94.322 226.367 94.322 226.02C94.322 225.673 94.442 225.38 94.682 225.14C94.922 224.9 95.2154 224.78 95.562 224.78C95.8954 224.78 96.1754 224.9 96.402 225.14C96.642 225.38 96.762 225.673 96.762 226.02C96.762 226.367 96.642 226.66 96.402 226.9C96.1754 227.14 95.8954 227.26 95.562 227.26ZM96.442 229.04V240H94.622V229.04H96.442ZM97.8639 234.48C97.8639 233.36 98.0906 232.38 98.5439 231.54C98.9972 230.687 99.6172 230.027 100.404 229.56C101.204 229.093 102.097 228.86 103.084 228.86C103.937 228.86 104.731 229.06 105.464 229.46C106.197 229.847 106.757 230.36 107.144 231V225.2H108.984V240H107.144V237.94C106.784 238.593 106.251 239.133 105.544 239.56C104.837 239.973 104.011 240.18 103.064 240.18C102.091 240.18 101.204 239.94 100.404 239.46C99.6172 238.98 98.9972 238.307 98.5439 237.44C98.0906 236.573 97.8639 235.587 97.8639 234.48ZM107.144 234.5C107.144 233.673 106.977 232.953 106.644 232.34C106.311 231.727 105.857 231.26 105.284 230.94C104.724 230.607 104.104 230.44 103.424 230.44C102.744 230.44 102.124 230.6 101.564 230.92C101.004 231.24 100.557 231.707 100.224 232.32C99.8906 232.933 99.7239 233.653 99.7239 234.48C99.7239 235.32 99.8906 236.053 100.224 236.68C100.557 237.293 101.004 237.767 101.564 238.1C102.124 238.42 102.744 238.58 103.424 238.58C104.104 238.58 104.724 238.42 105.284 238.1C105.857 237.767 106.311 237.293 106.644 236.68C106.977 236.053 107.144 235.327 107.144 234.5ZM110.38 234.48C110.38 233.36 110.606 232.38 111.06 231.54C111.513 230.687 112.133 230.027 112.92 229.56C113.72 229.093 114.606 228.86 115.58 228.86C116.54 228.86 117.373 229.067 118.08 229.48C118.786 229.893 119.313 230.413 119.66 231.04V229.04H121.5V240H119.66V237.96C119.3 238.6 118.76 239.133 118.04 239.56C117.333 239.973 116.506 240.18 115.56 240.18C114.586 240.18 113.706 239.94 112.92 239.46C112.133 238.98 111.513 238.307 111.06 237.44C110.606 236.573 110.38 235.587 110.38 234.48ZM119.66 234.5C119.66 233.673 119.493 232.953 119.16 232.34C118.826 231.727 118.373 231.26 117.8 230.94C117.24 230.607 116.62 230.44 115.94 230.44C115.26 230.44 114.64 230.6 114.08 230.92C113.52 231.24 113.073 231.707 112.74 232.32C112.406 232.933 112.24 233.653 112.24 234.48C112.24 235.32 112.406 236.053 112.74 236.68C113.073 237.293 113.52 237.767 114.08 238.1C114.64 238.42 115.26 238.58 115.94 238.58C116.62 238.58 117.24 238.42 117.8 238.1C118.373 237.767 118.826 237.293 119.16 236.68C119.493 236.053 119.66 235.327 119.66 234.5ZM127.455 240.18C126.615 240.18 125.862 240.04 125.195 239.76C124.528 239.467 124.002 239.067 123.615 238.56C123.228 238.04 123.015 237.447 122.975 236.78H124.855C124.908 237.327 125.162 237.773 125.615 238.12C126.082 238.467 126.688 238.64 127.435 238.64C128.128 238.64 128.675 238.487 129.075 238.18C129.475 237.873 129.675 237.487 129.675 237.02C129.675 236.54 129.462 236.187 129.035 235.96C128.608 235.72 127.948 235.487 127.055 235.26C126.242 235.047 125.575 234.833 125.055 234.62C124.548 234.393 124.108 234.067 123.735 233.64C123.375 233.2 123.195 232.627 123.195 231.92C123.195 231.36 123.362 230.847 123.695 230.38C124.028 229.913 124.502 229.547 125.115 229.28C125.728 229 126.428 228.86 127.215 228.86C128.428 228.86 129.408 229.167 130.155 229.78C130.902 230.393 131.302 231.233 131.355 232.3H129.535C129.495 231.727 129.262 231.267 128.835 230.92C128.422 230.573 127.862 230.4 127.155 230.4C126.502 230.4 125.982 230.54 125.595 230.82C125.208 231.1 125.015 231.467 125.015 231.92C125.015 232.28 125.128 232.58 125.355 232.82C125.595 233.047 125.888 233.233 126.235 233.38C126.595 233.513 127.088 233.667 127.715 233.84C128.502 234.053 129.142 234.267 129.635 234.48C130.128 234.68 130.548 234.987 130.895 235.4C131.255 235.813 131.442 236.353 131.455 237.02C131.455 237.62 131.288 238.16 130.955 238.64C130.622 239.12 130.148 239.5 129.535 239.78C128.935 240.047 128.242 240.18 127.455 240.18ZM134.904 237.48L132.664 242.86H131.444L132.904 237.48H134.904ZM145.661 228.84C146.995 228.84 148.075 229.247 148.901 230.06C149.728 230.86 150.141 232.02 150.141 233.54V240H148.341V233.8C148.341 232.707 148.068 231.873 147.521 231.3C146.975 230.713 146.228 230.42 145.281 230.42C144.321 230.42 143.555 230.72 142.981 231.32C142.421 231.92 142.141 232.793 142.141 233.94V240H140.321V229.04H142.141V230.6C142.501 230.04 142.988 229.607 143.601 229.3C144.228 228.993 144.915 228.84 145.661 228.84ZM162.114 234.1C162.114 234.447 162.094 234.813 162.054 235.2H153.294C153.361 236.28 153.728 237.127 154.394 237.74C155.074 238.34 155.894 238.64 156.854 238.64C157.641 238.64 158.294 238.46 158.814 238.1C159.348 237.727 159.721 237.233 159.934 236.62H161.894C161.601 237.673 161.014 238.533 160.134 239.2C159.254 239.853 158.161 240.18 156.854 240.18C155.814 240.18 154.881 239.947 154.054 239.48C153.241 239.013 152.601 238.353 152.134 237.5C151.668 236.633 151.434 235.633 151.434 234.5C151.434 233.367 151.661 232.373 152.114 231.52C152.568 230.667 153.201 230.013 154.014 229.56C154.841 229.093 155.788 228.86 156.854 228.86C157.894 228.86 158.814 229.087 159.614 229.54C160.414 229.993 161.028 230.62 161.454 231.42C161.894 232.207 162.114 233.1 162.114 234.1ZM160.234 233.72C160.234 233.027 160.081 232.433 159.774 231.94C159.468 231.433 159.048 231.053 158.514 230.8C157.994 230.533 157.414 230.4 156.774 230.4C155.854 230.4 155.068 230.693 154.414 231.28C153.774 231.867 153.408 232.68 153.314 233.72H160.234ZM168.037 228.86C168.983 228.86 169.81 229.067 170.517 229.48C171.237 229.893 171.77 230.413 172.117 231.04V229.04H173.957V240.24C173.957 241.24 173.743 242.127 173.317 242.9C172.89 243.687 172.277 244.3 171.477 244.74C170.69 245.18 169.77 245.4 168.717 245.4C167.277 245.4 166.077 245.06 165.117 244.38C164.157 243.7 163.59 242.773 163.417 241.6H165.217C165.417 242.267 165.83 242.8 166.457 243.2C167.083 243.613 167.837 243.82 168.717 243.82C169.717 243.82 170.53 243.507 171.157 242.88C171.797 242.253 172.117 241.373 172.117 240.24V237.94C171.757 238.58 171.223 239.113 170.517 239.54C169.81 239.967 168.983 240.18 168.037 240.18C167.063 240.18 166.177 239.94 165.377 239.46C164.59 238.98 163.97 238.307 163.517 237.44C163.063 236.573 162.837 235.587 162.837 234.48C162.837 233.36 163.063 232.38 163.517 231.54C163.97 230.687 164.59 230.027 165.377 229.56C166.177 229.093 167.063 228.86 168.037 228.86ZM172.117 234.5C172.117 233.673 171.95 232.953 171.617 232.34C171.283 231.727 170.83 231.26 170.257 230.94C169.697 230.607 169.077 230.44 168.397 230.44C167.717 230.44 167.097 230.6 166.537 230.92C165.977 231.24 165.53 231.707 165.197 232.32C164.863 232.933 164.697 233.653 164.697 234.48C164.697 235.32 164.863 236.053 165.197 236.68C165.53 237.293 165.977 237.767 166.537 238.1C167.097 238.42 167.717 238.58 168.397 238.58C169.077 238.58 169.697 238.42 170.257 238.1C170.83 237.767 171.283 237.293 171.617 236.68C171.95 236.053 172.117 235.327 172.117 234.5ZM180.812 240.18C179.786 240.18 178.852 239.947 178.012 239.48C177.186 239.013 176.532 238.353 176.052 237.5C175.586 236.633 175.352 235.633 175.352 234.5C175.352 233.38 175.592 232.393 176.072 231.54C176.566 230.673 177.232 230.013 178.072 229.56C178.912 229.093 179.852 228.86 180.892 228.86C181.932 228.86 182.872 229.093 183.712 229.56C184.552 230.013 185.212 230.667 185.692 231.52C186.186 232.373 186.432 233.367 186.432 234.5C186.432 235.633 186.179 236.633 185.672 237.5C185.179 238.353 184.506 239.013 183.652 239.48C182.799 239.947 181.852 240.18 180.812 240.18ZM180.812 238.58C181.466 238.58 182.079 238.427 182.652 238.12C183.226 237.813 183.686 237.353 184.032 236.74C184.392 236.127 184.572 235.38 184.572 234.5C184.572 233.62 184.399 232.873 184.052 232.26C183.706 231.647 183.252 231.193 182.692 230.9C182.132 230.593 181.526 230.44 180.872 230.44C180.206 230.44 179.592 230.593 179.032 230.9C178.486 231.193 178.046 231.647 177.712 232.26C177.379 232.873 177.212 233.62 177.212 234.5C177.212 235.393 177.372 236.147 177.692 236.76C178.026 237.373 178.466 237.833 179.012 238.14C179.559 238.433 180.159 238.58 180.812 238.58ZM187.145 234.5C187.145 233.367 187.372 232.38 187.825 231.54C188.278 230.687 188.905 230.027 189.705 229.56C190.518 229.093 191.445 228.86 192.485 228.86C193.832 228.86 194.938 229.187 195.805 229.84C196.685 230.493 197.265 231.4 197.545 232.56H195.585C195.398 231.893 195.032 231.367 194.485 230.98C193.952 230.593 193.285 230.4 192.485 230.4C191.445 230.4 190.605 230.76 189.965 231.48C189.325 232.187 189.005 233.193 189.005 234.5C189.005 235.82 189.325 236.84 189.965 237.56C190.605 238.28 191.445 238.64 192.485 238.64C193.285 238.64 193.952 238.453 194.485 238.08C195.018 237.707 195.385 237.173 195.585 236.48H197.545C197.252 237.6 196.665 238.5 195.785 239.18C194.905 239.847 193.805 240.18 192.485 240.18C191.445 240.18 190.518 239.947 189.705 239.48C188.905 239.013 188.278 238.353 187.825 237.5C187.372 236.647 187.145 235.647 187.145 234.5ZM199.914 227.26C199.567 227.26 199.274 227.14 199.034 226.9C198.794 226.66 198.674 226.367 198.674 226.02C198.674 225.673 198.794 225.38 199.034 225.14C199.274 224.9 199.567 224.78 199.914 224.78C200.247 224.78 200.527 224.9 200.754 225.14C200.994 225.38 201.114 225.673 201.114 226.02C201.114 226.367 200.994 226.66 200.754 226.9C200.527 227.14 200.247 227.26 199.914 227.26ZM200.794 229.04V240H198.974V229.04H200.794ZM212.895 234.1C212.895 234.447 212.875 234.813 212.835 235.2H204.075C204.142 236.28 204.509 237.127 205.175 237.74C205.855 238.34 206.675 238.64 207.635 238.64C208.422 238.64 209.075 238.46 209.595 238.1C210.129 237.727 210.502 237.233 210.715 236.62H212.675C212.382 237.673 211.795 238.533 210.915 239.2C210.035 239.853 208.942 240.18 207.635 240.18C206.595 240.18 205.662 239.947 204.835 239.48C204.022 239.013 203.382 238.353 202.915 237.5C202.449 236.633 202.215 235.633 202.215 234.5C202.215 233.367 202.442 232.373 202.895 231.52C203.349 230.667 203.982 230.013 204.795 229.56C205.622 229.093 206.569 228.86 207.635 228.86C208.675 228.86 209.595 229.087 210.395 229.54C211.195 229.993 211.809 230.62 212.235 231.42C212.675 232.207 212.895 233.1 212.895 234.1ZM211.015 233.72C211.015 233.027 210.862 232.433 210.555 231.94C210.249 231.433 209.829 231.053 209.295 230.8C208.775 230.533 208.195 230.4 207.555 230.4C206.635 230.4 205.849 230.693 205.195 231.28C204.555 231.867 204.189 232.68 204.095 233.72H211.015ZM217.95 234.48C217.95 233.36 218.177 232.38 218.63 231.54C219.083 230.687 219.703 230.027 220.49 229.56C221.29 229.093 222.183 228.86 223.17 228.86C224.023 228.86 224.817 229.06 225.55 229.46C226.283 229.847 226.843 230.36 227.23 231V225.2H229.07V240H227.23V237.94C226.87 238.593 226.337 239.133 225.63 239.56C224.923 239.973 224.097 240.18 223.15 240.18C222.177 240.18 221.29 239.94 220.49 239.46C219.703 238.98 219.083 238.307 218.63 237.44C218.177 236.573 217.95 235.587 217.95 234.48ZM227.23 234.5C227.23 233.673 227.063 232.953 226.73 232.34C226.397 231.727 225.943 231.26 225.37 230.94C224.81 230.607 224.19 230.44 223.51 230.44C222.83 230.44 222.21 230.6 221.65 230.92C221.09 231.24 220.643 231.707 220.31 232.32C219.977 232.933 219.81 233.653 219.81 234.48C219.81 235.32 219.977 236.053 220.31 236.68C220.643 237.293 221.09 237.767 221.65 238.1C222.21 238.42 222.83 238.58 223.51 238.58C224.19 238.58 224.81 238.42 225.37 238.1C225.943 237.767 226.397 237.293 226.73 236.68C227.063 236.053 227.23 235.327 227.23 234.5ZM241.145 234.1C241.145 234.447 241.125 234.813 241.085 235.2H232.325C232.392 236.28 232.759 237.127 233.425 237.74C234.105 238.34 234.925 238.64 235.885 238.64C236.672 238.64 237.325 238.46 237.845 238.1C238.379 237.727 238.752 237.233 238.965 236.62H240.925C240.632 237.673 240.045 238.533 239.165 239.2C238.285 239.853 237.192 240.18 235.885 240.18C234.845 240.18 233.912 239.947 233.085 239.48C232.272 239.013 231.632 238.353 231.165 237.5C230.699 236.633 230.465 235.633 230.465 234.5C230.465 233.367 230.692 232.373 231.145 231.52C231.599 230.667 232.232 230.013 233.045 229.56C233.872 229.093 234.819 228.86 235.885 228.86C236.925 228.86 237.845 229.087 238.645 229.54C239.445 229.993 240.059 230.62 240.485 231.42C240.925 232.207 241.145 233.1 241.145 234.1ZM239.265 233.72C239.265 233.027 239.112 232.433 238.805 231.94C238.499 231.433 238.079 231.053 237.545 230.8C237.025 230.533 236.445 230.4 235.805 230.4C234.885 230.4 234.099 230.693 233.445 231.28C232.805 231.867 232.439 232.68 232.345 233.72H239.265ZM244.768 230.54V237C244.768 237.533 244.881 237.913 245.108 238.14C245.334 238.353 245.728 238.46 246.288 238.46H247.628V240H245.988C244.974 240 244.214 239.767 243.708 239.3C243.201 238.833 242.948 238.067 242.948 237V230.54H241.528V229.04H242.948V226.28H244.768V229.04H247.628V230.54H244.768ZM248.153 234.48C248.153 233.36 248.38 232.38 248.833 231.54C249.286 230.687 249.906 230.027 250.693 229.56C251.493 229.093 252.38 228.86 253.353 228.86C254.313 228.86 255.146 229.067 255.853 229.48C256.56 229.893 257.086 230.413 257.433 231.04V229.04H259.273V240H257.433V237.96C257.073 238.6 256.533 239.133 255.813 239.56C255.106 239.973 254.28 240.18 253.333 240.18C252.36 240.18 251.48 239.94 250.693 239.46C249.906 238.98 249.286 238.307 248.833 237.44C248.38 236.573 248.153 235.587 248.153 234.48ZM257.433 234.5C257.433 233.673 257.266 232.953 256.933 232.34C256.6 231.727 256.146 231.26 255.573 230.94C255.013 230.607 254.393 230.44 253.713 230.44C253.033 230.44 252.413 230.6 251.853 230.92C251.293 231.24 250.846 231.707 250.513 232.32C250.18 232.933 250.013 233.653 250.013 234.48C250.013 235.32 250.18 236.053 250.513 236.68C250.846 237.293 251.293 237.767 251.853 238.1C252.413 238.42 253.033 238.58 253.713 238.58C254.393 238.58 255.013 238.42 255.573 238.1C256.146 237.767 256.6 237.293 256.933 236.68C257.266 236.053 257.433 235.327 257.433 234.5ZM263.169 225.2V240H261.349V225.2H263.169ZM270.71 228.84C271.537 228.84 272.284 229.02 272.95 229.38C273.617 229.727 274.137 230.253 274.51 230.96C274.897 231.667 275.09 232.527 275.09 233.54V240H273.29V233.8C273.29 232.707 273.017 231.873 272.47 231.3C271.924 230.713 271.177 230.42 270.23 230.42C269.27 230.42 268.504 230.72 267.93 231.32C267.37 231.92 267.09 232.793 267.09 233.94V240H265.27V225.2H267.09V230.6C267.45 230.04 267.944 229.607 268.57 229.3C269.21 228.993 269.924 228.84 270.71 228.84ZM287.063 234.1C287.063 234.447 287.043 234.813 287.003 235.2H278.243C278.31 236.28 278.677 237.127 279.343 237.74C280.023 238.34 280.843 238.64 281.803 238.64C282.59 238.64 283.243 238.46 283.763 238.1C284.297 237.727 284.67 237.233 284.883 236.62H286.843C286.55 237.673 285.963 238.533 285.083 239.2C284.203 239.853 283.11 240.18 281.803 240.18C280.763 240.18 279.83 239.947 279.003 239.48C278.19 239.013 277.55 238.353 277.083 237.5C276.617 236.633 276.383 235.633 276.383 234.5C276.383 233.367 276.61 232.373 277.063 231.52C277.517 230.667 278.15 230.013 278.963 229.56C279.79 229.093 280.737 228.86 281.803 228.86C282.843 228.86 283.763 229.087 284.563 229.54C285.363 229.993 285.977 230.62 286.403 231.42C286.843 232.207 287.063 233.1 287.063 234.1ZM285.183 233.72C285.183 233.027 285.03 232.433 284.723 231.94C284.417 231.433 283.997 231.053 283.463 230.8C282.943 230.533 282.363 230.4 281.723 230.4C280.803 230.4 280.017 230.693 279.363 231.28C278.723 231.867 278.357 232.68 278.263 233.72H285.183ZM292.346 240.18C291.506 240.18 290.752 240.04 290.086 239.76C289.419 239.467 288.892 239.067 288.506 238.56C288.119 238.04 287.906 237.447 287.866 236.78H289.746C289.799 237.327 290.052 237.773 290.506 238.12C290.972 238.467 291.579 238.64 292.326 238.64C293.019 238.64 293.566 238.487 293.966 238.18C294.366 237.873 294.566 237.487 294.566 237.02C294.566 236.54 294.352 236.187 293.926 235.96C293.499 235.72 292.839 235.487 291.946 235.26C291.132 235.047 290.466 234.833 289.946 234.62C289.439 234.393 288.999 234.067 288.626 233.64C288.266 233.2 288.086 232.627 288.086 231.92C288.086 231.36 288.252 230.847 288.586 230.38C288.919 229.913 289.392 229.547 290.006 229.28C290.619 229 291.319 228.86 292.106 228.86C293.319 228.86 294.299 229.167 295.046 229.78C295.792 230.393 296.192 231.233 296.246 232.3H294.426C294.386 231.727 294.152 231.267 293.726 230.92C293.312 230.573 292.752 230.4 292.046 230.4C291.392 230.4 290.872 230.54 290.486 230.82C290.099 231.1 289.906 231.467 289.906 231.92C289.906 232.28 290.019 232.58 290.246 232.82C290.486 233.047 290.779 233.233 291.126 233.38C291.486 233.513 291.979 233.667 292.606 233.84C293.392 234.053 294.032 234.267 294.526 234.48C295.019 234.68 295.439 234.987 295.786 235.4C296.146 235.813 296.332 236.353 296.346 237.02C296.346 237.62 296.179 238.16 295.846 238.64C295.512 239.12 295.039 239.5 294.426 239.78C293.826 240.047 293.132 240.18 292.346 240.18ZM32.0927 252.1C32.0927 252.447 32.0727 252.813 32.0327 253.2H23.2727C23.3394 254.28 23.7061 255.127 24.3727 255.74C25.0527 256.34 25.8727 256.64 26.8327 256.64C27.6194 256.64 28.2727 256.46 28.7927 256.1C29.3261 255.727 29.6994 255.233 29.9127 254.62H31.8727C31.5794 255.673 30.9927 256.533 30.1127 257.2C29.2327 257.853 28.1394 258.18 26.8327 258.18C25.7927 258.18 24.8594 257.947 24.0327 257.48C23.2194 257.013 22.5794 256.353 22.1127 255.5C21.6461 254.633 21.4127 253.633 21.4127 252.5C21.4127 251.367 21.6394 250.373 22.0927 249.52C22.5461 248.667 23.1794 248.013 23.9927 247.56C24.8194 247.093 25.7661 246.86 26.8327 246.86C27.8727 246.86 28.7927 247.087 29.5927 247.54C30.3927 247.993 31.0061 248.62 31.4327 249.42C31.8727 250.207 32.0927 251.1 32.0927 252.1ZM30.2127 251.72C30.2127 251.027 30.0594 250.433 29.7527 249.94C29.4461 249.433 29.0261 249.053 28.4927 248.8C27.9727 248.533 27.3927 248.4 26.7527 248.4C25.8327 248.4 25.0461 248.693 24.3927 249.28C23.7527 249.867 23.3861 250.68 23.2927 251.72H30.2127ZM39.6471 248.82C39.9671 248.193 40.4204 247.707 41.0071 247.36C41.6071 247.013 42.3338 246.84 43.1871 246.84V248.72H42.7071C40.6671 248.72 39.6471 249.827 39.6471 252.04V258H37.8271V247.04H39.6471V248.82ZM54.288 252.1C54.288 252.447 54.268 252.813 54.228 253.2H45.468C45.5347 254.28 45.9014 255.127 46.568 255.74C47.248 256.34 48.068 256.64 49.028 256.64C49.8147 256.64 50.468 256.46 50.988 256.1C51.5214 255.727 51.8947 255.233 52.108 254.62H54.068C53.7747 255.673 53.188 256.533 52.308 257.2C51.428 257.853 50.3347 258.18 49.028 258.18C47.988 258.18 47.0547 257.947 46.228 257.48C45.4147 257.013 44.7747 256.353 44.308 255.5C43.8414 254.633 43.608 253.633 43.608 252.5C43.608 251.367 43.8347 250.373 44.288 249.52C44.7414 248.667 45.3747 248.013 46.188 247.56C47.0147 247.093 47.9614 246.86 49.028 246.86C50.068 246.86 50.988 247.087 51.788 247.54C52.588 247.993 53.2014 248.62 53.628 249.42C54.068 250.207 54.288 251.1 54.288 252.1ZM52.408 251.72C52.408 251.027 52.2547 250.433 51.948 249.94C51.6414 249.433 51.2214 249.053 50.688 248.8C50.168 248.533 49.588 248.4 48.948 248.4C48.028 248.4 47.2414 248.693 46.588 249.28C45.948 249.867 45.5814 250.68 45.488 251.72H52.408ZM55.0104 252.5C55.0104 251.367 55.2371 250.38 55.6904 249.54C56.1437 248.687 56.7704 248.027 57.5704 247.56C58.3837 247.093 59.3104 246.86 60.3504 246.86C61.6971 246.86 62.8037 247.187 63.6704 247.84C64.5504 248.493 65.1304 249.4 65.4104 250.56H63.4504C63.2637 249.893 62.8971 249.367 62.3504 248.98C61.8171 248.593 61.1504 248.4 60.3504 248.4C59.3104 248.4 58.4704 248.76 57.8304 249.48C57.1904 250.187 56.8704 251.193 56.8704 252.5C56.8704 253.82 57.1904 254.84 57.8304 255.56C58.4704 256.28 59.3104 256.64 60.3504 256.64C61.1504 256.64 61.8171 256.453 62.3504 256.08C62.8837 255.707 63.2504 255.173 63.4504 254.48H65.4104C65.1171 255.6 64.5304 256.5 63.6504 257.18C62.7704 257.847 61.6704 258.18 60.3504 258.18C59.3104 258.18 58.3837 257.947 57.5704 257.48C56.7704 257.013 56.1437 256.353 55.6904 255.5C55.2371 254.647 55.0104 253.647 55.0104 252.5ZM76.8388 252.1C76.8388 252.447 76.8188 252.813 76.7788 253.2H68.0188C68.0855 254.28 68.4522 255.127 69.1188 255.74C69.7988 256.34 70.6188 256.64 71.5788 256.64C72.3655 256.64 73.0188 256.46 73.5388 256.1C74.0722 255.727 74.4455 255.233 74.6588 254.62H76.6188C76.3255 255.673 75.7388 256.533 74.8588 257.2C73.9788 257.853 72.8855 258.18 71.5788 258.18C70.5388 258.18 69.6055 257.947 68.7788 257.48C67.9655 257.013 67.3255 256.353 66.8588 255.5C66.3922 254.633 66.1588 253.633 66.1588 252.5C66.1588 251.367 66.3855 250.373 66.8388 249.52C67.2922 248.667 67.9255 248.013 68.7388 247.56C69.5655 247.093 70.5122 246.86 71.5788 246.86C72.6188 246.86 73.5388 247.087 74.3388 247.54C75.1388 247.993 75.7522 248.62 76.1788 249.42C76.6188 250.207 76.8388 251.1 76.8388 252.1ZM74.9588 251.72C74.9588 251.027 74.8055 250.433 74.4988 249.94C74.1922 249.433 73.7722 249.053 73.2388 248.8C72.7188 248.533 72.1388 248.4 71.4988 248.4C70.5788 248.4 69.7922 248.693 69.1388 249.28C68.4988 249.867 68.1322 250.68 68.0388 251.72H74.9588ZM80.0612 249.08C80.4345 248.427 80.9812 247.893 81.7012 247.48C82.4212 247.067 83.2412 246.86 84.1612 246.86C85.1478 246.86 86.0345 247.093 86.8212 247.56C87.6078 248.027 88.2278 248.687 88.6812 249.54C89.1345 250.38 89.3612 251.36 89.3612 252.48C89.3612 253.587 89.1345 254.573 88.6812 255.44C88.2278 256.307 87.6012 256.98 86.8012 257.46C86.0145 257.94 85.1345 258.18 84.1612 258.18C83.2145 258.18 82.3812 257.973 81.6612 257.56C80.9545 257.147 80.4212 256.62 80.0612 255.98V258H78.2412V243.2H80.0612V249.08ZM87.5012 252.48C87.5012 251.653 87.3345 250.933 87.0012 250.32C86.6678 249.707 86.2145 249.24 85.6412 248.92C85.0812 248.6 84.4612 248.44 83.7812 248.44C83.1145 248.44 82.4945 248.607 81.9212 248.94C81.3612 249.26 80.9078 249.733 80.5612 250.36C80.2278 250.973 80.0612 251.687 80.0612 252.5C80.0612 253.327 80.2278 254.053 80.5612 254.68C80.9078 255.293 81.3612 255.767 81.9212 256.1C82.4945 256.42 83.1145 256.58 83.7812 256.58C84.4612 256.58 85.0812 256.42 85.6412 256.1C86.2145 255.767 86.6678 255.293 87.0012 254.68C87.3345 254.053 87.5012 253.32 87.5012 252.48ZM90.0768 252.48C90.0768 251.36 90.3035 250.38 90.7568 249.54C91.2101 248.687 91.8301 248.027 92.6168 247.56C93.4168 247.093 94.3035 246.86 95.2768 246.86C96.2368 246.86 97.0701 247.067 97.7768 247.48C98.4835 247.893 99.0101 248.413 99.3568 249.04V247.04H101.197V258H99.3568V255.96C98.9968 256.6 98.4568 257.133 97.7368 257.56C97.0301 257.973 96.2035 258.18 95.2568 258.18C94.2835 258.18 93.4035 257.94 92.6168 257.46C91.8301 256.98 91.2101 256.307 90.7568 255.44C90.3035 254.573 90.0768 253.587 90.0768 252.48ZM99.3568 252.5C99.3568 251.673 99.1901 250.953 98.8568 250.34C98.5235 249.727 98.0701 249.26 97.4968 248.94C96.9368 248.607 96.3168 248.44 95.6368 248.44C94.9568 248.44 94.3368 248.6 93.7768 248.92C93.2168 249.24 92.7701 249.707 92.4368 250.32C92.1035 250.933 91.9368 251.653 91.9368 252.48C91.9368 253.32 92.1035 254.053 92.4368 254.68C92.7701 255.293 93.2168 255.767 93.7768 256.1C94.3368 256.42 94.9568 256.58 95.6368 256.58C96.3168 256.58 96.9368 256.42 97.4968 256.1C98.0701 255.767 98.5235 255.293 98.8568 254.68C99.1901 254.053 99.3568 253.327 99.3568 252.5ZM112.384 258.18C111.358 258.18 110.424 257.947 109.584 257.48C108.758 257.013 108.104 256.353 107.624 255.5C107.158 254.633 106.924 253.633 106.924 252.5C106.924 251.38 107.164 250.393 107.644 249.54C108.138 248.673 108.804 248.013 109.644 247.56C110.484 247.093 111.424 246.86 112.464 246.86C113.504 246.86 114.444 247.093 115.284 247.56C116.124 248.013 116.784 248.667 117.264 249.52C117.758 250.373 118.004 251.367 118.004 252.5C118.004 253.633 117.751 254.633 117.244 255.5C116.751 256.353 116.078 257.013 115.224 257.48C114.371 257.947 113.424 258.18 112.384 258.18ZM112.384 256.58C113.038 256.58 113.651 256.427 114.224 256.12C114.798 255.813 115.258 255.353 115.604 254.74C115.964 254.127 116.144 253.38 116.144 252.5C116.144 251.62 115.971 250.873 115.624 250.26C115.278 249.647 114.824 249.193 114.264 248.9C113.704 248.593 113.098 248.44 112.444 248.44C111.778 248.44 111.164 248.593 110.604 248.9C110.058 249.193 109.618 249.647 109.284 250.26C108.951 250.873 108.784 251.62 108.784 252.5C108.784 253.393 108.944 254.147 109.264 254.76C109.598 255.373 110.038 255.833 110.584 256.14C111.131 256.433 111.731 256.58 112.384 256.58ZM121.217 248.82C121.537 248.193 121.991 247.707 122.577 247.36C123.177 247.013 123.904 246.84 124.757 246.84V248.72H124.277C122.237 248.72 121.217 249.827 121.217 252.04V258H119.397V247.04H121.217V248.82ZM126.798 245.26C126.452 245.26 126.158 245.14 125.918 244.9C125.678 244.66 125.558 244.367 125.558 244.02C125.558 243.673 125.678 243.38 125.918 243.14C126.158 242.9 126.452 242.78 126.798 242.78C127.132 242.78 127.412 242.9 127.638 243.14C127.878 243.38 127.998 243.673 127.998 244.02C127.998 244.367 127.878 244.66 127.638 244.9C127.412 245.14 127.132 245.26 126.798 245.26ZM127.678 247.04V258H125.858V247.04H127.678ZM139.78 252.1C139.78 252.447 139.76 252.813 139.72 253.2H130.96C131.027 254.28 131.394 255.127 132.06 255.74C132.74 256.34 133.56 256.64 134.52 256.64C135.307 256.64 135.96 256.46 136.48 256.1C137.014 255.727 137.387 255.233 137.6 254.62H139.56C139.267 255.673 138.68 256.533 137.8 257.2C136.92 257.853 135.827 258.18 134.52 258.18C133.48 258.18 132.547 257.947 131.72 257.48C130.907 257.013 130.267 256.353 129.8 255.5C129.334 254.633 129.1 253.633 129.1 252.5C129.1 251.367 129.327 250.373 129.78 249.52C130.234 248.667 130.867 248.013 131.68 247.56C132.507 247.093 133.454 246.86 134.52 246.86C135.56 246.86 136.48 247.087 137.28 247.54C138.08 247.993 138.694 248.62 139.12 249.42C139.56 250.207 139.78 251.1 139.78 252.1ZM137.9 251.72C137.9 251.027 137.747 250.433 137.44 249.94C137.134 249.433 136.714 249.053 136.18 248.8C135.66 248.533 135.08 248.4 134.44 248.4C133.52 248.4 132.734 248.693 132.08 249.28C131.44 249.867 131.074 250.68 130.98 251.72H137.9ZM146.523 246.84C147.856 246.84 148.936 247.247 149.763 248.06C150.589 248.86 151.003 250.02 151.003 251.54V258H149.203V251.8C149.203 250.707 148.929 249.873 148.383 249.3C147.836 248.713 147.089 248.42 146.143 248.42C145.183 248.42 144.416 248.72 143.843 249.32C143.283 249.92 143.003 250.793 143.003 251.94V258H141.183V247.04H143.003V248.6C143.363 248.04 143.849 247.607 144.463 247.3C145.089 246.993 145.776 246.84 146.523 246.84ZM155.196 248.54V255C155.196 255.533 155.309 255.913 155.536 256.14C155.762 256.353 156.156 256.46 156.716 256.46H158.056V258H156.416C155.402 258 154.642 257.767 154.136 257.3C153.629 256.833 153.376 256.067 153.376 255V248.54H151.956V247.04H153.376V244.28H155.196V247.04H158.056V248.54H155.196ZM158.581 252.48C158.581 251.36 158.807 250.38 159.261 249.54C159.714 248.687 160.334 248.027 161.121 247.56C161.921 247.093 162.807 246.86 163.781 246.86C164.741 246.86 165.574 247.067 166.281 247.48C166.987 247.893 167.514 248.413 167.861 249.04V247.04H169.701V258H167.861V255.96C167.501 256.6 166.961 257.133 166.241 257.56C165.534 257.973 164.707 258.18 163.761 258.18C162.787 258.18 161.907 257.94 161.121 257.46C160.334 256.98 159.714 256.307 159.261 255.44C158.807 254.573 158.581 253.587 158.581 252.48ZM167.861 252.5C167.861 251.673 167.694 250.953 167.361 250.34C167.027 249.727 166.574 249.26 166.001 248.94C165.441 248.607 164.821 248.44 164.141 248.44C163.461 248.44 162.841 248.6 162.281 248.92C161.721 249.24 161.274 249.707 160.941 250.32C160.607 250.933 160.441 251.653 160.441 252.48C160.441 253.32 160.607 254.053 160.941 254.68C161.274 255.293 161.721 255.767 162.281 256.1C162.841 256.42 163.461 256.58 164.141 256.58C164.821 256.58 165.441 256.42 166.001 256.1C166.574 255.767 167.027 255.293 167.361 254.68C167.694 254.053 167.861 253.327 167.861 252.5ZM176.436 256.64C177.236 256.64 177.903 256.453 178.436 256.08C178.97 255.707 179.336 255.173 179.536 254.48H181.496C181.23 255.52 180.703 256.373 179.916 257.04C179.143 257.693 178.17 258.067 176.996 258.16V259.16C177.783 259.147 178.41 259.313 178.876 259.66C179.343 260.007 179.576 260.5 179.576 261.14C179.576 261.767 179.35 262.267 178.896 262.64C178.443 263.013 177.856 263.2 177.136 263.2H174.836V262.02H176.776C177.216 262.02 177.536 261.953 177.736 261.82C177.95 261.687 178.056 261.46 178.056 261.14C178.056 260.833 177.95 260.613 177.736 260.48C177.536 260.347 177.216 260.28 176.776 260.28H175.776V258.14C174.856 258.047 174.043 257.76 173.336 257.28C172.63 256.787 172.076 256.133 171.676 255.32C171.29 254.493 171.096 253.553 171.096 252.5C171.096 251.367 171.323 250.38 171.776 249.54C172.23 248.687 172.856 248.027 173.656 247.56C174.47 247.093 175.396 246.86 176.436 246.86C177.783 246.86 178.89 247.187 179.756 247.84C180.636 248.493 181.216 249.4 181.496 250.56H179.536C179.35 249.893 178.983 249.367 178.436 248.98C177.903 248.593 177.236 248.4 176.436 248.4C175.396 248.4 174.556 248.76 173.916 249.48C173.276 250.187 172.956 251.193 172.956 252.5C172.956 253.82 173.276 254.84 173.916 255.56C174.556 256.28 175.396 256.64 176.436 256.64ZM187.705 258.18C186.678 258.18 185.745 257.947 184.905 257.48C184.078 257.013 183.425 256.353 182.945 255.5C182.478 254.633 182.245 253.633 182.245 252.5C182.245 251.38 182.485 250.393 182.965 249.54C183.458 248.673 184.125 248.013 184.965 247.56C185.805 247.093 186.745 246.86 187.785 246.86C188.825 246.86 189.765 247.093 190.605 247.56C191.445 248.013 192.105 248.667 192.585 249.52C193.078 250.373 193.325 251.367 193.325 252.5C193.325 253.633 193.071 254.633 192.565 255.5C192.071 256.353 191.398 257.013 190.545 257.48C189.691 257.947 188.745 258.18 187.705 258.18ZM187.705 256.58C188.358 256.58 188.971 256.427 189.545 256.12C190.118 255.813 190.578 255.353 190.925 254.74C191.285 254.127 191.465 253.38 191.465 252.5C191.465 251.62 191.291 250.873 190.945 250.26C190.598 249.647 190.145 249.193 189.585 248.9C189.025 248.593 188.418 248.44 187.765 248.44C187.098 248.44 186.485 248.593 185.925 248.9C185.378 249.193 184.938 249.647 184.605 250.26C184.271 250.873 184.105 251.62 184.105 252.5C184.105 253.393 184.265 254.147 184.585 254.76C184.918 255.373 185.358 255.833 185.905 256.14C186.451 256.433 187.051 256.58 187.705 256.58ZM184.865 245.72C184.958 245.04 185.178 244.52 185.525 244.16C185.885 243.8 186.331 243.62 186.865 243.62C187.118 243.62 187.331 243.667 187.505 243.76C187.691 243.84 187.911 243.96 188.165 244.12C188.351 244.253 188.518 244.36 188.665 244.44C188.811 244.507 188.971 244.54 189.145 244.54C189.371 244.54 189.565 244.467 189.725 244.32C189.885 244.173 189.985 243.96 190.025 243.68H191.065C190.985 244.347 190.765 244.86 190.405 245.22C190.045 245.58 189.598 245.76 189.065 245.76C188.811 245.76 188.585 245.72 188.385 245.64C188.198 245.547 187.985 245.413 187.745 245.24C187.531 245.107 187.358 245.007 187.225 244.94C187.105 244.873 186.958 244.84 186.785 244.84C186.558 244.84 186.365 244.913 186.205 245.06C186.058 245.207 185.965 245.427 185.925 245.72H184.865ZM204.718 252.1C204.718 252.447 204.698 252.813 204.658 253.2H195.898C195.964 254.28 196.331 255.127 196.998 255.74C197.678 256.34 198.498 256.64 199.458 256.64C200.244 256.64 200.898 256.46 201.418 256.1C201.951 255.727 202.324 255.233 202.538 254.62H204.498C204.204 255.673 203.618 256.533 202.738 257.2C201.858 257.853 200.764 258.18 199.458 258.18C198.418 258.18 197.484 257.947 196.658 257.48C195.844 257.013 195.204 256.353 194.738 255.5C194.271 254.633 194.038 253.633 194.038 252.5C194.038 251.367 194.264 250.373 194.718 249.52C195.171 248.667 195.804 248.013 196.618 247.56C197.444 247.093 198.391 246.86 199.458 246.86C200.498 246.86 201.418 247.087 202.218 247.54C203.018 247.993 203.631 248.62 204.058 249.42C204.498 250.207 204.718 251.1 204.718 252.1ZM202.838 251.72C202.838 251.027 202.684 250.433 202.378 249.94C202.071 249.433 201.651 249.053 201.118 248.8C200.598 248.533 200.018 248.4 199.378 248.4C198.458 248.4 197.671 248.693 197.018 249.28C196.378 249.867 196.011 250.68 195.918 251.72H202.838ZM210 258.18C209.16 258.18 208.407 258.04 207.74 257.76C207.073 257.467 206.547 257.067 206.16 256.56C205.773 256.04 205.56 255.447 205.52 254.78H207.4C207.453 255.327 207.707 255.773 208.16 256.12C208.627 256.467 209.233 256.64 209.98 256.64C210.673 256.64 211.22 256.487 211.62 256.18C212.02 255.873 212.22 255.487 212.22 255.02C212.22 254.54 212.007 254.187 211.58 253.96C211.153 253.72 210.493 253.487 209.6 253.26C208.787 253.047 208.12 252.833 207.6 252.62C207.093 252.393 206.653 252.067 206.28 251.64C205.92 251.2 205.74 250.627 205.74 249.92C205.74 249.36 205.907 248.847 206.24 248.38C206.573 247.913 207.047 247.547 207.66 247.28C208.273 247 208.973 246.86 209.76 246.86C210.973 246.86 211.953 247.167 212.7 247.78C213.447 248.393 213.847 249.233 213.9 250.3H212.08C212.04 249.727 211.807 249.267 211.38 248.92C210.967 248.573 210.407 248.4 209.7 248.4C209.047 248.4 208.527 248.54 208.14 248.82C207.753 249.1 207.56 249.467 207.56 249.92C207.56 250.28 207.673 250.58 207.9 250.82C208.14 251.047 208.433 251.233 208.78 251.38C209.14 251.513 209.633 251.667 210.26 251.84C211.047 252.053 211.687 252.267 212.18 252.48C212.673 252.68 213.093 252.987 213.44 253.4C213.8 253.813 213.987 254.353 214 255.02C214 255.62 213.833 256.16 213.5 256.64C213.167 257.12 212.693 257.5 212.08 257.78C211.48 258.047 210.787 258.18 210 258.18ZM219.221 252.48C219.221 251.36 219.448 250.38 219.901 249.54C220.355 248.687 220.975 248.027 221.761 247.56C222.561 247.093 223.448 246.86 224.421 246.86C225.381 246.86 226.215 247.067 226.921 247.48C227.628 247.893 228.155 248.413 228.501 249.04V247.04H230.341V258H228.501V255.96C228.141 256.6 227.601 257.133 226.881 257.56C226.175 257.973 225.348 258.18 224.401 258.18C223.428 258.18 222.548 257.94 221.761 257.46C220.975 256.98 220.355 256.307 219.901 255.44C219.448 254.573 219.221 253.587 219.221 252.48ZM228.501 252.5C228.501 251.673 228.335 250.953 228.001 250.34C227.668 249.727 227.215 249.26 226.641 248.94C226.081 248.607 225.461 248.44 224.781 248.44C224.101 248.44 223.481 248.6 222.921 248.92C222.361 249.24 221.915 249.707 221.581 250.32C221.248 250.933 221.081 251.653 221.081 252.48C221.081 253.32 221.248 254.053 221.581 254.68C221.915 255.293 222.361 255.767 222.921 256.1C223.481 256.42 224.101 256.58 224.781 256.58C225.461 256.58 226.081 256.42 226.641 256.1C227.215 255.767 227.668 255.293 228.001 254.68C228.335 254.053 228.501 253.327 228.501 252.5ZM237.757 246.84C239.09 246.84 240.17 247.247 240.997 248.06C241.824 248.86 242.237 250.02 242.237 251.54V258H240.437V251.8C240.437 250.707 240.164 249.873 239.617 249.3C239.07 248.713 238.324 248.42 237.377 248.42C236.417 248.42 235.65 248.72 235.077 249.32C234.517 249.92 234.237 250.793 234.237 251.94V258H232.417V247.04H234.237V248.6C234.597 248.04 235.084 247.607 235.697 247.3C236.324 246.993 237.01 246.84 237.757 246.84ZM246.43 248.54V255C246.43 255.533 246.543 255.913 246.77 256.14C246.997 256.353 247.39 256.46 247.95 256.46H249.29V258H247.65C246.637 258 245.877 257.767 245.37 257.3C244.863 256.833 244.61 256.067 244.61 255V248.54H243.19V247.04H244.61V244.28H246.43V247.04H249.29V248.54H246.43ZM260.495 252.1C260.495 252.447 260.475 252.813 260.435 253.2H251.675C251.742 254.28 252.108 255.127 252.775 255.74C253.455 256.34 254.275 256.64 255.235 256.64C256.022 256.64 256.675 256.46 257.195 256.1C257.728 255.727 258.102 255.233 258.315 254.62H260.275C259.982 255.673 259.395 256.533 258.515 257.2C257.635 257.853 256.542 258.18 255.235 258.18C254.195 258.18 253.262 257.947 252.435 257.48C251.622 257.013 250.982 256.353 250.515 255.5C250.048 254.633 249.815 253.633 249.815 252.5C249.815 251.367 250.042 250.373 250.495 249.52C250.948 248.667 251.582 248.013 252.395 247.56C253.222 247.093 254.168 246.86 255.235 246.86C256.275 246.86 257.195 247.087 257.995 247.54C258.795 247.993 259.408 248.62 259.835 249.42C260.275 250.207 260.495 251.1 260.495 252.1ZM258.615 251.72C258.615 251.027 258.462 250.433 258.155 249.94C257.848 249.433 257.428 249.053 256.895 248.8C256.375 248.533 255.795 248.4 255.155 248.4C254.235 248.4 253.448 248.693 252.795 249.28C252.155 249.867 251.788 250.68 251.695 251.72H258.615ZM265.777 258.18C264.937 258.18 264.184 258.04 263.517 257.76C262.851 257.467 262.324 257.067 261.937 256.56C261.551 256.04 261.337 255.447 261.297 254.78H263.177C263.231 255.327 263.484 255.773 263.937 256.12C264.404 256.467 265.011 256.64 265.757 256.64C266.451 256.64 266.997 256.487 267.397 256.18C267.797 255.873 267.997 255.487 267.997 255.02C267.997 254.54 267.784 254.187 267.357 253.96C266.931 253.72 266.271 253.487 265.377 253.26C264.564 253.047 263.897 252.833 263.377 252.62C262.871 252.393 262.431 252.067 262.057 251.64C261.697 251.2 261.517 250.627 261.517 249.92C261.517 249.36 261.684 248.847 262.017 248.38C262.351 247.913 262.824 247.547 263.437 247.28C264.051 247 264.751 246.86 265.537 246.86C266.751 246.86 267.731 247.167 268.477 247.78C269.224 248.393 269.624 249.233 269.677 250.3H267.857C267.817 249.727 267.584 249.267 267.157 248.92C266.744 248.573 266.184 248.4 265.477 248.4C264.824 248.4 264.304 248.54 263.917 248.82C263.531 249.1 263.337 249.467 263.337 249.92C263.337 250.28 263.451 250.58 263.677 250.82C263.917 251.047 264.211 251.233 264.557 251.38C264.917 251.513 265.411 251.667 266.037 251.84C266.824 252.053 267.464 252.267 267.957 252.48C268.451 252.68 268.871 252.987 269.217 253.4C269.577 253.813 269.764 254.353 269.777 255.02C269.777 255.62 269.611 256.16 269.277 256.64C268.944 257.12 268.471 257.5 267.857 257.78C267.257 258.047 266.564 258.18 265.777 258.18ZM274.999 252.48C274.999 251.36 275.225 250.38 275.679 249.54C276.132 248.687 276.752 248.027 277.539 247.56C278.339 247.093 279.232 246.86 280.219 246.86C281.072 246.86 281.865 247.06 282.599 247.46C283.332 247.847 283.892 248.36 284.279 249V243.2H286.119V258H284.279V255.94C283.919 256.593 283.385 257.133 282.679 257.56C281.972 257.973 281.145 258.18 280.199 258.18C279.225 258.18 278.339 257.94 277.539 257.46C276.752 256.98 276.132 256.307 275.679 255.44C275.225 254.573 274.999 253.587 274.999 252.48ZM284.279 252.5C284.279 251.673 284.112 250.953 283.779 250.34C283.445 249.727 282.992 249.26 282.419 248.94C281.859 248.607 281.239 248.44 280.559 248.44C279.879 248.44 279.259 248.6 278.699 248.92C278.139 249.24 277.692 249.707 277.359 250.32C277.025 250.933 276.859 251.653 276.859 252.48C276.859 253.32 277.025 254.053 277.359 254.68C277.692 255.293 278.139 255.767 278.699 256.1C279.259 256.42 279.879 256.58 280.559 256.58C281.239 256.58 281.859 256.42 282.419 256.1C282.992 255.767 283.445 255.293 283.779 254.68C284.112 254.053 284.279 253.327 284.279 252.5ZM292.974 258.18C291.948 258.18 291.014 257.947 290.174 257.48C289.348 257.013 288.694 256.353 288.214 255.5C287.748 254.633 287.514 253.633 287.514 252.5C287.514 251.38 287.754 250.393 288.234 249.54C288.728 248.673 289.394 248.013 290.234 247.56C291.074 247.093 292.014 246.86 293.054 246.86C294.094 246.86 295.034 247.093 295.874 247.56C296.714 248.013 297.374 248.667 297.854 249.52C298.348 250.373 298.594 251.367 298.594 252.5C298.594 253.633 298.341 254.633 297.834 255.5C297.341 256.353 296.668 257.013 295.814 257.48C294.961 257.947 294.014 258.18 292.974 258.18ZM292.974 256.58C293.628 256.58 294.241 256.427 294.814 256.12C295.388 255.813 295.848 255.353 296.194 254.74C296.554 254.127 296.734 253.38 296.734 252.5C296.734 251.62 296.561 250.873 296.214 250.26C295.868 249.647 295.414 249.193 294.854 248.9C294.294 248.593 293.688 248.44 293.034 248.44C292.368 248.44 291.754 248.593 291.194 248.9C290.648 249.193 290.208 249.647 289.874 250.26C289.541 250.873 289.374 251.62 289.374 252.5C289.374 253.393 289.534 254.147 289.854 254.76C290.188 255.373 290.628 255.833 291.174 256.14C291.721 256.433 292.321 256.58 292.974 256.58ZM35.1276 270.48C35.1276 269.36 35.3542 268.38 35.8076 267.54C36.2609 266.687 36.8809 266.027 37.6676 265.56C38.4676 265.093 39.3542 264.86 40.3276 264.86C41.2876 264.86 42.1209 265.067 42.8276 265.48C43.5342 265.893 44.0609 266.413 44.4076 267.04V265.04H46.2476V276H44.4076V273.96C44.0476 274.6 43.5076 275.133 42.7876 275.56C42.0809 275.973 41.2542 276.18 40.3076 276.18C39.3342 276.18 38.4542 275.94 37.6676 275.46C36.8809 274.98 36.2609 274.307 35.8076 273.44C35.3542 272.573 35.1276 271.587 35.1276 270.48ZM44.4076 270.5C44.4076 269.673 44.2409 268.953 43.9076 268.34C43.5742 267.727 43.1209 267.26 42.5476 266.94C41.9876 266.607 41.3676 266.44 40.6876 266.44C40.0076 266.44 39.3876 266.6 38.8276 266.92C38.2676 267.24 37.8209 267.707 37.4876 268.32C37.1542 268.933 36.9876 269.653 36.9876 270.48C36.9876 271.32 37.1542 272.053 37.4876 272.68C37.8209 273.293 38.2676 273.767 38.8276 274.1C39.3876 274.42 40.0076 274.58 40.6876 274.58C41.3676 274.58 41.9876 274.42 42.5476 274.1C43.1209 273.767 43.5742 273.293 43.9076 272.68C44.2409 272.053 44.4076 271.327 44.4076 270.5ZM50.5432 266.54V273C50.5432 273.533 50.6565 273.913 50.8832 274.14C51.1099 274.353 51.5032 274.46 52.0632 274.46H53.4032V276H51.7632C50.7499 276 49.9899 275.767 49.4832 275.3C48.9765 274.833 48.7232 274.067 48.7232 273V266.54H47.3032V265.04H48.7232V262.28H50.5432V265.04H53.4032V266.54H50.5432ZM64.6084 270.1C64.6084 270.447 64.5884 270.813 64.5484 271.2H55.7884C55.855 272.28 56.2217 273.127 56.8884 273.74C57.5684 274.34 58.3884 274.64 59.3484 274.64C60.135 274.64 60.7884 274.46 61.3084 274.1C61.8417 273.727 62.215 273.233 62.4284 272.62H64.3884C64.095 273.673 63.5084 274.533 62.6284 275.2C61.7484 275.853 60.655 276.18 59.3484 276.18C58.3084 276.18 57.375 275.947 56.5484 275.48C55.735 275.013 55.095 274.353 54.6284 273.5C54.1617 272.633 53.9284 271.633 53.9284 270.5C53.9284 269.367 54.155 268.373 54.6084 267.52C55.0617 266.667 55.695 266.013 56.5084 265.56C57.335 265.093 58.2817 264.86 59.3484 264.86C60.3884 264.86 61.3084 265.087 62.1084 265.54C62.9084 265.993 63.5217 266.62 63.9484 267.42C64.3884 268.207 64.6084 269.1 64.6084 270.1ZM62.7284 269.72C62.7284 269.027 62.575 268.433 62.2684 267.94C61.9617 267.433 61.5417 267.053 61.0084 266.8C60.4884 266.533 59.9084 266.4 59.2684 266.4C58.3484 266.4 57.5617 266.693 56.9084 267.28C56.2684 267.867 55.9017 268.68 55.8084 269.72H62.7284ZM71.3507 264.84C72.684 264.84 73.764 265.247 74.5907 266.06C75.4174 266.86 75.8307 268.02 75.8307 269.54V276H74.0307V269.8C74.0307 268.707 73.7574 267.873 73.2107 267.3C72.664 266.713 71.9174 266.42 70.9707 266.42C70.0107 266.42 69.244 266.72 68.6707 267.32C68.1107 267.92 67.8307 268.793 67.8307 269.94V276H66.0107V265.04H67.8307V266.6C68.1907 266.04 68.6774 265.607 69.2907 265.3C69.9174 264.993 70.604 264.84 71.3507 264.84ZM77.1237 270.48C77.1237 269.36 77.3503 268.38 77.8037 267.54C78.257 266.687 78.877 266.027 79.6637 265.56C80.4637 265.093 81.357 264.86 82.3437 264.86C83.197 264.86 83.9903 265.06 84.7237 265.46C85.457 265.847 86.017 266.36 86.4037 267V261.2H88.2437V276H86.4037V273.94C86.0437 274.593 85.5103 275.133 84.8037 275.56C84.097 275.973 83.2703 276.18 82.3237 276.18C81.3503 276.18 80.4637 275.94 79.6637 275.46C78.877 274.98 78.257 274.307 77.8037 273.44C77.3503 272.573 77.1237 271.587 77.1237 270.48ZM86.4037 270.5C86.4037 269.673 86.237 268.953 85.9037 268.34C85.5703 267.727 85.117 267.26 84.5437 266.94C83.9837 266.607 83.3637 266.44 82.6837 266.44C82.0037 266.44 81.3837 266.6 80.8237 266.92C80.2637 267.24 79.817 267.707 79.4837 268.32C79.1503 268.933 78.9837 269.653 78.9837 270.48C78.9837 271.32 79.1503 272.053 79.4837 272.68C79.817 273.293 80.2637 273.767 80.8237 274.1C81.3837 274.42 82.0037 274.58 82.6837 274.58C83.3637 274.58 83.9837 274.42 84.5437 274.1C85.117 273.767 85.5703 273.293 85.9037 272.68C86.237 272.053 86.4037 271.327 86.4037 270.5ZM91.2593 263.26C90.9126 263.26 90.6193 263.14 90.3793 262.9C90.1393 262.66 90.0193 262.367 90.0193 262.02C90.0193 261.673 90.1393 261.38 90.3793 261.14C90.6193 260.9 90.9126 260.78 91.2593 260.78C91.5926 260.78 91.8726 260.9 92.0993 261.14C92.3393 261.38 92.4593 261.673 92.4593 262.02C92.4593 262.367 92.3393 262.66 92.0993 262.9C91.8726 263.14 91.5926 263.26 91.2593 263.26ZM92.1393 265.04V276H90.3193V265.04H92.1393ZM107.421 264.84C108.275 264.84 109.035 265.02 109.701 265.38C110.368 265.727 110.895 266.253 111.281 266.96C111.668 267.667 111.861 268.527 111.861 269.54V276H110.061V269.8C110.061 268.707 109.788 267.873 109.241 267.3C108.708 266.713 107.981 266.42 107.061 266.42C106.115 266.42 105.361 266.727 104.801 267.34C104.241 267.94 103.961 268.813 103.961 269.96V276H102.161V269.8C102.161 268.707 101.888 267.873 101.341 267.3C100.808 266.713 100.081 266.42 99.1612 266.42C98.2145 266.42 97.4612 266.727 96.9012 267.34C96.3412 267.94 96.0612 268.813 96.0612 269.96V276H94.2412V265.04H96.0612V266.62C96.4212 266.047 96.9012 265.607 97.5012 265.3C98.1145 264.993 98.7878 264.84 99.5212 264.84C100.441 264.84 101.255 265.047 101.961 265.46C102.668 265.873 103.195 266.48 103.541 267.28C103.848 266.507 104.355 265.907 105.061 265.48C105.768 265.053 106.555 264.84 107.421 264.84ZM123.847 270.1C123.847 270.447 123.827 270.813 123.787 271.2H115.027C115.093 272.28 115.46 273.127 116.127 273.74C116.807 274.34 117.627 274.64 118.587 274.64C119.373 274.64 120.027 274.46 120.547 274.1C121.08 273.727 121.453 273.233 121.667 272.62H123.627C123.333 273.673 122.747 274.533 121.867 275.2C120.987 275.853 119.893 276.18 118.587 276.18C117.547 276.18 116.613 275.947 115.787 275.48C114.973 275.013 114.333 274.353 113.867 273.5C113.4 272.633 113.167 271.633 113.167 270.5C113.167 269.367 113.393 268.373 113.847 267.52C114.3 266.667 114.933 266.013 115.747 265.56C116.573 265.093 117.52 264.86 118.587 264.86C119.627 264.86 120.547 265.087 121.347 265.54C122.147 265.993 122.76 266.62 123.187 267.42C123.627 268.207 123.847 269.1 123.847 270.1ZM121.967 269.72C121.967 269.027 121.813 268.433 121.507 267.94C121.2 267.433 120.78 267.053 120.247 266.8C119.727 266.533 119.147 266.4 118.507 266.4C117.587 266.4 116.8 266.693 116.147 267.28C115.507 267.867 115.14 268.68 115.047 269.72H121.967ZM130.589 264.84C131.922 264.84 133.002 265.247 133.829 266.06C134.656 266.86 135.069 268.02 135.069 269.54V276H133.269V269.8C133.269 268.707 132.996 267.873 132.449 267.3C131.902 266.713 131.156 266.42 130.209 266.42C129.249 266.42 128.482 266.72 127.909 267.32C127.349 267.92 127.069 268.793 127.069 269.94V276H125.249V265.04H127.069V266.6C127.429 266.04 127.916 265.607 128.529 265.3C129.156 264.993 129.842 264.84 130.589 264.84ZM139.262 266.54V273C139.262 273.533 139.375 273.913 139.602 274.14C139.829 274.353 140.222 274.46 140.782 274.46H142.122V276H140.482C139.469 276 138.709 275.767 138.202 275.3C137.695 274.833 137.442 274.067 137.442 273V266.54H136.022V265.04H137.442V262.28H139.262V265.04H142.122V266.54H139.262ZM148.107 276.18C147.08 276.18 146.147 275.947 145.307 275.48C144.48 275.013 143.827 274.353 143.347 273.5C142.88 272.633 142.647 271.633 142.647 270.5C142.647 269.38 142.887 268.393 143.367 267.54C143.86 266.673 144.527 266.013 145.367 265.56C146.207 265.093 147.147 264.86 148.187 264.86C149.227 264.86 150.167 265.093 151.007 265.56C151.847 266.013 152.507 266.667 152.987 267.52C153.48 268.373 153.727 269.367 153.727 270.5C153.727 271.633 153.474 272.633 152.967 273.5C152.474 274.353 151.8 275.013 150.947 275.48C150.094 275.947 149.147 276.18 148.107 276.18ZM148.107 274.58C148.76 274.58 149.374 274.427 149.947 274.12C150.52 273.813 150.98 273.353 151.327 272.74C151.687 272.127 151.867 271.38 151.867 270.5C151.867 269.62 151.694 268.873 151.347 268.26C151 267.647 150.547 267.193 149.987 266.9C149.427 266.593 148.82 266.44 148.167 266.44C147.5 266.44 146.887 266.593 146.327 266.9C145.78 267.193 145.34 267.647 145.007 268.26C144.674 268.873 144.507 269.62 144.507 270.5C144.507 271.393 144.667 272.147 144.987 272.76C145.32 273.373 145.76 273.833 146.307 274.14C146.854 274.433 147.454 274.58 148.107 274.58ZM157 273.48L154.76 278.86H153.54L155 273.48H157ZM164.637 266.54V273C164.637 273.533 164.75 273.913 164.977 274.14C165.204 274.353 165.597 274.46 166.157 274.46H167.497V276H165.857C164.844 276 164.084 275.767 163.577 275.3C163.07 274.833 162.817 274.067 162.817 273V266.54H161.397V265.04H162.817V262.28H164.637V265.04H167.497V266.54H164.637ZM178.422 265.04V276H176.602V274.38C176.255 274.94 175.769 275.38 175.142 275.7C174.529 276.007 173.849 276.16 173.102 276.16C172.249 276.16 171.482 275.987 170.802 275.64C170.122 275.28 169.582 274.747 169.182 274.04C168.795 273.333 168.602 272.473 168.602 271.46V265.04H170.402V271.22C170.402 272.3 170.675 273.133 171.222 273.72C171.769 274.293 172.515 274.58 173.462 274.58C174.435 274.58 175.202 274.28 175.762 273.68C176.322 273.08 176.602 272.207 176.602 271.06V265.04H178.422ZM179.815 270.48C179.815 269.36 180.042 268.38 180.495 267.54C180.948 266.687 181.568 266.027 182.355 265.56C183.155 265.093 184.048 264.86 185.035 264.86C185.888 264.86 186.682 265.06 187.415 265.46C188.148 265.847 188.708 266.36 189.095 267V261.2H190.935V276H189.095V273.94C188.735 274.593 188.202 275.133 187.495 275.56C186.788 275.973 185.962 276.18 185.015 276.18C184.042 276.18 183.155 275.94 182.355 275.46C181.568 274.98 180.948 274.307 180.495 273.44C180.042 272.573 179.815 271.587 179.815 270.48ZM189.095 270.5C189.095 269.673 188.928 268.953 188.595 268.34C188.262 267.727 187.808 267.26 187.235 266.94C186.675 266.607 186.055 266.44 185.375 266.44C184.695 266.44 184.075 266.6 183.515 266.92C182.955 267.24 182.508 267.707 182.175 268.32C181.842 268.933 181.675 269.653 181.675 270.48C181.675 271.32 181.842 272.053 182.175 272.68C182.508 273.293 182.955 273.767 183.515 274.1C184.075 274.42 184.695 274.58 185.375 274.58C186.055 274.58 186.675 274.42 187.235 274.1C187.808 273.767 188.262 273.293 188.595 272.68C188.928 272.053 189.095 271.327 189.095 270.5ZM197.791 276.18C196.764 276.18 195.831 275.947 194.991 275.48C194.164 275.013 193.511 274.353 193.031 273.5C192.564 272.633 192.331 271.633 192.331 270.5C192.331 269.38 192.571 268.393 193.051 267.54C193.544 266.673 194.211 266.013 195.051 265.56C195.891 265.093 196.831 264.86 197.871 264.86C198.911 264.86 199.851 265.093 200.691 265.56C201.531 266.013 202.191 266.667 202.671 267.52C203.164 268.373 203.411 269.367 203.411 270.5C203.411 271.633 203.157 272.633 202.651 273.5C202.157 274.353 201.484 275.013 200.631 275.48C199.777 275.947 198.831 276.18 197.791 276.18ZM197.791 274.58C198.444 274.58 199.057 274.427 199.631 274.12C200.204 273.813 200.664 273.353 201.011 272.74C201.371 272.127 201.551 271.38 201.551 270.5C201.551 269.62 201.377 268.873 201.031 268.26C200.684 267.647 200.231 267.193 199.671 266.9C199.111 266.593 198.504 266.44 197.851 266.44C197.184 266.44 196.571 266.593 196.011 266.9C195.464 267.193 195.024 267.647 194.691 268.26C194.357 268.873 194.191 269.62 194.191 270.5C194.191 271.393 194.351 272.147 194.671 272.76C195.004 273.373 195.444 273.833 195.991 274.14C196.537 274.433 197.137 274.58 197.791 274.58ZM213.016 276.18C212.176 276.18 211.422 276.04 210.756 275.76C210.089 275.467 209.562 275.067 209.176 274.56C208.789 274.04 208.576 273.447 208.536 272.78H210.416C210.469 273.327 210.722 273.773 211.176 274.12C211.642 274.467 212.249 274.64 212.996 274.64C213.689 274.64 214.236 274.487 214.636 274.18C215.036 273.873 215.236 273.487 215.236 273.02C215.236 272.54 215.022 272.187 214.596 271.96C214.169 271.72 213.509 271.487 212.616 271.26C211.802 271.047 211.136 270.833 210.616 270.62C210.109 270.393 209.669 270.067 209.296 269.64C208.936 269.2 208.756 268.627 208.756 267.92C208.756 267.36 208.922 266.847 209.256 266.38C209.589 265.913 210.062 265.547 210.676 265.28C211.289 265 211.989 264.86 212.776 264.86C213.989 264.86 214.969 265.167 215.716 265.78C216.462 266.393 216.862 267.233 216.916 268.3H215.096C215.056 267.727 214.822 267.267 214.396 266.92C213.982 266.573 213.422 266.4 212.716 266.4C212.062 266.4 211.542 266.54 211.156 266.82C210.769 267.1 210.576 267.467 210.576 267.92C210.576 268.28 210.689 268.58 210.916 268.82C211.156 269.047 211.449 269.233 211.796 269.38C212.156 269.513 212.649 269.667 213.276 269.84C214.062 270.053 214.702 270.267 215.196 270.48C215.689 270.68 216.109 270.987 216.456 271.4C216.816 271.813 217.002 272.353 217.016 273.02C217.016 273.62 216.849 274.16 216.516 274.64C216.182 275.12 215.709 275.5 215.096 275.78C214.496 276.047 213.802 276.18 213.016 276.18ZM228.585 270.1C228.585 270.447 228.565 270.813 228.525 271.2H219.765C219.832 272.28 220.198 273.127 220.865 273.74C221.545 274.34 222.365 274.64 223.325 274.64C224.112 274.64 224.765 274.46 225.285 274.1C225.818 273.727 226.192 273.233 226.405 272.62H228.365C228.072 273.673 227.485 274.533 226.605 275.2C225.725 275.853 224.632 276.18 223.325 276.18C222.285 276.18 221.352 275.947 220.525 275.48C219.712 275.013 219.072 274.353 218.605 273.5C218.138 272.633 217.905 271.633 217.905 270.5C217.905 269.367 218.132 268.373 218.585 267.52C219.038 266.667 219.672 266.013 220.485 265.56C221.312 265.093 222.258 264.86 223.325 264.86C224.365 264.86 225.285 265.087 226.085 265.54C226.885 265.993 227.498 266.62 227.925 267.42C228.365 268.207 228.585 269.1 228.585 270.1ZM226.705 269.72C226.705 269.027 226.552 268.433 226.245 267.94C225.938 267.433 225.518 267.053 224.985 266.8C224.465 266.533 223.885 266.4 223.245 266.4C222.325 266.4 221.538 266.693 220.885 267.28C220.245 267.867 219.878 268.68 219.785 269.72H226.705ZM243.167 264.84C244.021 264.84 244.781 265.02 245.447 265.38C246.114 265.727 246.641 266.253 247.027 266.96C247.414 267.667 247.607 268.527 247.607 269.54V276H245.807V269.8C245.807 268.707 245.534 267.873 244.987 267.3C244.454 266.713 243.727 266.42 242.807 266.42C241.861 266.42 241.107 266.727 240.547 267.34C239.987 267.94 239.707 268.813 239.707 269.96V276H237.907V269.8C237.907 268.707 237.634 267.873 237.087 267.3C236.554 266.713 235.827 266.42 234.907 266.42C233.961 266.42 233.207 266.727 232.647 267.34C232.087 267.94 231.807 268.813 231.807 269.96V276H229.987V265.04H231.807V266.62C232.167 266.047 232.647 265.607 233.247 265.3C233.861 264.993 234.534 264.84 235.267 264.84C236.187 264.84 237.001 265.047 237.707 265.46C238.414 265.873 238.941 266.48 239.287 267.28C239.594 266.507 240.101 265.907 240.807 265.48C241.514 265.053 242.301 264.84 243.167 264.84ZM257.805 276.18C256.965 276.18 256.211 276.04 255.545 275.76C254.878 275.467 254.351 275.067 253.965 274.56C253.578 274.04 253.365 273.447 253.325 272.78H255.205C255.258 273.327 255.511 273.773 255.965 274.12C256.431 274.467 257.038 274.64 257.785 274.64C258.478 274.64 259.025 274.487 259.425 274.18C259.825 273.873 260.025 273.487 260.025 273.02C260.025 272.54 259.811 272.187 259.385 271.96C258.958 271.72 258.298 271.487 257.405 271.26C256.591 271.047 255.925 270.833 255.405 270.62C254.898 270.393 254.458 270.067 254.085 269.64C253.725 269.2 253.545 268.627 253.545 267.92C253.545 267.36 253.711 266.847 254.045 266.38C254.378 265.913 254.851 265.547 255.465 265.28C256.078 265 256.778 264.86 257.565 264.86C258.778 264.86 259.758 265.167 260.505 265.78C261.251 266.393 261.651 267.233 261.705 268.3H259.885C259.845 267.727 259.611 267.267 259.185 266.92C258.771 266.573 258.211 266.4 257.505 266.4C256.851 266.4 256.331 266.54 255.945 266.82C255.558 267.1 255.365 267.467 255.365 267.92C255.365 268.28 255.478 268.58 255.705 268.82C255.945 269.047 256.238 269.233 256.585 269.38C256.945 269.513 257.438 269.667 258.065 269.84C258.851 270.053 259.491 270.267 259.985 270.48C260.478 270.68 260.898 270.987 261.245 271.4C261.605 271.813 261.791 272.353 261.805 273.02C261.805 273.62 261.638 274.16 261.305 274.64C260.971 275.12 260.498 275.5 259.885 275.78C259.285 276.047 258.591 276.18 257.805 276.18ZM262.694 270.48C262.694 269.36 262.921 268.38 263.374 267.54C263.827 266.687 264.447 266.027 265.234 265.56C266.034 265.093 266.921 264.86 267.894 264.86C268.854 264.86 269.687 265.067 270.394 265.48C271.101 265.893 271.627 266.413 271.974 267.04V265.04H273.814V276H271.974V273.96C271.614 274.6 271.074 275.133 270.354 275.56C269.647 275.973 268.821 276.18 267.874 276.18C266.901 276.18 266.021 275.94 265.234 275.46C264.447 274.98 263.827 274.307 263.374 273.44C262.921 272.573 262.694 271.587 262.694 270.48ZM271.974 270.5C271.974 269.673 271.807 268.953 271.474 268.34C271.141 267.727 270.687 267.26 270.114 266.94C269.554 266.607 268.934 266.44 268.254 266.44C267.574 266.44 266.954 266.6 266.394 266.92C265.834 267.24 265.387 267.707 265.054 268.32C264.721 268.933 264.554 269.653 264.554 270.48C264.554 271.32 264.721 272.053 265.054 272.68C265.387 273.293 265.834 273.767 266.394 274.1C266.954 274.42 267.574 274.58 268.254 274.58C268.934 274.58 269.554 274.42 270.114 274.1C270.687 273.767 271.141 273.293 271.474 272.68C271.807 272.053 271.974 271.327 271.974 270.5ZM276.83 263.26C276.483 263.26 276.19 263.14 275.95 262.9C275.71 262.66 275.59 262.367 275.59 262.02C275.59 261.673 275.71 261.38 275.95 261.14C276.19 260.9 276.483 260.78 276.83 260.78C277.163 260.78 277.443 260.9 277.67 261.14C277.91 261.38 278.03 261.673 278.03 262.02C278.03 262.367 277.91 262.66 277.67 262.9C277.443 263.14 277.163 263.26 276.83 263.26ZM277.71 265.04V276H275.89V265.04H277.71ZM281.631 266.82C281.951 266.193 282.405 265.707 282.991 265.36C283.591 265.013 284.318 264.84 285.171 264.84V266.72H284.691C282.651 266.72 281.631 267.827 281.631 270.04V276H279.811V265.04H281.631V266.82ZM125.167 288.48C125.167 287.36 125.393 286.38 125.847 285.54C126.3 284.687 126.92 284.027 127.707 283.56C128.507 283.093 129.4 282.86 130.387 282.86C131.24 282.86 132.033 283.06 132.767 283.46C133.5 283.847 134.06 284.36 134.447 285V279.2H136.287V294H134.447V291.94C134.087 292.593 133.553 293.133 132.847 293.56C132.14 293.973 131.313 294.18 130.367 294.18C129.393 294.18 128.507 293.94 127.707 293.46C126.92 292.98 126.3 292.307 125.847 291.44C125.393 290.573 125.167 289.587 125.167 288.48ZM134.447 288.5C134.447 287.673 134.28 286.953 133.947 286.34C133.613 285.727 133.16 285.26 132.587 284.94C132.027 284.607 131.407 284.44 130.727 284.44C130.047 284.44 129.427 284.6 128.867 284.92C128.307 285.24 127.86 285.707 127.527 286.32C127.193 286.933 127.027 287.653 127.027 288.48C127.027 289.32 127.193 290.053 127.527 290.68C127.86 291.293 128.307 291.767 128.867 292.1C129.427 292.42 130.047 292.58 130.727 292.58C131.407 292.58 132.027 292.42 132.587 292.1C133.16 291.767 133.613 291.293 133.947 290.68C134.28 290.053 134.447 289.327 134.447 288.5ZM143.142 294.18C142.116 294.18 141.182 293.947 140.342 293.48C139.516 293.013 138.862 292.353 138.382 291.5C137.916 290.633 137.682 289.633 137.682 288.5C137.682 287.38 137.922 286.393 138.402 285.54C138.896 284.673 139.562 284.013 140.402 283.56C141.242 283.093 142.182 282.86 143.222 282.86C144.262 282.86 145.202 283.093 146.042 283.56C146.882 284.013 147.542 284.667 148.022 285.52C148.516 286.373 148.762 287.367 148.762 288.5C148.762 289.633 148.509 290.633 148.002 291.5C147.509 292.353 146.836 293.013 145.982 293.48C145.129 293.947 144.182 294.18 143.142 294.18ZM143.142 292.58C143.796 292.58 144.409 292.427 144.982 292.12C145.556 291.813 146.016 291.353 146.362 290.74C146.722 290.127 146.902 289.38 146.902 288.5C146.902 287.62 146.729 286.873 146.382 286.26C146.036 285.647 145.582 285.193 145.022 284.9C144.462 284.593 143.856 284.44 143.202 284.44C142.536 284.44 141.922 284.593 141.362 284.9C140.816 285.193 140.376 285.647 140.042 286.26C139.709 286.873 139.542 287.62 139.542 288.5C139.542 289.393 139.702 290.147 140.022 290.76C140.356 291.373 140.796 291.833 141.342 292.14C141.889 292.433 142.489 292.58 143.142 292.58ZM153.807 288.48C153.807 287.36 154.034 286.38 154.487 285.54C154.941 284.687 155.561 284.027 156.347 283.56C157.147 283.093 158.034 282.86 159.007 282.86C159.967 282.86 160.801 283.067 161.507 283.48C162.214 283.893 162.741 284.413 163.087 285.04V283.04H164.927V294H163.087V291.96C162.727 292.6 162.187 293.133 161.467 293.56C160.761 293.973 159.934 294.18 158.987 294.18C158.014 294.18 157.134 293.94 156.347 293.46C155.561 292.98 154.941 292.307 154.487 291.44C154.034 290.573 153.807 289.587 153.807 288.48ZM163.087 288.5C163.087 287.673 162.921 286.953 162.587 286.34C162.254 285.727 161.801 285.26 161.227 284.94C160.667 284.607 160.047 284.44 159.367 284.44C158.687 284.44 158.067 284.6 157.507 284.92C156.947 285.24 156.501 285.707 156.167 286.32C155.834 286.933 155.667 287.653 155.667 288.48C155.667 289.32 155.834 290.053 156.167 290.68C156.501 291.293 156.947 291.767 157.507 292.1C158.067 292.42 158.687 292.58 159.367 292.58C160.047 292.58 160.667 292.42 161.227 292.1C161.801 291.767 162.254 291.293 162.587 290.68C162.921 290.053 163.087 289.327 163.087 288.5ZM168.823 285.06C169.183 284.433 169.716 283.913 170.423 283.5C171.143 283.073 171.976 282.86 172.923 282.86C173.896 282.86 174.776 283.093 175.563 283.56C176.363 284.027 176.99 284.687 177.443 285.54C177.896 286.38 178.123 287.36 178.123 288.48C178.123 289.587 177.896 290.573 177.443 291.44C176.99 292.307 176.363 292.98 175.563 293.46C174.776 293.94 173.896 294.18 172.923 294.18C171.99 294.18 171.163 293.973 170.443 293.56C169.736 293.133 169.196 292.607 168.823 291.98V299.2H167.003V283.04H168.823V285.06ZM176.263 288.48C176.263 287.653 176.096 286.933 175.763 286.32C175.43 285.707 174.976 285.24 174.403 284.92C173.843 284.6 173.223 284.44 172.543 284.44C171.876 284.44 171.256 284.607 170.683 284.94C170.123 285.26 169.67 285.733 169.323 286.36C168.99 286.973 168.823 287.687 168.823 288.5C168.823 289.327 168.99 290.053 169.323 290.68C169.67 291.293 170.123 291.767 170.683 292.1C171.256 292.42 171.876 292.58 172.543 292.58C173.223 292.58 173.843 292.42 174.403 292.1C174.976 291.767 175.43 291.293 175.763 290.68C176.096 290.053 176.263 289.32 176.263 288.48ZM181.339 285.06C181.699 284.433 182.232 283.913 182.939 283.5C183.659 283.073 184.492 282.86 185.439 282.86C186.412 282.86 187.292 283.093 188.079 283.56C188.879 284.027 189.505 284.687 189.959 285.54C190.412 286.38 190.639 287.36 190.639 288.48C190.639 289.587 190.412 290.573 189.959 291.44C189.505 292.307 188.879 292.98 188.079 293.46C187.292 293.94 186.412 294.18 185.439 294.18C184.505 294.18 183.679 293.973 182.959 293.56C182.252 293.133 181.712 292.607 181.339 291.98V299.2H179.519V283.04H181.339V285.06ZM188.779 288.48C188.779 287.653 188.612 286.933 188.279 286.32C187.945 285.707 187.492 285.24 186.919 284.92C186.359 284.6 185.739 284.44 185.059 284.44C184.392 284.44 183.772 284.607 183.199 284.94C182.639 285.26 182.185 285.733 181.839 286.36C181.505 286.973 181.339 287.687 181.339 288.5C181.339 289.327 181.505 290.053 181.839 290.68C182.185 291.293 182.639 291.767 183.199 292.1C183.772 292.42 184.392 292.58 185.059 292.58C185.739 292.58 186.359 292.42 186.919 292.1C187.492 291.767 187.945 291.293 188.279 290.68C188.612 290.053 188.779 289.32 188.779 288.48ZM192.614 294.12C192.267 294.12 191.974 294 191.734 293.76C191.494 293.52 191.374 293.227 191.374 292.88C191.374 292.533 191.494 292.24 191.734 292C191.974 291.76 192.267 291.64 192.614 291.64C192.947 291.64 193.227 291.76 193.454 292C193.694 292.24 193.814 292.533 193.814 292.88C193.814 293.227 193.694 293.52 193.454 293.76C193.227 294 192.947 294.12 192.614 294.12Z" fill="#472969"/>
<path d="M109.044 27.5052C107.527 28.2028 106.011 30.0311 105.425 31.8835L105 33.2788L105.04 55.6756L105.101 78.0965L105.647 79.3234C106.334 80.8871 107.972 82.6432 109.185 83.1243C109.872 83.413 110.904 83.5092 112.905 83.5092H115.695L115.756 90.5097L115.816 97.5103L116.484 98.2079C116.989 98.7371 117.333 98.9055 118 98.9055C118.748 98.9055 119.294 98.5447 122.691 95.8744L126.532 92.8433L126.633 97.0291C126.714 100.638 126.795 101.335 127.179 102.322C127.785 103.909 129.241 105.497 130.596 106.099C131.687 106.604 132.031 106.604 149.236 106.604H166.765L176.47 114.302C185.386 121.375 186.235 122 187.023 122C187.691 122 188.034 121.832 188.54 121.302L189.207 120.605L189.268 113.604L189.328 106.604H192.118C194.12 106.604 195.151 106.507 195.838 106.219C197.051 105.738 198.689 103.982 199.376 102.418L199.922 101.191L199.983 78.7701C200.023 56.686 200.023 56.3492 199.619 55.0501C199.073 53.294 197.84 51.7063 196.425 50.8643L195.272 50.1907L186.841 50.1185L178.39 50.0463V41.5543C178.39 31.8835 178.35 31.6429 176.834 29.6222C176.328 28.9486 175.439 28.1066 174.872 27.7458L173.841 27.0962L141.998 27.0481L110.156 27L109.044 27.5052ZM173.356 33.1826L173.942 33.9524V42.0114V50.0704L152.572 50.1185L131.182 50.1907L130.151 50.8402C129.585 51.2011 128.695 52.043 128.19 52.7166C126.572 54.8336 126.633 54.2082 126.633 71.2163V86.2758L123.58 88.6814C121.902 90.0046 120.446 91.1112 120.345 91.1593C120.244 91.2074 120.163 88.7055 120.163 85.506V79.7564L119.537 79.0347L118.93 78.337L114.806 78.2168L110.661 78.0965L110.115 77.4229L109.549 76.7734L109.488 55.6516C109.448 39.7982 109.509 34.3854 109.691 33.8562C109.812 33.4953 110.196 32.9661 110.54 32.7255C111.146 32.2925 112.117 32.2684 141.958 32.3165L172.77 32.3887L173.356 33.1826ZM194.362 55.7237C195.636 56.5176 195.596 55.411 195.535 78.6979L195.474 99.8678L194.908 100.517L194.362 101.191L190.218 101.311L186.093 101.432L185.487 102.129L184.86 102.851V108.576C184.86 111.728 184.82 114.302 184.759 114.302C184.719 114.302 181.059 111.415 176.631 107.855L168.585 101.432L150.49 101.311C140.543 101.239 132.233 101.095 132.031 100.974C131.061 100.421 131.081 100.83 131.081 78.2649V57.119L131.505 56.4695C131.748 56.1086 132.132 55.6997 132.375 55.6034C132.597 55.4832 146.527 55.3869 163.288 55.3869C190.157 55.3629 193.837 55.411 194.362 55.7237Z" fill="#472969"/>
<path d="M144.768 76.0758C144.263 76.4367 143.818 77.5914 143.818 78.5537C143.818 79.1551 144 79.6362 144.404 80.1895C144.93 80.8872 145.112 80.9834 146.042 80.9834C146.972 80.9834 147.154 80.8872 147.68 80.1895C148.084 79.6362 148.266 79.1551 148.266 78.5537C148.266 77.5433 147.801 76.4126 147.275 76.0518C146.77 75.739 145.233 75.739 144.768 76.0758Z" fill="#472969"/>
<path d="M153.098 76.5086C152.613 77.11 152.512 77.4227 152.512 78.385C152.512 79.3713 152.613 79.684 153.078 80.2373C155.261 82.6911 158.294 79.0826 156.232 76.4845C155.767 75.9312 155.504 75.8109 154.675 75.8109C153.866 75.8109 153.603 75.9312 153.098 76.5086Z" fill="#472969"/>
<path d="M161.751 76.4364C159.608 78.9864 162.701 82.7152 164.885 80.2374C165.35 79.6841 165.451 79.3714 165.451 78.385C165.451 77.4228 165.35 77.11 164.865 76.5086C164.359 75.9312 164.097 75.811 163.268 75.811C162.459 75.811 162.176 75.9312 161.751 76.4364Z" fill="#472969"/>
<path d="M170.647 76.0758C170.142 76.4367 169.697 77.5914 169.697 78.5537C169.697 79.1551 169.879 79.6362 170.283 80.1895C170.809 80.8872 170.991 80.9834 171.921 80.9834C172.851 80.9834 173.033 80.8872 173.558 80.1895C173.963 79.6362 174.145 79.1551 174.145 78.5537C174.145 77.5433 173.68 76.4126 173.154 76.0518C172.649 75.739 171.112 75.739 170.647 76.0758Z" fill="#472969"/>
<path d="M178.977 76.5086C178.491 77.11 178.39 77.4227 178.39 78.385C178.39 79.3713 178.491 79.684 178.956 80.2373C181.14 82.6911 184.173 79.0826 182.11 76.4845C181.645 75.9312 181.383 75.8109 180.554 75.8109C179.745 75.8109 179.482 75.9312 178.977 76.5086Z" fill="#472969"/>
</svg>
