<svg width="381" height="134" viewBox="0 0 381 134" fill="none" xmlns="http://www.w3.org/2000/svg">
<g filter="url(#filter0_d_1019_295)">
<path d="M22.2826 58.5364C6.40303 58.5364 1.96966 45.6393 6.80607 29.7598C11.6425 13.8802 23.9753 0.983162 39.8549 0.983162C55.5732 0.983162 60.0066 13.8802 55.1701 29.7598C50.3337 45.6393 38.0009 58.5364 22.2826 58.5364ZM22.7662 56.9243C32.1166 56.9243 40.4997 44.9139 45.0943 29.7598C49.6889 14.6057 48.7216 2.5953 39.3712 2.5953C29.8596 2.5953 21.4765 14.6057 16.8819 29.7598C12.2873 44.9139 13.2546 56.9243 22.7662 56.9243ZM71.5428 17.5882C74.1222 17.5882 75.0895 19.0391 74.2834 21.6185L72.3488 27.9864C83.0695 11.7845 102.254 13.2354 97.9012 30.4046L92.3393 48.7024C89.9211 58.214 101.851 54.9897 105.236 43.866H106.849C100.4 64.9044 78.7974 61.1964 82.9083 47.9769L87.8253 31.6137C91.8557 18.5554 76.1374 15.7342 69.2858 37.9817L65.6585 49.8309C64.8524 52.4909 63.9657 57.1661 69.6888 57.1661L69.3664 57.9722H47.2801L47.6026 57.1661C53.3256 57.1661 55.1796 52.4909 55.9857 49.8309L63.4821 25.407C64.2882 22.747 64.933 18.3942 59.4518 18.3942L59.6936 17.5882H71.5428ZM135.3 48.7024L139.33 35.5635C142.393 24.6816 140.539 18.4748 130.947 18.3942C124.418 18.4748 119.581 25.7294 116.035 37.1756C112.327 49.3472 112.891 56.2794 120.146 56.36C127.078 56.2794 133.687 53.2164 135.3 48.7024ZM155.371 1.54741C157.95 1.54741 158.998 2.99833 158.192 5.57775L145.214 47.9769C142.071 58.3752 154.484 55.2315 157.95 43.866H159.562C153.839 62.6474 135.944 61.6801 135.058 51.8461C131.914 55.554 125.869 57.8916 119.823 57.9722H119.581H119.42C109.102 57.811 102.09 51.3624 106.362 37.1756C110.553 23.5531 121.838 16.9433 131.592 16.9433C138.766 16.9433 141.909 20.2482 142.312 25.8907L147.229 9.68869C148.035 7.02867 149.003 2.35347 143.28 2.35347L143.521 1.54741H155.371ZM169.532 36.7726C169.452 37.1756 169.29 37.498 169.21 37.9011C168.162 41.2866 167.517 44.4302 167.356 47.1709C170.741 38.3847 181.785 34.6768 188.394 34.0319C190.329 25.1652 190.571 18.5554 184.525 18.5554C177.512 18.5554 172.676 26.5355 169.532 36.7726ZM190.168 35.4829C183.235 35.4829 168.565 39.6744 167.92 52.4909C168.968 55.3928 171.225 57.1661 175.336 57.1661C182.268 57.1661 188.636 52.0879 192.666 44.9139H194.44C189.603 52.9745 183.316 58.7782 173.16 58.7782C160.263 58.7782 155.587 49.4278 159.134 37.9011C159.215 37.498 159.376 37.1756 159.456 36.7726C162.842 25.6488 172.595 16.9433 185.009 16.9433C196.374 16.9433 201.211 25.004 197.987 35.4829H190.168ZM239.286 1.54741L239.044 2.35347C233.724 2.35347 231.709 6.38381 230.742 9.12445L228.888 15.2506H238.399L238.077 16.3791H228.565L220.908 41.3672C217.845 51.2818 220.505 56.4406 224.696 56.4406L224.213 57.9722C215.588 57.9722 208.575 52.8939 210.751 42.8987L218.893 16.3791H212.686L213.008 15.2506H219.215L222.198 5.57775C223.004 2.99833 224.858 1.54741 227.437 1.54741H239.286ZM263.384 35.4829C256.372 35.4829 241.621 39.755 241.218 52.6521C242.265 55.4734 244.522 57.1661 248.553 57.1661C254.115 57.1661 260.241 52.0879 265.803 47.1709C270.155 43.0599 275.798 35.2411 278.942 25.8101C279.748 23.15 280.715 18.4748 274.992 18.4748L275.234 17.6688H287.083C289.662 17.6688 290.63 19.1197 289.904 21.6991L288.292 27.0192L291.516 23.8755L292.967 22.5858C296.353 19.6033 300.222 16.9433 304.816 16.9433C310.942 16.3791 315.295 20.1676 313.925 28.4701C324.565 11.7039 344.152 12.9936 339.8 30.4046L333.835 49.9115C333.029 52.6521 332.142 57.1661 337.785 57.1661L337.543 57.9722H315.456L315.698 57.1661C321.421 57.1661 323.356 52.4909 324.162 49.8309L329.724 31.6137C333.674 18.7973 318.519 15.8148 311.507 36.8532L307.557 49.9115C306.751 52.6521 305.864 57.1661 311.507 57.1661L311.265 57.9722H289.179L289.42 57.1661C295.144 57.1661 297.078 52.4909 297.884 49.8309L303.446 31.6137C306.509 21.6991 299.98 18.9585 291.677 25.8101L289.501 27.8252L288.937 28.3895L288.131 29.0343L287.889 29.2761L270.317 44.9139C263.304 51.3624 256.13 58.7782 246.376 58.7782C233.479 58.7782 228.804 49.4278 232.351 37.9011C232.512 37.498 232.593 37.1756 232.673 36.7726C236.139 25.6488 245.893 16.9433 258.306 16.9433C269.672 16.9433 274.428 25.004 271.203 35.4829H263.384ZM262.901 57.9722L263.143 57.1661C268.301 57.1661 270.397 53.297 271.364 50.6369L273.46 43.7048L286.76 31.8556L281.279 49.8309C280.473 52.4909 279.506 57.1661 285.229 57.1661L284.987 57.9722H262.901ZM242.749 36.7726C242.668 37.1756 242.588 37.498 242.427 37.9011C241.379 41.3672 240.734 44.5108 240.573 47.3321C243.958 38.3847 255.001 34.6768 261.611 34.0319C263.626 25.1652 263.868 18.5554 257.823 18.5554C250.81 18.5554 245.893 26.5355 242.749 36.7726ZM345.668 46.123C345.588 20.6512 362.354 37.2562 369.689 13.3966C371.221 8.23777 370.415 2.75651 361.951 2.75651C351.472 2.75651 343.572 9.68869 338.011 17.9912H337.446L345.185 1.62801H346.474L346.636 1.78923C347.683 3.07894 350.182 4.36865 353.245 3.07894C356.308 1.70862 359.452 0.983162 362.515 0.983162C374.767 0.983162 380.41 8.88263 377.75 17.6688C370.334 41.6896 345.749 25.8101 347.361 46.123H345.668ZM343.734 58.3752C341.074 58.3752 339.623 56.1988 340.509 53.5388C341.315 50.8788 344.056 48.783 346.716 48.783C349.376 48.783 350.908 50.8788 350.102 53.5388C349.215 56.1988 346.394 58.3752 343.734 58.3752Z" fill="url(#paint0_linear_1019_295)"/>
</g>
<g filter="url(#filter1_d_1019_295)">
<path d="M19.58 87.3749H10.676L8.968 92.0229H6.896L14.036 72.7029H16.248L23.36 92.0229H21.288L19.58 87.3749ZM18.992 85.7509L15.128 75.1669L11.264 85.7509H18.992ZM31.7976 76.5109C33.235 76.5109 34.4856 76.8469 35.5496 77.5189C36.6136 78.1909 37.379 79.0403 37.8456 80.0669V76.7349H39.8056V92.4149C39.8056 93.8149 39.4976 95.0563 38.8816 96.1389C38.2843 97.2216 37.4443 98.0523 36.3616 98.6309C35.279 99.2283 34.047 99.5269 32.6656 99.5269C30.7056 99.5269 29.0723 99.0603 27.7656 98.1269C26.4776 97.1936 25.675 95.9243 25.3576 94.3189H27.2896C27.6256 95.3829 28.2603 96.2323 29.1936 96.8669C30.1456 97.5016 31.303 97.8189 32.6656 97.8189C33.655 97.8189 34.5416 97.6043 35.3256 97.1749C36.1096 96.7643 36.7256 96.1483 37.1736 95.3269C37.6216 94.5056 37.8456 93.5349 37.8456 92.4149V88.6349C37.3603 89.6803 36.5856 90.5483 35.5216 91.2389C34.4763 91.9109 33.235 92.2469 31.7976 92.2469C30.3976 92.2469 29.1376 91.9203 28.0176 91.2669C26.9163 90.6136 26.0483 89.6896 25.4136 88.4949C24.7976 87.3003 24.4896 85.9189 24.4896 84.3509C24.4896 82.7829 24.7976 81.4109 25.4136 80.2349C26.0483 79.0403 26.9163 78.1256 28.0176 77.4909C29.1376 76.8376 30.3976 76.5109 31.7976 76.5109ZM37.8456 84.3789C37.8456 83.1469 37.5936 82.0643 37.0896 81.1309C36.5856 80.1976 35.895 79.4789 35.0176 78.9749C34.159 78.4709 33.207 78.2189 32.1616 78.2189C31.079 78.2189 30.1083 78.4616 29.2496 78.9469C28.391 79.4323 27.7096 80.1416 27.2056 81.0749C26.7203 81.9896 26.4776 83.0816 26.4776 84.3509C26.4776 85.6016 26.7203 86.7029 27.2056 87.6549C27.7096 88.5883 28.391 89.3069 29.2496 89.8109C30.1083 90.2963 31.079 90.5389 32.1616 90.5389C33.207 90.5389 34.159 90.2869 35.0176 89.7829C35.895 89.2789 36.5856 88.5603 37.0896 87.6269C37.5936 86.6936 37.8456 85.6109 37.8456 84.3789ZM56.9922 83.5949C56.9922 84.2669 56.9735 84.7803 56.9362 85.1349H44.2522C44.3082 86.2923 44.5882 87.2816 45.0922 88.1029C45.5962 88.9243 46.2588 89.5496 47.0802 89.9789C47.9015 90.3896 48.7975 90.5949 49.7682 90.5949C51.0375 90.5949 52.1015 90.2869 52.9602 89.6709C53.8375 89.0549 54.4162 88.2243 54.6962 87.1789H56.7682C56.3948 88.6723 55.5922 89.8949 54.3602 90.8469C53.1468 91.7803 51.6162 92.2469 49.7682 92.2469C48.3308 92.2469 47.0428 91.9296 45.9042 91.2949C44.7655 90.6416 43.8695 89.7269 43.2162 88.5509C42.5815 87.3563 42.2642 85.9656 42.2642 84.3789C42.2642 82.7923 42.5815 81.4016 43.2162 80.2069C43.8508 79.0123 44.7375 78.0976 45.8762 77.4629C47.0148 76.8283 48.3122 76.5109 49.7682 76.5109C51.2242 76.5109 52.4935 76.8283 53.5762 77.4629C54.6775 78.0976 55.5175 78.9563 56.0962 80.0389C56.6935 81.1029 56.9922 82.2883 56.9922 83.5949ZM55.0042 83.5389C55.0228 82.4003 54.7895 81.4296 54.3042 80.6269C53.8375 79.8243 53.1935 79.2176 52.3722 78.8069C51.5508 78.3963 50.6548 78.1909 49.6842 78.1909C48.2282 78.1909 46.9868 78.6576 45.9602 79.5909C44.9335 80.5243 44.3642 81.8403 44.2522 83.5389H55.0042ZM66.6261 76.4549C68.4555 76.4549 69.9488 77.0243 71.1061 78.1629C72.2635 79.2829 72.8421 80.9163 72.8421 83.0629V92.0229H70.9101V83.2869C70.9101 81.6256 70.4901 80.3563 69.6501 79.4789C68.8288 78.6016 67.6995 78.1629 66.2621 78.1629C64.7875 78.1629 63.6115 78.6296 62.7341 79.5629C61.8568 80.4963 61.4181 81.8683 61.4181 83.6789V92.0229H59.4581V76.7349H61.4181V79.3389C61.9035 78.4056 62.6035 77.6963 63.5181 77.2109C64.4328 76.7069 65.4688 76.4549 66.6261 76.4549ZM75.1609 84.3509C75.1609 82.7829 75.4782 81.4109 76.1129 80.2349C76.7475 79.0403 77.6155 78.1256 78.7169 77.4909C79.8369 76.8376 81.0969 76.5109 82.4969 76.5109C83.8409 76.5109 85.0542 76.8376 86.1369 77.4909C87.2195 78.1443 88.0129 78.9936 88.5169 80.0389V71.3029H90.4769V92.0229H88.5169V88.6069C88.0502 89.6709 87.2849 90.5483 86.2209 91.2389C85.1569 91.9109 83.9062 92.2469 82.4689 92.2469C81.0689 92.2469 79.8089 91.9203 78.6889 91.2669C77.5875 90.6136 76.7195 89.6896 76.0849 88.4949C75.4689 87.3003 75.1609 85.9189 75.1609 84.3509ZM88.5169 84.3789C88.5169 83.1469 88.2649 82.0643 87.7609 81.1309C87.2569 80.1976 86.5662 79.4789 85.6889 78.9749C84.8302 78.4709 83.8782 78.2189 82.8329 78.2189C81.7502 78.2189 80.7795 78.4616 79.9209 78.9469C79.0622 79.4323 78.3809 80.1416 77.8769 81.0749C77.3915 81.9896 77.1489 83.0816 77.1489 84.3509C77.1489 85.6016 77.3915 86.7029 77.8769 87.6549C78.3809 88.5883 79.0622 89.3069 79.9209 89.8109C80.7795 90.2963 81.7502 90.5389 82.8329 90.5389C83.8782 90.5389 84.8302 90.2869 85.6889 89.7829C86.5662 89.2789 87.2569 88.5603 87.7609 87.6269C88.2649 86.6936 88.5169 85.6109 88.5169 84.3789ZM107.663 83.5949C107.663 84.2669 107.645 84.7803 107.607 85.1349H94.9234C94.9794 86.2923 95.2594 87.2816 95.7634 88.1029C96.2674 88.9243 96.9301 89.5496 97.7514 89.9789C98.5727 90.3896 99.4687 90.5949 100.439 90.5949C101.709 90.5949 102.773 90.2869 103.631 89.6709C104.509 89.0549 105.087 88.2243 105.367 87.1789H107.439C107.066 88.6723 106.263 89.8949 105.031 90.8469C103.818 91.7803 102.287 92.2469 100.439 92.2469C99.0021 92.2469 97.7141 91.9296 96.5754 91.2949C95.4367 90.6416 94.5407 89.7269 93.8874 88.5509C93.2527 87.3563 92.9354 85.9656 92.9354 84.3789C92.9354 82.7923 93.2527 81.4016 93.8874 80.2069C94.5221 79.0123 95.4087 78.0976 96.5474 77.4629C97.6861 76.8283 98.9834 76.5109 100.439 76.5109C101.895 76.5109 103.165 76.8283 104.247 77.4629C105.349 78.0976 106.189 78.9563 106.767 80.0389C107.365 81.1029 107.663 82.2883 107.663 83.5949ZM105.675 83.5389C105.694 82.4003 105.461 81.4296 104.975 80.6269C104.509 79.8243 103.865 79.2176 103.043 78.8069C102.222 78.3963 101.326 78.1909 100.355 78.1909C98.8994 78.1909 97.6581 78.6576 96.6314 79.5909C95.6047 80.5243 95.0354 81.8403 94.9234 83.5389H105.675ZM121.957 92.2469C120.202 92.2469 118.765 91.8456 117.645 91.0429C116.544 90.2216 115.928 89.1109 115.797 87.7109H117.813C117.906 88.5696 118.308 89.2696 119.017 89.8109C119.745 90.3336 120.716 90.5949 121.929 90.5949C122.993 90.5949 123.824 90.3429 124.421 89.8389C125.037 89.3349 125.345 88.7096 125.345 87.9629C125.345 87.4403 125.177 87.0109 124.841 86.6749C124.505 86.3389 124.076 86.0776 123.553 85.8909C123.049 85.6856 122.358 85.4709 121.481 85.2469C120.342 84.9483 119.418 84.6496 118.709 84.3509C118 84.0523 117.393 83.6136 116.889 83.0349C116.404 82.4376 116.161 81.6443 116.161 80.6549C116.161 79.9083 116.385 79.2176 116.833 78.5829C117.281 77.9483 117.916 77.4443 118.737 77.0709C119.558 76.6976 120.492 76.5109 121.537 76.5109C123.18 76.5109 124.505 76.9309 125.513 77.7709C126.521 78.5923 127.062 79.7309 127.137 81.1869H125.177C125.121 80.2909 124.766 79.5723 124.113 79.0309C123.478 78.4709 122.601 78.1909 121.481 78.1909C120.492 78.1909 119.689 78.4243 119.073 78.8909C118.457 79.3576 118.149 79.9363 118.149 80.6269C118.149 81.2243 118.326 81.7189 118.681 82.1109C119.054 82.4843 119.512 82.7829 120.053 83.0069C120.594 83.2123 121.322 83.4456 122.237 83.7069C123.338 84.0056 124.216 84.2949 124.869 84.5749C125.522 84.8549 126.082 85.2656 126.549 85.8069C127.016 86.3483 127.258 87.0669 127.277 87.9629C127.277 88.7843 127.053 89.5216 126.605 90.1749C126.157 90.8096 125.532 91.3136 124.729 91.6869C123.926 92.0603 123.002 92.2469 121.957 92.2469ZM143.678 83.5949C143.678 84.2669 143.66 84.7803 143.622 85.1349H130.938C130.994 86.2923 131.274 87.2816 131.778 88.1029C132.282 88.9243 132.945 89.5496 133.766 89.9789C134.588 90.3896 135.484 90.5949 136.454 90.5949C137.724 90.5949 138.788 90.2869 139.646 89.6709C140.524 89.0549 141.102 88.2243 141.382 87.1789H143.454C143.081 88.6723 142.278 89.8949 141.046 90.8469C139.833 91.7803 138.302 92.2469 136.454 92.2469C135.017 92.2469 133.729 91.9296 132.59 91.2949C131.452 90.6416 130.556 89.7269 129.902 88.5509C129.268 87.3563 128.95 85.9656 128.95 84.3789C128.95 82.7923 129.268 81.4016 129.902 80.2069C130.537 79.0123 131.424 78.0976 132.562 77.4629C133.701 76.8283 134.998 76.5109 136.454 76.5109C137.91 76.5109 139.18 76.8283 140.262 77.4629C141.364 78.0976 142.204 78.9563 142.782 80.0389C143.38 81.1029 143.678 82.2883 143.678 83.5949ZM141.69 83.5389C141.709 82.4003 141.476 81.4296 140.99 80.6269C140.524 79.8243 139.88 79.2176 139.058 78.8069C138.237 78.3963 137.341 78.1909 136.37 78.1909C134.914 78.1909 133.673 78.6576 132.646 79.5909C131.62 80.5243 131.05 81.8403 130.938 83.5389H141.69ZM159.388 76.7349V92.0229H157.428V89.3349C156.98 90.2869 156.29 91.0149 155.356 91.5189C154.423 92.0229 153.378 92.2749 152.22 92.2749C150.391 92.2749 148.898 91.7149 147.74 90.5949C146.583 89.4563 146.004 87.8136 146.004 85.6669V76.7349H147.936V85.4429C147.936 87.1043 148.347 88.3736 149.168 89.2509C150.008 90.1283 151.147 90.5669 152.584 90.5669C154.059 90.5669 155.235 90.1003 156.112 89.1669C156.99 88.2336 157.428 86.8616 157.428 85.0509V76.7349H159.388ZM174.571 92.2469C172.816 92.2469 171.379 91.8456 170.259 91.0429C169.157 90.2216 168.541 89.1109 168.411 87.7109H170.427C170.52 88.5696 170.921 89.2696 171.631 89.8109C172.359 90.3336 173.329 90.5949 174.543 90.5949C175.607 90.5949 176.437 90.3429 177.035 89.8389C177.651 89.3349 177.959 88.7096 177.959 87.9629C177.959 87.4403 177.791 87.0109 177.455 86.6749C177.119 86.3389 176.689 86.0776 176.167 85.8909C175.663 85.6856 174.972 85.4709 174.095 85.2469C172.956 84.9483 172.032 84.6496 171.323 84.3509C170.613 84.0523 170.007 83.6136 169.503 83.0349C169.017 82.4376 168.775 81.6443 168.775 80.6549C168.775 79.9083 168.999 79.2176 169.447 78.5829C169.895 77.9483 170.529 77.4443 171.351 77.0709C172.172 76.6976 173.105 76.5109 174.151 76.5109C175.793 76.5109 177.119 76.9309 178.127 77.7709C179.135 78.5923 179.676 79.7309 179.751 81.1869H177.791C177.735 80.2909 177.38 79.5723 176.727 79.0309C176.092 78.4709 175.215 78.1909 174.095 78.1909C173.105 78.1909 172.303 78.4243 171.687 78.8909C171.071 79.3576 170.763 79.9363 170.763 80.6269C170.763 81.2243 170.94 81.7189 171.295 82.1109C171.668 82.4843 172.125 82.7829 172.667 83.0069C173.208 83.2123 173.936 83.4456 174.851 83.7069C175.952 84.0056 176.829 84.2949 177.483 84.5749C178.136 84.8549 178.696 85.2656 179.163 85.8069C179.629 86.3483 179.872 87.0669 179.891 87.9629C179.891 88.7843 179.667 89.5216 179.219 90.1749C178.771 90.8096 178.145 91.3136 177.343 91.6869C176.54 92.0603 175.616 92.2469 174.571 92.2469ZM196.292 83.5949C196.292 84.2669 196.273 84.7803 196.236 85.1349H183.552C183.608 86.2923 183.888 87.2816 184.392 88.1029C184.896 88.9243 185.559 89.5496 186.38 89.9789C187.201 90.3896 188.097 90.5949 189.068 90.5949C190.337 90.5949 191.401 90.2869 192.26 89.6709C193.137 89.0549 193.716 88.2243 193.996 87.1789H196.068C195.695 88.6723 194.892 89.8949 193.66 90.8469C192.447 91.7803 190.916 92.2469 189.068 92.2469C187.631 92.2469 186.343 91.9296 185.204 91.2949C184.065 90.6416 183.169 89.7269 182.516 88.5509C181.881 87.3563 181.564 85.9656 181.564 84.3789C181.564 82.7923 181.881 81.4016 182.516 80.2069C183.151 79.0123 184.037 78.0976 185.176 77.4629C186.315 76.8283 187.612 76.5109 189.068 76.5109C190.524 76.5109 191.793 76.8283 192.876 77.4629C193.977 78.0976 194.817 78.9563 195.396 80.0389C195.993 81.1029 196.292 82.2883 196.292 83.5949ZM194.304 83.5389C194.323 82.4003 194.089 81.4296 193.604 80.6269C193.137 79.8243 192.493 79.2176 191.672 78.8069C190.851 78.3963 189.955 78.1909 188.984 78.1909C187.528 78.1909 186.287 78.6576 185.26 79.5909C184.233 80.5243 183.664 81.8403 183.552 83.5389H194.304ZM200.718 79.4509C201.147 78.4989 201.801 77.7616 202.678 77.2389C203.574 76.7163 204.666 76.4549 205.954 76.4549V78.4989H205.422C204.003 78.4989 202.865 78.8816 202.006 79.6469C201.147 80.4123 200.718 81.6909 200.718 83.4829V92.0229H198.758V76.7349H200.718V79.4509ZM213.215 90.1189L218.367 76.7349H220.439L214.307 92.0229H212.095L205.963 76.7349H208.063L213.215 90.1189ZM222.955 73.8509C222.563 73.8509 222.227 73.7109 221.947 73.4309C221.667 73.1509 221.527 72.8056 221.527 72.3949C221.527 71.9843 221.667 71.6483 221.947 71.3869C222.227 71.1069 222.563 70.9669 222.955 70.9669C223.347 70.9669 223.683 71.1069 223.963 71.3869C224.243 71.6483 224.383 71.9843 224.383 72.3949C224.383 72.8056 224.243 73.1509 223.963 73.4309C223.683 73.7109 223.347 73.8509 222.955 73.8509ZM223.935 76.7349V92.0229H221.975V76.7349H223.935ZM233.778 90.5949C235.066 90.5949 236.139 90.2869 236.998 89.6709C237.875 89.0363 238.444 88.1589 238.706 87.0389H240.806C240.47 88.5136 239.742 89.7176 238.622 90.6509C237.52 91.5843 236.12 92.1069 234.422 92.2189V93.8989C235.523 93.8616 236.391 94.0669 237.026 94.5149C237.679 94.9816 238.006 95.6443 238.006 96.5029C238.006 97.3429 237.707 98.0056 237.11 98.4909C236.512 98.9949 235.719 99.2469 234.73 99.2469H231.93V97.9309H234.338C235.028 97.9309 235.532 97.8096 235.85 97.5669C236.186 97.3429 236.354 96.9883 236.354 96.5029C236.354 95.6069 235.682 95.1589 234.338 95.1589H233.05V92.2189C231.743 92.1069 230.586 91.7243 229.578 91.0709C228.57 90.3989 227.776 89.4936 227.198 88.3549C226.638 87.1976 226.358 85.8723 226.358 84.3789C226.358 82.7923 226.675 81.4109 227.31 80.2349C227.944 79.0403 228.822 78.1256 229.942 77.4909C231.062 76.8376 232.34 76.5109 233.778 76.5109C235.663 76.5109 237.212 76.9776 238.426 77.9109C239.658 78.8443 240.451 80.1136 240.806 81.7189H238.706C238.444 80.6176 237.875 79.7589 236.998 79.1429C236.139 78.5083 235.066 78.1909 233.778 78.1909C232.751 78.1909 231.827 78.4243 231.006 78.8909C230.184 79.3576 229.531 80.0576 229.046 80.9909C228.579 81.9056 228.346 83.0349 228.346 84.3789C228.346 85.7229 228.579 86.8616 229.046 87.7949C229.531 88.7283 230.184 89.4283 231.006 89.8949C231.827 90.3616 232.751 90.5949 233.778 90.5949ZM249.997 92.2469C248.56 92.2469 247.263 91.9296 246.105 91.2949C244.967 90.6416 244.061 89.7269 243.389 88.5509C242.736 87.3563 242.409 85.9656 242.409 84.3789C242.409 82.7923 242.745 81.4109 243.417 80.2349C244.089 79.0403 245.004 78.1256 246.161 77.4909C247.319 76.8376 248.616 76.5109 250.053 76.5109C251.491 76.5109 252.788 76.8376 253.945 77.4909C255.121 78.1256 256.036 79.0403 256.689 80.2349C257.361 81.4109 257.697 82.7923 257.697 84.3789C257.697 85.9469 257.361 87.3283 256.689 88.5229C256.017 89.7176 255.093 90.6416 253.917 91.2949C252.741 91.9296 251.435 92.2469 249.997 92.2469ZM249.997 90.5389C251.005 90.5389 251.939 90.3149 252.797 89.8669C253.656 89.4003 254.347 88.7096 254.869 87.7949C255.411 86.8616 255.681 85.7229 255.681 84.3789C255.681 83.0349 255.42 81.9056 254.897 80.9909C254.375 80.0576 253.684 79.3669 252.825 78.9189C251.967 78.4523 251.033 78.2189 250.025 78.2189C249.017 78.2189 248.084 78.4523 247.225 78.9189C246.367 79.3669 245.676 80.0576 245.153 80.9909C244.649 81.9056 244.397 83.0349 244.397 84.3789C244.397 85.7229 244.649 86.8616 245.153 87.7949C245.676 88.7096 246.357 89.4003 247.197 89.8669C248.056 90.3149 248.989 90.5389 249.997 90.5389ZM280.546 83.5949C280.546 84.2669 280.527 84.7803 280.49 85.1349H267.806C267.862 86.2923 268.142 87.2816 268.646 88.1029C269.15 88.9243 269.813 89.5496 270.634 89.9789C271.455 90.3896 272.351 90.5949 273.322 90.5949C274.591 90.5949 275.655 90.2869 276.514 89.6709C277.391 89.0549 277.97 88.2243 278.25 87.1789H280.322C279.949 88.6723 279.146 89.8949 277.914 90.8469C276.701 91.7803 275.17 92.2469 273.322 92.2469C271.885 92.2469 270.597 91.9296 269.458 91.2949C268.319 90.6416 267.423 89.7269 266.77 88.5509C266.135 87.3563 265.818 85.9656 265.818 84.3789C265.818 82.7923 266.135 81.4016 266.77 80.2069C267.405 79.0123 268.291 78.0976 269.43 77.4629C270.569 76.8283 271.866 76.5109 273.322 76.5109C274.778 76.5109 276.047 76.8283 277.13 77.4629C278.231 78.0976 279.071 78.9563 279.65 80.0389C280.247 81.1029 280.546 82.2883 280.546 83.5949ZM278.558 83.5389C278.577 82.4003 278.343 81.4296 277.858 80.6269C277.391 79.8243 276.747 79.2176 275.926 78.8069C275.105 78.3963 274.209 78.1909 273.238 78.1909C271.782 78.1909 270.541 78.6576 269.514 79.5909C268.487 80.5243 267.918 81.8403 267.806 83.5389H278.558ZM288.276 92.2469C286.521 92.2469 285.084 91.8456 283.964 91.0429C282.863 90.2216 282.247 89.1109 282.116 87.7109H284.132C284.225 88.5696 284.627 89.2696 285.336 89.8109C286.064 90.3336 287.035 90.5949 288.248 90.5949C289.312 90.5949 290.143 90.3429 290.74 89.8389C291.356 89.3349 291.664 88.7096 291.664 87.9629C291.664 87.4403 291.496 87.0109 291.16 86.6749C290.824 86.3389 290.395 86.0776 289.872 85.8909C289.368 85.6856 288.677 85.4709 287.8 85.2469C286.661 84.9483 285.737 84.6496 285.028 84.3509C284.319 84.0523 283.712 83.6136 283.208 83.0349C282.723 82.4376 282.48 81.6443 282.48 80.6549C282.48 79.9083 282.704 79.2176 283.152 78.5829C283.6 77.9483 284.235 77.4443 285.056 77.0709C285.877 76.6976 286.811 76.5109 287.856 76.5109C289.499 76.5109 290.824 76.9309 291.832 77.7709C292.84 78.5923 293.381 79.7309 293.456 81.1869H291.496C291.44 80.2909 291.085 79.5723 290.432 79.0309C289.797 78.4709 288.92 78.1909 287.8 78.1909C286.811 78.1909 286.008 78.4243 285.392 78.8909C284.776 79.3576 284.468 79.9363 284.468 80.6269C284.468 81.2243 284.645 81.7189 285 82.1109C285.373 82.4843 285.831 82.7829 286.372 83.0069C286.913 83.2123 287.641 83.4456 288.556 83.7069C289.657 84.0056 290.535 84.2949 291.188 84.5749C291.841 84.8549 292.401 85.2656 292.868 85.8069C293.335 86.3483 293.577 87.0669 293.596 87.9629C293.596 88.7843 293.372 89.5216 292.924 90.1749C292.476 90.8096 291.851 91.3136 291.048 91.6869C290.245 92.0603 289.321 92.2469 288.276 92.2469ZM298.713 78.3869V87.8789C298.713 88.8123 298.891 89.4563 299.245 89.8109C299.6 90.1656 300.225 90.3429 301.121 90.3429H302.913V92.0229H300.813C299.432 92.0229 298.405 91.7056 297.733 91.0709C297.061 90.4176 296.725 89.3536 296.725 87.8789V78.3869H294.597V76.7349H296.725V72.8989H298.713V76.7349H302.913V78.3869H298.713ZM318.858 83.5949C318.858 84.2669 318.839 84.7803 318.802 85.1349H306.118C306.174 86.2923 306.454 87.2816 306.958 88.1029C307.462 88.9243 308.124 89.5496 308.946 89.9789C309.767 90.3896 310.663 90.5949 311.634 90.5949C312.903 90.5949 313.967 90.2869 314.826 89.6709C315.703 89.0549 316.282 88.2243 316.562 87.1789H318.634C318.26 88.6723 317.458 89.8949 316.226 90.8469C315.012 91.7803 313.482 92.2469 311.634 92.2469C310.196 92.2469 308.908 91.9296 307.77 91.2949C306.631 90.6416 305.735 89.7269 305.082 88.5509C304.447 87.3563 304.13 85.9656 304.13 84.3789C304.13 82.7923 304.447 81.4016 305.082 80.2069C305.716 79.0123 306.603 78.0976 307.742 77.4629C308.88 76.8283 310.178 76.5109 311.634 76.5109C313.09 76.5109 314.359 76.8283 315.442 77.4629C316.543 78.0976 317.383 78.9563 317.962 80.0389C318.559 81.1029 318.858 82.2883 318.858 83.5949ZM316.87 83.5389C316.888 82.4003 316.655 81.4296 316.17 80.6269C315.703 79.8243 315.059 79.2176 314.238 78.8069C313.416 78.3963 312.52 78.1909 311.55 78.1909C310.094 78.1909 308.852 78.6576 307.826 79.5909C306.799 80.5243 306.23 81.8403 306.118 83.5389H316.87ZM314.07 72.2269L308.33 75.5589V74.0469L314.07 70.4629V72.2269ZM323.872 78.3869V87.8789C323.872 88.8123 324.049 89.4563 324.404 89.8109C324.758 90.1656 325.384 90.3429 326.28 90.3429H328.072V92.0229H325.972C324.59 92.0229 323.564 91.7056 322.892 91.0709C322.22 90.4176 321.884 89.3536 321.884 87.8789V78.3869H319.756V76.7349H321.884V72.8989H323.872V76.7349H328.072V78.3869H323.872ZM331.164 73.8509C330.772 73.8509 330.436 73.7109 330.156 73.4309C329.876 73.1509 329.736 72.8056 329.736 72.3949C329.736 71.9843 329.876 71.6483 330.156 71.3869C330.436 71.1069 330.772 70.9669 331.164 70.9669C331.556 70.9669 331.892 71.1069 332.172 71.3869C332.452 71.6483 332.592 71.9843 332.592 72.3949C332.592 72.8056 332.452 73.1509 332.172 73.4309C331.892 73.7109 331.556 73.8509 331.164 73.8509ZM332.144 76.7349V92.0229H330.184V76.7349H332.144ZM334.567 84.3789C334.567 82.7923 334.884 81.4109 335.519 80.2349C336.153 79.0403 337.031 78.1256 338.151 77.4909C339.271 76.8376 340.549 76.5109 341.987 76.5109C343.872 76.5109 345.421 76.9776 346.635 77.9109C347.867 78.8443 348.66 80.1136 349.015 81.7189H346.915C346.653 80.6176 346.084 79.7589 345.207 79.1429C344.348 78.5083 343.275 78.1909 341.987 78.1909C340.96 78.1909 340.036 78.4243 339.215 78.8909C338.393 79.3576 337.74 80.0576 337.255 80.9909C336.788 81.9056 336.555 83.0349 336.555 84.3789C336.555 85.7229 336.788 86.8616 337.255 87.7949C337.74 88.7283 338.393 89.4283 339.215 89.8949C340.036 90.3616 340.96 90.5949 341.987 90.5949C343.275 90.5949 344.348 90.2869 345.207 89.6709C346.084 89.0363 346.653 88.1589 346.915 87.0389H349.015C348.66 88.6069 347.867 89.8669 346.635 90.8189C345.403 91.7709 343.853 92.2469 341.987 92.2469C340.549 92.2469 339.271 91.9296 338.151 91.2949C337.031 90.6416 336.153 89.7269 335.519 88.5509C334.884 87.3563 334.567 85.9656 334.567 84.3789ZM358.207 92.2469C356.769 92.2469 355.472 91.9296 354.315 91.2949C353.176 90.6416 352.271 89.7269 351.599 88.5509C350.945 87.3563 350.619 85.9656 350.619 84.3789C350.619 82.7923 350.955 81.4109 351.627 80.2349C352.299 79.0403 353.213 78.1256 354.371 77.4909C355.528 76.8376 356.825 76.5109 358.263 76.5109C359.7 76.5109 360.997 76.8376 362.155 77.4909C363.331 78.1256 364.245 79.0403 364.899 80.2349C365.571 81.4109 365.907 82.7923 365.907 84.3789C365.907 85.9469 365.571 87.3283 364.899 88.5229C364.227 89.7176 363.303 90.6416 362.127 91.2949C360.951 91.9296 359.644 92.2469 358.207 92.2469ZM358.207 90.5389C359.215 90.5389 360.148 90.3149 361.007 89.8669C361.865 89.4003 362.556 88.7096 363.079 87.7949C363.62 86.8616 363.891 85.7229 363.891 84.3789C363.891 83.0349 363.629 81.9056 363.107 80.9909C362.584 80.0576 361.893 79.3669 361.035 78.9189C360.176 78.4523 359.243 78.2189 358.235 78.2189C357.227 78.2189 356.293 78.4523 355.435 78.9189C354.576 79.3669 353.885 80.0576 353.363 80.9909C352.859 81.9056 352.607 83.0349 352.607 84.3789C352.607 85.7229 352.859 86.8616 353.363 87.7949C353.885 88.7096 354.567 89.4003 355.407 89.8669C356.265 90.3149 357.199 90.5389 358.207 90.5389Z" fill="url(#paint1_linear_1019_295)"/>
</g>
<line x1="6" y1="132.44" x2="368" y2="132.44" stroke="url(#paint2_linear_1019_295)" stroke-width="3"/>
<defs>
<filter id="filter0_d_1019_295" x="0.624988" y="0.983398" width="379.785" height="64.7277" filterUnits="userSpaceOnUse" color-interpolation-filters="sRGB">
<feFlood flood-opacity="0" result="BackgroundImageFix"/>
<feColorMatrix in="SourceAlpha" type="matrix" values="0 0 0 0 0 0 0 0 0 0 0 0 0 0 0 0 0 0 127 0" result="hardAlpha"/>
<feOffset dx="-1.34468" dy="0.806806"/>
<feComposite in2="hardAlpha" operator="out"/>
<feColorMatrix type="matrix" values="0 0 0 0 0 0 0 0 0 0 0 0 0 0 0 0 0 0 0.5 0"/>
<feBlend mode="normal" in2="BackgroundImageFix" result="effect1_dropShadow_1019_295"/>
<feBlend mode="normal" in="SourceGraphic" in2="effect1_dropShadow_1019_295" result="shape"/>
</filter>
<filter id="filter1_d_1019_295" x="5.39462" y="70.4629" width="360.512" height="29.9648" filterUnits="userSpaceOnUse" color-interpolation-filters="sRGB">
<feFlood flood-opacity="0" result="BackgroundImageFix"/>
<feColorMatrix in="SourceAlpha" type="matrix" values="0 0 0 0 0 0 0 0 0 0 0 0 0 0 0 0 0 0 127 0" result="hardAlpha"/>
<feOffset dx="-1.50137" dy="0.900824"/>
<feComposite in2="hardAlpha" operator="out"/>
<feColorMatrix type="matrix" values="0 0 0 0 0 0 0 0 0 0 0 0 0 0 0 0 0 0 0.5 0"/>
<feBlend mode="normal" in2="BackgroundImageFix" result="effect1_dropShadow_1019_295"/>
<feBlend mode="normal" in="SourceGraphic" in2="effect1_dropShadow_1019_295" result="shape"/>
</filter>
<linearGradient id="paint0_linear_1019_295" x1="6" y1="32.0764" x2="375" y2="32.0764" gradientUnits="userSpaceOnUse">
<stop stop-color="#B78BBC"/>
<stop offset="0.5" stop-color="#472969"/>
</linearGradient>
<linearGradient id="paint1_linear_1019_295" x1="6" y1="84.0483" x2="368" y2="84.0483" gradientUnits="userSpaceOnUse">
<stop stop-color="#B78BBC"/>
<stop offset="0.5" stop-color="#472969"/>
</linearGradient>
<linearGradient id="paint2_linear_1019_295" x1="6" y1="134.44" x2="368" y2="134.44" gradientUnits="userSpaceOnUse">
<stop stop-color="#472969"/>
<stop offset="1" stop-color="#B78BBC"/>
</linearGradient>
</defs>
</svg>
