<svg width="40" height="42" viewBox="0 0 40 42" fill="none" xmlns="http://www.w3.org/2000/svg">
<path d="M17.46 0.391575C13.8504 0.878979 10.5456 2.31681 7.65485 4.64009C6.74074 5.37932 5.18599 6.9715 4.42814 7.9463C2.2718 10.7245 0.84205 14.0063 0.232649 17.5806C0.0138895 18.8478 -0.0720517 21.8941 0.0685794 23.2832C0.709232 29.5057 4.01406 35.1027 9.10022 38.5551C11.6316 40.2691 14.4833 41.3496 17.5772 41.7476C18.7647 41.9019 21.2648 41.8938 22.4992 41.7395C31.5621 40.5697 38.7578 33.0881 39.8828 23.665C40.0391 22.349 40.0391 19.782 39.8828 18.4661C39.164 12.4223 35.9061 7.00399 30.9762 3.6328C28.4057 1.87815 25.5462 0.789619 22.4992 0.391575C21.3117 0.245354 18.585 0.245354 17.46 0.391575ZM25.2025 9.28666C26.3588 9.39226 27.1479 9.61159 28.0464 10.0746C28.6714 10.3914 28.898 10.5701 29.4995 11.1875C30.0933 11.813 30.2652 12.0486 30.5699 12.6985C31.3668 14.3719 31.4293 15.0624 31.3824 21.7154C31.359 26.5488 31.3434 26.9225 31.1949 27.613C30.6246 30.2124 29.0386 31.9752 26.6947 32.5926C25.6166 32.885 24.5853 32.9338 19.9991 32.9338C14.2411 32.9338 13.5067 32.8525 11.9519 32.0564C11.3269 31.7396 11.1003 31.5609 10.4987 30.9435C9.90494 30.318 9.73306 30.0825 9.42836 29.4326C8.6627 27.816 8.59239 27.1093 8.59239 21.0655C8.59239 15.0217 8.6627 14.315 9.42836 12.6985C9.73306 12.0486 9.89713 11.813 10.4987 11.1956C11.4753 10.1883 12.3504 9.71719 13.8504 9.40038C14.9364 9.17293 23.0227 9.09169 25.2025 9.28666Z" fill="url(#paint0_linear_1019_277)"/>
<path d="M15.1942 11.3175C13.6395 11.4313 12.6472 11.8212 11.866 12.6335C11.0847 13.454 10.7487 14.4125 10.6237 16.1753C10.53 17.5157 10.53 24.6155 10.6237 25.9558C10.7487 27.7105 11.0925 28.6853 11.8816 29.5057C12.7097 30.3749 13.5926 30.6836 15.5458 30.8217C17.2099 30.9355 24.8978 30.8705 25.6166 30.7405C27.7651 30.3343 28.9136 29.1402 29.3042 26.9063C29.4292 26.1589 29.4917 18.1655 29.3823 16.4353C29.2495 14.38 28.9605 13.4946 28.1167 12.6254C27.3119 11.7887 26.3978 11.4394 24.6556 11.3175C23.4524 11.2282 16.4365 11.2363 15.1942 11.3175ZM26.726 13.4783C27.226 13.7464 27.562 14.4613 27.4213 14.9649C27.1166 16.0859 25.9681 16.4353 25.2103 15.6473C24.1556 14.5506 25.3978 12.7716 26.726 13.4783ZM21.6008 15.2168C22.6242 15.5498 23.3274 15.9966 24.1009 16.8008C24.8822 17.6131 25.304 18.3361 25.6322 19.4409C25.8978 20.3182 25.8978 21.8129 25.6322 22.6902C25.304 23.795 24.8822 24.518 24.1009 25.3303C23.3196 26.1427 22.6242 26.5813 21.5617 26.9225C20.7179 27.1987 19.2803 27.1987 18.4366 26.9225C17.374 26.5813 16.6787 26.1427 15.8974 25.3303C15.1161 24.518 14.6942 23.795 14.3661 22.6902C14.1004 21.8129 14.1004 20.3182 14.3661 19.4409C14.9598 17.4344 16.4052 15.891 18.2647 15.2574C18.9366 15.0299 19.3663 14.9812 20.2335 15.0137C20.7804 15.0299 21.2336 15.103 21.6008 15.2168Z" fill="url(#paint1_linear_1019_277)"/>
<path d="M18.7725 17.2471C17.7491 17.5964 16.8037 18.5224 16.3974 19.5785C16.2412 19.9846 16.2099 20.1877 16.2099 21.0651C16.2099 21.9343 16.2412 22.1455 16.3896 22.5435C16.7725 23.5264 17.6319 24.42 18.5772 24.818C18.9601 24.9724 19.1632 25.0049 19.9992 25.0049C20.8351 25.0049 21.0383 24.9724 21.4211 24.818C22.3664 24.42 23.2259 23.5264 23.6087 22.5435C23.7571 22.1455 23.7884 21.9343 23.7884 21.0651C23.7884 20.1959 23.7571 19.9846 23.6087 19.5866C23.2259 18.6037 22.3586 17.702 21.4211 17.3202C20.7726 17.0521 19.4523 17.0196 18.7725 17.2471Z" fill="url(#paint2_linear_1019_277)"/>
<defs>
<linearGradient id="paint0_linear_1019_277" x1="9.91877" y1="11.6846" x2="40.6683" y2="44.0823" gradientUnits="userSpaceOnUse">
<stop stop-color="#462868"/>
<stop offset="1" stop-color="#B78BBC"/>
</linearGradient>
<linearGradient id="paint1_linear_1019_277" x1="15.2364" y1="16.6362" x2="29.7517" y2="31.9322" gradientUnits="userSpaceOnUse">
<stop stop-color="#462868"/>
<stop offset="1" stop-color="#B78BBC"/>
</linearGradient>
<linearGradient id="paint2_linear_1019_277" x1="18.0892" y1="19.2648" x2="23.9397" y2="25.4042" gradientUnits="userSpaceOnUse">
<stop stop-color="#462868"/>
<stop offset="1" stop-color="#B78BBC"/>
</linearGradient>
</defs>
</svg>
