<svg width="52" height="64" viewBox="0 0 52 64" fill="none" xmlns="http://www.w3.org/2000/svg">
<path d="M37.5184 0.0174046C35.8176 0.397921 35.1372 0.617005 33.9842 1.17048C32.3987 1.92575 30.8363 3.02694 29.7408 4.15696C28.3802 5.56948 27.4981 6.91281 26.6102 8.91917C26.2355 9.75515 25.8377 11.2714 25.7224 12.2631C25.6532 12.8627 25.6762 14.3905 25.757 14.5808C25.8088 14.7134 26.2758 14.7653 27.1061 14.7249C29.5679 14.6096 32.6293 13.0933 34.6818 10.9716C36.7285 8.86151 38.0661 6.22673 38.6138 3.24026C38.7176 2.68102 38.7867 0.766906 38.7176 0.328736L38.6714 0.0116396L38.1525 0.000108719C37.8643 0.000108719 37.5818 0.00587368 37.5184 0.0174046Z" fill="#C4C4C4"/>
<path d="M36.25 15.411C34.5953 15.6071 32.9695 16.0683 30.5711 17.0196C27.5269 18.2303 26.7544 18.4033 25.4918 18.1727C24.7423 18.0343 24.2522 17.8613 21.9806 16.9619C18.8962 15.7339 17.1896 15.388 15.016 15.5379C14.4856 15.5782 13.9494 15.6301 13.8226 15.6589C13.6958 15.6935 13.298 15.7685 12.9405 15.8377C12.1622 15.9818 10.8073 16.42 9.98286 16.789C6.9445 18.1554 4.43655 20.4557 2.65505 23.5056C2.38984 23.9553 2.02662 24.6818 1.68646 25.437C1.34054 26.1981 0.902368 27.5472 0.62563 28.6945C0.366187 29.7784 0.233583 30.5394 0.0721522 31.9808C0.0029675 32.5631 0.0029675 36.6046 0.0721522 37.2561C0.354656 40.0235 0.77553 42.2605 1.43855 44.5205C1.70376 45.4372 2.33795 47.3167 2.62045 48.0374C2.74729 48.3545 2.90296 48.7408 2.96638 48.9022C3.55445 50.3954 4.8113 52.8745 5.62999 54.1775C6.17194 55.0423 6.82342 55.9821 7.79777 57.3139C10.5536 61.0787 12.5946 62.889 14.8373 63.5578C15.362 63.7135 15.4196 63.7192 16.6765 63.7192C17.9103 63.7192 18.0025 63.7135 18.6309 63.552C19.4612 63.3445 20.4759 62.9813 21.6059 62.4797C22.5514 62.0646 23.8429 61.6264 24.5751 61.4765C26.443 61.1018 28.2534 61.119 30.0349 61.5284C30.623 61.6668 31.9086 62.128 32.7504 62.5143C34.653 63.3791 35.9444 63.6962 37.5472 63.7019C38.8271 63.7019 39.5766 63.529 40.747 62.9697C41.7098 62.5085 42.4824 61.9608 43.4221 61.0614C44.4368 60.0928 45.8205 58.3978 47.0024 56.6797C47.0485 56.6105 47.2734 56.2877 47.4925 55.9648C48.6975 54.2179 49.8275 52.1942 50.6346 50.3435C50.7961 49.963 50.969 49.571 51.0094 49.4787C51.3265 48.7581 51.903 47.0803 51.903 46.867C51.903 46.7171 51.8742 46.671 51.7473 46.6191C51.534 46.5384 50.7096 46.1233 50.4905 45.9849C47.8499 44.336 46.1607 42.5833 44.9038 40.1964C44.1947 38.8531 43.6527 37.0312 43.4855 35.4285C43.4106 34.6963 43.4106 33.0416 43.4855 32.3267C43.7507 29.8014 44.8635 27.1609 46.5412 25.0854C47.3426 24.0937 48.7378 22.8196 49.8217 22.0931C50.0523 21.9317 50.2599 21.776 50.2714 21.7357C50.3579 21.5108 48.513 19.4641 47.4637 18.6224C45.2497 16.8409 42.4881 15.7339 39.5132 15.4341C38.9712 15.3822 36.6651 15.3649 36.25 15.411Z" fill="#C4C4C4"/>
</svg>
