<svg width="313" height="352" viewBox="0 0 313 352" fill="none" xmlns="http://www.w3.org/2000/svg">
<circle cx="149.5" cy="78.5" r="78.5" fill="#FC4BFF"/>
<rect y="50" width="306" height="299.237" rx="25" fill="#FC4BFF"/>
<rect x="7" y="52.1528" width="306" height="299.237" rx="25" fill="white"/>
<circle cx="152.5" cy="81.5" r="78.5" fill="white"/>
<path d="M66.8456 149H61.3736L52.2216 135.144V149H46.7496V126.536H52.2216L61.3736 140.456V126.536H66.8456V149ZM77.3401 149.256C75.5908 149.256 74.0121 148.883 72.6041 148.136C71.2175 147.389 70.1188 146.323 69.3081 144.936C68.5188 143.549 68.1241 141.928 68.1241 140.072C68.1241 138.237 68.5295 136.627 69.3401 135.24C70.1508 133.832 71.2601 132.755 72.6681 132.008C74.0761 131.261 75.6548 130.888 77.4041 130.888C79.1535 130.888 80.7321 131.261 82.1401 132.008C83.5481 132.755 84.6575 133.832 85.4681 135.24C86.2788 136.627 86.6841 138.237 86.6841 140.072C86.6841 141.907 86.2681 143.528 85.4361 144.936C84.6255 146.323 83.5055 147.389 82.0761 148.136C80.6681 148.883 79.0895 149.256 77.3401 149.256ZM77.3401 144.52C78.3855 144.52 79.2708 144.136 79.9961 143.368C80.7428 142.6 81.1161 141.501 81.1161 140.072C81.1161 138.643 80.7535 137.544 80.0281 136.776C79.3241 136.008 78.4495 135.624 77.4041 135.624C76.3375 135.624 75.4521 136.008 74.7481 136.776C74.0441 137.523 73.6921 138.621 73.6921 140.072C73.6921 141.501 74.0335 142.6 74.7161 143.368C75.4201 144.136 76.2948 144.52 77.3401 144.52ZM97.9391 144.36V149H95.1551C93.1711 149 91.6245 148.52 90.5151 147.56C89.4058 146.579 88.8511 144.989 88.8511 142.792V135.688H86.6751V131.144H88.8511V126.792H94.3231V131.144H97.9071V135.688H94.3231V142.856C94.3231 143.389 94.4511 143.773 94.7071 144.008C94.9631 144.243 95.3898 144.36 95.9871 144.36H97.9391ZM102.139 129.288C101.179 129.288 100.39 129.011 99.7711 128.456C99.1738 127.88 98.8751 127.176 98.8751 126.344C98.8751 125.491 99.1738 124.787 99.7711 124.232C100.39 123.656 101.179 123.368 102.139 123.368C103.078 123.368 103.846 123.656 104.443 124.232C105.062 124.787 105.371 125.491 105.371 126.344C105.371 127.176 105.062 127.88 104.443 128.456C103.846 129.011 103.078 129.288 102.139 129.288ZM104.859 131.144V149H99.3871V131.144H104.859ZM116.185 135.688H113.241V149H107.769V135.688H105.785V131.144H107.769V130.632C107.769 128.435 108.398 126.771 109.657 125.64C110.915 124.488 112.761 123.912 115.193 123.912C115.598 123.912 115.897 123.923 116.089 123.944V128.584C115.043 128.52 114.307 128.669 113.881 129.032C113.454 129.395 113.241 130.045 113.241 130.984V131.144H116.185V135.688ZM119.908 129.288C118.948 129.288 118.159 129.011 117.54 128.456C116.943 127.88 116.644 127.176 116.644 126.344C116.644 125.491 116.943 124.787 117.54 124.232C118.159 123.656 118.948 123.368 119.908 123.368C120.847 123.368 121.615 123.656 122.212 124.232C122.831 124.787 123.14 125.491 123.14 126.344C123.14 127.176 122.831 127.88 122.212 128.456C121.615 129.011 120.847 129.288 119.908 129.288ZM122.628 131.144V149H117.156V131.144H122.628ZM123.905 140.072C123.905 138.216 124.279 136.595 125.025 135.208C125.793 133.821 126.849 132.755 128.193 132.008C129.559 131.261 131.116 130.888 132.865 130.888C135.105 130.888 136.972 131.475 138.465 132.648C139.98 133.821 140.972 135.475 141.441 137.608H135.617C135.127 136.243 134.177 135.56 132.769 135.56C131.767 135.56 130.967 135.955 130.369 136.744C129.772 137.512 129.473 138.621 129.473 140.072C129.473 141.523 129.772 142.643 130.369 143.432C130.967 144.2 131.767 144.584 132.769 144.584C134.177 144.584 135.127 143.901 135.617 142.536H141.441C140.972 144.627 139.98 146.269 138.465 147.464C136.951 148.659 135.084 149.256 132.865 149.256C131.116 149.256 129.559 148.883 128.193 148.136C126.849 147.389 125.793 146.323 125.025 144.936C124.279 143.549 123.905 141.928 123.905 140.072ZM141.68 140.04C141.68 138.205 142.022 136.595 142.704 135.208C143.408 133.821 144.358 132.755 145.552 132.008C146.747 131.261 148.08 130.888 149.552 130.888C150.811 130.888 151.91 131.144 152.848 131.656C153.808 132.168 154.544 132.84 155.056 133.672V131.144H160.528V149H155.056V146.472C154.523 147.304 153.776 147.976 152.816 148.488C151.878 149 150.779 149.256 149.52 149.256C148.07 149.256 146.747 148.883 145.552 148.136C144.358 147.368 143.408 146.291 142.704 144.904C142.022 143.496 141.68 141.875 141.68 140.04ZM155.056 140.072C155.056 138.707 154.672 137.629 153.904 136.84C153.158 136.051 152.24 135.656 151.152 135.656C150.064 135.656 149.136 136.051 148.368 136.84C147.622 137.608 147.248 138.675 147.248 140.04C147.248 141.405 147.622 142.493 148.368 143.304C149.136 144.093 150.064 144.488 151.152 144.488C152.24 144.488 153.158 144.093 153.904 143.304C154.672 142.515 155.056 141.437 155.056 140.072ZM170.663 144.584C172.071 144.584 173.02 143.901 173.511 142.536H179.335C178.93 144.349 178.119 145.832 176.903 146.984C175.687 148.136 174.172 148.851 172.359 149.128V150.312C173.468 150.312 174.439 150.611 175.271 151.208C176.103 151.827 176.519 152.744 176.519 153.96C176.519 155.176 176.082 156.093 175.207 156.712C174.332 157.352 173.287 157.672 172.071 157.672H167.143V154.664H171.335C171.762 154.664 172.082 154.6 172.295 154.472C172.508 154.344 172.615 154.131 172.615 153.832C172.615 153.533 172.508 153.32 172.295 153.192C172.082 153.085 171.762 153.032 171.335 153.032H169.063V149.128C166.866 148.787 165.106 147.816 163.783 146.216C162.46 144.595 161.799 142.547 161.799 140.072C161.799 138.216 162.172 136.595 162.919 135.208C163.687 133.821 164.743 132.755 166.087 132.008C167.452 131.261 169.01 130.888 170.759 130.888C172.999 130.888 174.866 131.475 176.359 132.648C177.874 133.821 178.866 135.475 179.335 137.608H173.511C173.02 136.243 172.071 135.56 170.663 135.56C169.66 135.56 168.86 135.955 168.263 136.744C167.666 137.512 167.367 138.621 167.367 140.072C167.367 141.523 167.666 142.643 168.263 143.432C168.86 144.2 169.66 144.584 170.663 144.584ZM188.79 149.256C187.041 149.256 185.462 148.883 184.054 148.136C182.667 147.389 181.569 146.323 180.758 144.936C179.969 143.549 179.574 141.928 179.574 140.072C179.574 138.237 179.979 136.627 180.79 135.24C181.601 133.832 182.71 132.755 184.118 132.008C185.526 131.261 187.105 130.888 188.854 130.888C190.603 130.888 192.182 131.261 193.59 132.008C194.998 132.755 196.107 133.832 196.918 135.24C197.729 136.627 198.134 138.237 198.134 140.072C198.134 141.907 197.718 143.528 196.886 144.936C196.075 146.323 194.955 147.389 193.526 148.136C192.118 148.883 190.539 149.256 188.79 149.256ZM188.79 144.52C189.835 144.52 190.721 144.136 191.446 143.368C192.193 142.6 192.566 141.501 192.566 140.072C192.566 138.643 192.203 137.544 191.478 136.776C190.774 136.008 189.899 135.624 188.854 135.624C187.787 135.624 186.902 136.008 186.198 136.776C185.494 137.523 185.142 138.621 185.142 140.072C185.142 141.501 185.483 142.6 186.166 143.368C186.87 144.136 187.745 144.52 188.79 144.52ZM182.87 129.512C183.382 126.355 184.854 124.776 187.286 124.776C187.755 124.776 188.161 124.851 188.502 125C188.865 125.128 189.302 125.331 189.814 125.608C190.198 125.821 190.507 125.981 190.742 126.088C190.977 126.173 191.222 126.216 191.478 126.216C192.267 126.216 192.726 125.736 192.854 124.776H195.67C195.158 127.933 193.686 129.512 191.254 129.512C190.785 129.512 190.369 129.448 190.006 129.32C189.665 129.171 189.238 128.957 188.726 128.68C188.342 128.467 188.033 128.317 187.798 128.232C187.563 128.125 187.318 128.072 187.062 128.072C186.273 128.072 185.803 128.552 185.654 129.512H182.87ZM216.269 139.784C216.269 140.296 216.237 140.829 216.173 141.384H203.789C203.874 142.493 204.226 143.347 204.845 143.944C205.485 144.52 206.264 144.808 207.181 144.808C208.546 144.808 209.496 144.232 210.029 143.08H215.853C215.554 144.253 215.01 145.309 214.221 146.248C213.453 147.187 212.482 147.923 211.309 148.456C210.136 148.989 208.824 149.256 207.373 149.256C205.624 149.256 204.066 148.883 202.701 148.136C201.336 147.389 200.269 146.323 199.501 144.936C198.733 143.549 198.349 141.928 198.349 140.072C198.349 138.216 198.722 136.595 199.469 135.208C200.237 133.821 201.304 132.755 202.669 132.008C204.034 131.261 205.602 130.888 207.373 130.888C209.101 130.888 210.637 131.251 211.981 131.976C213.325 132.701 214.37 133.736 215.117 135.08C215.885 136.424 216.269 137.992 216.269 139.784ZM210.669 138.344C210.669 137.405 210.349 136.659 209.709 136.104C209.069 135.549 208.269 135.272 207.309 135.272C206.392 135.272 205.613 135.539 204.973 136.072C204.354 136.605 203.97 137.363 203.821 138.344H210.669ZM224.82 149.256C223.263 149.256 221.876 148.989 220.66 148.456C219.444 147.923 218.484 147.197 217.78 146.28C217.076 145.341 216.681 144.296 216.596 143.144H222.004C222.068 143.763 222.356 144.264 222.868 144.648C223.38 145.032 224.009 145.224 224.756 145.224C225.439 145.224 225.961 145.096 226.324 144.84C226.708 144.563 226.9 144.211 226.9 143.784C226.9 143.272 226.633 142.899 226.1 142.664C225.567 142.408 224.703 142.131 223.508 141.832C222.228 141.533 221.161 141.224 220.308 140.904C219.455 140.563 218.719 140.04 218.1 139.336C217.481 138.611 217.172 137.64 217.172 136.424C217.172 135.4 217.449 134.472 218.004 133.64C218.58 132.787 219.412 132.115 220.5 131.624C221.609 131.133 222.921 130.888 224.436 130.888C226.676 130.888 228.436 131.443 229.716 132.552C231.017 133.661 231.764 135.133 231.956 136.968H226.9C226.815 136.349 226.537 135.859 226.068 135.496C225.62 135.133 225.023 134.952 224.276 134.952C223.636 134.952 223.145 135.08 222.804 135.336C222.463 135.571 222.292 135.901 222.292 136.328C222.292 136.84 222.559 137.224 223.092 137.48C223.647 137.736 224.5 137.992 225.652 138.248C226.975 138.589 228.052 138.931 228.884 139.272C229.716 139.592 230.441 140.125 231.06 140.872C231.7 141.597 232.031 142.579 232.052 143.816C232.052 144.861 231.753 145.8 231.156 146.632C230.58 147.443 229.737 148.083 228.628 148.552C227.54 149.021 226.271 149.256 224.82 149.256ZM237.893 140.04C237.893 138.205 238.234 136.595 238.917 135.208C239.621 133.821 240.57 132.755 241.765 132.008C242.96 131.261 244.293 130.888 245.765 130.888C246.938 130.888 248.005 131.133 248.965 131.624C249.946 132.115 250.714 132.776 251.269 133.608V125.32H256.741V149H251.269V146.44C250.757 147.293 250.021 147.976 249.061 148.488C248.122 149 247.024 149.256 245.765 149.256C244.293 149.256 242.96 148.883 241.765 148.136C240.57 147.368 239.621 146.291 238.917 144.904C238.234 143.496 237.893 141.875 237.893 140.04ZM251.269 140.072C251.269 138.707 250.885 137.629 250.117 136.84C249.37 136.051 248.453 135.656 247.365 135.656C246.277 135.656 245.349 136.051 244.581 136.84C243.834 137.608 243.461 138.675 243.461 140.04C243.461 141.405 243.834 142.493 244.581 143.304C245.349 144.093 246.277 144.488 247.365 144.488C248.453 144.488 249.37 144.093 250.117 143.304C250.885 142.515 251.269 141.437 251.269 140.072ZM275.932 139.784C275.932 140.296 275.9 140.829 275.836 141.384H263.452C263.537 142.493 263.889 143.347 264.508 143.944C265.148 144.52 265.926 144.808 266.844 144.808C268.209 144.808 269.158 144.232 269.692 143.08H275.516C275.217 144.253 274.673 145.309 273.884 146.248C273.116 147.187 272.145 147.923 270.972 148.456C269.798 148.989 268.486 149.256 267.036 149.256C265.286 149.256 263.729 148.883 262.364 148.136C260.998 147.389 259.932 146.323 259.164 144.936C258.396 143.549 258.012 141.928 258.012 140.072C258.012 138.216 258.385 136.595 259.132 135.208C259.9 133.821 260.966 132.755 262.332 132.008C263.697 131.261 265.265 130.888 267.036 130.888C268.764 130.888 270.3 131.251 271.644 131.976C272.988 132.701 274.033 133.736 274.78 135.08C275.548 136.424 275.932 137.992 275.932 139.784ZM270.332 138.344C270.332 137.405 270.012 136.659 269.372 136.104C268.732 135.549 267.932 135.272 266.972 135.272C266.054 135.272 265.276 135.539 264.636 136.072C264.017 136.605 263.633 137.363 263.484 138.344H270.332ZM89.4966 160.32V184H84.0246V160.32H89.4966ZM108.694 174.784C108.694 175.296 108.662 175.829 108.598 176.384H96.2141C96.2995 177.493 96.6515 178.347 97.2701 178.944C97.9101 179.52 98.6888 179.808 99.6061 179.808C100.971 179.808 101.921 179.232 102.454 178.08H108.278C107.979 179.253 107.435 180.309 106.646 181.248C105.878 182.187 104.907 182.923 103.734 183.456C102.561 183.989 101.249 184.256 99.7981 184.256C98.0488 184.256 96.4915 183.883 95.1261 183.136C93.7608 182.389 92.6941 181.323 91.9261 179.936C91.1581 178.549 90.7741 176.928 90.7741 175.072C90.7741 173.216 91.1475 171.595 91.8941 170.208C92.6621 168.821 93.7288 167.755 95.0941 167.008C96.4595 166.261 98.0275 165.888 99.7981 165.888C101.526 165.888 103.062 166.251 104.406 166.976C105.75 167.701 106.795 168.736 107.542 170.08C108.31 171.424 108.694 172.992 108.694 174.784ZM103.094 173.344C103.094 172.405 102.774 171.659 102.134 171.104C101.494 170.549 100.694 170.272 99.7341 170.272C98.8168 170.272 98.0381 170.539 97.3981 171.072C96.7795 171.605 96.3955 172.363 96.2461 173.344H103.094ZM132.765 165.952C134.984 165.952 136.744 166.624 138.045 167.968C139.368 169.312 140.029 171.179 140.029 173.568V184H134.589V174.304C134.589 173.152 134.28 172.267 133.661 171.648C133.064 171.008 132.232 170.688 131.165 170.688C130.098 170.688 129.256 171.008 128.637 171.648C128.04 172.267 127.741 173.152 127.741 174.304V184H122.301V174.304C122.301 173.152 121.992 172.267 121.373 171.648C120.776 171.008 119.944 170.688 118.877 170.688C117.81 170.688 116.968 171.008 116.349 171.648C115.752 172.267 115.453 173.152 115.453 174.304V184H109.981V166.144H115.453V168.384C116.008 167.637 116.733 167.051 117.629 166.624C118.525 166.176 119.538 165.952 120.669 165.952C122.013 165.952 123.208 166.24 124.253 166.816C125.32 167.392 126.152 168.213 126.749 169.28C127.368 168.299 128.21 167.499 129.277 166.88C130.344 166.261 131.506 165.952 132.765 165.952ZM147.728 168.672C148.24 167.84 148.976 167.168 149.936 166.656C150.896 166.144 151.995 165.888 153.232 165.888C154.704 165.888 156.037 166.261 157.232 167.008C158.427 167.755 159.365 168.821 160.048 170.208C160.752 171.595 161.104 173.205 161.104 175.04C161.104 176.875 160.752 178.496 160.048 179.904C159.365 181.291 158.427 182.368 157.232 183.136C156.037 183.883 154.704 184.256 153.232 184.256C151.973 184.256 150.875 184.011 149.936 183.52C148.997 183.008 148.261 182.336 147.728 181.504V184H142.256V160.32H147.728V168.672ZM155.536 175.04C155.536 173.675 155.152 172.608 154.384 171.84C153.637 171.051 152.709 170.656 151.6 170.656C150.512 170.656 149.584 171.051 148.816 171.84C148.069 172.629 147.696 173.707 147.696 175.072C147.696 176.437 148.069 177.515 148.816 178.304C149.584 179.093 150.512 179.488 151.6 179.488C152.688 179.488 153.616 179.093 154.384 178.304C155.152 177.493 155.536 176.405 155.536 175.04ZM167.847 169.12C168.487 168.139 169.287 167.371 170.247 166.816C171.207 166.24 172.273 165.952 173.447 165.952V171.744H171.943C170.577 171.744 169.553 172.043 168.871 172.64C168.188 173.216 167.847 174.24 167.847 175.712V184H162.375V166.144H167.847V169.12ZM191.294 174.784C191.294 175.296 191.262 175.829 191.198 176.384H178.814C178.899 177.493 179.251 178.347 179.87 178.944C180.51 179.52 181.289 179.808 182.206 179.808C183.571 179.808 184.521 179.232 185.054 178.08H190.878C190.579 179.253 190.035 180.309 189.246 181.248C188.478 182.187 187.507 182.923 186.334 183.456C185.161 183.989 183.849 184.256 182.398 184.256C180.649 184.256 179.091 183.883 177.726 183.136C176.361 182.389 175.294 181.323 174.526 179.936C173.758 178.549 173.374 176.928 173.374 175.072C173.374 173.216 173.747 171.595 174.494 170.208C175.262 168.821 176.329 167.755 177.694 167.008C179.059 166.261 180.627 165.888 182.398 165.888C184.126 165.888 185.662 166.251 187.006 166.976C188.35 167.701 189.395 168.736 190.142 170.08C190.91 171.424 191.294 172.992 191.294 174.784ZM185.694 173.344C185.694 172.405 185.374 171.659 184.734 171.104C184.094 170.549 183.294 170.272 182.334 170.272C181.417 170.272 180.638 170.539 179.998 171.072C179.379 171.605 178.995 172.363 178.846 173.344H185.694ZM202.533 179.36V184H199.749C197.765 184 196.218 183.52 195.109 182.56C194 181.579 193.445 179.989 193.445 177.792V170.688H191.269V166.144H193.445V161.792H198.917V166.144H202.501V170.688H198.917V177.856C198.917 178.389 199.045 178.773 199.301 179.008C199.557 179.243 199.984 179.36 200.581 179.36H202.533ZM220.813 174.784C220.813 175.296 220.781 175.829 220.717 176.384H208.333C208.418 177.493 208.77 178.347 209.389 178.944C210.029 179.52 210.808 179.808 211.725 179.808C213.09 179.808 214.04 179.232 214.573 178.08H220.397C220.098 179.253 219.554 180.309 218.765 181.248C217.997 182.187 217.026 182.923 215.853 183.456C214.68 183.989 213.368 184.256 211.917 184.256C210.168 184.256 208.61 183.883 207.245 183.136C205.88 182.389 204.813 181.323 204.045 179.936C203.277 178.549 202.893 176.928 202.893 175.072C202.893 173.216 203.266 171.595 204.013 170.208C204.781 168.821 205.848 167.755 207.213 167.008C208.578 166.261 210.146 165.888 211.917 165.888C213.645 165.888 215.181 166.251 216.525 166.976C217.869 167.701 218.914 168.736 219.661 170.08C220.429 171.424 220.813 172.992 220.813 174.784ZM215.213 173.344C215.213 172.405 214.893 171.659 214.253 171.104C213.613 170.549 212.813 170.272 211.853 170.272C210.936 170.272 210.157 170.539 209.517 171.072C208.898 171.605 208.514 172.363 208.365 173.344H215.213ZM229.364 184.256C227.806 184.256 226.42 183.989 225.204 183.456C223.988 182.923 223.028 182.197 222.324 181.28C221.62 180.341 221.225 179.296 221.14 178.144H226.548C226.612 178.763 226.9 179.264 227.412 179.648C227.924 180.032 228.553 180.224 229.3 180.224C229.982 180.224 230.505 180.096 230.868 179.84C231.252 179.563 231.444 179.211 231.444 178.784C231.444 178.272 231.177 177.899 230.644 177.664C230.11 177.408 229.246 177.131 228.052 176.832C226.772 176.533 225.705 176.224 224.852 175.904C223.998 175.563 223.262 175.04 222.644 174.336C222.025 173.611 221.716 172.64 221.716 171.424C221.716 170.4 221.993 169.472 222.548 168.64C223.124 167.787 223.956 167.115 225.044 166.624C226.153 166.133 227.465 165.888 228.98 165.888C231.22 165.888 232.98 166.443 234.26 167.552C235.561 168.661 236.308 170.133 236.5 171.968H231.444C231.358 171.349 231.081 170.859 230.612 170.496C230.164 170.133 229.566 169.952 228.82 169.952C228.18 169.952 227.689 170.08 227.348 170.336C227.006 170.571 226.836 170.901 226.836 171.328C226.836 171.84 227.102 172.224 227.636 172.48C228.19 172.736 229.044 172.992 230.196 173.248C231.518 173.589 232.596 173.931 233.428 174.272C234.26 174.592 234.985 175.125 235.604 175.872C236.244 176.597 236.574 177.579 236.596 178.816C236.596 179.861 236.297 180.8 235.7 181.632C235.124 182.443 234.281 183.083 233.172 183.552C232.084 184.021 230.814 184.256 229.364 184.256Z" fill="#472969"/>
<path d="M81.9152 232L78.5952 226.3H76.3952V232H74.5752V218.06H79.0752C80.1285 218.06 81.0152 218.24 81.7352 218.6C82.4685 218.96 83.0152 219.447 83.3752 220.06C83.7352 220.673 83.9152 221.373 83.9152 222.16C83.9152 223.12 83.6352 223.967 83.0752 224.7C82.5285 225.433 81.7018 225.92 80.5952 226.16L84.0952 232H81.9152ZM76.3952 224.84H79.0752C80.0618 224.84 80.8018 224.6 81.2952 224.12C81.7885 223.627 82.0352 222.973 82.0352 222.16C82.0352 221.333 81.7885 220.693 81.2952 220.24C80.8152 219.787 80.0752 219.56 79.0752 219.56H76.3952V224.84ZM95.7431 226.1C95.7431 226.447 95.7231 226.813 95.6831 227.2H86.9231C86.9898 228.28 87.3565 229.127 88.0231 229.74C88.7031 230.34 89.5231 230.64 90.4831 230.64C91.2698 230.64 91.9231 230.46 92.4431 230.1C92.9765 229.727 93.3498 229.233 93.5631 228.62H95.5231C95.2298 229.673 94.6431 230.533 93.7631 231.2C92.8831 231.853 91.7898 232.18 90.4831 232.18C89.4431 232.18 88.5098 231.947 87.6831 231.48C86.8698 231.013 86.2298 230.353 85.7631 229.5C85.2965 228.633 85.0631 227.633 85.0631 226.5C85.0631 225.367 85.2898 224.373 85.7431 223.52C86.1965 222.667 86.8298 222.013 87.6431 221.56C88.4698 221.093 89.4165 220.86 90.4831 220.86C91.5231 220.86 92.4431 221.087 93.2431 221.54C94.0431 221.993 94.6565 222.62 95.0831 223.42C95.5231 224.207 95.7431 225.1 95.7431 226.1ZM93.8631 225.72C93.8631 225.027 93.7098 224.433 93.4031 223.94C93.0965 223.433 92.6765 223.053 92.1431 222.8C91.6231 222.533 91.0431 222.4 90.4031 222.4C89.4831 222.4 88.6965 222.693 88.0431 223.28C87.4031 223.867 87.0365 224.68 86.9431 225.72H93.8631ZM96.4655 226.5C96.4655 225.367 96.6921 224.38 97.1455 223.54C97.5988 222.687 98.2255 222.027 99.0255 221.56C99.8388 221.093 100.765 220.86 101.805 220.86C103.152 220.86 104.259 221.187 105.125 221.84C106.005 222.493 106.585 223.4 106.865 224.56H104.905C104.719 223.893 104.352 223.367 103.805 222.98C103.272 222.593 102.605 222.4 101.805 222.4C100.765 222.4 99.9255 222.76 99.2855 223.48C98.6455 224.187 98.3255 225.193 98.3255 226.5C98.3255 227.82 98.6455 228.84 99.2855 229.56C99.9255 230.28 100.765 230.64 101.805 230.64C102.605 230.64 103.272 230.453 103.805 230.08C104.339 229.707 104.705 229.173 104.905 228.48H106.865C106.572 229.6 105.985 230.5 105.105 231.18C104.225 231.847 103.125 232.18 101.805 232.18C100.765 232.18 99.8388 231.947 99.0255 231.48C98.2255 231.013 97.5988 230.353 97.1455 229.5C96.6921 228.647 96.4655 227.647 96.4655 226.5ZM118.294 226.1C118.294 226.447 118.274 226.813 118.234 227.2H109.474C109.541 228.28 109.907 229.127 110.574 229.74C111.254 230.34 112.074 230.64 113.034 230.64C113.821 230.64 114.474 230.46 114.994 230.1C115.527 229.727 115.901 229.233 116.114 228.62H118.074C117.781 229.673 117.194 230.533 116.314 231.2C115.434 231.853 114.341 232.18 113.034 232.18C111.994 232.18 111.061 231.947 110.234 231.48C109.421 231.013 108.781 230.353 108.314 229.5C107.847 228.633 107.614 227.633 107.614 226.5C107.614 225.367 107.841 224.373 108.294 223.52C108.747 222.667 109.381 222.013 110.194 221.56C111.021 221.093 111.967 220.86 113.034 220.86C114.074 220.86 114.994 221.087 115.794 221.54C116.594 221.993 117.207 222.62 117.634 223.42C118.074 224.207 118.294 225.1 118.294 226.1ZM116.414 225.72C116.414 225.027 116.261 224.433 115.954 223.94C115.647 223.433 115.227 223.053 114.694 222.8C114.174 222.533 113.594 222.4 112.954 222.4C112.034 222.4 111.247 222.693 110.594 223.28C109.954 223.867 109.587 224.68 109.494 225.72H116.414ZM121.516 223.08C121.89 222.427 122.436 221.893 123.156 221.48C123.876 221.067 124.696 220.86 125.616 220.86C126.603 220.86 127.49 221.093 128.276 221.56C129.063 222.027 129.683 222.687 130.136 223.54C130.59 224.38 130.816 225.36 130.816 226.48C130.816 227.587 130.59 228.573 130.136 229.44C129.683 230.307 129.056 230.98 128.256 231.46C127.47 231.94 126.59 232.18 125.616 232.18C124.67 232.18 123.836 231.973 123.116 231.56C122.41 231.147 121.876 230.62 121.516 229.98V232H119.696V217.2H121.516V223.08ZM128.956 226.48C128.956 225.653 128.79 224.933 128.456 224.32C128.123 223.707 127.67 223.24 127.096 222.92C126.536 222.6 125.916 222.44 125.236 222.44C124.57 222.44 123.95 222.607 123.376 222.94C122.816 223.26 122.363 223.733 122.016 224.36C121.683 224.973 121.516 225.687 121.516 226.5C121.516 227.327 121.683 228.053 122.016 228.68C122.363 229.293 122.816 229.767 123.376 230.1C123.95 230.42 124.57 230.58 125.236 230.58C125.916 230.58 126.536 230.42 127.096 230.1C127.67 229.767 128.123 229.293 128.456 228.68C128.79 228.053 128.956 227.32 128.956 226.48ZM131.532 226.48C131.532 225.36 131.759 224.38 132.212 223.54C132.665 222.687 133.285 222.027 134.072 221.56C134.872 221.093 135.759 220.86 136.732 220.86C137.692 220.86 138.525 221.067 139.232 221.48C139.939 221.893 140.465 222.413 140.812 223.04V221.04H142.652V232H140.812V229.96C140.452 230.6 139.912 231.133 139.192 231.56C138.485 231.973 137.659 232.18 136.712 232.18C135.739 232.18 134.859 231.94 134.072 231.46C133.285 230.98 132.665 230.307 132.212 229.44C131.759 228.573 131.532 227.587 131.532 226.48ZM140.812 226.5C140.812 225.673 140.645 224.953 140.312 224.34C139.979 223.727 139.525 223.26 138.952 222.94C138.392 222.607 137.772 222.44 137.092 222.44C136.412 222.44 135.792 222.6 135.232 222.92C134.672 223.24 134.225 223.707 133.892 224.32C133.559 224.933 133.392 225.653 133.392 226.48C133.392 227.32 133.559 228.053 133.892 228.68C134.225 229.293 134.672 229.767 135.232 230.1C135.792 230.42 136.412 230.58 137.092 230.58C137.772 230.58 138.392 230.42 138.952 230.1C139.525 229.767 139.979 229.293 140.312 228.68C140.645 228.053 140.812 227.327 140.812 226.5ZM150.88 217.2V232H149.06V217.2H150.88ZM162.981 226.1C162.981 226.447 162.961 226.813 162.921 227.2H154.161C154.228 228.28 154.595 229.127 155.261 229.74C155.941 230.34 156.761 230.64 157.721 230.64C158.508 230.64 159.161 230.46 159.681 230.1C160.215 229.727 160.588 229.233 160.801 228.62H162.761C162.468 229.673 161.881 230.533 161.001 231.2C160.121 231.853 159.028 232.18 157.721 232.18C156.681 232.18 155.748 231.947 154.921 231.48C154.108 231.013 153.468 230.353 153.001 229.5C152.535 228.633 152.301 227.633 152.301 226.5C152.301 225.367 152.528 224.373 152.981 223.52C153.435 222.667 154.068 222.013 154.881 221.56C155.708 221.093 156.655 220.86 157.721 220.86C158.761 220.86 159.681 221.087 160.481 221.54C161.281 221.993 161.895 222.62 162.321 223.42C162.761 224.207 162.981 225.1 162.981 226.1ZM161.101 225.72C161.101 225.027 160.948 224.433 160.641 223.94C160.335 223.433 159.915 223.053 159.381 222.8C158.861 222.533 158.281 222.4 157.641 222.4C156.721 222.4 155.935 222.693 155.281 223.28C154.641 223.867 154.275 224.68 154.181 225.72H161.101ZM177.564 220.84C178.417 220.84 179.177 221.02 179.844 221.38C180.51 221.727 181.037 222.253 181.424 222.96C181.81 223.667 182.004 224.527 182.004 225.54V232H180.204V225.8C180.204 224.707 179.93 223.873 179.384 223.3C178.85 222.713 178.124 222.42 177.204 222.42C176.257 222.42 175.504 222.727 174.944 223.34C174.384 223.94 174.104 224.813 174.104 225.96V232H172.304V225.8C172.304 224.707 172.03 223.873 171.484 223.3C170.95 222.713 170.224 222.42 169.304 222.42C168.357 222.42 167.604 222.727 167.044 223.34C166.484 223.94 166.204 224.813 166.204 225.96V232H164.384V221.04H166.204V222.62C166.564 222.047 167.044 221.607 167.644 221.3C168.257 220.993 168.93 220.84 169.664 220.84C170.584 220.84 171.397 221.047 172.104 221.46C172.81 221.873 173.337 222.48 173.684 223.28C173.99 222.507 174.497 221.907 175.204 221.48C175.91 221.053 176.697 220.84 177.564 220.84ZM185.809 223.08C186.183 222.427 186.729 221.893 187.449 221.48C188.169 221.067 188.989 220.86 189.909 220.86C190.896 220.86 191.783 221.093 192.569 221.56C193.356 222.027 193.976 222.687 194.429 223.54C194.883 224.38 195.109 225.36 195.109 226.48C195.109 227.587 194.883 228.573 194.429 229.44C193.976 230.307 193.349 230.98 192.549 231.46C191.763 231.94 190.883 232.18 189.909 232.18C188.963 232.18 188.129 231.973 187.409 231.56C186.703 231.147 186.169 230.62 185.809 229.98V232H183.989V217.2H185.809V223.08ZM193.249 226.48C193.249 225.653 193.083 224.933 192.749 224.32C192.416 223.707 191.963 223.24 191.389 222.92C190.829 222.6 190.209 222.44 189.529 222.44C188.863 222.44 188.243 222.607 187.669 222.94C187.109 223.26 186.656 223.733 186.309 224.36C185.976 224.973 185.809 225.687 185.809 226.5C185.809 227.327 185.976 228.053 186.309 228.68C186.656 229.293 187.109 229.767 187.669 230.1C188.243 230.42 188.863 230.58 189.529 230.58C190.209 230.58 190.829 230.42 191.389 230.1C191.963 229.767 192.416 229.293 192.749 228.68C193.083 228.053 193.249 227.32 193.249 226.48ZM198.325 222.82C198.645 222.193 199.098 221.707 199.685 221.36C200.285 221.013 201.012 220.84 201.865 220.84V222.72H201.385C199.345 222.72 198.325 223.827 198.325 226.04V232H196.505V221.04H198.325V222.82ZM212.966 226.1C212.966 226.447 212.946 226.813 212.906 227.2H204.146C204.212 228.28 204.579 229.127 205.246 229.74C205.926 230.34 206.746 230.64 207.706 230.64C208.492 230.64 209.146 230.46 209.666 230.1C210.199 229.727 210.572 229.233 210.786 228.62H212.746C212.452 229.673 211.866 230.533 210.986 231.2C210.106 231.853 209.012 232.18 207.706 232.18C206.666 232.18 205.732 231.947 204.906 231.48C204.092 231.013 203.452 230.353 202.986 229.5C202.519 228.633 202.286 227.633 202.286 226.5C202.286 225.367 202.512 224.373 202.966 223.52C203.419 222.667 204.052 222.013 204.866 221.56C205.692 221.093 206.639 220.86 207.706 220.86C208.746 220.86 209.666 221.087 210.466 221.54C211.266 221.993 211.879 222.62 212.306 223.42C212.746 224.207 212.966 225.1 212.966 226.1ZM211.086 225.72C211.086 225.027 210.932 224.433 210.626 223.94C210.319 223.433 209.899 223.053 209.366 222.8C208.846 222.533 208.266 222.4 207.626 222.4C206.706 222.4 205.919 222.693 205.266 223.28C204.626 223.867 204.259 224.68 204.166 225.72H211.086ZM216.588 222.54V229C216.588 229.533 216.701 229.913 216.928 230.14C217.155 230.353 217.548 230.46 218.108 230.46H219.448V232H217.808C216.795 232 216.035 231.767 215.528 231.3C215.021 230.833 214.768 230.067 214.768 229V222.54H213.348V221.04H214.768V218.28H216.588V221.04H219.448V222.54H216.588ZM230.653 226.1C230.653 226.447 230.633 226.813 230.593 227.2H221.833C221.9 228.28 222.267 229.127 222.933 229.74C223.613 230.34 224.433 230.64 225.393 230.64C226.18 230.64 226.833 230.46 227.353 230.1C227.887 229.727 228.26 229.233 228.473 228.62H230.433C230.14 229.673 229.553 230.533 228.673 231.2C227.793 231.853 226.7 232.18 225.393 232.18C224.353 232.18 223.42 231.947 222.593 231.48C221.78 231.013 221.14 230.353 220.673 229.5C220.207 228.633 219.973 227.633 219.973 226.5C219.973 225.367 220.2 224.373 220.653 223.52C221.107 222.667 221.74 222.013 222.553 221.56C223.38 221.093 224.327 220.86 225.393 220.86C226.433 220.86 227.353 221.087 228.153 221.54C228.953 221.993 229.567 222.62 229.993 223.42C230.433 224.207 230.653 225.1 230.653 226.1ZM228.773 225.72C228.773 225.027 228.62 224.433 228.313 223.94C228.007 223.433 227.587 223.053 227.053 222.8C226.533 222.533 225.953 222.4 225.313 222.4C224.393 222.4 223.607 222.693 222.953 223.28C222.313 223.867 221.947 224.68 221.853 225.72H228.773ZM235.936 232.18C235.096 232.18 234.342 232.04 233.676 231.76C233.009 231.467 232.482 231.067 232.096 230.56C231.709 230.04 231.496 229.447 231.456 228.78H233.336C233.389 229.327 233.642 229.773 234.096 230.12C234.562 230.467 235.169 230.64 235.916 230.64C236.609 230.64 237.156 230.487 237.556 230.18C237.956 229.873 238.156 229.487 238.156 229.02C238.156 228.54 237.942 228.187 237.516 227.96C237.089 227.72 236.429 227.487 235.536 227.26C234.722 227.047 234.056 226.833 233.536 226.62C233.029 226.393 232.589 226.067 232.216 225.64C231.856 225.2 231.676 224.627 231.676 223.92C231.676 223.36 231.842 222.847 232.176 222.38C232.509 221.913 232.982 221.547 233.596 221.28C234.209 221 234.909 220.86 235.696 220.86C236.909 220.86 237.889 221.167 238.636 221.78C239.382 222.393 239.782 223.233 239.836 224.3H238.016C237.976 223.727 237.742 223.267 237.316 222.92C236.902 222.573 236.342 222.4 235.636 222.4C234.982 222.4 234.462 222.54 234.076 222.82C233.689 223.1 233.496 223.467 233.496 223.92C233.496 224.28 233.609 224.58 233.836 224.82C234.076 225.047 234.369 225.233 234.716 225.38C235.076 225.513 235.569 225.667 236.196 225.84C236.982 226.053 237.622 226.267 238.116 226.48C238.609 226.68 239.029 226.987 239.376 227.4C239.736 227.813 239.922 228.353 239.936 229.02C239.936 229.62 239.769 230.16 239.436 230.64C239.102 231.12 238.629 231.5 238.016 231.78C237.416 232.047 236.722 232.18 235.936 232.18ZM65.9987 244.48C65.9987 243.36 66.2253 242.38 66.6787 241.54C67.132 240.687 67.752 240.027 68.5387 239.56C69.3387 239.093 70.2253 238.86 71.1987 238.86C72.1587 238.86 72.992 239.067 73.6987 239.48C74.4053 239.893 74.932 240.413 75.2787 241.04V239.04H77.1187V250H75.2787V247.96C74.9187 248.6 74.3787 249.133 73.6587 249.56C72.952 249.973 72.1253 250.18 71.1787 250.18C70.2053 250.18 69.3253 249.94 68.5387 249.46C67.752 248.98 67.132 248.307 66.6787 247.44C66.2253 246.573 65.9987 245.587 65.9987 244.48ZM75.2787 244.5C75.2787 243.673 75.112 242.953 74.7787 242.34C74.4453 241.727 73.992 241.26 73.4187 240.94C72.8587 240.607 72.2387 240.44 71.5587 240.44C70.8787 240.44 70.2587 240.6 69.6987 240.92C69.1387 241.24 68.692 241.707 68.3587 242.32C68.0253 242.933 67.8587 243.653 67.8587 244.48C67.8587 245.32 68.0253 246.053 68.3587 246.68C68.692 247.293 69.1387 247.767 69.6987 248.1C70.2587 248.42 70.8787 248.58 71.5587 248.58C72.2387 248.58 72.8587 248.42 73.4187 248.1C73.992 247.767 74.4453 247.293 74.7787 246.68C75.112 246.053 75.2787 245.327 75.2787 244.5ZM88.9143 239.04V250H87.0943V248.38C86.7476 248.94 86.261 249.38 85.6343 249.7C85.021 250.007 84.341 250.16 83.5943 250.16C82.741 250.16 81.9743 249.987 81.2943 249.64C80.6143 249.28 80.0743 248.747 79.6743 248.04C79.2876 247.333 79.0943 246.473 79.0943 245.46V239.04H80.8943V245.22C80.8943 246.3 81.1676 247.133 81.7143 247.72C82.261 248.293 83.0076 248.58 83.9543 248.58C84.9276 248.58 85.6943 248.28 86.2543 247.68C86.8143 247.08 87.0943 246.207 87.0943 245.06V239.04H88.9143ZM93.2073 240.54V247C93.2073 247.533 93.3206 247.913 93.5473 248.14C93.7739 248.353 94.1673 248.46 94.7273 248.46H96.0673V250H94.4273C93.4139 250 92.6539 249.767 92.1473 249.3C91.6406 248.833 91.3873 248.067 91.3873 247V240.54H89.9673V239.04H91.3873V236.28H93.2073V239.04H96.0673V240.54H93.2073ZM102.052 250.18C101.026 250.18 100.092 249.947 99.2524 249.48C98.4258 249.013 97.7724 248.353 97.2924 247.5C96.8258 246.633 96.5924 245.633 96.5924 244.5C96.5924 243.38 96.8324 242.393 97.3124 241.54C97.8058 240.673 98.4724 240.013 99.3124 239.56C100.152 239.093 101.092 238.86 102.132 238.86C103.172 238.86 104.112 239.093 104.952 239.56C105.792 240.013 106.452 240.667 106.932 241.52C107.426 242.373 107.672 243.367 107.672 244.5C107.672 245.633 107.419 246.633 106.912 247.5C106.419 248.353 105.746 249.013 104.892 249.48C104.039 249.947 103.092 250.18 102.052 250.18ZM102.052 248.58C102.706 248.58 103.319 248.427 103.892 248.12C104.466 247.813 104.926 247.353 105.272 246.74C105.632 246.127 105.812 245.38 105.812 244.5C105.812 243.62 105.639 242.873 105.292 242.26C104.946 241.647 104.492 241.193 103.932 240.9C103.372 240.593 102.766 240.44 102.112 240.44C101.446 240.44 100.832 240.593 100.272 240.9C99.7258 241.193 99.2858 241.647 98.9524 242.26C98.6191 242.873 98.4524 243.62 98.4524 244.5C98.4524 245.393 98.6124 246.147 98.9324 246.76C99.2658 247.373 99.7058 247.833 100.252 248.14C100.799 248.433 101.399 248.58 102.052 248.58ZM122.245 238.84C123.099 238.84 123.859 239.02 124.525 239.38C125.192 239.727 125.719 240.253 126.105 240.96C126.492 241.667 126.685 242.527 126.685 243.54V250H124.885V243.8C124.885 242.707 124.612 241.873 124.065 241.3C123.532 240.713 122.805 240.42 121.885 240.42C120.939 240.42 120.185 240.727 119.625 241.34C119.065 241.94 118.785 242.813 118.785 243.96V250H116.985V243.8C116.985 242.707 116.712 241.873 116.165 241.3C115.632 240.713 114.905 240.42 113.985 240.42C113.039 240.42 112.285 240.727 111.725 241.34C111.165 241.94 110.885 242.813 110.885 243.96V250H109.065V239.04H110.885V240.62C111.245 240.047 111.725 239.607 112.325 239.3C112.939 238.993 113.612 238.84 114.345 238.84C115.265 238.84 116.079 239.047 116.785 239.46C117.492 239.873 118.019 240.48 118.365 241.28C118.672 240.507 119.179 239.907 119.885 239.48C120.592 239.053 121.379 238.84 122.245 238.84ZM127.991 244.48C127.991 243.36 128.218 242.38 128.671 241.54C129.124 240.687 129.744 240.027 130.531 239.56C131.331 239.093 132.218 238.86 133.191 238.86C134.151 238.86 134.984 239.067 135.691 239.48C136.398 239.893 136.924 240.413 137.271 241.04V239.04H139.111V250H137.271V247.96C136.911 248.6 136.371 249.133 135.651 249.56C134.944 249.973 134.118 250.18 133.171 250.18C132.198 250.18 131.318 249.94 130.531 249.46C129.744 248.98 129.124 248.307 128.671 247.44C128.218 246.573 127.991 245.587 127.991 244.48ZM137.271 244.5C137.271 243.673 137.104 242.953 136.771 242.34C136.438 241.727 135.984 241.26 135.411 240.94C134.851 240.607 134.231 240.44 133.551 240.44C132.871 240.44 132.251 240.6 131.691 240.92C131.131 241.24 130.684 241.707 130.351 242.32C130.018 242.933 129.851 243.653 129.851 244.48C129.851 245.32 130.018 246.053 130.351 246.68C130.684 247.293 131.131 247.767 131.691 248.1C132.251 248.42 132.871 248.58 133.551 248.58C134.231 248.58 134.851 248.42 135.411 248.1C135.984 247.767 136.438 247.293 136.771 246.68C137.104 246.053 137.271 245.327 137.271 244.5ZM135.851 235.94L131.591 238.22V236.86L135.851 234.36V235.94ZM143.406 240.54V247C143.406 247.533 143.52 247.913 143.746 248.14C143.973 248.353 144.366 248.46 144.926 248.46H146.266V250H144.626C143.613 250 142.853 249.767 142.346 249.3C141.84 248.833 141.586 248.067 141.586 247V240.54H140.166V239.04H141.586V236.28H143.406V239.04H146.266V240.54H143.406ZM148.412 237.26C148.065 237.26 147.772 237.14 147.532 236.9C147.292 236.66 147.172 236.367 147.172 236.02C147.172 235.673 147.292 235.38 147.532 235.14C147.772 234.9 148.065 234.78 148.412 234.78C148.745 234.78 149.025 234.9 149.252 235.14C149.492 235.38 149.612 235.673 149.612 236.02C149.612 236.367 149.492 236.66 149.252 236.9C149.025 237.14 148.745 237.26 148.412 237.26ZM149.292 239.04V250H147.472V239.04H149.292ZM150.714 244.5C150.714 243.367 150.94 242.38 151.394 241.54C151.847 240.687 152.474 240.027 153.274 239.56C154.087 239.093 155.014 238.86 156.054 238.86C157.4 238.86 158.507 239.187 159.374 239.84C160.254 240.493 160.834 241.4 161.114 242.56H159.154C158.967 241.893 158.6 241.367 158.054 240.98C157.52 240.593 156.854 240.4 156.054 240.4C155.014 240.4 154.174 240.76 153.534 241.48C152.894 242.187 152.574 243.193 152.574 244.5C152.574 245.82 152.894 246.84 153.534 247.56C154.174 248.28 155.014 248.64 156.054 248.64C156.854 248.64 157.52 248.453 158.054 248.08C158.587 247.707 158.954 247.173 159.154 246.48H161.114C160.82 247.6 160.234 248.5 159.354 249.18C158.474 249.847 157.374 250.18 156.054 250.18C155.014 250.18 154.087 249.947 153.274 249.48C152.474 249.013 151.847 248.353 151.394 247.5C150.94 246.647 150.714 245.647 150.714 244.5ZM167.322 250.18C166.295 250.18 165.362 249.947 164.522 249.48C163.695 249.013 163.042 248.353 162.562 247.5C162.095 246.633 161.862 245.633 161.862 244.5C161.862 243.38 162.102 242.393 162.582 241.54C163.075 240.673 163.742 240.013 164.582 239.56C165.422 239.093 166.362 238.86 167.402 238.86C168.442 238.86 169.382 239.093 170.222 239.56C171.062 240.013 171.722 240.667 172.202 241.52C172.695 242.373 172.942 243.367 172.942 244.5C172.942 245.633 172.689 246.633 172.182 247.5C171.689 248.353 171.015 249.013 170.162 249.48C169.309 249.947 168.362 250.18 167.322 250.18ZM167.322 248.58C167.975 248.58 168.589 248.427 169.162 248.12C169.735 247.813 170.195 247.353 170.542 246.74C170.902 246.127 171.082 245.38 171.082 244.5C171.082 243.62 170.909 242.873 170.562 242.26C170.215 241.647 169.762 241.193 169.202 240.9C168.642 240.593 168.035 240.44 167.382 240.44C166.715 240.44 166.102 240.593 165.542 240.9C164.995 241.193 164.555 241.647 164.222 242.26C163.889 242.873 163.722 243.62 163.722 244.5C163.722 245.393 163.882 246.147 164.202 246.76C164.535 247.373 164.975 247.833 165.522 248.14C166.069 248.433 166.669 248.58 167.322 248.58ZM178.215 250.18C177.375 250.18 176.622 250.04 175.955 249.76C175.288 249.467 174.762 249.067 174.375 248.56C173.988 248.04 173.775 247.447 173.735 246.78H175.615C175.668 247.327 175.922 247.773 176.375 248.12C176.842 248.467 177.448 248.64 178.195 248.64C178.888 248.64 179.435 248.487 179.835 248.18C180.235 247.873 180.435 247.487 180.435 247.02C180.435 246.54 180.222 246.187 179.795 245.96C179.368 245.72 178.708 245.487 177.815 245.26C177.002 245.047 176.335 244.833 175.815 244.62C175.308 244.393 174.868 244.067 174.495 243.64C174.135 243.2 173.955 242.627 173.955 241.92C173.955 241.36 174.122 240.847 174.455 240.38C174.788 239.913 175.262 239.547 175.875 239.28C176.488 239 177.188 238.86 177.975 238.86C179.188 238.86 180.168 239.167 180.915 239.78C181.662 240.393 182.062 241.233 182.115 242.3H180.295C180.255 241.727 180.022 241.267 179.595 240.92C179.182 240.573 178.622 240.4 177.915 240.4C177.262 240.4 176.742 240.54 176.355 240.82C175.968 241.1 175.775 241.467 175.775 241.92C175.775 242.28 175.888 242.58 176.115 242.82C176.355 243.047 176.648 243.233 176.995 243.38C177.355 243.513 177.848 243.667 178.475 243.84C179.262 244.053 179.902 244.267 180.395 244.48C180.888 244.68 181.308 244.987 181.655 245.4C182.015 245.813 182.202 246.353 182.215 247.02C182.215 247.62 182.048 248.16 181.715 248.64C181.382 249.12 180.908 249.5 180.295 249.78C179.695 250.047 179.002 250.18 178.215 250.18ZM187.436 244.48C187.436 243.36 187.663 242.38 188.116 241.54C188.57 240.687 189.19 240.027 189.976 239.56C190.776 239.093 191.67 238.86 192.656 238.86C193.51 238.86 194.303 239.06 195.036 239.46C195.77 239.847 196.33 240.36 196.716 241V235.2H198.556V250H196.716V247.94C196.356 248.593 195.823 249.133 195.116 249.56C194.41 249.973 193.583 250.18 192.636 250.18C191.663 250.18 190.776 249.94 189.976 249.46C189.19 248.98 188.57 248.307 188.116 247.44C187.663 246.573 187.436 245.587 187.436 244.48ZM196.716 244.5C196.716 243.673 196.55 242.953 196.216 242.34C195.883 241.727 195.43 241.26 194.856 240.94C194.296 240.607 193.676 240.44 192.996 240.44C192.316 240.44 191.696 240.6 191.136 240.92C190.576 241.24 190.13 241.707 189.796 242.32C189.463 242.933 189.296 243.653 189.296 244.48C189.296 245.32 189.463 246.053 189.796 246.68C190.13 247.293 190.576 247.767 191.136 248.1C191.696 248.42 192.316 248.58 192.996 248.58C193.676 248.58 194.296 248.42 194.856 248.1C195.43 247.767 195.883 247.293 196.216 246.68C196.55 246.053 196.716 245.327 196.716 244.5ZM205.412 250.18C204.385 250.18 203.452 249.947 202.612 249.48C201.785 249.013 201.132 248.353 200.652 247.5C200.185 246.633 199.952 245.633 199.952 244.5C199.952 243.38 200.192 242.393 200.672 241.54C201.165 240.673 201.832 240.013 202.672 239.56C203.512 239.093 204.452 238.86 205.492 238.86C206.532 238.86 207.472 239.093 208.312 239.56C209.152 240.013 209.812 240.667 210.292 241.52C210.785 242.373 211.032 243.367 211.032 244.5C211.032 245.633 210.778 246.633 210.272 247.5C209.778 248.353 209.105 249.013 208.252 249.48C207.398 249.947 206.452 250.18 205.412 250.18ZM205.412 248.58C206.065 248.58 206.678 248.427 207.252 248.12C207.825 247.813 208.285 247.353 208.632 246.74C208.992 246.127 209.172 245.38 209.172 244.5C209.172 243.62 208.998 242.873 208.652 242.26C208.305 241.647 207.852 241.193 207.292 240.9C206.732 240.593 206.125 240.44 205.472 240.44C204.805 240.44 204.192 240.593 203.632 240.9C203.085 241.193 202.645 241.647 202.312 242.26C201.978 242.873 201.812 243.62 201.812 244.5C201.812 245.393 201.972 246.147 202.292 246.76C202.625 247.373 203.065 247.833 203.612 248.14C204.158 248.433 204.758 248.58 205.412 248.58ZM220.637 250.18C219.797 250.18 219.043 250.04 218.377 249.76C217.71 249.467 217.183 249.067 216.797 248.56C216.41 248.04 216.197 247.447 216.157 246.78H218.037C218.09 247.327 218.343 247.773 218.797 248.12C219.263 248.467 219.87 248.64 220.617 248.64C221.31 248.64 221.857 248.487 222.257 248.18C222.657 247.873 222.857 247.487 222.857 247.02C222.857 246.54 222.643 246.187 222.217 245.96C221.79 245.72 221.13 245.487 220.237 245.26C219.423 245.047 218.757 244.833 218.237 244.62C217.73 244.393 217.29 244.067 216.917 243.64C216.557 243.2 216.377 242.627 216.377 241.92C216.377 241.36 216.543 240.847 216.877 240.38C217.21 239.913 217.683 239.547 218.297 239.28C218.91 239 219.61 238.86 220.397 238.86C221.61 238.86 222.59 239.167 223.337 239.78C224.083 240.393 224.483 241.233 224.537 242.3H222.717C222.677 241.727 222.443 241.267 222.017 240.92C221.603 240.573 221.043 240.4 220.337 240.4C219.683 240.4 219.163 240.54 218.777 240.82C218.39 241.1 218.197 241.467 218.197 241.92C218.197 242.28 218.31 242.58 218.537 242.82C218.777 243.047 219.07 243.233 219.417 243.38C219.777 243.513 220.27 243.667 220.897 243.84C221.683 244.053 222.323 244.267 222.817 244.48C223.31 244.68 223.73 244.987 224.077 245.4C224.437 245.813 224.623 246.353 224.637 247.02C224.637 247.62 224.47 248.16 224.137 248.64C223.803 249.12 223.33 249.5 222.717 249.78C222.117 250.047 221.423 250.18 220.637 250.18ZM236.206 244.1C236.206 244.447 236.186 244.813 236.146 245.2H227.386C227.453 246.28 227.819 247.127 228.486 247.74C229.166 248.34 229.986 248.64 230.946 248.64C231.733 248.64 232.386 248.46 232.906 248.1C233.439 247.727 233.813 247.233 234.026 246.62H235.986C235.693 247.673 235.106 248.533 234.226 249.2C233.346 249.853 232.253 250.18 230.946 250.18C229.906 250.18 228.973 249.947 228.146 249.48C227.333 249.013 226.693 248.353 226.226 247.5C225.759 246.633 225.526 245.633 225.526 244.5C225.526 243.367 225.753 242.373 226.206 241.52C226.659 240.667 227.293 240.013 228.106 239.56C228.933 239.093 229.879 238.86 230.946 238.86C231.986 238.86 232.906 239.087 233.706 239.54C234.506 239.993 235.119 240.62 235.546 241.42C235.986 242.207 236.206 243.1 236.206 244.1ZM234.326 243.72C234.326 243.027 234.173 242.433 233.866 241.94C233.559 241.433 233.139 241.053 232.606 240.8C232.086 240.533 231.506 240.4 230.866 240.4C229.946 240.4 229.159 240.693 228.506 241.28C227.866 241.867 227.499 242.68 227.406 243.72H234.326ZM247.328 239.04V250H245.508V248.38C245.162 248.94 244.675 249.38 244.048 249.7C243.435 250.007 242.755 250.16 242.008 250.16C241.155 250.16 240.388 249.987 239.708 249.64C239.028 249.28 238.488 248.747 238.088 248.04C237.702 247.333 237.508 246.473 237.508 245.46V239.04H239.308V245.22C239.308 246.3 239.582 247.133 240.128 247.72C240.675 248.293 241.422 248.58 242.368 248.58C243.342 248.58 244.108 248.28 244.668 247.68C245.228 247.08 245.508 246.207 245.508 245.06V239.04H247.328ZM45.9049 262.48C45.9049 261.36 46.1316 260.38 46.5849 259.54C47.0383 258.687 47.6583 258.027 48.4449 257.56C49.2449 257.093 50.1316 256.86 51.1049 256.86C52.0649 256.86 52.8983 257.067 53.6049 257.48C54.3116 257.893 54.8383 258.413 55.1849 259.04V257.04H57.0249V268H55.1849V265.96C54.8249 266.6 54.2849 267.133 53.5649 267.56C52.8583 267.973 52.0316 268.18 51.0849 268.18C50.1116 268.18 49.2316 267.94 48.4449 267.46C47.6583 266.98 47.0383 266.307 46.5849 265.44C46.1316 264.573 45.9049 263.587 45.9049 262.48ZM55.1849 262.5C55.1849 261.673 55.0183 260.953 54.6849 260.34C54.3516 259.727 53.8983 259.26 53.3249 258.94C52.7649 258.607 52.1449 258.44 51.4649 258.44C50.7849 258.44 50.1649 258.6 49.6049 258.92C49.0449 259.24 48.5983 259.707 48.2649 260.32C47.9316 260.933 47.7649 261.653 47.7649 262.48C47.7649 263.32 47.9316 264.053 48.2649 264.68C48.5983 265.293 49.0449 265.767 49.6049 266.1C50.1649 266.42 50.7849 266.58 51.4649 266.58C52.1449 266.58 52.7649 266.42 53.3249 266.1C53.8983 265.767 54.3516 265.293 54.6849 264.68C55.0183 264.053 55.1849 263.327 55.1849 262.5ZM63.6205 256.86C64.5672 256.86 65.3939 257.067 66.1005 257.48C66.8205 257.893 67.3539 258.413 67.7005 259.04V257.04H69.5405V268.24C69.5405 269.24 69.3272 270.127 68.9005 270.9C68.4739 271.687 67.8605 272.3 67.0605 272.74C66.2739 273.18 65.3539 273.4 64.3005 273.4C62.8605 273.4 61.6605 273.06 60.7005 272.38C59.7405 271.7 59.1739 270.773 59.0005 269.6H60.8005C61.0005 270.267 61.4139 270.8 62.0405 271.2C62.6672 271.613 63.4205 271.82 64.3005 271.82C65.3005 271.82 66.1139 271.507 66.7405 270.88C67.3805 270.253 67.7005 269.373 67.7005 268.24V265.94C67.3405 266.58 66.8072 267.113 66.1005 267.54C65.3939 267.967 64.5672 268.18 63.6205 268.18C62.6472 268.18 61.7605 267.94 60.9605 267.46C60.1739 266.98 59.5539 266.307 59.1005 265.44C58.6472 264.573 58.4205 263.587 58.4205 262.48C58.4205 261.36 58.6472 260.38 59.1005 259.54C59.5539 258.687 60.1739 258.027 60.9605 257.56C61.7605 257.093 62.6472 256.86 63.6205 256.86ZM67.7005 262.5C67.7005 261.673 67.5339 260.953 67.2005 260.34C66.8672 259.727 66.4139 259.26 65.8405 258.94C65.2805 258.607 64.6605 258.44 63.9805 258.44C63.3005 258.44 62.6805 258.6 62.1205 258.92C61.5605 259.24 61.1139 259.707 60.7805 260.32C60.4472 260.933 60.2805 261.653 60.2805 262.48C60.2805 263.32 60.4472 264.053 60.7805 264.68C61.1139 265.293 61.5605 265.767 62.1205 266.1C62.6805 266.42 63.3005 266.58 63.9805 266.58C64.6605 266.58 65.2805 266.42 65.8405 266.1C66.4139 265.767 66.8672 265.293 67.2005 264.68C67.5339 264.053 67.7005 263.327 67.7005 262.5ZM81.6162 262.1C81.6162 262.447 81.5962 262.813 81.5562 263.2H72.7962C72.8628 264.28 73.2295 265.127 73.8962 265.74C74.5762 266.34 75.3962 266.64 76.3562 266.64C77.1428 266.64 77.7962 266.46 78.3162 266.1C78.8495 265.727 79.2228 265.233 79.4362 264.62H81.3962C81.1028 265.673 80.5162 266.533 79.6362 267.2C78.7562 267.853 77.6628 268.18 76.3562 268.18C75.3162 268.18 74.3828 267.947 73.5562 267.48C72.7428 267.013 72.1028 266.353 71.6362 265.5C71.1695 264.633 70.9362 263.633 70.9362 262.5C70.9362 261.367 71.1628 260.373 71.6162 259.52C72.0695 258.667 72.7028 258.013 73.5162 257.56C74.3428 257.093 75.2895 256.86 76.3562 256.86C77.3962 256.86 78.3162 257.087 79.1162 257.54C79.9162 257.993 80.5295 258.62 80.9562 259.42C81.3962 260.207 81.6162 261.1 81.6162 262.1ZM79.7362 261.72C79.7362 261.027 79.5828 260.433 79.2762 259.94C78.9695 259.433 78.5495 259.053 78.0162 258.8C77.4962 258.533 76.9162 258.4 76.2762 258.4C75.3562 258.4 74.5695 258.693 73.9162 259.28C73.2762 259.867 72.9095 260.68 72.8162 261.72H79.7362ZM88.3585 256.84C89.6918 256.84 90.7718 257.247 91.5985 258.06C92.4252 258.86 92.8385 260.02 92.8385 261.54V268H91.0385V261.8C91.0385 260.707 90.7652 259.873 90.2185 259.3C89.6718 258.713 88.9252 258.42 87.9785 258.42C87.0185 258.42 86.2518 258.72 85.6785 259.32C85.1185 259.92 84.8385 260.793 84.8385 261.94V268H83.0185V257.04H84.8385V258.6C85.1985 258.04 85.6852 257.607 86.2985 257.3C86.9252 256.993 87.6118 256.84 88.3585 256.84ZM94.1315 262.48C94.1315 261.36 94.3582 260.38 94.8115 259.54C95.2648 258.687 95.8848 258.027 96.6715 257.56C97.4715 257.093 98.3648 256.86 99.3515 256.86C100.205 256.86 100.998 257.06 101.731 257.46C102.465 257.847 103.025 258.36 103.411 259V253.2H105.251V268H103.411V265.94C103.051 266.593 102.518 267.133 101.811 267.56C101.105 267.973 100.278 268.18 99.3315 268.18C98.3582 268.18 97.4715 267.94 96.6715 267.46C95.8848 266.98 95.2648 266.307 94.8115 265.44C94.3582 264.573 94.1315 263.587 94.1315 262.48ZM103.411 262.5C103.411 261.673 103.245 260.953 102.911 260.34C102.578 259.727 102.125 259.26 101.551 258.94C100.991 258.607 100.371 258.44 99.6915 258.44C99.0115 258.44 98.3915 258.6 97.8315 258.92C97.2715 259.24 96.8248 259.707 96.4915 260.32C96.1582 260.933 95.9915 261.653 95.9915 262.48C95.9915 263.32 96.1582 264.053 96.4915 264.68C96.8248 265.293 97.2715 265.767 97.8315 266.1C98.3915 266.42 99.0115 266.58 99.6915 266.58C100.371 266.58 100.991 266.42 101.551 266.1C102.125 265.767 102.578 265.293 102.911 264.68C103.245 264.053 103.411 263.327 103.411 262.5ZM106.647 262.48C106.647 261.36 106.874 260.38 107.327 259.54C107.78 258.687 108.4 258.027 109.187 257.56C109.987 257.093 110.874 256.86 111.847 256.86C112.807 256.86 113.64 257.067 114.347 257.48C115.054 257.893 115.58 258.413 115.927 259.04V257.04H117.767V268H115.927V265.96C115.567 266.6 115.027 267.133 114.307 267.56C113.6 267.973 112.774 268.18 111.827 268.18C110.854 268.18 109.974 267.94 109.187 267.46C108.4 266.98 107.78 266.307 107.327 265.44C106.874 264.573 106.647 263.587 106.647 262.48ZM115.927 262.5C115.927 261.673 115.76 260.953 115.427 260.34C115.094 259.727 114.64 259.26 114.067 258.94C113.507 258.607 112.887 258.44 112.207 258.44C111.527 258.44 110.907 258.6 110.347 258.92C109.787 259.24 109.34 259.707 109.007 260.32C108.674 260.933 108.507 261.653 108.507 262.48C108.507 263.32 108.674 264.053 109.007 264.68C109.34 265.293 109.787 265.767 110.347 266.1C110.907 266.42 111.527 266.58 112.207 266.58C112.887 266.58 113.507 266.42 114.067 266.1C114.64 265.767 115.094 265.293 115.427 264.68C115.76 264.053 115.927 263.327 115.927 262.5ZM133.023 256.84C133.876 256.84 134.636 257.02 135.303 257.38C135.969 257.727 136.496 258.253 136.883 258.96C137.269 259.667 137.463 260.527 137.463 261.54V268H135.663V261.8C135.663 260.707 135.389 259.873 134.843 259.3C134.309 258.713 133.583 258.42 132.663 258.42C131.716 258.42 130.963 258.727 130.403 259.34C129.843 259.94 129.563 260.813 129.563 261.96V268H127.763V261.8C127.763 260.707 127.489 259.873 126.943 259.3C126.409 258.713 125.683 258.42 124.763 258.42C123.816 258.42 123.063 258.727 122.503 259.34C121.943 259.94 121.663 260.813 121.663 261.96V268H119.843V257.04H121.663V258.62C122.023 258.047 122.503 257.607 123.103 257.3C123.716 256.993 124.389 256.84 125.123 256.84C126.043 256.84 126.856 257.047 127.563 257.46C128.269 257.873 128.796 258.48 129.143 259.28C129.449 258.507 129.956 257.907 130.663 257.48C131.369 257.053 132.156 256.84 133.023 256.84ZM149.448 262.1C149.448 262.447 149.428 262.813 149.388 263.2H140.628C140.695 264.28 141.062 265.127 141.728 265.74C142.408 266.34 143.228 266.64 144.188 266.64C144.975 266.64 145.628 266.46 146.148 266.1C146.682 265.727 147.055 265.233 147.268 264.62H149.228C148.935 265.673 148.348 266.533 147.468 267.2C146.588 267.853 145.495 268.18 144.188 268.18C143.148 268.18 142.215 267.947 141.388 267.48C140.575 267.013 139.935 266.353 139.468 265.5C139.002 264.633 138.768 263.633 138.768 262.5C138.768 261.367 138.995 260.373 139.448 259.52C139.902 258.667 140.535 258.013 141.348 257.56C142.175 257.093 143.122 256.86 144.188 256.86C145.228 256.86 146.148 257.087 146.948 257.54C147.748 257.993 148.362 258.62 148.788 259.42C149.228 260.207 149.448 261.1 149.448 262.1ZM147.568 261.72C147.568 261.027 147.415 260.433 147.108 259.94C146.802 259.433 146.382 259.053 145.848 258.8C145.328 258.533 144.748 258.4 144.108 258.4C143.188 258.4 142.402 258.693 141.748 259.28C141.108 259.867 140.742 260.68 140.648 261.72H147.568ZM156.191 256.84C157.524 256.84 158.604 257.247 159.431 258.06C160.257 258.86 160.671 260.02 160.671 261.54V268H158.871V261.8C158.871 260.707 158.597 259.873 158.051 259.3C157.504 258.713 156.757 258.42 155.811 258.42C154.851 258.42 154.084 258.72 153.511 259.32C152.951 259.92 152.671 260.793 152.671 261.94V268H150.851V257.04H152.671V258.6C153.031 258.04 153.517 257.607 154.131 257.3C154.757 256.993 155.444 256.84 156.191 256.84ZM164.864 258.54V265C164.864 265.533 164.977 265.913 165.204 266.14C165.43 266.353 165.824 266.46 166.384 266.46H167.724V268H166.084C165.07 268 164.31 267.767 163.804 267.3C163.297 266.833 163.044 266.067 163.044 265V258.54H161.624V257.04H163.044V254.28H164.864V257.04H167.724V258.54H164.864ZM173.709 268.18C172.682 268.18 171.749 267.947 170.909 267.48C170.082 267.013 169.429 266.353 168.949 265.5C168.482 264.633 168.249 263.633 168.249 262.5C168.249 261.38 168.489 260.393 168.969 259.54C169.462 258.673 170.129 258.013 170.969 257.56C171.809 257.093 172.749 256.86 173.789 256.86C174.829 256.86 175.769 257.093 176.609 257.56C177.449 258.013 178.109 258.667 178.589 259.52C179.082 260.373 179.329 261.367 179.329 262.5C179.329 263.633 179.075 264.633 178.569 265.5C178.075 266.353 177.402 267.013 176.549 267.48C175.695 267.947 174.749 268.18 173.709 268.18ZM173.709 266.58C174.362 266.58 174.975 266.427 175.549 266.12C176.122 265.813 176.582 265.353 176.929 264.74C177.289 264.127 177.469 263.38 177.469 262.5C177.469 261.62 177.295 260.873 176.949 260.26C176.602 259.647 176.149 259.193 175.589 258.9C175.029 258.593 174.422 258.44 173.769 258.44C173.102 258.44 172.489 258.593 171.929 258.9C171.382 259.193 170.942 259.647 170.609 260.26C170.275 260.873 170.109 261.62 170.109 262.5C170.109 263.393 170.269 264.147 170.589 264.76C170.922 265.373 171.362 265.833 171.909 266.14C172.455 266.433 173.055 266.58 173.709 266.58ZM186.874 259.06C187.234 258.433 187.767 257.913 188.474 257.5C189.194 257.073 190.027 256.86 190.974 256.86C191.947 256.86 192.827 257.093 193.614 257.56C194.414 258.027 195.04 258.687 195.494 259.54C195.947 260.38 196.174 261.36 196.174 262.48C196.174 263.587 195.947 264.573 195.494 265.44C195.04 266.307 194.414 266.98 193.614 267.46C192.827 267.94 191.947 268.18 190.974 268.18C190.04 268.18 189.214 267.973 188.494 267.56C187.787 267.133 187.247 266.607 186.874 265.98V273.2H185.054V257.04H186.874V259.06ZM194.314 262.48C194.314 261.653 194.147 260.933 193.814 260.32C193.48 259.707 193.027 259.24 192.454 258.92C191.894 258.6 191.274 258.44 190.594 258.44C189.927 258.44 189.307 258.607 188.734 258.94C188.174 259.26 187.72 259.733 187.374 260.36C187.04 260.973 186.874 261.687 186.874 262.5C186.874 263.327 187.04 264.053 187.374 264.68C187.72 265.293 188.174 265.767 188.734 266.1C189.307 266.42 189.927 266.58 190.594 266.58C191.274 266.58 191.894 266.42 192.454 266.1C193.027 265.767 193.48 265.293 193.814 264.68C194.147 264.053 194.314 263.32 194.314 262.48ZM196.889 262.48C196.889 261.36 197.116 260.38 197.569 259.54C198.023 258.687 198.643 258.027 199.429 257.56C200.229 257.093 201.116 256.86 202.089 256.86C203.049 256.86 203.883 257.067 204.589 257.48C205.296 257.893 205.823 258.413 206.169 259.04V257.04H208.009V268H206.169V265.96C205.809 266.6 205.269 267.133 204.549 267.56C203.843 267.973 203.016 268.18 202.069 268.18C201.096 268.18 200.216 267.94 199.429 267.46C198.643 266.98 198.023 266.307 197.569 265.44C197.116 264.573 196.889 263.587 196.889 262.48ZM206.169 262.5C206.169 261.673 206.003 260.953 205.669 260.34C205.336 259.727 204.883 259.26 204.309 258.94C203.749 258.607 203.129 258.44 202.449 258.44C201.769 258.44 201.149 258.6 200.589 258.92C200.029 259.24 199.583 259.707 199.249 260.32C198.916 260.933 198.749 261.653 198.749 262.48C198.749 263.32 198.916 264.053 199.249 264.68C199.583 265.293 200.029 265.767 200.589 266.1C201.149 266.42 201.769 266.58 202.449 266.58C203.129 266.58 203.749 266.42 204.309 266.1C204.883 265.767 205.336 265.293 205.669 264.68C206.003 264.053 206.169 263.327 206.169 262.5ZM211.905 258.82C212.225 258.193 212.678 257.707 213.265 257.36C213.865 257.013 214.592 256.84 215.445 256.84V258.72H214.965C212.925 258.72 211.905 259.827 211.905 262.04V268H210.085V257.04H211.905V258.82ZM215.866 262.48C215.866 261.36 216.093 260.38 216.546 259.54C216.999 258.687 217.619 258.027 218.406 257.56C219.206 257.093 220.093 256.86 221.066 256.86C222.026 256.86 222.859 257.067 223.566 257.48C224.273 257.893 224.799 258.413 225.146 259.04V257.04H226.986V268H225.146V265.96C224.786 266.6 224.246 267.133 223.526 267.56C222.819 267.973 221.993 268.18 221.046 268.18C220.073 268.18 219.193 267.94 218.406 267.46C217.619 266.98 216.999 266.307 216.546 265.44C216.093 264.573 215.866 263.587 215.866 262.48ZM225.146 262.5C225.146 261.673 224.979 260.953 224.646 260.34C224.313 259.727 223.859 259.26 223.286 258.94C222.726 258.607 222.106 258.44 221.426 258.44C220.746 258.44 220.126 258.6 219.566 258.92C219.006 259.24 218.559 259.707 218.226 260.32C217.893 260.933 217.726 261.653 217.726 262.48C217.726 263.32 217.893 264.053 218.226 264.68C218.559 265.293 219.006 265.767 219.566 266.1C220.126 266.42 220.746 266.58 221.426 266.58C222.106 266.58 222.726 266.42 223.286 266.1C223.859 265.767 224.313 265.293 224.646 264.68C224.979 264.053 225.146 263.327 225.146 262.5ZM238.734 256.84C240.067 256.84 241.147 257.247 241.974 258.06C242.8 258.86 243.214 260.02 243.214 261.54V268H241.414V261.8C241.414 260.707 241.14 259.873 240.594 259.3C240.047 258.713 239.3 258.42 238.354 258.42C237.394 258.42 236.627 258.72 236.054 259.32C235.494 259.92 235.214 260.793 235.214 261.94V268H233.394V257.04H235.214V258.6C235.574 258.04 236.06 257.607 236.674 257.3C237.3 256.993 237.987 256.84 238.734 256.84ZM244.506 262.48C244.506 261.36 244.733 260.38 245.186 259.54C245.64 258.687 246.26 258.027 247.046 257.56C247.846 257.093 248.733 256.86 249.706 256.86C250.666 256.86 251.5 257.067 252.206 257.48C252.913 257.893 253.44 258.413 253.786 259.04V257.04H255.626V268H253.786V265.96C253.426 266.6 252.886 267.133 252.166 267.56C251.46 267.973 250.633 268.18 249.686 268.18C248.713 268.18 247.833 267.94 247.046 267.46C246.26 266.98 245.64 266.307 245.186 265.44C244.733 264.573 244.506 263.587 244.506 262.48ZM253.786 262.5C253.786 261.673 253.62 260.953 253.286 260.34C252.953 259.727 252.5 259.26 251.926 258.94C251.366 258.607 250.746 258.44 250.066 258.44C249.386 258.44 248.766 258.6 248.206 258.92C247.646 259.24 247.2 259.707 246.866 260.32C246.533 260.933 246.366 261.653 246.366 262.48C246.366 263.32 246.533 264.053 246.866 264.68C247.2 265.293 247.646 265.767 248.206 266.1C248.766 266.42 249.386 266.58 250.066 266.58C250.746 266.58 251.366 266.42 251.926 266.1C252.5 265.767 252.953 265.293 253.286 264.68C253.62 264.053 253.786 263.327 253.786 262.5ZM247.486 255.86C247.58 255.18 247.8 254.66 248.146 254.3C248.506 253.94 248.953 253.76 249.486 253.76C249.74 253.76 249.953 253.807 250.126 253.9C250.313 253.98 250.533 254.1 250.786 254.26C250.973 254.393 251.14 254.5 251.286 254.58C251.433 254.647 251.593 254.68 251.766 254.68C251.993 254.68 252.186 254.607 252.346 254.46C252.506 254.313 252.606 254.1 252.646 253.82H253.686C253.606 254.487 253.386 255 253.026 255.36C252.666 255.72 252.22 255.9 251.686 255.9C251.433 255.9 251.206 255.86 251.006 255.78C250.82 255.687 250.606 255.553 250.366 255.38C250.153 255.247 249.98 255.147 249.846 255.08C249.726 255.013 249.58 254.98 249.406 254.98C249.18 254.98 248.986 255.053 248.826 255.2C248.68 255.347 248.586 255.567 248.546 255.86H247.486ZM262.482 268.18C261.455 268.18 260.522 267.947 259.682 267.48C258.855 267.013 258.202 266.353 257.722 265.5C257.255 264.633 257.022 263.633 257.022 262.5C257.022 261.38 257.262 260.393 257.742 259.54C258.235 258.673 258.902 258.013 259.742 257.56C260.582 257.093 261.522 256.86 262.562 256.86C263.602 256.86 264.542 257.093 265.382 257.56C266.222 258.013 266.882 258.667 267.362 259.52C267.855 260.373 268.102 261.367 268.102 262.5C268.102 263.633 267.849 264.633 267.342 265.5C266.849 266.353 266.175 267.013 265.322 267.48C264.469 267.947 263.522 268.18 262.482 268.18ZM262.482 266.58C263.135 266.58 263.749 266.427 264.322 266.12C264.895 265.813 265.355 265.353 265.702 264.74C266.062 264.127 266.242 263.38 266.242 262.5C266.242 261.62 266.069 260.873 265.722 260.26C265.375 259.647 264.922 259.193 264.362 258.9C263.802 258.593 263.195 258.44 262.542 258.44C261.875 258.44 261.262 258.593 260.702 258.9C260.155 259.193 259.715 259.647 259.382 260.26C259.049 260.873 258.882 261.62 258.882 262.5C258.882 263.393 259.042 264.147 259.362 264.76C259.695 265.373 260.135 265.833 260.682 266.14C261.229 266.433 261.829 266.58 262.482 266.58ZM74.358 277.06C74.718 276.433 75.2514 275.913 75.958 275.5C76.678 275.073 77.5114 274.86 78.458 274.86C79.4314 274.86 80.3114 275.093 81.098 275.56C81.898 276.027 82.5247 276.687 82.978 277.54C83.4314 278.38 83.658 279.36 83.658 280.48C83.658 281.587 83.4314 282.573 82.978 283.44C82.5247 284.307 81.898 284.98 81.098 285.46C80.3114 285.94 79.4314 286.18 78.458 286.18C77.5247 286.18 76.698 285.973 75.978 285.56C75.2714 285.133 74.7314 284.607 74.358 283.98V291.2H72.538V275.04H74.358V277.06ZM81.798 280.48C81.798 279.653 81.6314 278.933 81.298 278.32C80.9647 277.707 80.5114 277.24 79.938 276.92C79.378 276.6 78.758 276.44 78.078 276.44C77.4114 276.44 76.7914 276.607 76.218 276.94C75.658 277.26 75.2047 277.733 74.858 278.36C74.5247 278.973 74.358 279.687 74.358 280.5C74.358 281.327 74.5247 282.053 74.858 282.68C75.2047 283.293 75.658 283.767 76.218 284.1C76.7914 284.42 77.4114 284.58 78.078 284.58C78.758 284.58 79.378 284.42 79.938 284.1C80.5114 283.767 80.9647 283.293 81.298 282.68C81.6314 282.053 81.798 281.32 81.798 280.48ZM95.0537 280.1C95.0537 280.447 95.0337 280.813 94.9937 281.2H86.2337C86.3003 282.28 86.667 283.127 87.3337 283.74C88.0137 284.34 88.8337 284.64 89.7937 284.64C90.5803 284.64 91.2337 284.46 91.7537 284.1C92.287 283.727 92.6603 283.233 92.8737 282.62H94.8337C94.5403 283.673 93.9537 284.533 93.0737 285.2C92.1937 285.853 91.1003 286.18 89.7937 286.18C88.7537 286.18 87.8203 285.947 86.9937 285.48C86.1803 285.013 85.5403 284.353 85.0737 283.5C84.607 282.633 84.3737 281.633 84.3737 280.5C84.3737 279.367 84.6003 278.373 85.0537 277.52C85.507 276.667 86.1403 276.013 86.9537 275.56C87.7803 275.093 88.727 274.86 89.7937 274.86C90.8337 274.86 91.7537 275.087 92.5537 275.54C93.3537 275.993 93.967 276.62 94.3937 277.42C94.8337 278.207 95.0537 279.1 95.0537 280.1ZM93.1737 279.72C93.1737 279.027 93.0203 278.433 92.7137 277.94C92.407 277.433 91.987 277.053 91.4537 276.8C90.9337 276.533 90.3537 276.4 89.7137 276.4C88.7937 276.4 88.007 276.693 87.3537 277.28C86.7137 277.867 86.347 278.68 86.2537 279.72H93.1737ZM98.276 276.82C98.596 276.193 99.0493 275.707 99.636 275.36C100.236 275.013 100.963 274.84 101.816 274.84V276.72H101.336C99.296 276.72 98.276 277.827 98.276 280.04V286H96.456V275.04H98.276V276.82ZM102.237 280.48C102.237 279.36 102.464 278.38 102.917 277.54C103.37 276.687 103.99 276.027 104.777 275.56C105.577 275.093 106.47 274.86 107.457 274.86C108.31 274.86 109.104 275.06 109.837 275.46C110.57 275.847 111.13 276.36 111.517 277V271.2H113.357V286H111.517V283.94C111.157 284.593 110.624 285.133 109.917 285.56C109.21 285.973 108.384 286.18 107.437 286.18C106.464 286.18 105.577 285.94 104.777 285.46C103.99 284.98 103.37 284.307 102.917 283.44C102.464 282.573 102.237 281.587 102.237 280.48ZM111.517 280.5C111.517 279.673 111.35 278.953 111.017 278.34C110.684 277.727 110.23 277.26 109.657 276.94C109.097 276.607 108.477 276.44 107.797 276.44C107.117 276.44 106.497 276.6 105.937 276.92C105.377 277.24 104.93 277.707 104.597 278.32C104.264 278.933 104.097 279.653 104.097 280.48C104.097 281.32 104.264 282.053 104.597 282.68C104.93 283.293 105.377 283.767 105.937 284.1C106.497 284.42 107.117 284.58 107.797 284.58C108.477 284.58 109.097 284.42 109.657 284.1C110.23 283.767 110.684 283.293 111.017 282.68C111.35 282.053 111.517 281.327 111.517 280.5ZM125.433 280.1C125.433 280.447 125.413 280.813 125.373 281.2H116.613C116.679 282.28 117.046 283.127 117.713 283.74C118.393 284.34 119.213 284.64 120.173 284.64C120.959 284.64 121.613 284.46 122.133 284.1C122.666 283.727 123.039 283.233 123.253 282.62H125.213C124.919 283.673 124.333 284.533 123.453 285.2C122.573 285.853 121.479 286.18 120.173 286.18C119.133 286.18 118.199 285.947 117.373 285.48C116.559 285.013 115.919 284.353 115.453 283.5C114.986 282.633 114.753 281.633 114.753 280.5C114.753 279.367 114.979 278.373 115.433 277.52C115.886 276.667 116.519 276.013 117.333 275.56C118.159 275.093 119.106 274.86 120.173 274.86C121.213 274.86 122.133 275.087 122.933 275.54C123.733 275.993 124.346 276.62 124.773 277.42C125.213 278.207 125.433 279.1 125.433 280.1ZM123.553 279.72C123.553 279.027 123.399 278.433 123.093 277.94C122.786 277.433 122.366 277.053 121.833 276.8C121.313 276.533 120.733 276.4 120.093 276.4C119.173 276.4 118.386 276.693 117.733 277.28C117.093 277.867 116.726 278.68 116.633 279.72H123.553ZM128.655 276.82C128.975 276.193 129.428 275.707 130.015 275.36C130.615 275.013 131.342 274.84 132.195 274.84V276.72H131.715C129.675 276.72 128.655 277.827 128.655 280.04V286H126.835V275.04H128.655V276.82ZM141.508 286.18C140.668 286.18 139.915 286.04 139.248 285.76C138.581 285.467 138.055 285.067 137.668 284.56C137.281 284.04 137.068 283.447 137.028 282.78H138.908C138.961 283.327 139.215 283.773 139.668 284.12C140.135 284.467 140.741 284.64 141.488 284.64C142.181 284.64 142.728 284.487 143.128 284.18C143.528 283.873 143.728 283.487 143.728 283.02C143.728 282.54 143.515 282.187 143.088 281.96C142.661 281.72 142.001 281.487 141.108 281.26C140.295 281.047 139.628 280.833 139.108 280.62C138.601 280.393 138.161 280.067 137.788 279.64C137.428 279.2 137.248 278.627 137.248 277.92C137.248 277.36 137.415 276.847 137.748 276.38C138.081 275.913 138.555 275.547 139.168 275.28C139.781 275 140.481 274.86 141.268 274.86C142.481 274.86 143.461 275.167 144.208 275.78C144.955 276.393 145.355 277.233 145.408 278.3H143.588C143.548 277.727 143.315 277.267 142.888 276.92C142.475 276.573 141.915 276.4 141.208 276.4C140.555 276.4 140.035 276.54 139.648 276.82C139.261 277.1 139.068 277.467 139.068 277.92C139.068 278.28 139.181 278.58 139.408 278.82C139.648 279.047 139.941 279.233 140.288 279.38C140.648 279.513 141.141 279.667 141.768 279.84C142.555 280.053 143.195 280.267 143.688 280.48C144.181 280.68 144.601 280.987 144.948 281.4C145.308 281.813 145.495 282.353 145.508 283.02C145.508 283.62 145.341 284.16 145.008 284.64C144.675 285.12 144.201 285.5 143.588 285.78C142.988 286.047 142.295 286.18 141.508 286.18ZM157.077 280.1C157.077 280.447 157.057 280.813 157.017 281.2H148.257C148.324 282.28 148.69 283.127 149.357 283.74C150.037 284.34 150.857 284.64 151.817 284.64C152.604 284.64 153.257 284.46 153.777 284.1C154.31 283.727 154.684 283.233 154.897 282.62H156.857C156.564 283.673 155.977 284.533 155.097 285.2C154.217 285.853 153.124 286.18 151.817 286.18C150.777 286.18 149.844 285.947 149.017 285.48C148.204 285.013 147.564 284.353 147.097 283.5C146.63 282.633 146.397 281.633 146.397 280.5C146.397 279.367 146.624 278.373 147.077 277.52C147.53 276.667 148.164 276.013 148.977 275.56C149.804 275.093 150.75 274.86 151.817 274.86C152.857 274.86 153.777 275.087 154.577 275.54C155.377 275.993 155.99 276.62 156.417 277.42C156.857 278.207 157.077 279.1 157.077 280.1ZM155.197 279.72C155.197 279.027 155.044 278.433 154.737 277.94C154.43 277.433 154.01 277.053 153.477 276.8C152.957 276.533 152.377 276.4 151.737 276.4C150.817 276.4 150.03 276.693 149.377 277.28C148.737 277.867 148.37 278.68 148.277 279.72H155.197ZM168.199 275.04V286H166.379V284.38C166.033 284.94 165.546 285.38 164.919 285.7C164.306 286.007 163.626 286.16 162.879 286.16C162.026 286.16 161.259 285.987 160.579 285.64C159.899 285.28 159.359 284.747 158.959 284.04C158.573 283.333 158.379 282.473 158.379 281.46V275.04H160.179V281.22C160.179 282.3 160.453 283.133 160.999 283.72C161.546 284.293 162.293 284.58 163.239 284.58C164.213 284.58 164.979 284.28 165.539 283.68C166.099 283.08 166.379 282.207 166.379 281.06V275.04H168.199ZM180.044 274.84C180.871 274.84 181.618 275.02 182.284 275.38C182.951 275.727 183.471 276.253 183.844 276.96C184.231 277.667 184.424 278.527 184.424 279.54V286H182.624V279.8C182.624 278.707 182.351 277.873 181.804 277.3C181.258 276.713 180.511 276.42 179.564 276.42C178.604 276.42 177.838 276.72 177.264 277.32C176.704 277.92 176.424 278.793 176.424 279.94V286H174.604V271.2H176.424V276.6C176.784 276.04 177.278 275.607 177.904 275.3C178.544 274.993 179.258 274.84 180.044 274.84ZM191.177 286.18C190.151 286.18 189.217 285.947 188.377 285.48C187.551 285.013 186.897 284.353 186.417 283.5C185.951 282.633 185.717 281.633 185.717 280.5C185.717 279.38 185.957 278.393 186.437 277.54C186.931 276.673 187.597 276.013 188.437 275.56C189.277 275.093 190.217 274.86 191.257 274.86C192.297 274.86 193.237 275.093 194.077 275.56C194.917 276.013 195.577 276.667 196.057 277.52C196.551 278.373 196.797 279.367 196.797 280.5C196.797 281.633 196.544 282.633 196.037 283.5C195.544 284.353 194.871 285.013 194.017 285.48C193.164 285.947 192.217 286.18 191.177 286.18ZM191.177 284.58C191.831 284.58 192.444 284.427 193.017 284.12C193.591 283.813 194.051 283.353 194.397 282.74C194.757 282.127 194.937 281.38 194.937 280.5C194.937 279.62 194.764 278.873 194.417 278.26C194.071 277.647 193.617 277.193 193.057 276.9C192.497 276.593 191.891 276.44 191.237 276.44C190.571 276.44 189.957 276.593 189.397 276.9C188.851 277.193 188.411 277.647 188.077 278.26C187.744 278.873 187.577 279.62 187.577 280.5C187.577 281.393 187.737 282.147 188.057 282.76C188.391 283.373 188.831 283.833 189.377 284.14C189.924 284.433 190.524 284.58 191.177 284.58ZM200.01 276.82C200.33 276.193 200.784 275.707 201.37 275.36C201.97 275.013 202.697 274.84 203.55 274.84V276.72H203.07C201.03 276.72 200.01 277.827 200.01 280.04V286H198.19V275.04H200.01V276.82ZM203.971 280.48C203.971 279.36 204.198 278.38 204.651 277.54C205.105 276.687 205.725 276.027 206.511 275.56C207.311 275.093 208.198 274.86 209.171 274.86C210.131 274.86 210.965 275.067 211.671 275.48C212.378 275.893 212.905 276.413 213.251 277.04V275.04H215.091V286H213.251V283.96C212.891 284.6 212.351 285.133 211.631 285.56C210.925 285.973 210.098 286.18 209.151 286.18C208.178 286.18 207.298 285.94 206.511 285.46C205.725 284.98 205.105 284.307 204.651 283.44C204.198 282.573 203.971 281.587 203.971 280.48ZM213.251 280.5C213.251 279.673 213.085 278.953 212.751 278.34C212.418 277.727 211.965 277.26 211.391 276.94C210.831 276.607 210.211 276.44 209.531 276.44C208.851 276.44 208.231 276.6 207.671 276.92C207.111 277.24 206.665 277.707 206.331 278.32C205.998 278.933 205.831 279.653 205.831 280.48C205.831 281.32 205.998 282.053 206.331 282.68C206.665 283.293 207.111 283.767 207.671 284.1C208.231 284.42 208.851 284.58 209.531 284.58C210.211 284.58 210.831 284.42 211.391 284.1C211.965 283.767 212.418 283.293 212.751 282.68C213.085 282.053 213.251 281.327 213.251 280.5ZM211.831 271.94L207.571 274.22V272.86L211.831 270.36V271.94ZM218.987 276.82C219.307 276.193 219.76 275.707 220.347 275.36C220.947 275.013 221.674 274.84 222.527 274.84V276.72H222.047C220.007 276.72 218.987 277.827 218.987 280.04V286H217.167V275.04H218.987V276.82ZM224.568 273.26C224.221 273.26 223.928 273.14 223.688 272.9C223.448 272.66 223.328 272.367 223.328 272.02C223.328 271.673 223.448 271.38 223.688 271.14C223.928 270.9 224.221 270.78 224.568 270.78C224.901 270.78 225.181 270.9 225.408 271.14C225.648 271.38 225.768 271.673 225.768 272.02C225.768 272.367 225.648 272.66 225.408 272.9C225.181 273.14 224.901 273.26 224.568 273.26ZM225.448 275.04V286H223.628V275.04H225.448ZM232.33 286.18C231.303 286.18 230.37 285.947 229.53 285.48C228.703 285.013 228.05 284.353 227.57 283.5C227.103 282.633 226.87 281.633 226.87 280.5C226.87 279.38 227.11 278.393 227.59 277.54C228.083 276.673 228.75 276.013 229.59 275.56C230.43 275.093 231.37 274.86 232.41 274.86C233.45 274.86 234.39 275.093 235.23 275.56C236.07 276.013 236.73 276.667 237.21 277.52C237.703 278.373 237.95 279.367 237.95 280.5C237.95 281.633 237.696 282.633 237.19 283.5C236.696 284.353 236.023 285.013 235.17 285.48C234.316 285.947 233.37 286.18 232.33 286.18ZM232.33 284.58C232.983 284.58 233.596 284.427 234.17 284.12C234.743 283.813 235.203 283.353 235.55 282.74C235.91 282.127 236.09 281.38 236.09 280.5C236.09 279.62 235.916 278.873 235.57 278.26C235.223 277.647 234.77 277.193 234.21 276.9C233.65 276.593 233.043 276.44 232.39 276.44C231.723 276.44 231.11 276.593 230.55 276.9C230.003 277.193 229.563 277.647 229.23 278.26C228.896 278.873 228.73 279.62 228.73 280.5C228.73 281.393 228.89 282.147 229.21 282.76C229.543 283.373 229.983 283.833 230.53 284.14C231.076 284.433 231.676 284.58 232.33 284.58ZM239.923 286.12C239.576 286.12 239.283 286 239.043 285.76C238.803 285.52 238.683 285.227 238.683 284.88C238.683 284.533 238.803 284.24 239.043 284C239.283 283.76 239.576 283.64 239.923 283.64C240.256 283.64 240.536 283.76 240.763 284C241.003 284.24 241.123 284.533 241.123 284.88C241.123 285.227 241.003 285.52 240.763 285.76C240.536 286 240.256 286.12 239.923 286.12Z" fill="#472969"/>
<path d="M150.573 8.22182C148.759 8.81264 146.628 10.6062 145.805 12.2099C145.108 13.5815 144.771 15.3328 144.771 17.5906V19.7429L143.884 19.975C137.617 21.642 131.203 25.4824 127.004 30.1246C121.771 35.8851 118.732 42.7218 117.994 50.4448C117.846 51.8374 117.761 58.8851 117.761 68.1695V83.5943L112.381 88.975L107 94.3558V97.1411V99.9475H153H199V97.1411V94.3558L193.619 88.975L188.239 83.5943V68.1695C188.239 51.9851 188.154 49.7484 187.289 45.9292C184.525 33.4585 174.671 23.2879 162.137 19.975L161.229 19.7429V17.5906C161.229 15.3117 160.892 13.5815 160.174 12.1677C159.583 11.0071 157.874 9.40347 156.461 8.68604C155.427 8.15852 154.962 8.05301 153.338 8.01081C152.156 7.96861 151.08 8.05301 150.573 8.22182Z" fill="#472969"/>
<path d="M142.133 106.109C142.682 110.477 145.214 113.811 149.16 115.393C150.193 115.794 150.742 115.879 153 115.879C155.258 115.879 155.806 115.794 156.84 115.393C160.786 113.811 163.318 110.477 163.867 106.109L164.015 105.012H153H141.985L142.133 106.109Z" fill="#472969"/>
</svg>
