<svg width="22" height="20" viewBox="0 0 22 20" fill="none" xmlns="http://www.w3.org/2000/svg">
<path d="M10.3318 0.0684929C12.9267 0.450745 15.189 1.85104 16.5767 3.93002C18.0507 6.14162 18.3792 8.8759 17.4636 11.3839C17.2706 11.9183 16.8559 12.7179 16.5275 13.1977L16.2606 13.5838L18.5311 15.7486C20.6374 17.7574 20.8057 17.9329 20.9125 18.1631C21.0192 18.3854 21.0275 18.4439 21.011 18.7481C20.9987 18.9939 20.97 19.1265 20.9002 19.2513C20.7688 19.4971 20.5389 19.7194 20.3048 19.8364C20.1201 19.93 20.0503 19.9417 19.6848 19.9417C19.3317 19.9417 19.2455 19.93 19.069 19.8442C18.913 19.7701 18.334 19.2513 16.585 17.5936L14.3062 15.4405L13.9121 15.6862C11.9823 16.8837 9.55578 17.3323 7.26473 16.9149C5.47869 16.5873 3.89795 15.7837 2.58819 14.5434C1.19632 13.2211 0.321779 11.5322 0.0590057 9.6482C-0.0395336 8.95391 -0.0107937 7.65503 0.116488 7.01144C0.461376 5.27961 1.24559 3.82471 2.49787 2.59214C3.83636 1.27766 5.45406 0.454645 7.3879 0.103598C8.07358 -0.0173187 9.61736 -0.0368214 10.3318 0.0684929ZM7.69584 0.708181C6.90752 0.825197 6.12741 1.06313 5.35962 1.41028C4.48508 1.80423 3.79531 2.27229 3.09732 2.93538C1.84504 4.12115 1.06083 5.58385 0.75289 7.30398C0.662561 7.80325 0.650244 9.09823 0.732361 9.6053C0.966393 11.0875 1.61101 12.48 2.55945 13.5604C3.89795 15.0816 5.71273 16.049 7.80259 16.3571C8.38972 16.4429 9.52704 16.4429 10.1388 16.3571C13.8587 15.8344 16.6712 13.1587 17.2255 9.6248C17.3158 9.03972 17.3158 7.96317 17.2255 7.4054C16.8518 5.11968 15.5626 3.18892 13.5631 1.91735C12.59 1.30106 11.2597 0.829098 10.1183 0.69648C9.91298 0.673077 9.70359 0.645773 9.64611 0.637972C9.44081 0.602865 8.05305 0.653574 7.69584 0.708181ZM17.0859 17.1411C18.2889 18.284 19.3317 19.2474 19.4057 19.2786C19.9312 19.5166 20.5265 18.9783 20.3171 18.4517C20.2966 18.3932 19.2825 17.3986 18.0713 16.2479L15.8664 14.1494L15.386 14.6058L14.9016 15.066L17.0859 17.1411Z" fill="white"/>
<path d="M9.5434 0.989005C11.6004 1.18013 13.251 1.89003 14.5977 3.1655C16.1086 4.6048 16.9216 6.47706 16.9175 8.52484C16.9175 10.5609 16.1497 12.3552 14.6593 13.814C13.1688 15.2689 11.1734 16.0607 9.00554 16.0646C6.15199 16.0685 3.60638 14.7072 2.14471 12.3942C1.63148 11.5829 1.24964 10.5531 1.10183 9.56628C1.03203 9.10992 1.03203 7.94366 1.10183 7.499C1.3646 5.79446 2.10775 4.37857 3.36003 3.18501C4.57946 2.02655 6.05756 1.31275 7.7779 1.05921C8.15153 1.00461 9.23957 0.961701 9.5434 0.989005ZM8.00372 1.6716C7.81075 1.695 7.44943 1.76131 7.19487 1.82372C4.35364 2.51411 2.23093 4.74132 1.77929 7.499C1.70128 7.97486 1.69307 8.9734 1.76287 9.42976C2.00511 11.0212 2.69078 12.3162 3.89379 13.4473C4.61641 14.1299 5.41294 14.6214 6.35318 14.9685C9.17388 16.01 12.4011 15.2689 14.4129 13.1197C15.6036 11.8481 16.2564 10.206 16.2564 8.50143C16.2523 7.08554 15.7802 5.69695 14.9015 4.50729C14.5813 4.07433 13.8217 3.33323 13.3577 3.00168C12.1999 2.17477 10.8367 1.7067 9.33811 1.61309C9.0507 1.59749 8.41841 1.62479 8.00372 1.6716Z" fill="white"/>
<path d="M9.98682 2.38928C10.8655 2.5258 11.6045 2.78323 12.3764 3.22009C12.8978 3.51653 13.604 4.07821 13.6656 4.24983C13.7149 4.38245 13.6533 4.57748 13.5466 4.63208C13.3741 4.7179 13.2345 4.67499 12.9841 4.46436C11.9535 3.59064 10.9106 3.13818 9.56392 2.98996C8.40607 2.86514 7.06757 3.14208 6.02059 3.72716C5.76192 3.87148 5.33081 4.17572 4.93255 4.49557C4.67798 4.70229 4.52607 4.7218 4.37005 4.57358C4.14833 4.36685 4.25919 4.17182 4.85864 3.71156C5.69212 3.07577 6.60772 2.66231 7.65471 2.44779C8.19257 2.33467 9.44074 2.30737 9.98682 2.38928Z" fill="white"/>
</svg>
