<svg width="51" height="57" viewBox="0 0 51 57" fill="none" xmlns="http://www.w3.org/2000/svg">
<path d="M47.6542 0.225216C49.1245 0.738117 50.2985 1.93489 50.7772 3.37101C50.9938 3.99789 51.028 4.29423 50.9824 5.17186C50.9254 6.19766 50.8912 6.30024 46.9589 17.151C44.782 23.169 42.9697 28.2068 42.9355 28.3436C42.9127 28.4918 44.5426 33.1535 46.902 39.6844C50.8912 50.6833 50.9254 50.7859 50.9824 51.8117C51.0394 52.9514 50.8798 53.6581 50.3669 54.5357C49.7856 55.5273 48.6572 56.4392 47.563 56.7811C46.6512 57.0547 45.2721 57.0547 44.4628 56.7697C44.1323 56.6557 38.1484 53.2934 31.1616 49.2928C24.1747 45.3035 14.7716 39.9238 10.2694 37.3365C4.51353 34.0539 1.88063 32.4924 1.45892 32.1049C1.0486 31.7173 0.71806 31.2728 0.433113 30.6801C0.0113945 29.8253 -3.8147e-06 29.7911 -3.8147e-06 28.4918C-3.8147e-06 27.1924 0.0113945 27.1582 0.433113 26.3034C0.71806 25.7107 1.0486 25.2662 1.45892 24.8787C1.89203 24.4911 4.61611 22.8726 10.6683 19.4191C15.3984 16.7064 24.8016 11.3267 31.5719 7.46282C38.3308 3.58757 44.1437 0.327797 44.4742 0.202419C45.2721 -0.0711288 46.845 -0.0711288 47.6542 0.225216Z" fill="white"/>
</svg>
