<svg width="51" height="57" viewBox="0 0 51 57" fill="none" xmlns="http://www.w3.org/2000/svg">
<path d="M3.34579 0.225216C1.87548 0.738117 0.701503 1.93489 0.222795 3.37101C0.00623678 3.99789 -0.0279566 4.29423 0.0176346 5.17186C0.0746236 6.19766 0.108817 6.30024 4.04106 17.151C6.21804 23.169 8.03029 28.2068 8.06448 28.3436C8.08728 28.4918 6.45739 33.1535 4.09805 39.6844C0.108817 50.6833 0.0746236 50.7859 0.0176346 51.8117C-0.0393544 52.9514 0.120215 53.6581 0.633116 54.5357C1.2144 55.5273 2.34279 56.4392 3.43697 56.7811C4.3488 57.0547 5.72793 57.0547 6.53718 56.7697C6.86771 56.6557 12.8516 53.2934 19.8384 49.2928C26.8253 45.3035 36.2284 39.9238 40.7306 37.3365C46.4865 34.0539 49.1194 32.4924 49.5411 32.1049C49.9514 31.7173 50.2819 31.2728 50.5669 30.6801C50.9886 29.8253 51 29.7911 51 28.4918C51 27.1924 50.9886 27.1582 50.5669 26.3034C50.2819 25.7107 49.9514 25.2662 49.5411 24.8787C49.108 24.4911 46.3839 22.8726 40.3317 19.4191C35.6016 16.7064 26.1984 11.3267 19.4281 7.46282C12.6692 3.58757 6.85632 0.327797 6.52578 0.202419C5.72793 -0.0711288 4.15504 -0.0711288 3.34579 0.225216Z" fill="white"/>
</svg>
