<svg width="134" height="23" viewBox="0 0 134 23" fill="none" xmlns="http://www.w3.org/2000/svg">
<path d="M114.403 18.1933V13.5854L110.643 13.4265C108.551 13.3206 82.8099 12.8704 53.4411 12.3937C24.0458 11.917 0 11.4668 0 11.3874C0 11.3079 24.0458 10.8577 53.4411 10.381C82.8099 9.90435 108.551 9.45415 110.616 9.34822L114.403 9.18933L114.456 4.6079L114.536 0L124.281 5.61423C129.63 8.71265 134 11.3079 134 11.3874C134 11.4933 116.442 21.7419 114.615 22.6953C114.483 22.7482 114.403 20.7356 114.403 18.1933Z" fill="url(#paint0_linear_1014_185)"/>
<defs>
<linearGradient id="paint0_linear_1014_185" x1="134" y1="11.3481" x2="0" y2="11.3481" gradientUnits="userSpaceOnUse">
<stop stop-color="white"/>
<stop offset="1" stop-color="white" stop-opacity="0"/>
</linearGradient>
</defs>
</svg>
