<svg width="164" height="29" viewBox="0 0 164 29" fill="none" xmlns="http://www.w3.org/2000/svg">
<g filter="url(#filter0_d_832_6)">
<path d="M9.97219 25.2416C3.17258 25.2416 1.27421 19.7191 3.34516 12.9195C5.41611 6.11985 10.697 0.597326 17.4966 0.597326C24.2272 0.597326 26.1256 6.11985 24.0546 12.9195C21.9837 19.7191 16.7028 25.2416 9.97219 25.2416ZM10.1793 24.5513C14.1831 24.5513 17.7728 19.4084 19.7402 12.9195C21.7076 6.4305 21.2934 1.28764 17.2895 1.28764C13.2167 1.28764 9.62703 6.4305 7.65963 12.9195C5.69223 19.4084 6.10642 24.5513 10.1793 24.5513ZM31.0654 7.70758C32.1699 7.70758 32.5841 8.32887 32.2389 9.43337L31.4106 12.1601C36.0012 5.22244 44.2159 5.84373 42.3521 13.1956L39.9705 21.0307C38.935 25.1035 44.0433 23.7229 45.493 18.9597H46.1833C43.4221 27.9684 34.1718 26.3806 35.9321 20.72L38.0376 13.7133C39.7634 8.12177 33.0328 6.91372 30.099 16.4401L28.5457 21.5139C28.2006 22.6529 27.8209 24.6548 30.2715 24.6548L30.1335 25H20.6761L20.8142 24.6548C23.2648 24.6548 24.0587 22.6529 24.4038 21.5139L27.6138 11.0556C27.959 9.91659 28.2351 8.05274 25.888 8.05274L25.9916 7.70758H31.0654ZM58.366 21.0307L60.0918 15.4046C61.4034 10.745 60.6096 8.08726 56.5022 8.05274C53.7064 8.08726 51.6355 11.1937 50.1168 16.0949C48.529 21.3068 48.7707 24.2752 51.8771 24.3097C54.8454 24.2752 57.6757 22.9636 58.366 21.0307ZM66.9605 0.838935C68.065 0.838935 68.5137 1.46022 68.1685 2.56473L62.6115 20.72C61.2654 25.1726 66.5808 23.8265 68.065 18.9597H68.7553C66.3047 27.0019 58.6422 26.5877 58.2625 22.3768C56.9164 23.9645 54.3277 24.9655 51.739 25H51.6355H51.5664C47.1484 24.931 44.1455 22.1697 45.9749 16.0949C47.7697 10.2618 52.6019 7.43146 56.7783 7.43146C59.8502 7.43146 61.1963 8.8466 61.3689 11.2627L63.4744 4.32503C63.8195 3.18601 64.2337 1.18409 61.7831 1.18409L61.8867 0.838935H66.9605ZM73.0245 15.9223C72.99 16.0949 72.9209 16.233 72.8864 16.4056C72.4377 17.8552 72.1616 19.2013 72.0926 20.3749C73.5422 16.6127 78.2709 15.0249 81.1012 14.7488C81.9296 10.9521 82.0331 8.12177 79.4444 8.12177C76.4415 8.12177 74.3706 11.5388 73.0245 15.9223ZM81.8605 15.3701C78.8922 15.3701 72.6103 17.1649 72.3342 22.6529C72.7829 23.8955 73.7493 24.6548 75.5096 24.6548C78.478 24.6548 81.2047 22.4803 82.9305 19.4084H83.6899C81.6189 22.86 78.9267 25.3452 74.5777 25.3452C69.0552 25.3452 67.0532 21.3413 68.5719 16.4056C68.6065 16.233 68.6755 16.0949 68.71 15.9223C70.1597 11.1592 74.3361 7.43146 79.6515 7.43146C84.5182 7.43146 86.5892 10.883 85.2086 15.3701H81.8605ZM102.893 0.838935L102.79 1.18409C100.511 1.18409 99.6486 2.90988 99.2344 4.08342L98.4405 6.70662H102.513L102.375 7.18984H98.3024L95.0234 17.8897C93.7118 22.1352 94.8509 24.3442 96.6457 24.3442L96.4386 25C92.7454 25 89.7425 22.8255 90.6745 18.5455L94.1606 7.18984H91.5028L91.6409 6.70662H94.2986L95.5757 2.56473C95.9209 1.46022 96.7147 0.838935 97.8192 0.838935H102.893ZM113.212 15.3701C110.209 15.3701 103.893 17.1994 103.72 22.722C104.169 23.93 105.135 24.6548 106.861 24.6548C109.243 24.6548 111.866 22.4803 114.247 20.3749C116.111 18.6146 118.527 15.2665 119.873 11.2282C120.219 10.0892 120.633 8.08726 118.182 8.08726L118.286 7.7421H123.36C124.464 7.7421 124.878 8.36338 124.568 9.46789L123.877 11.7459L125.258 10.3998L125.879 9.84756C127.329 8.57048 128.986 7.43146 130.953 7.43146C133.576 7.18984 135.44 8.81209 134.853 12.3672C139.409 5.18793 147.797 5.74018 145.933 13.1956L143.379 21.5484C143.034 22.722 142.654 24.6548 145.07 24.6548L144.966 25H135.509L135.613 24.6548C138.063 24.6548 138.892 22.6529 139.237 21.5139L141.618 13.7133C143.31 8.22532 136.821 6.94823 133.818 15.9569L132.127 21.5484C131.781 22.722 131.402 24.6548 133.818 24.6548L133.714 25H124.257L124.361 24.6548C126.811 24.6548 127.64 22.6529 127.985 21.5139L130.366 13.7133C131.678 9.46789 128.882 8.29435 125.327 11.2282L124.395 12.0911L124.153 12.3327L123.808 12.6088L123.705 12.7124L116.18 19.4084C113.177 22.1697 110.106 25.3452 105.929 25.3452C100.407 25.3452 98.4046 21.3413 99.9233 16.4056C99.9924 16.233 100.027 16.0949 100.061 15.9223C101.546 11.1592 105.722 7.43146 111.037 7.43146C115.904 7.43146 117.941 10.883 116.56 15.3701H113.212ZM113.005 25L113.108 24.6548C115.317 24.6548 116.215 22.9981 116.629 21.8591L117.526 18.8907L123.222 13.8169L120.874 21.5139C120.529 22.6529 120.115 24.6548 122.566 24.6548L122.462 25H113.005ZM104.376 15.9223C104.341 16.0949 104.307 16.233 104.238 16.4056C103.789 17.8897 103.513 19.2359 103.444 20.4439C104.894 16.6127 109.622 15.0249 112.453 14.7488C113.315 10.9521 113.419 8.12177 110.83 8.12177C107.827 8.12177 105.722 11.5388 104.376 15.9223ZM148.446 19.9262C148.411 9.01918 155.591 16.1294 158.732 5.91276C159.387 3.70375 159.042 1.35667 155.418 1.35667C150.931 1.35667 147.548 4.32503 145.167 7.88016H144.925L148.239 0.873451H148.791L148.86 0.942483C149.309 1.49474 150.379 2.04699 151.69 1.49474C153.002 0.907968 154.348 0.597326 155.66 0.597326C160.906 0.597326 163.322 3.97987 162.183 7.7421C159.008 18.0278 148.48 11.2282 149.171 19.9262H148.446ZM147.617 25.1726C146.478 25.1726 145.857 24.2407 146.237 23.1016C146.582 21.9626 147.756 21.0652 148.895 21.0652C150.034 21.0652 150.689 21.9626 150.344 23.1016C149.965 24.2407 148.756 25.1726 147.617 25.1726Z" fill="url(#paint0_linear_832_6)"/>
</g>
<defs>
<filter id="filter0_d_832_6" x="0.585083" y="0.597321" width="162.737" height="27.7845" filterUnits="userSpaceOnUse" color-interpolation-filters="sRGB">
<feFlood flood-opacity="0" result="BackgroundImageFix"/>
<feColorMatrix in="SourceAlpha" type="matrix" values="0 0 0 0 0 0 0 0 0 0 0 0 0 0 0 0 0 0 127 0" result="hardAlpha"/>
<feOffset dx="-0.689118" dy="0.413471"/>
<feComposite in2="hardAlpha" operator="out"/>
<feColorMatrix type="matrix" values="0 0 0 0 0 0 0 0 0 0 0 0 0 0 0 0 0 0 0.5 0"/>
<feBlend mode="normal" in2="BackgroundImageFix" result="effect1_dropShadow_832_6"/>
<feBlend mode="normal" in="SourceGraphic" in2="effect1_dropShadow_832_6" result="shape"/>
</filter>
<linearGradient id="paint0_linear_832_6" x1="3" y1="11" x2="161" y2="11" gradientUnits="userSpaceOnUse">
<stop stop-color="#B78BBC"/>
<stop offset="0.5" stop-color="#472969"/>
</linearGradient>
</defs>
</svg>
