<svg width="40" height="42" viewBox="0 0 40 42" fill="none" xmlns="http://www.w3.org/2000/svg">
<path d="M17.4592 0.501419C13.8498 0.988655 10.5451 2.426 7.65451 4.74849C6.74045 5.48747 5.18576 7.07911 4.42795 8.05358C2.2717 10.8308 0.842014 14.1115 0.232639 17.6846C0.0138889 18.9514 -0.0720486 21.9966 0.0685764 23.3853C0.404514 26.6254 1.49045 29.8005 3.17795 32.4966C3.94358 33.7147 4.61545 34.5836 5.66233 35.6961C8.93576 39.188 13.0686 41.2993 17.7717 41.8677C18.8186 41.9977 21.3655 41.9733 22.4983 41.8353C28.342 41.0801 33.5608 37.6775 36.8186 32.4966C38.4592 29.8899 39.5061 26.8934 39.8811 23.7669C40.0373 22.4514 40.0373 19.8934 39.8811 18.5698C39.1623 12.5443 35.8967 7.10347 30.9748 3.74154C28.4045 1.98749 25.5451 0.89933 22.4983 0.501419C21.3108 0.355247 18.5842 0.355247 17.4592 0.501419ZM18.3108 13.3807C20.6155 16.8725 21.2873 17.8308 21.3655 17.7577C21.4201 17.709 23.092 15.7032 25.0842 13.2914L28.7092 8.90624H29.7561C30.7483 8.90624 30.7951 8.91436 30.6858 9.04429C26.553 13.9897 22.2639 19.2681 22.2951 19.3575C22.3264 19.4224 24.3811 22.5651 26.8811 26.3412C29.3733 30.1172 31.4358 33.2518 31.4592 33.3168C31.4905 33.4142 30.967 33.4304 28.1076 33.4304C24.967 33.4304 24.7014 33.4223 24.592 33.2843C24.5061 33.1868 20.2639 26.7959 18.4748 24.0674C18.3889 23.9456 17.9201 24.4815 14.4436 28.6799L10.5139 33.4304H9.50608C8.88889 33.4304 8.51389 33.398 8.52951 33.3492C8.54514 33.3086 10.5373 30.8725 12.967 27.9409C15.3967 25.0094 17.3889 22.5813 17.4045 22.5488C17.4201 22.5164 15.4201 19.4549 12.967 15.7438C10.5217 12.0408 8.51389 8.98745 8.51389 8.95496C8.51389 8.9306 10.053 8.90624 11.9358 8.90624H15.3576L18.3108 13.3807Z" fill="url(#paint0_linear_1019_318)"/>
<path d="M11.3811 10.6439C11.4123 10.7088 14.6233 15.4919 18.5139 21.2819L25.5842 31.798L27.092 31.8062C27.9123 31.8062 28.592 31.7818 28.592 31.7574C28.592 31.7331 25.3889 26.9419 21.467 21.1194L14.3498 10.5302H12.8342C11.5529 10.5302 11.3264 10.5464 11.3811 10.6439Z" fill="url(#paint1_linear_1019_318)"/>
<path d="M8.71701 9.20658C8.79514 9.33651 10.7717 12.3411 13.1233 15.8898C15.467 19.4385 17.4123 22.3863 17.4436 22.4432C17.4748 22.5 15.8186 24.5708 13.1467 27.8028C10.7483 30.7018 8.74045 33.138 8.67795 33.2111C8.57639 33.341 8.63889 33.3491 9.54514 33.3491H10.5217L14.4514 28.5986L18.3811 23.848L18.9592 24.7169C19.2795 25.2042 20.6858 27.3399 22.092 29.4675L24.6467 33.341L28.0295 33.3491C29.8811 33.3491 31.4045 33.3329 31.4045 33.3166C31.4045 33.2923 29.342 30.1577 26.8264 26.3492C24.3029 22.5406 22.2326 19.3817 22.217 19.3411C22.1936 19.2924 24.0842 16.9618 26.4045 14.152C28.7248 11.3504 30.6233 9.04417 30.6233 9.01981C30.6233 9.00357 30.1936 8.98733 29.6701 8.98733H28.7092L25.0139 13.4537C22.9826 15.9142 21.2951 17.9037 21.2639 17.8875C21.2326 17.8713 19.8889 15.8574 18.2795 13.4212L15.3498 8.98733H11.967H8.57639L8.71701 9.20658ZM21.5217 21.1033C25.4358 26.9176 28.6623 31.7169 28.6936 31.7818C28.7483 31.8712 28.4748 31.8874 27.1701 31.8874H25.5842L18.9436 22.0046C15.2951 16.572 12.0608 11.7646 11.7717 11.3261L11.2404 10.5302H12.8264H14.4123L21.5217 21.1033Z" fill="#ECECEC"/>
<defs>
<linearGradient id="paint0_linear_1019_318" x1="10" y1="1.43134" x2="32.2441" y2="38.6268" gradientUnits="userSpaceOnUse">
<stop stop-color="#462868"/>
<stop offset="1" stop-color="#B78BBC"/>
</linearGradient>
<linearGradient id="paint1_linear_1019_318" x1="15.6785" y1="11.0623" x2="27.8878" y2="28.2303" gradientUnits="userSpaceOnUse">
<stop stop-color="#462868"/>
<stop offset="1" stop-color="#B78BBC"/>
</linearGradient>
</defs>
</svg>
