<svg width="40" height="42" viewBox="0 0 40 42" fill="none" xmlns="http://www.w3.org/2000/svg">
<path d="M18.0419 0.441227C14.2528 0.839138 10.6434 2.34145 7.65126 4.75327C6.7372 5.49224 5.18251 7.08388 4.4247 8.05835C2.24501 10.8681 0.823134 14.1488 0.213759 17.7949C-0.0128038 19.1917 -0.0753038 22.2694 0.104384 23.6905C0.440321 26.3053 1.05751 28.4086 2.15907 30.658C3.08095 32.5501 4.15907 34.1011 5.65907 35.7009C8.89345 39.1521 12.87 41.2066 17.5731 41.8482C18.9325 42.0268 21.8934 41.97 23.245 41.7264C25.2919 41.3609 27.0341 40.7762 28.8622 39.8424C30.7997 38.8517 32.3622 37.7067 33.9716 36.0744C37.0731 32.9317 39.0263 29.0582 39.7684 24.5513C40.0028 23.1383 40.0575 20.158 39.8856 18.6557C39.1669 12.5572 35.9247 7.1326 30.9716 3.74631C28.4013 1.99226 25.5419 0.904102 22.495 0.506195C21.6122 0.392506 18.8544 0.351902 18.0419 0.441227ZM27.2294 13.4667C28.6981 13.7428 29.9559 14.9771 30.3466 16.5038C30.5184 17.2184 30.5184 25.1278 30.3466 25.8425C29.9559 27.3691 28.6981 28.6035 27.2294 28.8796C26.6356 28.9933 13.3934 29.0014 12.8388 28.8958C11.4169 28.6116 10.2997 27.6534 9.75282 26.2323L9.56532 25.7613L9.54188 21.4249C9.52626 18.4608 9.5497 16.9504 9.60438 16.6499C9.90907 15.1314 11.245 13.759 12.6903 13.4748C13.2606 13.3611 26.6356 13.353 27.2294 13.4667Z" fill="url(#paint0_linear_1019_292)"/>
<path d="M17.1825 21.1727C17.1825 23.0566 17.2059 24.5752 17.245 24.559C17.6825 24.3235 22.8075 21.2051 22.8075 21.1727C22.8075 21.1402 18.0731 18.2492 17.4403 17.9001L17.1825 17.762V21.1727Z" fill="url(#paint1_linear_1019_292)"/>
<defs>
<linearGradient id="paint0_linear_1019_292" x1="4" y1="2.99102" x2="35.1993" y2="34.0071" gradientUnits="userSpaceOnUse">
<stop stop-color="#462868"/>
<stop offset="1" stop-color="#B78BBC"/>
</linearGradient>
<linearGradient id="paint1_linear_1019_292" x1="17.7452" y1="18.187" x2="22.786" y2="22.4973" gradientUnits="userSpaceOnUse">
<stop stop-color="#462868"/>
<stop offset="1" stop-color="#B78BBC"/>
</linearGradient>
</defs>
</svg>
